<?xml version="1.0" standalone="no"?>
 <!DOCTYPE svg PUBLIC "-//W3C//DTD SVG 1.1//EN" 
 "http://www.w3.org/Graphics/SVG/1.1/DTD/svg11.dtd"> 
<svg xmlns="http://www.w3.org/2000/svg" version="1.1" 
    width="21.0007cm" height="29.7002cm" viewBox="0 0 82680 116930 ">
<title>SVG Picture created as pinguino-2550--brd.svg date 2014/08/15 21:16:30 </title>
  <desc>Picture generated by PCBNEW </desc>
<g style="fill:#000000; fill-opacity:1;stroke:#000000; stroke-opacity:1;
stroke-linecap:round; stroke-linejoin:round; "
 transform="translate(0 0) scale(1 1)">
</g>
<g style="fill:#000000; fill-opacity:0.0; 
stroke:#000000; stroke-width:19.685; stroke-opacity:1; 
stroke-linecap:round; stroke-linejoin:round;">
<path d="M4000 4000
L78680 4000
L78680 112930
L4000 112930
L4000 4000
" />
<path d="M4700 4700
L77980 4700
L77980 112230
L4700 112230
L4700 4700
" />
<path d="M28890 4000
L28890 4700
" />
<path d="M16592 4552
L16307 4552
" />
<path d="M16450 4552
L16450 4052
L16402 4123
L16354 4171
L16307 4195
" />
<path d="M28890 112930
L28890 112230
" />
<path d="M16592 112782
L16307 112782
" />
<path d="M16450 112782
L16450 112282
L16402 112353
L16354 112401
L16307 112425
" />
<path d="M53780 4000
L53780 4700
" />
<path d="M41197 4100
L41220 4076
L41268 4052
L41387 4052
L41435 4076
L41459 4100
L41482 4147
L41482 4195
L41459 4266
L41173 4552
L41482 4552
" />
<path d="M53780 112930
L53780 112230
" />
<path d="M41197 112330
L41220 112306
L41268 112282
L41387 112282
L41435 112306
L41459 112330
L41482 112377
L41482 112425
L41459 112496
L41173 112782
L41482 112782
" />
<path d="M66063 4052
L66372 4052
L66206 4242
L66277 4242
L66325 4266
L66349 4290
L66372 4338
L66372 4457
L66349 4504
L66325 4528
L66277 4552
L66134 4552
L66087 4528
L66063 4504
" />
<path d="M66063 112282
L66372 112282
L66206 112472
L66277 112472
L66325 112496
L66349 112520
L66372 112568
L66372 112687
L66349 112734
L66325 112758
L66277 112782
L66134 112782
L66087 112758
L66063 112734
" />
<path d="M4000 25780
L4700 25780
" />
<path d="M4230 14949
L4469 14949
" />
<path d="M4183 15092
L4350 14592
L4516 15092
" />
<path d="M78680 25780
L77980 25780
" />
<path d="M78210 14949
L78449 14949
" />
<path d="M78163 15092
L78330 14592
L78496 15092
" />
<path d="M4000 47560
L4700 47560
" />
<path d="M4385 36610
L4457 36634
L4480 36658
L4504 36705
L4504 36777
L4480 36824
L4457 36848
L4409 36872
L4219 36872
L4219 36372
L4385 36372
L4433 36396
L4457 36420
L4480 36467
L4480 36515
L4457 36562
L4433 36586
L4385 36610
L4219 36610
" />
<path d="M78680 47560
L77980 47560
" />
<path d="M78365 36610
L78437 36634
L78460 36658
L78484 36705
L78484 36777
L78460 36824
L78437 36848
L78389 36872
L78199 36872
L78199 36372
L78365 36372
L78413 36396
L78437 36420
L78460 36467
L78460 36515
L78437 36562
L78413 36586
L78365 36610
L78199 36610
" />
<path d="M4000 69340
L4700 69340
" />
<path d="M4504 58604
L4480 58628
L4409 58652
L4361 58652
L4290 58628
L4242 58580
L4219 58533
L4195 58438
L4195 58366
L4219 58271
L4242 58223
L4290 58176
L4361 58152
L4409 58152
L4480 58176
L4504 58200
" />
<path d="M78680 69340
L77980 69340
" />
<path d="M78484 58604
L78460 58628
L78389 58652
L78341 58652
L78270 58628
L78222 58580
L78199 58533
L78175 58438
L78175 58366
L78199 58271
L78222 58223
L78270 58176
L78341 58152
L78389 58152
L78460 58176
L78484 58200
" />
<path d="M4000 91120
L4700 91120
" />
<path d="M4219 80432
L4219 79932
L4338 79932
L4409 79956
L4457 80003
L4480 80051
L4504 80146
L4504 80218
L4480 80313
L4457 80360
L4409 80408
L4338 80432
L4219 80432
" />
<path d="M78680 91120
L77980 91120
" />
<path d="M78199 80432
L78199 79932
L78318 79932
L78389 79956
L78437 80003
L78460 80051
L78484 80146
L78484 80218
L78460 80313
L78437 80360
L78389 80408
L78318 80432
L78199 80432
" />
<path d="M4242 101950
L4409 101950
" />
<path d="M4480 102212
L4242 102212
L4242 101712
L4480 101712
" />
<path d="M78222 101950
L78389 101950
" />
<path d="M78460 102212
L78222 102212
L78222 101712
L78460 101712
" />
<path d="M45130 110672
L45205 110072
L45347 110072
L45430 110101
L45480 110158
L45501 110215
L45515 110330
L45505 110415
L45462 110530
L45426 110587
L45362 110644
L45272 110672
L45130 110672
" />
<path d="M45987 110672
L46026 110358
L46005 110301
L45951 110272
L45837 110272
L45776 110301
" />
<path d="M45990 110644
L45930 110672
L45787 110672
L45733 110644
L45712 110587
L45719 110530
L45755 110472
L45815 110444
L45958 110444
L46019 110415
" />
<path d="M46237 110272
L46465 110272
" />
<path d="M46347 110072
L46283 110587
L46305 110644
L46358 110672
L46415 110672
" />
<path d="M46847 110644
L46787 110672
L46672 110672
L46619 110644
L46597 110587
L46626 110358
L46662 110301
L46722 110272
L46837 110272
L46890 110301
L46912 110358
L46905 110415
L46612 110472
" />
<path d="M47137 110615
L47162 110644
L47130 110672
L47105 110644
L47137 110615
L47130 110672
" />
<path d="M47176 110301
L47201 110330
L47169 110358
L47144 110330
L47176 110301
L47169 110358
" />
<path d="M48187 110672
L47844 110672
" />
<path d="M48015 110672
L48090 110072
L48022 110158
L47958 110215
L47897 110244
" />
<path d="M48776 110072
L48662 110072
L48601 110101
L48569 110130
L48501 110215
L48458 110330
L48430 110558
L48451 110615
L48476 110644
L48530 110672
L48644 110672
L48705 110644
L48737 110615
L48772 110558
L48790 110415
L48769 110358
L48744 110330
L48690 110301
L48576 110301
L48515 110330
L48483 110358
L48447 110415
" />
<path d="M49730 110672
L49769 110358
L49747 110301
L49694 110272
L49580 110272
L49519 110301
" />
<path d="M49733 110644
L49672 110672
L49530 110672
L49476 110644
L49455 110587
L49462 110530
L49497 110472
L49558 110444
L49701 110444
L49762 110415
" />
<path d="M50322 110272
L50272 110672
" />
<path d="M50065 110272
L50026 110587
L50047 110644
L50101 110672
L50187 110672
L50247 110644
L50280 110615
" />
<path d="M50865 110272
L50805 110758
L50769 110815
L50737 110844
L50676 110872
L50590 110872
L50537 110844
" />
<path d="M50819 110644
L50758 110672
L50644 110672
L50590 110644
L50565 110615
L50544 110558
L50565 110387
L50601 110330
L50633 110301
L50694 110272
L50808 110272
L50862 110301
" />
<path d="M51597 110130
L51630 110101
L51690 110072
L51833 110072
L51887 110101
L51912 110130
L51933 110187
L51926 110244
L51887 110330
L51501 110672
L51872 110672
" />
<path d="M52319 110072
L52376 110072
L52430 110101
L52455 110130
L52476 110187
L52490 110301
L52472 110444
L52430 110558
L52394 110615
L52362 110644
L52301 110672
L52244 110672
L52190 110644
L52165 110615
L52144 110558
L52130 110444
L52147 110301
L52190 110187
L52226 110130
L52258 110101
L52319 110072
" />
<path d="M53015 110672
L52672 110672
" />
<path d="M52844 110672
L52919 110072
L52851 110158
L52787 110215
L52726 110244
" />
<path d="M53580 110272
L53530 110672
" />
<path d="M53465 110044
L53269 110472
L53640 110472
" />
<path d="M36722 111872
L36722 111272
" />
<path d="M37065 111872
L36808 111530
" />
<path d="M37065 111272
L36722 111615
" />
<path d="M37322 111872
L37322 111472
" />
<path d="M37322 111272
L37294 111301
L37322 111330
L37351 111301
L37322 111272
L37322 111330
" />
<path d="M37951 111815
L37922 111844
L37837 111872
L37780 111872
L37694 111844
L37637 111787
L37608 111730
L37580 111615
L37580 111530
L37608 111415
L37637 111358
L37694 111301
L37780 111272
L37837 111272
L37922 111301
L37951 111330
" />
<path d="M38465 111872
L38465 111558
L38437 111501
L38380 111472
L38265 111472
L38208 111501
" />
<path d="M38465 111844
L38408 111872
L38265 111872
L38208 111844
L38180 111787
L38180 111730
L38208 111672
L38265 111644
L38408 111644
L38465 111615
" />
<path d="M39008 111872
L39008 111272
" />
<path d="M39008 111844
L38951 111872
L38837 111872
L38780 111844
L38751 111815
L38722 111758
L38722 111587
L38751 111530
L38780 111501
L38837 111472
L38951 111472
L39008 111501
" />
<path d="M39751 111558
L39951 111558
" />
<path d="M40037 111872
L39751 111872
L39751 111272
L40037 111272
" />
<path d="M40294 111815
L40322 111844
L40294 111872
L40265 111844
L40294 111815
L40294 111872
" />
<path d="M40579 111872
L40579 111272
L40722 111272
L40808 111301
L40865 111358
L40894 111415
L40922 111530
L40922 111615
L40894 111730
L40865 111787
L40808 111844
L40722 111872
L40579 111872
" />
<path d="M41179 111815
L41208 111844
L41179 111872
L41151 111844
L41179 111815
L41179 111872
" />
<path d="M41437 111701
L41722 111701
" />
<path d="M41379 111872
L41579 111272
L41779 111872
" />
<path d="M41979 111815
L42008 111844
L41979 111872
L41951 111844
L41979 111815
L41979 111872
" />
<path d="M70272 110672
L70108 110387
" />
<path d="M69930 110672
L70005 110072
L70233 110072
L70287 110101
L70312 110130
L70333 110187
L70322 110272
L70287 110330
L70255 110358
L70194 110387
L69965 110387
" />
<path d="M70762 110644
L70701 110672
L70587 110672
L70533 110644
L70512 110587
L70540 110358
L70576 110301
L70637 110272
L70751 110272
L70805 110301
L70826 110358
L70819 110415
L70526 110472
" />
<path d="M71037 110272
L71130 110672
L71322 110272
" />
<path d="M71508 110615
L71533 110644
L71501 110672
L71476 110644
L71508 110615
L71501 110672
" />
<path d="M71547 110301
L71572 110330
L71540 110358
L71515 110330
L71547 110301
L71540 110358
" />
<path d="M72283 110130
L72315 110101
L72376 110072
L72519 110072
L72572 110101
L72597 110130
L72619 110187
L72612 110244
L72572 110330
L72187 110672
L72558 110672
" />
<path d="M72822 110615
L72847 110644
L72815 110672
L72790 110644
L72822 110615
L72815 110672
" />
<path d="M73290 110072
L73347 110072
L73401 110101
L73426 110130
L73447 110187
L73462 110301
L73444 110444
L73401 110558
L73365 110615
L73333 110644
L73272 110672
L73215 110672
L73162 110644
L73137 110615
L73115 110558
L73101 110444
L73119 110301
L73162 110187
L73197 110130
L73230 110101
L73290 110072
" />
<path d="M36694 110644
L36780 110672
L36922 110672
L36980 110644
L37008 110615
L37037 110558
L37037 110501
L37008 110444
L36980 110415
L36922 110387
L36808 110358
L36751 110330
L36722 110301
L36694 110244
L36694 110187
L36722 110130
L36751 110101
L36808 110072
L36951 110072
L37037 110101
" />
<path d="M37294 110672
L37294 110272
" />
<path d="M37294 110072
L37265 110101
L37294 110130
L37322 110101
L37294 110072
L37294 110130
" />
<path d="M37522 110272
L37837 110272
L37522 110672
L37837 110672
" />
<path d="M38294 110644
L38237 110672
L38122 110672
L38065 110644
L38037 110587
L38037 110358
L38065 110301
L38122 110272
L38237 110272
L38294 110301
L38322 110358
L38322 110415
L38037 110472
" />
<path d="M38580 110615
L38608 110644
L38580 110672
L38551 110644
L38580 110615
L38580 110672
" />
<path d="M38580 110301
L38608 110330
L38580 110358
L38551 110330
L38580 110301
L38580 110358
" />
<path d="M39322 110072
L39322 110558
L39351 110615
L39380 110644
L39437 110672
L39551 110672
L39608 110644
L39637 110615
L39665 110558
L39665 110072
" />
<path d="M39922 110644
L39980 110672
L40094 110672
L40151 110644
L40180 110587
L40180 110558
L40151 110501
L40094 110472
L40008 110472
L39951 110444
L39922 110387
L39922 110358
L39951 110301
L40008 110272
L40094 110272
L40151 110301
" />
<path d="M40665 110644
L40608 110672
L40494 110672
L40437 110644
L40408 110587
L40408 110358
L40437 110301
L40494 110272
L40608 110272
L40665 110301
L40694 110358
L40694 110415
L40408 110472
" />
<path d="M40951 110672
L40951 110272
" />
<path d="M40951 110387
L40980 110330
L41008 110301
L41065 110272
L41122 110272
" />
<path d="M69922 111872
L69922 111272
" />
<path d="M70465 111872
L70465 111272
" />
<path d="M70465 111844
L70408 111872
L70294 111872
L70237 111844
L70208 111815
L70180 111758
L70180 111587
L70208 111530
L70237 111501
L70294 111472
L70408 111472
L70465 111501
" />
<path d="M70751 111815
L70780 111844
L70751 111872
L70722 111844
L70751 111815
L70751 111872
" />
<path d="M70751 111501
L70780 111530
L70751 111558
L70722 111530
L70751 111501
L70751 111558
" />
<path d="M71808 111872
L71465 111872
" />
<path d="M71637 111872
L71637 111272
L71579 111358
L71522 111415
L71465 111444
" />
<path d="M72494 111244
L71980 112015
" />
<path d="M73008 111872
L72665 111872
" />
<path d="M72837 111872
L72837 111272
L72779 111358
L72722 111415
L72665 111444
" />
<path d="M36719 108872
L37062 108872
" />
<path d="M36815 109472
L36890 108872
" />
<path d="M37187 109472
L37237 109072
" />
<path d="M37262 108872
L37230 108901
L37255 108930
L37287 108901
L37262 108872
L37255 108930
" />
<path d="M37437 109072
L37665 109072
" />
<path d="M37547 108872
L37483 109387
L37505 109444
L37558 109472
L37615 109472
" />
<path d="M37901 109472
L37847 109444
L37826 109387
L37890 108872
" />
<path d="M38362 109444
L38301 109472
L38187 109472
L38133 109444
L38112 109387
L38140 109158
L38176 109101
L38237 109072
L38351 109072
L38405 109101
L38426 109158
L38419 109215
L38126 109272
" />
<path d="M38651 109415
L38676 109444
L38644 109472
L38619 109444
L38651 109415
L38644 109472
" />
<path d="M38690 109101
L38715 109130
L38683 109158
L38658 109130
L38690 109101
L38683 109158
" />
<path d="M39387 109472
L39462 108872
L39690 108872
L39744 108901
L39769 108930
L39790 108987
L39780 109072
L39744 109130
L39712 109158
L39651 109187
L39422 109187
" />
<path d="M39987 109472
L40037 109072
" />
<path d="M40062 108872
L40030 108901
L40055 108930
L40087 108901
L40062 108872
L40055 108930
" />
<path d="M40322 109072
L40272 109472
" />
<path d="M40315 109130
L40347 109101
L40408 109072
L40494 109072
L40547 109101
L40569 109158
L40530 109472
" />
<path d="M41122 109072
L41062 109558
L41026 109615
L40994 109644
L40933 109672
L40847 109672
L40794 109644
" />
<path d="M41076 109444
L41015 109472
L40901 109472
L40847 109444
L40822 109415
L40801 109358
L40822 109187
L40858 109130
L40890 109101
L40951 109072
L41065 109072
L41119 109101
" />
<path d="M41665 109072
L41615 109472
" />
<path d="M41408 109072
L41369 109387
L41390 109444
L41444 109472
L41530 109472
L41590 109444
L41622 109415
" />
<path d="M41901 109472
L41951 109072
" />
<path d="M41976 108872
L41944 108901
L41969 108930
L42001 108901
L41976 108872
L41969 108930
" />
<path d="M42237 109072
L42187 109472
" />
<path d="M42229 109130
L42262 109101
L42322 109072
L42408 109072
L42462 109101
L42483 109158
L42444 109472
" />
<path d="M42815 109472
L42762 109444
L42737 109415
L42715 109358
L42737 109187
L42772 109130
L42804 109101
L42865 109072
L42951 109072
L43004 109101
L43029 109130
L43051 109187
L43029 109358
L42994 109415
L42962 109444
L42901 109472
L42815 109472
" />
<path d="M43769 108930
L43801 108901
L43862 108872
L44004 108872
L44058 108901
L44083 108930
L44104 108987
L44097 109044
L44058 109130
L43672 109472
L44044 109472
" />
<path d="M44662 108872
L44376 108872
L44312 109158
L44344 109130
L44404 109101
L44547 109101
L44601 109130
L44626 109158
L44647 109215
L44630 109358
L44594 109415
L44562 109444
L44501 109472
L44358 109472
L44304 109444
L44280 109415
" />
<path d="M45233 108872
L44947 108872
L44883 109158
L44915 109130
L44976 109101
L45119 109101
L45172 109130
L45197 109158
L45219 109215
L45201 109358
L45165 109415
L45133 109444
L45072 109472
L44930 109472
L44876 109444
L44851 109415
" />
<path d="M45633 108872
L45690 108872
L45744 108901
L45769 108930
L45790 108987
L45805 109101
L45787 109244
L45744 109358
L45708 109415
L45676 109444
L45615 109472
L45558 109472
L45505 109444
L45480 109415
L45458 109358
L45444 109244
L45462 109101
L45505 108987
L45540 108930
L45572 108901
L45633 108872
" />
<path d="M36922 106758
L36722 106758
" />
<path d="M36722 107072
L36722 106472
L37008 106472
" />
<path d="M37237 107072
L37237 106672
" />
<path d="M37237 106472
L37208 106501
L37237 106530
L37265 106501
L37237 106472
L37237 106530
" />
<path d="M37608 107072
L37551 107044
L37522 106987
L37522 106472
" />
<path d="M38065 107044
L38008 107072
L37894 107072
L37837 107044
L37808 106987
L37808 106758
L37837 106701
L37894 106672
L38008 106672
L38065 106701
L38094 106758
L38094 106815
L37808 106872
" />
<path d="M38351 107015
L38380 107044
L38351 107072
L38322 107044
L38351 107015
L38351 107072
" />
<path d="M38351 106701
L38380 106730
L38351 106758
L38322 106730
L38351 106701
L38351 106758
" />
<path d="M39094 106672
L39094 107272
" />
<path d="M39094 106701
L39151 106672
L39265 106672
L39322 106701
L39351 106730
L39380 106787
L39380 106958
L39351 107015
L39322 107044
L39265 107072
L39151 107072
L39094 107044
" />
<path d="M39637 107072
L39637 106672
" />
<path d="M39637 106472
L39608 106501
L39637 106530
L39665 106501
L39637 106472
L39637 106530
" />
<path d="M39922 106672
L39922 107072
" />
<path d="M39922 106730
L39951 106701
L40008 106672
L40094 106672
L40151 106701
L40180 106758
L40180 107072
" />
<path d="M40722 106672
L40722 107158
L40694 107215
L40665 107244
L40608 107272
L40522 107272
L40465 107244
" />
<path d="M40722 107044
L40665 107072
L40551 107072
L40494 107044
L40465 107015
L40437 106958
L40437 106787
L40465 106730
L40494 106701
L40551 106672
L40665 106672
L40722 106701
" />
<path d="M41265 106672
L41265 107072
" />
<path d="M41008 106672
L41008 106987
L41037 107044
L41094 107072
L41180 107072
L41237 107044
L41265 107015
" />
<path d="M41551 107072
L41551 106672
" />
<path d="M41551 106472
L41522 106501
L41551 106530
L41580 106501
L41551 106472
L41551 106530
" />
<path d="M41837 106672
L41837 107072
" />
<path d="M41837 106730
L41865 106701
L41922 106672
L42008 106672
L42065 106701
L42094 106758
L42094 107072
" />
<path d="M42465 107072
L42408 107044
L42379 107015
L42351 106958
L42351 106787
L42379 106730
L42408 106701
L42465 106672
L42551 106672
L42608 106701
L42637 106730
L42665 106787
L42665 106958
L42637 107015
L42608 107044
L42551 107072
L42465 107072
" />
<path d="M42922 106844
L43379 106844
" />
<path d="M43637 106530
L43665 106501
L43722 106472
L43865 106472
L43922 106501
L43951 106530
L43979 106587
L43979 106644
L43951 106730
L43608 107072
L43979 107072
" />
<path d="M44522 106472
L44237 106472
L44208 106758
L44237 106730
L44294 106701
L44437 106701
L44494 106730
L44522 106758
L44551 106815
L44551 106958
L44522 107015
L44494 107044
L44437 107072
L44294 107072
L44237 107044
L44208 107015
" />
<path d="M45094 106472
L44808 106472
L44780 106758
L44808 106730
L44865 106701
L45008 106701
L45065 106730
L45094 106758
L45122 106815
L45122 106958
L45094 107015
L45065 107044
L45008 107072
L44865 107072
L44808 107044
L44780 107015
" />
<path d="M45494 106472
L45551 106472
L45608 106501
L45637 106530
L45665 106587
L45694 106701
L45694 106844
L45665 106958
L45637 107015
L45608 107044
L45551 107072
L45494 107072
L45437 107044
L45408 107015
L45380 106958
L45351 106844
L45351 106701
L45380 106587
L45408 106530
L45437 106501
L45494 106472
" />
<path d="M45951 107015
L45980 107044
L45951 107072
L45922 107044
L45951 107015
L45951 107072
" />
<path d="M46237 107072
L46237 106472
" />
<path d="M46294 106844
L46465 107072
" />
<path d="M46465 106672
L46237 106901
" />
<path d="M46722 107072
L46722 106672
" />
<path d="M46722 106472
L46694 106501
L46722 106530
L46751 106501
L46722 106472
L46722 106530
" />
<path d="M47265 107044
L47208 107072
L47094 107072
L47037 107044
L47008 107015
L46980 106958
L46980 106787
L47008 106730
L47037 106701
L47094 106672
L47208 106672
L47265 106701
" />
<path d="M47780 107072
L47780 106758
L47751 106701
L47694 106672
L47580 106672
L47522 106701
" />
<path d="M47780 107044
L47722 107072
L47580 107072
L47522 107044
L47494 106987
L47494 106930
L47522 106872
L47580 106844
L47722 106844
L47780 106815
" />
<path d="M48322 107072
L48322 106472
" />
<path d="M48322 107044
L48265 107072
L48151 107072
L48094 107044
L48065 107015
L48037 106958
L48037 106787
L48065 106730
L48094 106701
L48151 106672
L48265 106672
L48322 106701
" />
<path d="M48465 107130
L48922 107130
" />
<path d="M49065 106672
L49065 107272
" />
<path d="M49065 106701
L49122 106672
L49237 106672
L49294 106701
L49322 106730
L49351 106787
L49351 106958
L49322 107015
L49294 107044
L49237 107072
L49122 107072
L49065 107044
" />
<path d="M49865 107044
L49808 107072
L49694 107072
L49637 107044
L49608 107015
L49580 106958
L49580 106787
L49608 106730
L49637 106701
L49694 106672
L49808 106672
L49865 106701
" />
<path d="M50122 107072
L50122 106472
" />
<path d="M50122 106701
L50180 106672
L50294 106672
L50351 106701
L50380 106730
L50408 106787
L50408 106958
L50380 107015
L50351 107044
L50294 107072
L50180 107072
L50122 107044
" />
<path d="M36694 108244
L36780 108272
L36922 108272
L36980 108244
L37008 108215
L37037 108158
L37037 108101
L37008 108044
L36980 108015
L36922 107987
L36808 107958
L36751 107930
L36722 107901
L36694 107844
L36694 107787
L36722 107730
L36751 107701
L36808 107672
L36951 107672
L37037 107701
" />
<path d="M37294 108272
L37294 107672
" />
<path d="M37551 108272
L37551 107958
L37522 107901
L37465 107872
L37380 107872
L37322 107901
L37294 107930
" />
<path d="M38065 108244
L38008 108272
L37894 108272
L37837 108244
L37808 108187
L37808 107958
L37837 107901
L37894 107872
L38008 107872
L38065 107901
L38094 107958
L38094 108015
L37808 108072
" />
<path d="M38580 108244
L38522 108272
L38408 108272
L38351 108244
L38322 108187
L38322 107958
L38351 107901
L38408 107872
L38522 107872
L38580 107901
L38608 107958
L38608 108015
L38322 108072
" />
<path d="M38780 107872
L39008 107872
" />
<path d="M38865 107672
L38865 108187
L38894 108244
L38951 108272
L39008 108272
" />
<path d="M39208 108215
L39237 108244
L39208 108272
L39180 108244
L39208 108215
L39208 108272
" />
<path d="M39208 107901
L39237 107930
L39208 107958
L39180 107930
L39208 107901
L39208 107958
" />
<path d="M36769 105558
L36969 105558
" />
<path d="M37015 105872
L36730 105872
L36805 105272
L37090 105272
" />
<path d="M37280 105815
L37305 105844
L37272 105872
L37247 105844
L37280 105815
L37272 105872
" />
<path d="M37597 105558
L37797 105558
" />
<path d="M37844 105872
L37558 105872
L37633 105272
L37919 105272
" />
<path d="M38108 105815
L38133 105844
L38101 105872
L38076 105844
L38108 105815
L38101 105872
" />
<path d="M38376 105272
L38719 105272
" />
<path d="M38472 105872
L38547 105272
" />
<path d="M38851 105815
L38876 105844
L38844 105872
L38819 105844
L38851 105815
L38844 105872
" />
<path d="M39587 105872
L39662 105272
L39929 105872
L40004 105272
" />
<path d="M40215 105872
L40265 105472
" />
<path d="M40251 105587
L40287 105530
L40319 105501
L40379 105472
L40437 105472
" />
<path d="M40672 105872
L40619 105844
L40594 105815
L40572 105758
L40594 105587
L40629 105530
L40662 105501
L40722 105472
L40808 105472
L40862 105501
L40887 105530
L40908 105587
L40887 105758
L40851 105815
L40819 105844
L40758 105872
L40672 105872
" />
<path d="M41137 105815
L41162 105844
L41129 105872
L41104 105844
L41137 105815
L41129 105872
" />
<path d="M41433 105272
L41833 105272
L41501 105872
" />
<path d="M42472 105644
L42929 105644
" />
<path d="M43883 105558
L43965 105587
L43990 105615
L44012 105672
L44001 105758
L43965 105815
L43933 105844
L43872 105872
L43644 105872
L43719 105272
L43919 105272
L43972 105301
L43997 105330
L44019 105387
L44012 105444
L43976 105501
L43944 105530
L43883 105558
L43683 105558
" />
<path d="M44501 105872
L44540 105558
L44519 105501
L44465 105472
L44351 105472
L44290 105501
" />
<path d="M44504 105844
L44444 105872
L44301 105872
L44247 105844
L44226 105787
L44233 105730
L44269 105672
L44329 105644
L44472 105644
L44533 105615
" />
<path d="M44837 105472
L44787 105872
" />
<path d="M44829 105530
L44862 105501
L44922 105472
L45008 105472
L45062 105501
L45083 105558
L45044 105872
" />
<path d="M45294 105472
L45522 105472
" />
<path d="M45329 105872
L45394 105358
L45429 105301
L45490 105272
L45547 105272
" />
<path d="M45672 105872
L45722 105472
" />
<path d="M45747 105272
L45715 105301
L45740 105330
L45772 105301
L45747 105272
L45740 105330
" />
<path d="M46190 105844
L46129 105872
L46015 105872
L45962 105844
L45940 105787
L45969 105558
L46004 105501
L46065 105472
L46179 105472
L46233 105501
L46254 105558
L46247 105615
L45954 105672
" />
<path d="M46558 105872
L46504 105844
L46483 105787
L46547 105272
" />
<path d="M47044 105872
L47119 105272
" />
<path d="M47047 105844
L46987 105872
L46872 105872
L46819 105844
L46794 105815
L46772 105758
L46794 105587
L46829 105530
L46862 105501
L46922 105472
L47037 105472
L47090 105501
" />
<path d="M36722 104672
L36722 104072
L36951 104072
L37008 104101
L37037 104130
L37065 104187
L37065 104272
L37037 104330
L37008 104358
L36951 104387
L36722 104387
" />
<path d="M37322 104672
L37322 104272
" />
<path d="M37322 104387
L37351 104330
L37380 104301
L37437 104272
L37494 104272
" />
<path d="M37780 104672
L37722 104644
L37694 104615
L37665 104558
L37665 104387
L37694 104330
L37722 104301
L37780 104272
L37865 104272
L37922 104301
L37951 104330
L37980 104387
L37980 104558
L37951 104615
L37922 104644
L37865 104672
L37780 104672
" />
<path d="M38151 104272
L38380 104272
" />
<path d="M38237 104672
L38237 104158
L38265 104101
L38322 104072
L38380 104072
" />
<path d="M38580 104615
L38608 104644
L38580 104672
L38551 104644
L38580 104615
L38580 104672
" />
<path d="M39237 104072
L39437 104672
L39637 104072
" />
<path d="M39837 104672
L39837 104272
" />
<path d="M39837 104072
L39808 104101
L39837 104130
L39865 104101
L39837 104072
L39837 104130
" />
<path d="M40380 104644
L40322 104672
L40208 104672
L40151 104644
L40122 104615
L40094 104558
L40094 104387
L40122 104330
L40151 104301
L40208 104272
L40322 104272
L40380 104301
" />
<path d="M40551 104272
L40780 104272
" />
<path d="M40637 104072
L40637 104587
L40665 104644
L40722 104672
L40780 104672
" />
<path d="M41065 104672
L41008 104644
L40980 104615
L40951 104558
L40951 104387
L40980 104330
L41008 104301
L41065 104272
L41151 104272
L41208 104301
L41237 104330
L41265 104387
L41265 104558
L41237 104615
L41208 104644
L41151 104672
L41065 104672
" />
<path d="M41522 104672
L41522 104272
" />
<path d="M41522 104387
L41551 104330
L41580 104301
L41637 104272
L41694 104272
" />
<path d="M42265 104072
L42465 104672
L42665 104072
" />
<path d="M42865 104672
L42865 104272
" />
<path d="M42865 104072
L42837 104101
L42865 104130
L42894 104101
L42865 104072
L42865 104130
" />
<path d="M43237 104672
L43180 104644
L43151 104587
L43151 104072
" />
<path d="M43551 104672
L43494 104644
L43465 104587
L43465 104072
" />
<path d="M44037 104672
L44037 104358
L44008 104301
L43951 104272
L43837 104272
L43780 104301
" />
<path d="M44037 104644
L43980 104672
L43837 104672
L43780 104644
L43751 104587
L43751 104530
L43780 104472
L43837 104444
L43980 104444
L44037 104415
" />
<path d="M44322 104672
L44322 104272
" />
<path d="M44322 104387
L44351 104330
L44380 104301
L44437 104272
L44494 104272
" />
<path d="M44694 104672
L44694 104272
" />
<path d="M44694 104387
L44722 104330
L44751 104301
L44808 104272
L44865 104272
" />
<path d="M45294 104644
L45237 104672
L45122 104672
L45065 104644
L45037 104587
L45037 104358
L45065 104301
L45122 104272
L45237 104272
L45294 104301
L45322 104358
L45322 104415
L45037 104472
" />
<path d="M45837 104672
L45837 104358
L45808 104301
L45751 104272
L45637 104272
L45580 104301
" />
<path d="M45837 104644
L45780 104672
L45637 104672
L45580 104644
L45551 104587
L45551 104530
L45580 104472
L45637 104444
L45780 104444
L45837 104415
" />
<path d="M46208 104672
L46151 104644
L46122 104587
L46122 104072
" />
<path d="M36722 103472
L36722 102872
L36951 102872
L37008 102901
L37037 102930
L37065 102987
L37065 103072
L37037 103130
L37008 103158
L36951 103187
L36722 103187
" />
<path d="M37408 103472
L37351 103444
L37322 103387
L37322 102872
" />
<path d="M37894 103472
L37894 103158
L37865 103101
L37808 103072
L37694 103072
L37637 103101
" />
<path d="M37894 103444
L37837 103472
L37694 103472
L37637 103444
L37608 103387
L37608 103330
L37637 103272
L37694 103244
L37837 103244
L37894 103215
" />
<path d="M38437 103444
L38380 103472
L38265 103472
L38208 103444
L38180 103415
L38151 103358
L38151 103187
L38180 103130
L38208 103101
L38265 103072
L38380 103072
L38437 103101
" />
<path d="M38951 103472
L38951 103158
L38922 103101
L38865 103072
L38751 103072
L38694 103101
" />
<path d="M38951 103444
L38894 103472
L38751 103472
L38694 103444
L38665 103387
L38665 103330
L38694 103272
L38751 103244
L38894 103244
L38951 103215
" />
<path d="M39694 103472
L39694 102872
L39922 102872
L39980 102901
L40008 102930
L40037 102987
L40037 103072
L40008 103130
L39980 103158
L39922 103187
L39694 103187
" />
<path d="M40294 103472
L40294 103072
" />
<path d="M40294 102872
L40265 102901
L40294 102930
L40322 102901
L40294 102872
L40294 102930
" />
<path d="M40580 103072
L40580 103472
" />
<path d="M40580 103130
L40608 103101
L40665 103072
L40751 103072
L40808 103101
L40837 103158
L40837 103472
" />
<path d="M41380 103072
L41380 103558
L41351 103615
L41322 103644
L41265 103672
L41180 103672
L41122 103644
" />
<path d="M41380 103444
L41322 103472
L41208 103472
L41151 103444
L41122 103415
L41094 103358
L41094 103187
L41122 103130
L41151 103101
L41208 103072
L41322 103072
L41380 103101
" />
<path d="M41922 103072
L41922 103472
" />
<path d="M41665 103072
L41665 103387
L41694 103444
L41751 103472
L41837 103472
L41894 103444
L41922 103415
" />
<path d="M42208 103472
L42208 103072
" />
<path d="M42208 102872
L42180 102901
L42208 102930
L42237 102901
L42208 102872
L42208 102930
" />
<path d="M42494 103072
L42494 103472
" />
<path d="M42494 103130
L42522 103101
L42579 103072
L42665 103072
L42722 103101
L42751 103158
L42751 103472
" />
<path d="M43122 103472
L43065 103444
L43037 103415
L43008 103358
L43008 103187
L43037 103130
L43065 103101
L43122 103072
L43208 103072
L43265 103101
L43294 103130
L43322 103187
L43322 103358
L43294 103415
L43265 103444
L43208 103472
L43122 103472
" />
<path d="M44351 103472
L44008 103472
" />
<path d="M44179 103472
L44179 102872
L44122 102958
L44065 103015
L44008 103044
" />
<path d="M44694 103130
L44637 103101
L44608 103072
L44580 103015
L44580 102987
L44608 102930
L44637 102901
L44694 102872
L44808 102872
L44865 102901
L44894 102930
L44922 102987
L44922 103015
L44894 103072
L44865 103101
L44808 103130
L44694 103130
L44637 103158
L44608 103187
L44580 103244
L44580 103358
L44608 103415
L44637 103444
L44694 103472
L44808 103472
L44865 103444
L44894 103415
L44922 103358
L44922 103244
L44894 103187
L44865 103158
L44808 103130
" />
<path d="M45380 103158
L45180 103158
" />
<path d="M45180 103472
L45180 102872
L45465 102872
" />
<path d="M45665 102930
L45694 102901
L45751 102872
L45894 102872
L45951 102901
L45980 102930
L46008 102987
L46008 103044
L45980 103130
L45637 103472
L46008 103472
" />
<path d="M46551 102872
L46265 102872
L46237 103158
L46265 103130
L46322 103101
L46465 103101
L46522 103130
L46551 103158
L46580 103215
L46580 103358
L46551 103415
L46522 103444
L46465 103472
L46322 103472
L46265 103444
L46237 103415
" />
<path d="M47122 102872
L46837 102872
L46808 103158
L46837 103130
L46894 103101
L47037 103101
L47094 103130
L47122 103158
L47151 103215
L47151 103358
L47122 103415
L47094 103444
L47037 103472
L46894 103472
L46837 103444
L46808 103415
" />
<path d="M47522 102872
L47580 102872
L47637 102901
L47665 102930
L47694 102987
L47722 103101
L47722 103244
L47694 103358
L47665 103415
L47637 103444
L47580 103472
L47522 103472
L47465 103444
L47437 103415
L47408 103358
L47380 103244
L47380 103101
L47408 102987
L47437 102930
L47465 102901
L47522 102872
" />
<path d="M48380 103072
L48522 103472
L48665 103072
" />
<path d="M48865 102930
L48894 102901
L48951 102872
L49094 102872
L49151 102901
L49180 102930
L49208 102987
L49208 103044
L49180 103130
L48837 103472
L49208 103472
" />
<path d="M35980 102630
L35980 112230
" />
<path d="M35980 106230
L77980 106230
" />
<path d="M35980 102630
L77980 102630
" />
<path d="M35980 108630
L77980 108630
" />
<path d="M69180 109830
L69180 112230
" />
<path d="M35980 111030
L77980 111030
" />
<path d="M35980 109830
L77980 109830
" />
<path d="M42580 109830
L42580 111030
" />
</g>
<g style="fill:#000000; fill-opacity:0.0; 
stroke:#000000; stroke-width:98.4252; stroke-opacity:1; 
stroke-linecap:round; stroke-linejoin:round;">
<path d="M21691 25149
L21691 25074
L21672 25037
L21634 25000
L21559 24981
L21428 24981
L21353 25000
L21316 25037
L21297 25074
L21297 25149
L21316 25187
L21353 25224
L21428 25243
L21559 25243
L21634 25224
L21672 25187
L21691 25149
" />
<path d="M21559 24812
L21166 24812
" />
<path d="M21541 24812
L21559 24775
L21559 24700
L21541 24662
L21522 24643
L21484 24625
L21372 24625
L21334 24643
L21316 24662
L21297 24700
L21297 24775
L21316 24812
" />
<path d="M21316 24306
L21297 24343
L21297 24418
L21316 24456
L21353 24475
L21503 24475
L21541 24456
L21559 24418
L21559 24343
L21541 24306
L21503 24287
L21466 24287
L21428 24475
" />
<path d="M21559 24118
L21297 24118
" />
<path d="M21522 24118
L21541 24100
L21559 24062
L21559 24006
L21541 23968
L21503 23950
L21297 23950
" />
<path d="M21297 23762
L21691 23762
" />
<path d="M21503 23762
L21503 23537
" />
<path d="M21297 23537
L21691 23537
" />
<path d="M21297 23181
L21503 23181
L21541 23200
L21559 23237
L21559 23312
L21541 23350
" />
<path d="M21316 23181
L21297 23218
L21297 23312
L21316 23350
L21353 23368
L21391 23368
L21428 23350
L21447 23312
L21447 23218
L21466 23181
" />
<path d="M21297 22994
L21559 22994
" />
<path d="M21484 22994
L21522 22975
L21541 22956
L21559 22919
L21559 22881
" />
<path d="M21297 22581
L21691 22581
" />
<path d="M21316 22581
L21297 22619
L21297 22694
L21316 22731
L21334 22750
L21372 22769
L21484 22769
L21522 22750
L21541 22731
L21559 22694
L21559 22619
L21541 22581
" />
<path d="M21559 22431
L21297 22356
L21484 22281
L21297 22206
L21559 22131
" />
<path d="M21297 21812
L21503 21812
L21541 21831
L21559 21869
L21559 21944
L21541 21981
" />
<path d="M21316 21812
L21297 21850
L21297 21944
L21316 21981
L21353 22000
L21391 22000
L21428 21981
L21447 21944
L21447 21850
L21466 21812
" />
<path d="M21297 21625
L21559 21625
" />
<path d="M21484 21625
L21522 21606
L21541 21587
L21559 21550
L21559 21512
" />
<path d="M21316 21231
L21297 21269
L21297 21344
L21316 21381
L21353 21400
L21503 21400
L21541 21381
L21559 21344
L21559 21269
L21541 21231
L21503 21212
L21466 21212
L21428 21400
" />
</g>
<g style="fill:#000000; fill-opacity:0.0; 
stroke:#000000; stroke-width:118.11; stroke-opacity:1; 
stroke-linecap:round; stroke-linejoin:round;">
<path d="M30877 34936
L30502 34936
" />
<path d="M30952 35161
L30689 34373
L30427 35161
" />
<path d="M29752 35161
L30202 35161
" />
<path d="M29977 35161
L29977 34373
L30052 34486
L30127 34561
L30202 34598
" />
<path d="M32845 34936
L32470 34936
" />
<path d="M32920 35161
L32658 34373
L32395 35161
" />
<path d="M32170 34448
L32133 34411
L32058 34373
L31871 34373
L31796 34411
L31758 34448
L31721 34523
L31721 34598
L31758 34711
L32208 35161
L31721 35161
" />
<path d="M35011 34936
L34636 34936
" />
<path d="M35086 35161
L34823 34373
L34561 35161
" />
<path d="M34373 34373
L33886 34373
L34148 34673
L34036 34673
L33961 34711
L33923 34748
L33886 34823
L33886 35011
L33923 35086
L33961 35123
L34036 35161
L34261 35161
L34336 35123
L34373 35086
" />
<path d="M36979 34936
L36604 34936
" />
<path d="M37054 35161
L36792 34373
L36529 35161
" />
<path d="M35929 34636
L35929 35161
" />
<path d="M36117 34336
L36304 34898
L35817 34898
" />
<path d="M38948 34936
L38573 34936
" />
<path d="M39023 35161
L38760 34373
L38498 35161
" />
<path d="M37860 34373
L38235 34373
L38273 34748
L38235 34711
L38160 34673
L37973 34673
L37898 34711
L37860 34748
L37823 34823
L37823 35011
L37860 35086
L37898 35123
L37973 35161
L38160 35161
L38235 35123
L38273 35086
" />
<path d="M48350 35161
L48350 34373
L48050 34373
L47975 34411
L47937 34448
L47900 34523
L47900 34636
L47937 34711
L47975 34748
L48050 34786
L48350 34786
" />
<path d="M47637 34373
L47450 35161
L47300 34598
L47150 35161
L46962 34373
" />
<path d="M46662 35161
L46662 34373
L46400 34936
L46137 34373
L46137 35161
" />
<path d="M26565 19806
L26565 19019
L26377 19019
L26265 19056
L26190 19131
L26152 19206
L26115 19356
L26115 19469
L26152 19619
L26190 19694
L26265 19769
L26377 19806
L26565 19806
" />
<path d="M25665 19356
L25740 19319
L25778 19281
L25815 19206
L25815 19169
L25778 19094
L25740 19056
L25665 19019
L25515 19019
L25440 19056
L25403 19094
L25365 19169
L25365 19206
L25403 19281
L25440 19319
L25515 19356
L25665 19356
L25740 19394
L25778 19431
L25815 19506
L25815 19656
L25778 19731
L25740 19769
L25665 19806
L25515 19806
L25440 19769
L25403 19731
L25365 19656
L25365 19506
L25403 19431
L25440 19394
L25515 19356
" />
<path d="M28533 19806
L28533 19019
L28346 19019
L28233 19056
L28158 19131
L28121 19206
L28083 19356
L28083 19469
L28121 19619
L28158 19694
L28233 19769
L28346 19806
L28533 19806
" />
<path d="M27821 19019
L27296 19019
L27634 19806
" />
<path d="M30699 19806
L30699 19019
L30511 19019
L30399 19056
L30324 19131
L30286 19206
L30249 19356
L30249 19469
L30286 19619
L30324 19694
L30399 19769
L30511 19806
L30699 19806
" />
<path d="M29574 19019
L29724 19019
L29799 19056
L29836 19094
L29911 19206
L29949 19356
L29949 19656
L29911 19731
L29874 19769
L29799 19806
L29649 19806
L29574 19769
L29536 19731
L29499 19656
L29499 19469
L29536 19394
L29574 19356
L29649 19319
L29799 19319
L29874 19356
L29911 19394
L29949 19469
" />
<path d="M32667 19806
L32667 19019
L32480 19019
L32367 19056
L32292 19131
L32255 19206
L32217 19356
L32217 19469
L32255 19619
L32292 19694
L32367 19769
L32480 19806
L32667 19806
" />
<path d="M31505 19019
L31880 19019
L31917 19394
L31880 19356
L31805 19319
L31617 19319
L31542 19356
L31505 19394
L31467 19469
L31467 19656
L31505 19731
L31542 19769
L31617 19806
L31805 19806
L31880 19769
L31917 19731
" />
<path d="M34833 19806
L34833 19019
L34645 19019
L34533 19056
L34458 19131
L34420 19206
L34383 19356
L34383 19469
L34420 19619
L34458 19694
L34533 19769
L34645 19806
L34833 19806
" />
<path d="M33708 19281
L33708 19806
" />
<path d="M33895 18982
L34083 19544
L33595 19544
" />
<path d="M36801 19806
L36801 19019
L36614 19019
L36501 19056
L36426 19131
L36389 19206
L36351 19356
L36351 19469
L36389 19619
L36426 19694
L36501 19769
L36614 19806
L36801 19806
" />
<path d="M36089 19019
L35601 19019
L35864 19319
L35751 19319
L35676 19356
L35639 19394
L35601 19469
L35601 19656
L35639 19731
L35676 19769
L35751 19806
L35976 19806
L36051 19769
L36089 19731
" />
<path d="M38967 19806
L38967 19019
L38779 19019
L38667 19056
L38592 19131
L38554 19206
L38517 19356
L38517 19469
L38554 19619
L38592 19694
L38667 19769
L38779 19806
L38967 19806
" />
<path d="M38217 19094
L38179 19056
L38104 19019
L37917 19019
L37842 19056
L37804 19094
L37767 19169
L37767 19244
L37804 19356
L38254 19806
L37767 19806
" />
<path d="M40935 19806
L40935 19019
L40748 19019
L40635 19056
L40560 19131
L40523 19206
L40485 19356
L40485 19469
L40523 19619
L40560 19694
L40635 19769
L40748 19806
L40935 19806
" />
<path d="M39735 19806
L40185 19806
" />
<path d="M39960 19806
L39960 19019
L40035 19131
L40110 19206
L40185 19244
" />
<path d="M47412 19806
L47675 19431
" />
<path d="M47862 19806
L47862 19019
L47562 19019
L47487 19056
L47450 19094
L47412 19169
L47412 19281
L47450 19356
L47487 19394
L47562 19431
L47862 19431
" />
<path d="M47112 19769
L47000 19806
L46812 19806
L46737 19769
L46700 19731
L46662 19656
L46662 19581
L46700 19506
L46737 19469
L46812 19431
L46962 19394
L47037 19356
L47075 19319
L47112 19244
L47112 19169
L47075 19094
L47037 19056
L46962 19019
L46775 19019
L46662 19056
" />
<path d="M46325 19506
L45725 19506
" />
<path d="M45388 19094
L45350 19056
L45275 19019
L45088 19019
L45013 19056
L44975 19094
L44938 19169
L44938 19244
L44975 19356
L45425 19806
L44938 19806
" />
<path d="M44675 19019
L44188 19019
L44450 19319
L44338 19319
L44263 19356
L44225 19394
L44188 19469
L44188 19656
L44225 19731
L44263 19769
L44338 19806
L44563 19806
L44638 19769
L44675 19731
" />
<path d="M43888 19094
L43850 19056
L43775 19019
L43588 19019
L43513 19056
L43475 19094
L43438 19169
L43438 19244
L43475 19356
L43925 19806
L43438 19806
" />
<path d="M50778 22262
L51377 22262
" />
<path d="M51077 22562
L51077 21962
" />
<path d="M52952 22262
L53552 22262
" />
<path d="M50478 22995
L50328 22995
L50253 23033
L50215 23070
L50140 23183
L50103 23333
L50103 23633
L50140 23708
L50178 23745
L50253 23783
L50403 23783
L50478 23745
L50515 23708
L50553 23633
L50553 23445
L50515 23370
L50478 23333
L50403 23295
L50253 23295
L50178 23333
L50140 23370
L50103 23445
" />
<path d="M50778 22995
L51040 23783
L51302 22995
" />
<path d="M52127 22958
L51452 23970
" />
<path d="M52802 23783
L52352 23783
" />
<path d="M52577 23783
L52577 22995
L52502 23108
L52427 23183
L52352 23220
" />
<path d="M53477 22995
L53327 22995
L53252 23033
L53215 23070
L53140 23183
L53102 23333
L53102 23633
L53140 23708
L53177 23745
L53252 23783
L53402 23783
L53477 23745
L53515 23708
L53552 23633
L53552 23445
L53515 23370
L53477 23333
L53402 23295
L53252 23295
L53177 23333
L53140 23370
L53102 23445
" />
<path d="M53777 22995
L54040 23783
L54302 22995
" />
<path d="M58455 21494
L59242 21494
" />
<path d="M58492 21494
L58455 21569
L58455 21719
L58492 21794
L58530 21831
L58605 21869
L58830 21869
L58905 21831
L58942 21794
L58980 21719
L58980 21569
L58942 21494
" />
<path d="M58980 22206
L58455 22206
" />
<path d="M58192 22206
L58230 22169
L58267 22206
L58230 22244
L58192 22206
L58267 22206
" />
<path d="M58455 22581
L58980 22581
" />
<path d="M58530 22581
L58492 22619
L58455 22694
L58455 22806
L58492 22881
L58567 22919
L58980 22919
" />
<path d="M58455 23631
L59092 23631
L59167 23593
L59205 23556
L59242 23481
L59242 23368
L59205 23293
" />
<path d="M58942 23631
L58980 23556
L58980 23406
L58942 23331
L58905 23293
L58830 23256
L58605 23256
L58530 23293
L58492 23331
L58455 23406
L58455 23556
L58492 23631
" />
<path d="M58455 24343
L58980 24343
" />
<path d="M58455 24006
L58867 24006
L58942 24043
L58980 24118
L58980 24231
L58942 24306
L58905 24343
" />
<path d="M58980 24718
L58455 24718
" />
<path d="M58192 24718
L58230 24681
L58267 24718
L58230 24756
L58192 24718
L58267 24718
" />
<path d="M58455 25093
L58980 25093
" />
<path d="M58530 25093
L58492 25131
L58455 25206
L58455 25318
L58492 25393
L58567 25431
L58980 25431
" />
<path d="M58980 25918
L58942 25843
L58905 25806
L58830 25768
L58605 25768
L58530 25806
L58492 25843
L58455 25918
L58455 26031
L58492 26106
L58530 26143
L58605 26181
L58830 26181
L58905 26143
L58942 26106
L58980 26031
L58980 25918
" />
<path d="M58680 26518
L58680 27118
" />
<path d="M58267 27455
L58230 27493
L58192 27568
L58192 27755
L58230 27830
L58267 27868
L58342 27905
L58417 27905
L58530 27868
L58980 27418
L58980 27905
" />
<path d="M58192 28618
L58192 28243
L58567 28205
L58530 28243
L58492 28318
L58492 28505
L58530 28580
L58567 28618
L58642 28655
L58830 28655
L58905 28618
L58942 28580
L58980 28505
L58980 28318
L58942 28243
L58905 28205
" />
<path d="M58192 29368
L58192 28993
L58567 28955
L58530 28993
L58492 29068
L58492 29255
L58530 29330
L58567 29368
L58642 29405
L58830 29405
L58905 29368
L58942 29330
L58980 29255
L58980 29068
L58942 28993
L58905 28955
" />
<path d="M58192 29893
L58192 29968
L58230 30043
L58267 30080
L58342 30118
L58492 30155
L58680 30155
L58830 30118
L58905 30080
L58942 30043
L58980 29968
L58980 29893
L58942 29818
L58905 29780
L58830 29743
L58680 29705
L58492 29705
L58342 29743
L58267 29780
L58230 29818
L58192 29893
" />
<path d="M58680 30493
L58680 31092
" />
<path d="M58455 31392
L58980 31580
L58455 31767
" />
<path d="M58267 32030
L58230 32067
L58192 32142
L58192 32330
L58230 32405
L58267 32442
L58342 32480
L58417 32480
L58530 32442
L58980 31992
L58980 32480
" />
</g>
<g style="fill:#000000; fill-opacity:0.0; 
stroke:#000000; stroke-width:59.0551; stroke-opacity:1; 
stroke-linecap:round; stroke-linejoin:round;">
<path d="M20275 17322
L59645 17322
" />
<path d="M20275 37007
L20275 17322
" />
<path d="M59645 37007
L20275 37007
" />
<path d="M59645 37007
L59645 17322
" />
</g>
<g style="fill:#000000; fill-opacity:0.0; 
stroke:#000000; stroke-width:19.685; stroke-opacity:1; 
stroke-linecap:round; stroke-linejoin:round;">
</g>
<g style="fill:#000000; fill-opacity:1.0; 
stroke:#000000; stroke-width:19.685; stroke-opacity:1; 
stroke-linecap:round; stroke-linejoin:round;">
<circle cx="54830.7" cy="31220.9" r="290.157" /> 
<circle cx="53830.7" cy="31220.9" r="290.157" /> 
<circle cx="53830.7" cy="32007.9" r="290.157" /> 
<circle cx="54830.7" cy="32007.9" r="290.157" /> 
<circle cx="56692.7" cy="33070.9" r="521.657" /> 
<circle cx="51968.7" cy="33070.9" r="521.657" /> 
<circle cx="21850.4" cy="31374" r="265.157" /> 
<circle cx="21850.4" cy="34374" r="265.157" /> 
<circle cx="29405.5" cy="27755.9" r="265.157" /> 
<circle cx="32405.5" cy="27755.9" r="265.157" /> 
<circle cx="26059.1" cy="29527.6" r="265.157" /> 
<circle cx="29059.1" cy="29527.6" r="265.157" /> 
<polyline style="fill-rule:evenodd;"
points="55221,23906
55801,23906
55801,24487
55221,24487
55221,23906
" /> 
<circle cx="55511.8" cy="25196.9" r="290.157" /> 
<circle cx="55511.8" cy="26196.9" r="290.157" /> 
</g>
<g style="fill:#000000; fill-opacity:1.0; 
stroke:#000000; stroke-width:591; stroke-opacity:1; 
stroke-linecap:round; stroke-linejoin:round;">
<path d="M34051 29118
L34051 29393
" />
<path d="M35051 29118
L35051 29393
" />
<path d="M36051 29118
L36051 29393
" />
<path d="M37051 29118
L37051 29393
" />
<path d="M38051 29118
L38051 29393
" />
<path d="M39051 29118
L39051 29393
" />
<path d="M40051 29118
L40051 29393
" />
<path d="M41051 29118
L41051 29393
" />
<path d="M42051 29118
L42051 29393
" />
<path d="M43051 29118
L43051 29393
" />
<path d="M44051 29118
L44051 29393
" />
<path d="M45051 29118
L45051 29393
" />
<path d="M46051 29118
L46051 29393
" />
<path d="M47051 29118
L47051 29393
" />
<path d="M47051 26118
L47051 26393
" />
<path d="M46051 26118
L46051 26393
" />
<path d="M45051 26118
L45051 26393
" />
<path d="M44051 26118
L44051 26393
" />
<path d="M43051 26118
L43051 26393
" />
<path d="M42051 26118
L42051 26393
" />
<path d="M41051 26118
L41051 26393
" />
<path d="M40051 26118
L40051 26393
" />
<path d="M39051 26118
L39051 26393
" />
<path d="M38051 26118
L38051 26393
" />
<path d="M37051 26118
L37051 26393
" />
<path d="M36051 26118
L36051 26393
" />
<path d="M35051 26118
L35051 26393
" />
<path d="M34051 26118
L34051 26393
" />
</g>
<g style="fill:#000000; fill-opacity:1.0; 
stroke:#000000; stroke-width:19.685; stroke-opacity:1; 
stroke-linecap:round; stroke-linejoin:round;">
<circle cx="41716.5" cy="32283.5" r="383.657" /> 
<circle cx="43716.5" cy="32283.5" r="383.657" /> 
<polyline style="fill-rule:evenodd;"
points="23644,32548
23644,32018
24174,32018
24174,32548
23644,32548
" /> 
<circle cx="24909.4" cy="32283.5" r="265.157" /> 
</g>
<g style="fill:#000000; fill-opacity:1.0; 
stroke:#000000; stroke-width:687; stroke-opacity:1; 
stroke-linecap:round; stroke-linejoin:round;">
<path d="M55660 22062
L55363 22062
" />
<path d="M55660 21062
L55363 21062
" />
<path d="M55660 20062
L55363 20062
" />
</g>
<g style="fill:#000000; fill-opacity:1.0; 
stroke:#000000; stroke-width:19.685; stroke-opacity:1; 
stroke-linecap:round; stroke-linejoin:round;">
<circle cx="40354.3" cy="20866.1" r="482.283" /> 
<circle cx="38385.8" cy="20866.1" r="482.283" /> 
<circle cx="36220.5" cy="20866.1" r="482.283" /> 
<circle cx="34252" cy="20866.1" r="482.283" /> 
<circle cx="32086.6" cy="20866.1" r="482.283" /> 
<circle cx="30118.1" cy="20866.1" r="482.283" /> 
<circle cx="27952.8" cy="20866.1" r="482.283" /> 
<circle cx="25984.3" cy="20866.1" r="482.283" /> 
<circle cx="38385.8" cy="33267.7" r="482.283" /> 
<circle cx="34448.8" cy="33267.7" r="482.283" /> 
<circle cx="36417.3" cy="33267.7" r="482.283" /> 
<circle cx="30315" cy="33267.7" r="482.283" /> 
<circle cx="32283.5" cy="33267.7" r="482.283" /> 
<circle cx="43700.8" cy="20866.1" r="482.283" /> 
<circle cx="47637.8" cy="20866.1" r="482.283" /> 
<circle cx="45669.3" cy="20866.1" r="482.283" /> 
<circle cx="46259.8" cy="33267.7" r="482.283" /> 
<circle cx="48228.3" cy="33267.7" r="482.283" /> 
<circle cx="22940.9" cy="27559.1" r="383.657" /> 
<circle cx="21940.9" cy="27559.1" r="383.657" /> 
<circle cx="26074.8" cy="27559.1" r="383.657" /> 
<circle cx="27074.8" cy="27559.1" r="383.657" /> 
<circle cx="28248.2" cy="34547.7" r="383.657" /> 
<circle cx="26476.2" cy="31987.7" r="383.657" /> 
<circle cx="26476.2" cy="34547.7" r="383.657" /> 
<circle cx="28248.2" cy="31987.7" r="383.657" /> 
<circle cx="50590.6" cy="34736.2" r="265.157" /> 
<circle cx="50590.6" cy="35736.2" r="265.157" /> 
<circle cx="41732.3" cy="34736.2" r="265.157" /> 
<circle cx="41732.3" cy="35736.2" r="265.157" /> 
<circle cx="43700.8" cy="34736.2" r="265.157" /> 
<circle cx="43700.8" cy="35736.2" r="265.157" /> 
<circle cx="23909.4" cy="34448.8" r="265.157" /> 
<circle cx="24909.4" cy="34448.8" r="265.157" /> 
<circle cx="52952.8" cy="20866.1" r="482.283" /> 
<circle cx="50984.3" cy="20866.1" r="482.283" /> 
<circle cx="58070.9" cy="35433.1" r="790.157" /> 
<circle cx="58070.9" cy="18897.6" r="790.157" /> 
<circle cx="21850.4" cy="18897.6" r="790.157" /> 
</g>
<g style="fill:#000000; fill-opacity:1.0; 
stroke:#000000; stroke-width:393.701; stroke-opacity:1; 
stroke-linecap:round; stroke-linejoin:round;">
<path d="M35051 29255
L35051 29909
" />
<path d="M30314 31889
L30314 33267
" />
<path d="M31102 31102
L30314 31889
" />
<path d="M33858 31102
L31102 31102
" />
<path d="M35051 29909
L33858 31102
" />
<path d="M36051 29255
L36051 30090
" />
<path d="M33661 31889
L32283 33267
" />
<path d="M34251 31889
L33661 31889
" />
<path d="M36051 30090
L34251 31889
" />
<path d="M37051 29255
L37051 30665
" />
<path d="M37051 30665
L34448 33267
" />
<path d="M38051 29255
L38051 31633
" />
<path d="M38051 31633
L36417 33267
" />
<path d="M40051 29255
L40051 29830
" />
<path d="M38976 32677
L38385 33267
" />
<path d="M38976 30905
L38976 32677
" />
<path d="M40051 29830
L38976 30905
" />
<path d="M41051 26255
L41051 21562
" />
<path d="M41051 21562
L40354 20866
" />
<path d="M40051 26255
L40051 22531
" />
<path d="M40051 22531
L38385 20866
" />
<path d="M39051 26255
L39051 23696
" />
<path d="M39051 23696
L36220 20866
" />
<path d="M38051 26255
L38051 24665
" />
<path d="M38051 24665
L34251 20866
" />
<path d="M37051 26255
L37051 25043
" />
<path d="M32086 23031
L32086 20866
" />
<path d="M35039 23031
L32086 23031
" />
<path d="M37051 25043
L35039 23031
" />
<path d="M36051 26255
L36051 25421
" />
<path d="M30118 24015
L30118 20866
" />
<path d="M34645 24015
L30118 24015
" />
<path d="M36051 25421
L34645 24015
" />
<path d="M35051 26255
L35051 25602
" />
<path d="M27952 23425
L27952 20866
" />
<path d="M29527 25000
L27952 23425
" />
<path d="M34448 25000
L29527 25000
" />
<path d="M35051 25602
L34448 25000
" />
<path d="M34051 26255
L29011 26255
" />
<path d="M25984 23228
L25984 20866
" />
<path d="M29011 26255
L25984 23228
" />
<path d="M46259 33267
L46259 31889
" />
<path d="M45051 30681
L45051 29255
" />
<path d="M46259 31889
L45051 30681
" />
<path d="M48228 33267
L48228 32480
" />
<path d="M46051 30303
L46051 29255
" />
<path d="M48228 32480
L46051 30303
" />
<path d="M44051 26255
L44051 22484
" />
<path d="M44051 22484
L45669 20866
" />
<path d="M45051 26255
L45051 23452
" />
<path d="M45051 23452
L47637 20866
" />
<path d="M53830 32007
L53070 32007
" />
<path d="M46051 27744
L46051 26255
" />
<path d="M46062 27755
L46051 27744
" />
<path d="M51968 27755
L46062 27755
" />
<path d="M51968 30905
L51968 27755
" />
<path d="M53070 32007
L51968 30905
" />
<path d="M53830 31220
L53830 26484
" />
<path d="M53602 26255
L47051 26255
" />
<path d="M53830 26484
L53602 26255
" />
<path d="M41051 29255
L41051 30405
" />
<path d="M39960 31496
L39960 35736
" />
<path d="M41051 30405
L39960 31496
" />
<path d="M28248 34547
L28248 35736
" />
<path d="M28346 35629
L28346 35736
" />
<path d="M28346 35637
L28346 35629
" />
<path d="M28248 35736
L28346 35637
" />
<path d="M24909 34448
L24909 35645
" />
<path d="M24909 35645
L25000 35736
" />
<path d="M41732 35736
L39960 35736
" />
<path d="M39960 35736
L28346 35736
" />
<path d="M28346 35736
L28149 35736
" />
<path d="M28149 35736
L25000 35736
" />
<path d="M25000 35736
L24803 35736
" />
<path d="M24803 35736
L23212 35736
" />
<path d="M23212 35736
L21850 34374
" />
<path d="M43700 35736
L41732 35736
" />
<path d="M50590 35736
L43700 35736
" />
<path d="M54830 32007
L55787 32007
" />
<path d="M56692 21062
L55511 21062
" />
<path d="M57283 21653
L56692 21062
" />
<path d="M57283 30511
L57283 21653
" />
<path d="M55787 32007
L57283 30511
" />
<path d="M24909 32283
L24909 34448
" />
<path d="M54830 32007
L54830 35736
" />
<path d="M54830 35736
L50590 35736
" />
<path d="M43051 26255
L43051 21515
" />
<path d="M43051 21515
L43700 20866
" />
<path d="M55511 21062
L53149 21062
" />
<path d="M53149 21062
L52952 20866
" />
<path d="M41051 29255
L41051 28059
" />
<path d="M43051 27421
L43051 26255
" />
<path d="M42519 27952
L43051 27421
" />
<path d="M41157 27952
L42519 27952
" />
<path d="M41051 28059
L41157 27952
" />
<path d="M29059 29527
L28936 29527
" />
<path d="M28936 29527
L26476 31987
" />
<path d="M34051 29255
L29330 29255
" />
<path d="M29330 29255
L29059 29527
" />
<path d="M32405 27755
L38582 27755
" />
<path d="M39051 28224
L39051 29255
" />
<path d="M38582 27755
L39051 28224
" />
<path d="M29405 27755
L27271 27755
" />
<path d="M27271 27755
L27074 27559
" />
<path d="M50984 20866
L50984 19291
" />
<path d="M54543 19094
L55511 20062
" />
<path d="M51181 19094
L54543 19094
" />
<path d="M50984 19291
L51181 19094
" />
<path d="M55511 24196
L55511 22062
" />
<path d="M54830 31220
L54830 26877
" />
<path d="M54830 26877
L55511 26196
" />
<path d="M50590 34736
L50590 29330
" />
<path d="M50515 29255
L47051 29255
" />
<path d="M50590 29330
L50515 29255
" />
<path d="M41732 34736
L41732 32299
" />
<path d="M41732 32299
L41716 32283
" />
<path d="M42051 29255
L42051 31948
" />
<path d="M42051 31948
L41716 32283
" />
<path d="M43700 34736
L43700 32299
" />
<path d="M43700 32299
L43716 32283
" />
<path d="M43051 29255
L43051 31618
" />
<path d="M43051 31618
L43716 32283
" />
<path d="M21940 27559
L21940 31283
" />
<path d="M21940 31283
L21850 31374
" />
<path d="M22940 27559
L22940 20366
" />
<path d="M25196 18110
L42051 18110
" />
<path d="M22940 20366
L25196 18110
" />
<path d="M42051 26255
L42051 18110
" />
<path d="M42051 18110
L41929 18110
" />
<path d="M49409 25196
L49212 25000
" />
<path d="M49212 25000
L49212 18700
" />
<path d="M49212 18700
L48622 18110
" />
<path d="M48622 18110
L41929 18110
" />
<path d="M55511 25196
L49409 25196
" />
<path d="M23909 32283
L23909 31677
" />
<path d="M23909 31677
L26059 29527
" />
<path d="M26074 27559
L26074 29511
" />
<path d="M26074 29511
L26059 29527
" />
<path d="M26074 27559
L22940 27559
" />
<path d="M23909 34448
L23909 32283
" />
</g>
<g style="fill:#FFFFFF; fill-opacity:1.0; 
stroke:#FFFFFF; stroke-width:19.685; stroke-opacity:1; 
stroke-linecap:round; stroke-linejoin:round;">
<circle cx="54830.7" cy="31220.9" r="150.157" /> 
<circle cx="53830.7" cy="31220.9" r="150.157" /> 
<circle cx="53830.7" cy="32007.9" r="150.157" /> 
<circle cx="54830.7" cy="32007.9" r="150.157" /> 
<circle cx="56692.7" cy="33070.9" r="443.157" /> 
<circle cx="51968.7" cy="33070.9" r="443.157" /> 
<circle cx="21850.4" cy="31374" r="150.157" /> 
<circle cx="21850.4" cy="34374" r="150.157" /> 
<circle cx="29405.5" cy="27755.9" r="150.157" /> 
<circle cx="32405.5" cy="27755.9" r="150.157" /> 
<circle cx="26059.1" cy="29527.6" r="150.157" /> 
<circle cx="29059.1" cy="29527.6" r="150.157" /> 
<circle cx="55511.8" cy="24196.9" r="190.157" /> 
<circle cx="55511.8" cy="25196.9" r="190.157" /> 
<circle cx="55511.8" cy="26196.9" r="190.157" /> 
<circle cx="34051.2" cy="29255.9" r="147.657" /> 
<circle cx="35051.2" cy="29255.9" r="147.657" /> 
<circle cx="36051.2" cy="29255.9" r="147.657" /> 
<circle cx="37051.2" cy="29255.9" r="147.657" /> 
<circle cx="38051.2" cy="29255.9" r="147.657" /> 
<circle cx="39051.2" cy="29255.9" r="147.657" /> 
<circle cx="40051.2" cy="29255.9" r="147.657" /> 
<circle cx="41051.2" cy="29255.9" r="147.657" /> 
<circle cx="42051.2" cy="29255.9" r="147.657" /> 
<circle cx="43051.2" cy="29255.9" r="147.657" /> 
<circle cx="44051.2" cy="29255.9" r="147.657" /> 
<circle cx="45051.2" cy="29255.9" r="147.657" /> 
<circle cx="46051.2" cy="29255.9" r="147.657" /> 
<circle cx="47051.2" cy="29255.9" r="147.657" /> 
<circle cx="47051.2" cy="26255.9" r="147.657" /> 
<circle cx="46051.2" cy="26255.9" r="147.657" /> 
<circle cx="45051.2" cy="26255.9" r="147.657" /> 
<circle cx="44051.2" cy="26255.9" r="147.657" /> 
<circle cx="43051.2" cy="26255.9" r="147.657" /> 
<circle cx="42051.2" cy="26255.9" r="147.657" /> 
<circle cx="41051.2" cy="26255.9" r="147.657" /> 
<circle cx="40051.2" cy="26255.9" r="147.657" /> 
<circle cx="39051.2" cy="26255.9" r="147.657" /> 
<circle cx="38051.2" cy="26255.9" r="147.657" /> 
<circle cx="37051.2" cy="26255.9" r="147.657" /> 
<circle cx="36051.2" cy="26255.9" r="147.657" /> 
<circle cx="35051.2" cy="26255.9" r="147.657" /> 
<circle cx="34051.2" cy="26255.9" r="147.657" /> 
<circle cx="41716.5" cy="32283.5" r="147.657" /> 
<circle cx="43716.5" cy="32283.5" r="147.657" /> 
<circle cx="23909.4" cy="32283.5" r="150.157" /> 
<circle cx="24909.4" cy="32283.5" r="150.157" /> 
<circle cx="55511.8" cy="22063" r="236.157" /> 
<circle cx="55511.8" cy="21063" r="236.157" /> 
<circle cx="55511.8" cy="20063" r="236.157" /> 
<circle cx="40354.3" cy="20866.1" r="246.063" /> 
<circle cx="38385.8" cy="20866.1" r="246.063" /> 
<circle cx="36220.5" cy="20866.1" r="246.063" /> 
<circle cx="34252" cy="20866.1" r="246.063" /> 
<circle cx="32086.6" cy="20866.1" r="246.063" /> 
<circle cx="30118.1" cy="20866.1" r="246.063" /> 
<circle cx="27952.8" cy="20866.1" r="246.063" /> 
<circle cx="25984.3" cy="20866.1" r="246.063" /> 
<circle cx="38385.8" cy="33267.7" r="246.063" /> 
<circle cx="34448.8" cy="33267.7" r="246.063" /> 
<circle cx="36417.3" cy="33267.7" r="246.063" /> 
<circle cx="30315" cy="33267.7" r="246.063" /> 
<circle cx="32283.5" cy="33267.7" r="246.063" /> 
<circle cx="43700.8" cy="20866.1" r="246.063" /> 
<circle cx="47637.8" cy="20866.1" r="246.063" /> 
<circle cx="45669.3" cy="20866.1" r="246.063" /> 
<circle cx="46259.8" cy="33267.7" r="246.063" /> 
<circle cx="48228.3" cy="33267.7" r="246.063" /> 
<circle cx="22940.9" cy="27559.1" r="147.657" /> 
<circle cx="21940.9" cy="27559.1" r="147.657" /> 
<circle cx="26074.8" cy="27559.1" r="147.657" /> 
<circle cx="27074.8" cy="27559.1" r="147.657" /> 
<circle cx="28248.2" cy="34547.7" r="187.157" /> 
<circle cx="26476.2" cy="31987.7" r="187.157" /> 
<circle cx="26476.2" cy="34547.7" r="187.157" /> 
<circle cx="28248.2" cy="31987.7" r="187.157" /> 
<circle cx="50590.6" cy="34736.2" r="150.157" /> 
<circle cx="50590.6" cy="35736.2" r="150.157" /> 
<circle cx="41732.3" cy="34736.2" r="150.157" /> 
<circle cx="41732.3" cy="35736.2" r="150.157" /> 
<circle cx="43700.8" cy="34736.2" r="150.157" /> 
<circle cx="43700.8" cy="35736.2" r="150.157" /> 
<circle cx="23909.4" cy="34448.8" r="150.157" /> 
<circle cx="24909.4" cy="34448.8" r="150.157" /> 
<circle cx="52952.8" cy="20866.1" r="246.063" /> 
<circle cx="50984.3" cy="20866.1" r="246.063" /> 
<circle cx="58070.9" cy="35433.1" r="590.157" /> 
<circle cx="58070.9" cy="18897.6" r="590.157" /> 
<circle cx="21850.4" cy="18897.6" r="590.157" /> 
</g> 
</svg>
