<?xml version="1.0" encoding="UTF-8" standalone="no"?>
<svg
   xmlns:dc="http://purl.org/dc/elements/1.1/"
   xmlns:cc="http://creativecommons.org/ns#"
   xmlns:rdf="http://www.w3.org/1999/02/22-rdf-syntax-ns#"
   xmlns:svg="http://www.w3.org/2000/svg"
   xmlns="http://www.w3.org/2000/svg"
   xmlns:sodipodi="http://sodipodi.sourceforge.net/DTD/sodipodi-0.dtd"
   xmlns:inkscape="http://www.inkscape.org/namespaces/inkscape"
   version="1.1"
   width="21.0007cm"
   height="29.7002cm"
   viewBox="0 0 82680 116930 "
   id="svg2"
   inkscape:version="0.47 r22583"
   sodipodi:docname="pinguino-2550-v2-back.svg">
  <metadata
     id="metadata1400">
    <rdf:RDF>
      <cc:Work
         rdf:about="">
        <dc:format>image/svg+xml</dc:format>
        <dc:type
           rdf:resource="http://purl.org/dc/dcmitype/StillImage" />
      </cc:Work>
    </rdf:RDF>
  </metadata>
  <defs
     id="defs1398">
    <inkscape:perspective
       sodipodi:type="inkscape:persp3d"
       inkscape:vp_x="0 : 526.18463 : 1"
       inkscape:vp_y="0 : 1000 : 0"
       inkscape:vp_z="744.11926 : 526.18463 : 1"
       inkscape:persp3d-origin="372.05963 : 350.78975 : 1"
       id="perspective1402" />
  </defs>
  <sodipodi:namedview
     pagecolor="#ffffff"
     bordercolor="#666666"
     borderopacity="1"
     objecttolerance="10"
     gridtolerance="10"
     guidetolerance="10"
     inkscape:pageopacity="0"
     inkscape:pageshadow="2"
     inkscape:window-width="640"
     inkscape:window-height="498"
     id="namedview1396"
     showgrid="false"
     inkscape:zoom="0.22425588"
     inkscape:cx="372.05963"
     inkscape:cy="526.18463"
     inkscape:window-x="0"
     inkscape:window-y="0"
     inkscape:window-maximized="0"
     inkscape:current-layer="svg2" />
  <title
     id="title4">SVG Picture created as pinguino-2550--brd.svg date 2014/04/04 20:19:18 </title>
  <desc
     id="desc6">Picture generated by PCBNEW </desc>
  <g
     style="fill:#000000; fill-opacity:1;stroke:#000000; stroke-opacity:1; stroke-linecap:round; stroke-linejoin:round; "
     transform="translate(0 0) scale(1 1)"
     id="g8" />
  <g
     style="fill:#000000; fill-opacity:0.0;  stroke:#000000; stroke-width:19.685; stroke-opacity:1;  stroke-linecap:round; stroke-linejoin:round;"
     id="g10">
    <path
       d="M4000 4000 L78680 4000 L78680 112930 L4000 112930 L4000 4000 "
       id="path12" />
    <path
       d="M4700 4700 L77980 4700 L77980 112230 L4700 112230 L4700 4700 "
       id="path14" />
    <path
       d="M28890 4000 L28890 4700 "
       id="path16" />
    <path
       d="M16592 4552 L16307 4552 "
       id="path18" />
    <path
       d="M16450 4552 L16450 4052 L16402 4123 L16354 4171 L16307 4195 "
       id="path20" />
    <path
       d="M28890 112930 L28890 112230 "
       id="path22" />
    <path
       d="M16592 112782 L16307 112782 "
       id="path24" />
    <path
       d="M16450 112782 L16450 112282 L16402 112353 L16354 112401 L16307 112425 "
       id="path26" />
    <path
       d="M53780 4000 L53780 4700 "
       id="path28" />
    <path
       d="M41197 4100 L41220 4076 L41268 4052 L41387 4052 L41435 4076 L41459 4100 L41482 4147 L41482 4195 L41459 4266 L41173 4552 L41482 4552 "
       id="path30" />
    <path
       d="M53780 112930 L53780 112230 "
       id="path32" />
    <path
       d="M41197 112330 L41220 112306 L41268 112282 L41387 112282 L41435 112306 L41459 112330 L41482 112377 L41482 112425 L41459 112496 L41173 112782 L41482 112782 "
       id="path34" />
    <path
       d="M66063 4052 L66372 4052 L66206 4242 L66277 4242 L66325 4266 L66349 4290 L66372 4338 L66372 4457 L66349 4504 L66325 4528 L66277 4552 L66134 4552 L66087 4528 L66063 4504 "
       id="path36" />
    <path
       d="M66063 112282 L66372 112282 L66206 112472 L66277 112472 L66325 112496 L66349 112520 L66372 112568 L66372 112687 L66349 112734 L66325 112758 L66277 112782 L66134 112782 L66087 112758 L66063 112734 "
       id="path38" />
    <path
       d="M4000 25780 L4700 25780 "
       id="path40" />
    <path
       d="M4230 14949 L4469 14949 "
       id="path42" />
    <path
       d="M4183 15092 L4350 14592 L4516 15092 "
       id="path44" />
    <path
       d="M78680 25780 L77980 25780 "
       id="path46" />
    <path
       d="M78210 14949 L78449 14949 "
       id="path48" />
    <path
       d="M78163 15092 L78330 14592 L78496 15092 "
       id="path50" />
    <path
       d="M4000 47560 L4700 47560 "
       id="path52" />
    <path
       d="M4385 36610 L4457 36634 L4480 36658 L4504 36705 L4504 36777 L4480 36824 L4457 36848 L4409 36872 L4219 36872 L4219 36372 L4385 36372 L4433 36396 L4457 36420 L4480 36467 L4480 36515 L4457 36562 L4433 36586 L4385 36610 L4219 36610 "
       id="path54" />
    <path
       d="M78680 47560 L77980 47560 "
       id="path56" />
    <path
       d="M78365 36610 L78437 36634 L78460 36658 L78484 36705 L78484 36777 L78460 36824 L78437 36848 L78389 36872 L78199 36872 L78199 36372 L78365 36372 L78413 36396 L78437 36420 L78460 36467 L78460 36515 L78437 36562 L78413 36586 L78365 36610 L78199 36610 "
       id="path58" />
    <path
       d="M4000 69340 L4700 69340 "
       id="path60" />
    <path
       d="M4504 58604 L4480 58628 L4409 58652 L4361 58652 L4290 58628 L4242 58580 L4219 58533 L4195 58438 L4195 58366 L4219 58271 L4242 58223 L4290 58176 L4361 58152 L4409 58152 L4480 58176 L4504 58200 "
       id="path62" />
    <path
       d="M78680 69340 L77980 69340 "
       id="path64" />
    <path
       d="M78484 58604 L78460 58628 L78389 58652 L78341 58652 L78270 58628 L78222 58580 L78199 58533 L78175 58438 L78175 58366 L78199 58271 L78222 58223 L78270 58176 L78341 58152 L78389 58152 L78460 58176 L78484 58200 "
       id="path66" />
    <path
       d="M4000 91120 L4700 91120 "
       id="path68" />
    <path
       d="M4219 80432 L4219 79932 L4338 79932 L4409 79956 L4457 80003 L4480 80051 L4504 80146 L4504 80218 L4480 80313 L4457 80360 L4409 80408 L4338 80432 L4219 80432 "
       id="path70" />
    <path
       d="M78680 91120 L77980 91120 "
       id="path72" />
    <path
       d="M78199 80432 L78199 79932 L78318 79932 L78389 79956 L78437 80003 L78460 80051 L78484 80146 L78484 80218 L78460 80313 L78437 80360 L78389 80408 L78318 80432 L78199 80432 "
       id="path74" />
    <path
       d="M4242 101950 L4409 101950 "
       id="path76" />
    <path
       d="M4480 102212 L4242 102212 L4242 101712 L4480 101712 "
       id="path78" />
    <path
       d="M78222 101950 L78389 101950 "
       id="path80" />
    <path
       d="M78460 102212 L78222 102212 L78222 101712 L78460 101712 "
       id="path82" />
    <path
       d="M45130 110672 L45205 110072 L45347 110072 L45430 110101 L45480 110158 L45501 110215 L45515 110330 L45505 110415 L45462 110530 L45426 110587 L45362 110644 L45272 110672 L45130 110672 "
       id="path84" />
    <path
       d="M45987 110672 L46026 110358 L46005 110301 L45951 110272 L45837 110272 L45776 110301 "
       id="path86" />
    <path
       d="M45990 110644 L45930 110672 L45787 110672 L45733 110644 L45712 110587 L45719 110530 L45755 110472 L45815 110444 L45958 110444 L46019 110415 "
       id="path88" />
    <path
       d="M46237 110272 L46465 110272 "
       id="path90" />
    <path
       d="M46347 110072 L46283 110587 L46305 110644 L46358 110672 L46415 110672 "
       id="path92" />
    <path
       d="M46847 110644 L46787 110672 L46672 110672 L46619 110644 L46597 110587 L46626 110358 L46662 110301 L46722 110272 L46837 110272 L46890 110301 L46912 110358 L46905 110415 L46612 110472 "
       id="path94" />
    <path
       d="M47137 110615 L47162 110644 L47130 110672 L47105 110644 L47137 110615 L47130 110672 "
       id="path96" />
    <path
       d="M47176 110301 L47201 110330 L47169 110358 L47144 110330 L47176 110301 L47169 110358 "
       id="path98" />
    <path
       d="M48180 110272 L48130 110672 "
       id="path100" />
    <path
       d="M48065 110044 L47869 110472 L48240 110472 "
       id="path102" />
    <path
       d="M49158 110672 L49197 110358 L49176 110301 L49122 110272 L49008 110272 L48947 110301 "
       id="path104" />
    <path
       d="M49162 110644 L49101 110672 L48958 110672 L48905 110644 L48883 110587 L48890 110530 L48926 110472 L48987 110444 L49130 110444 L49190 110415 "
       id="path106" />
    <path
       d="M49494 110272 L49419 110872 "
       id="path108" />
    <path
       d="M49490 110301 L49551 110272 L49665 110272 L49719 110301 L49744 110330 L49765 110387 L49744 110558 L49708 110615 L49676 110644 L49615 110672 L49501 110672 L49447 110644 "
       id="path110" />
    <path
       d="M49987 110672 L50037 110272 "
       id="path112" />
    <path
       d="M50022 110387 L50058 110330 L50090 110301 L50151 110272 L50208 110272 "
       id="path114" />
    <path
       d="M50855 110130 L50887 110101 L50947 110072 L51090 110072 L51144 110101 L51169 110130 L51190 110187 L51183 110244 L51144 110330 L50758 110672 L51130 110672 "
       id="path116" />
    <path
       d="M51576 110072 L51633 110072 L51687 110101 L51712 110130 L51733 110187 L51747 110301 L51730 110444 L51687 110558 L51651 110615 L51619 110644 L51558 110672 L51501 110672 L51447 110644 L51422 110615 L51401 110558 L51387 110444 L51405 110301 L51447 110187 L51483 110130 L51515 110101 L51576 110072 "
       id="path118" />
    <path
       d="M52272 110672 L51930 110672 "
       id="path120" />
    <path
       d="M52101 110672 L52176 110072 L52108 110158 L52044 110215 L51983 110244 "
       id="path122" />
    <path
       d="M52837 110272 L52787 110672 "
       id="path124" />
    <path
       d="M52722 110044 L52526 110472 L52897 110472 "
       id="path126" />
    <path
       d="M36722 111872 L36722 111272 "
       id="path128" />
    <path
       d="M37065 111872 L36808 111530 "
       id="path130" />
    <path
       d="M37065 111272 L36722 111615 "
       id="path132" />
    <path
       d="M37322 111872 L37322 111472 "
       id="path134" />
    <path
       d="M37322 111272 L37294 111301 L37322 111330 L37351 111301 L37322 111272 L37322 111330 "
       id="path136" />
    <path
       d="M37951 111815 L37922 111844 L37837 111872 L37780 111872 L37694 111844 L37637 111787 L37608 111730 L37580 111615 L37580 111530 L37608 111415 L37637 111358 L37694 111301 L37780 111272 L37837 111272 L37922 111301 L37951 111330 "
       id="path138" />
    <path
       d="M38465 111872 L38465 111558 L38437 111501 L38380 111472 L38265 111472 L38208 111501 "
       id="path140" />
    <path
       d="M38465 111844 L38408 111872 L38265 111872 L38208 111844 L38180 111787 L38180 111730 L38208 111672 L38265 111644 L38408 111644 L38465 111615 "
       id="path142" />
    <path
       d="M39008 111872 L39008 111272 "
       id="path144" />
    <path
       d="M39008 111844 L38951 111872 L38837 111872 L38780 111844 L38751 111815 L38722 111758 L38722 111587 L38751 111530 L38780 111501 L38837 111472 L38951 111472 L39008 111501 "
       id="path146" />
    <path
       d="M39751 111558 L39951 111558 "
       id="path148" />
    <path
       d="M40037 111872 L39751 111872 L39751 111272 L40037 111272 "
       id="path150" />
    <path
       d="M40294 111815 L40322 111844 L40294 111872 L40265 111844 L40294 111815 L40294 111872 "
       id="path152" />
    <path
       d="M40579 111872 L40579 111272 L40722 111272 L40808 111301 L40865 111358 L40894 111415 L40922 111530 L40922 111615 L40894 111730 L40865 111787 L40808 111844 L40722 111872 L40579 111872 "
       id="path154" />
    <path
       d="M41179 111815 L41208 111844 L41179 111872 L41151 111844 L41179 111815 L41179 111872 "
       id="path156" />
    <path
       d="M41437 111701 L41722 111701 "
       id="path158" />
    <path
       d="M41379 111872 L41579 111272 L41779 111872 "
       id="path160" />
    <path
       d="M41979 111815 L42008 111844 L41979 111872 L41951 111844 L41979 111815 L41979 111872 "
       id="path162" />
    <path
       d="M70272 110672 L70108 110387 "
       id="path164" />
    <path
       d="M69930 110672 L70005 110072 L70233 110072 L70287 110101 L70312 110130 L70333 110187 L70322 110272 L70287 110330 L70255 110358 L70194 110387 L69965 110387 "
       id="path166" />
    <path
       d="M70762 110644 L70701 110672 L70587 110672 L70533 110644 L70512 110587 L70540 110358 L70576 110301 L70637 110272 L70751 110272 L70805 110301 L70826 110358 L70819 110415 L70526 110472 "
       id="path168" />
    <path
       d="M71037 110272 L71130 110672 L71322 110272 "
       id="path170" />
    <path
       d="M71508 110615 L71533 110644 L71501 110672 L71476 110644 L71508 110615 L71501 110672 "
       id="path172" />
    <path
       d="M71547 110301 L71572 110330 L71540 110358 L71515 110330 L71547 110301 L71540 110358 "
       id="path174" />
    <path
       d="M72283 110130 L72315 110101 L72376 110072 L72519 110072 L72572 110101 L72597 110130 L72619 110187 L72612 110244 L72572 110330 L72187 110672 L72558 110672 "
       id="path176" />
    <path
       d="M72822 110615 L72847 110644 L72815 110672 L72790 110644 L72822 110615 L72815 110672 "
       id="path178" />
    <path
       d="M73290 110072 L73347 110072 L73401 110101 L73426 110130 L73447 110187 L73462 110301 L73444 110444 L73401 110558 L73365 110615 L73333 110644 L73272 110672 L73215 110672 L73162 110644 L73137 110615 L73115 110558 L73101 110444 L73119 110301 L73162 110187 L73197 110130 L73230 110101 L73290 110072 "
       id="path180" />
    <path
       d="M36694 110644 L36780 110672 L36922 110672 L36980 110644 L37008 110615 L37037 110558 L37037 110501 L37008 110444 L36980 110415 L36922 110387 L36808 110358 L36751 110330 L36722 110301 L36694 110244 L36694 110187 L36722 110130 L36751 110101 L36808 110072 L36951 110072 L37037 110101 "
       id="path182" />
    <path
       d="M37294 110672 L37294 110272 "
       id="path184" />
    <path
       d="M37294 110072 L37265 110101 L37294 110130 L37322 110101 L37294 110072 L37294 110130 "
       id="path186" />
    <path
       d="M37522 110272 L37837 110272 L37522 110672 L37837 110672 "
       id="path188" />
    <path
       d="M38294 110644 L38237 110672 L38122 110672 L38065 110644 L38037 110587 L38037 110358 L38065 110301 L38122 110272 L38237 110272 L38294 110301 L38322 110358 L38322 110415 L38037 110472 "
       id="path190" />
    <path
       d="M38580 110615 L38608 110644 L38580 110672 L38551 110644 L38580 110615 L38580 110672 "
       id="path192" />
    <path
       d="M38580 110301 L38608 110330 L38580 110358 L38551 110330 L38580 110301 L38580 110358 "
       id="path194" />
    <path
       d="M39322 110072 L39322 110558 L39351 110615 L39380 110644 L39437 110672 L39551 110672 L39608 110644 L39637 110615 L39665 110558 L39665 110072 "
       id="path196" />
    <path
       d="M39922 110644 L39980 110672 L40094 110672 L40151 110644 L40180 110587 L40180 110558 L40151 110501 L40094 110472 L40008 110472 L39951 110444 L39922 110387 L39922 110358 L39951 110301 L40008 110272 L40094 110272 L40151 110301 "
       id="path198" />
    <path
       d="M40665 110644 L40608 110672 L40494 110672 L40437 110644 L40408 110587 L40408 110358 L40437 110301 L40494 110272 L40608 110272 L40665 110301 L40694 110358 L40694 110415 L40408 110472 "
       id="path200" />
    <path
       d="M40951 110672 L40951 110272 "
       id="path202" />
    <path
       d="M40951 110387 L40980 110330 L41008 110301 L41065 110272 L41122 110272 "
       id="path204" />
    <path
       d="M69922 111872 L69922 111272 "
       id="path206" />
    <path
       d="M70465 111872 L70465 111272 "
       id="path208" />
    <path
       d="M70465 111844 L70408 111872 L70294 111872 L70237 111844 L70208 111815 L70180 111758 L70180 111587 L70208 111530 L70237 111501 L70294 111472 L70408 111472 L70465 111501 "
       id="path210" />
    <path
       d="M70751 111815 L70780 111844 L70751 111872 L70722 111844 L70751 111815 L70751 111872 "
       id="path212" />
    <path
       d="M70751 111501 L70780 111530 L70751 111558 L70722 111530 L70751 111501 L70751 111558 "
       id="path214" />
    <path
       d="M71808 111872 L71465 111872 "
       id="path216" />
    <path
       d="M71637 111872 L71637 111272 L71579 111358 L71522 111415 L71465 111444 "
       id="path218" />
    <path
       d="M72494 111244 L71980 112015 "
       id="path220" />
    <path
       d="M73008 111872 L72665 111872 "
       id="path222" />
    <path
       d="M72837 111872 L72837 111272 L72779 111358 L72722 111415 L72665 111444 "
       id="path224" />
    <path
       d="M36719 108872 L37062 108872 "
       id="path226" />
    <path
       d="M36815 109472 L36890 108872 "
       id="path228" />
    <path
       d="M37187 109472 L37237 109072 "
       id="path230" />
    <path
       d="M37262 108872 L37230 108901 L37255 108930 L37287 108901 L37262 108872 L37255 108930 "
       id="path232" />
    <path
       d="M37437 109072 L37665 109072 "
       id="path234" />
    <path
       d="M37547 108872 L37483 109387 L37505 109444 L37558 109472 L37615 109472 "
       id="path236" />
    <path
       d="M37901 109472 L37847 109444 L37826 109387 L37890 108872 "
       id="path238" />
    <path
       d="M38362 109444 L38301 109472 L38187 109472 L38133 109444 L38112 109387 L38140 109158 L38176 109101 L38237 109072 L38351 109072 L38405 109101 L38426 109158 L38419 109215 L38126 109272 "
       id="path240" />
    <path
       d="M38651 109415 L38676 109444 L38644 109472 L38619 109444 L38651 109415 L38644 109472 "
       id="path242" />
    <path
       d="M38690 109101 L38715 109130 L38683 109158 L38658 109130 L38690 109101 L38683 109158 "
       id="path244" />
    <path
       d="M39387 109472 L39462 108872 L39690 108872 L39744 108901 L39769 108930 L39790 108987 L39780 109072 L39744 109130 L39712 109158 L39651 109187 L39422 109187 "
       id="path246" />
    <path
       d="M39987 109472 L40037 109072 "
       id="path248" />
    <path
       d="M40062 108872 L40030 108901 L40055 108930 L40087 108901 L40062 108872 L40055 108930 "
       id="path250" />
    <path
       d="M40322 109072 L40272 109472 "
       id="path252" />
    <path
       d="M40315 109130 L40347 109101 L40408 109072 L40494 109072 L40547 109101 L40569 109158 L40530 109472 "
       id="path254" />
    <path
       d="M41122 109072 L41062 109558 L41026 109615 L40994 109644 L40933 109672 L40847 109672 L40794 109644 "
       id="path256" />
    <path
       d="M41076 109444 L41015 109472 L40901 109472 L40847 109444 L40822 109415 L40801 109358 L40822 109187 L40858 109130 L40890 109101 L40951 109072 L41065 109072 L41119 109101 "
       id="path258" />
    <path
       d="M41665 109072 L41615 109472 "
       id="path260" />
    <path
       d="M41408 109072 L41369 109387 L41390 109444 L41444 109472 L41530 109472 L41590 109444 L41622 109415 "
       id="path262" />
    <path
       d="M41901 109472 L41951 109072 "
       id="path264" />
    <path
       d="M41976 108872 L41944 108901 L41969 108930 L42001 108901 L41976 108872 L41969 108930 "
       id="path266" />
    <path
       d="M42237 109072 L42187 109472 "
       id="path268" />
    <path
       d="M42229 109130 L42262 109101 L42322 109072 L42408 109072 L42462 109101 L42483 109158 L42444 109472 "
       id="path270" />
    <path
       d="M42815 109472 L42762 109444 L42737 109415 L42715 109358 L42737 109187 L42772 109130 L42804 109101 L42865 109072 L42951 109072 L43004 109101 L43029 109130 L43051 109187 L43029 109358 L42994 109415 L42962 109444 L42901 109472 L42815 109472 "
       id="path272" />
    <path
       d="M43769 108930 L43801 108901 L43862 108872 L44004 108872 L44058 108901 L44083 108930 L44104 108987 L44097 109044 L44058 109130 L43672 109472 L44044 109472 "
       id="path274" />
    <path
       d="M44662 108872 L44376 108872 L44312 109158 L44344 109130 L44404 109101 L44547 109101 L44601 109130 L44626 109158 L44647 109215 L44630 109358 L44594 109415 L44562 109444 L44501 109472 L44358 109472 L44304 109444 L44280 109415 "
       id="path276" />
    <path
       d="M45233 108872 L44947 108872 L44883 109158 L44915 109130 L44976 109101 L45119 109101 L45172 109130 L45197 109158 L45219 109215 L45201 109358 L45165 109415 L45133 109444 L45072 109472 L44930 109472 L44876 109444 L44851 109415 "
       id="path278" />
    <path
       d="M45633 108872 L45690 108872 L45744 108901 L45769 108930 L45790 108987 L45805 109101 L45787 109244 L45744 109358 L45708 109415 L45676 109444 L45615 109472 L45558 109472 L45505 109444 L45480 109415 L45458 109358 L45444 109244 L45462 109101 L45505 108987 L45540 108930 L45572 108901 L45633 108872 "
       id="path280" />
    <path
       d="M36922 106758 L36722 106758 "
       id="path282" />
    <path
       d="M36722 107072 L36722 106472 L37008 106472 "
       id="path284" />
    <path
       d="M37237 107072 L37237 106672 "
       id="path286" />
    <path
       d="M37237 106472 L37208 106501 L37237 106530 L37265 106501 L37237 106472 L37237 106530 "
       id="path288" />
    <path
       d="M37608 107072 L37551 107044 L37522 106987 L37522 106472 "
       id="path290" />
    <path
       d="M38065 107044 L38008 107072 L37894 107072 L37837 107044 L37808 106987 L37808 106758 L37837 106701 L37894 106672 L38008 106672 L38065 106701 L38094 106758 L38094 106815 L37808 106872 "
       id="path292" />
    <path
       d="M38351 107015 L38380 107044 L38351 107072 L38322 107044 L38351 107015 L38351 107072 "
       id="path294" />
    <path
       d="M38351 106701 L38380 106730 L38351 106758 L38322 106730 L38351 106701 L38351 106758 "
       id="path296" />
    <path
       d="M39094 106672 L39094 107272 "
       id="path298" />
    <path
       d="M39094 106701 L39151 106672 L39265 106672 L39322 106701 L39351 106730 L39380 106787 L39380 106958 L39351 107015 L39322 107044 L39265 107072 L39151 107072 L39094 107044 "
       id="path300" />
    <path
       d="M39637 107072 L39637 106672 "
       id="path302" />
    <path
       d="M39637 106472 L39608 106501 L39637 106530 L39665 106501 L39637 106472 L39637 106530 "
       id="path304" />
    <path
       d="M39922 106672 L39922 107072 "
       id="path306" />
    <path
       d="M39922 106730 L39951 106701 L40008 106672 L40094 106672 L40151 106701 L40180 106758 L40180 107072 "
       id="path308" />
    <path
       d="M40722 106672 L40722 107158 L40694 107215 L40665 107244 L40608 107272 L40522 107272 L40465 107244 "
       id="path310" />
    <path
       d="M40722 107044 L40665 107072 L40551 107072 L40494 107044 L40465 107015 L40437 106958 L40437 106787 L40465 106730 L40494 106701 L40551 106672 L40665 106672 L40722 106701 "
       id="path312" />
    <path
       d="M41265 106672 L41265 107072 "
       id="path314" />
    <path
       d="M41008 106672 L41008 106987 L41037 107044 L41094 107072 L41180 107072 L41237 107044 L41265 107015 "
       id="path316" />
    <path
       d="M41551 107072 L41551 106672 "
       id="path318" />
    <path
       d="M41551 106472 L41522 106501 L41551 106530 L41580 106501 L41551 106472 L41551 106530 "
       id="path320" />
    <path
       d="M41837 106672 L41837 107072 "
       id="path322" />
    <path
       d="M41837 106730 L41865 106701 L41922 106672 L42008 106672 L42065 106701 L42094 106758 L42094 107072 "
       id="path324" />
    <path
       d="M42465 107072 L42408 107044 L42379 107015 L42351 106958 L42351 106787 L42379 106730 L42408 106701 L42465 106672 L42551 106672 L42608 106701 L42637 106730 L42665 106787 L42665 106958 L42637 107015 L42608 107044 L42551 107072 L42465 107072 "
       id="path326" />
    <path
       d="M42922 106844 L43379 106844 "
       id="path328" />
    <path
       d="M43637 106530 L43665 106501 L43722 106472 L43865 106472 L43922 106501 L43951 106530 L43979 106587 L43979 106644 L43951 106730 L43608 107072 L43979 107072 "
       id="path330" />
    <path
       d="M44522 106472 L44237 106472 L44208 106758 L44237 106730 L44294 106701 L44437 106701 L44494 106730 L44522 106758 L44551 106815 L44551 106958 L44522 107015 L44494 107044 L44437 107072 L44294 107072 L44237 107044 L44208 107015 "
       id="path332" />
    <path
       d="M45094 106472 L44808 106472 L44780 106758 L44808 106730 L44865 106701 L45008 106701 L45065 106730 L45094 106758 L45122 106815 L45122 106958 L45094 107015 L45065 107044 L45008 107072 L44865 107072 L44808 107044 L44780 107015 "
       id="path334" />
    <path
       d="M45494 106472 L45551 106472 L45608 106501 L45637 106530 L45665 106587 L45694 106701 L45694 106844 L45665 106958 L45637 107015 L45608 107044 L45551 107072 L45494 107072 L45437 107044 L45408 107015 L45380 106958 L45351 106844 L45351 106701 L45380 106587 L45408 106530 L45437 106501 L45494 106472 "
       id="path336" />
    <path
       d="M45951 107015 L45980 107044 L45951 107072 L45922 107044 L45951 107015 L45951 107072 "
       id="path338" />
    <path
       d="M46237 107072 L46237 106472 "
       id="path340" />
    <path
       d="M46294 106844 L46465 107072 "
       id="path342" />
    <path
       d="M46465 106672 L46237 106901 "
       id="path344" />
    <path
       d="M46722 107072 L46722 106672 "
       id="path346" />
    <path
       d="M46722 106472 L46694 106501 L46722 106530 L46751 106501 L46722 106472 L46722 106530 "
       id="path348" />
    <path
       d="M47265 107044 L47208 107072 L47094 107072 L47037 107044 L47008 107015 L46980 106958 L46980 106787 L47008 106730 L47037 106701 L47094 106672 L47208 106672 L47265 106701 "
       id="path350" />
    <path
       d="M47780 107072 L47780 106758 L47751 106701 L47694 106672 L47580 106672 L47522 106701 "
       id="path352" />
    <path
       d="M47780 107044 L47722 107072 L47580 107072 L47522 107044 L47494 106987 L47494 106930 L47522 106872 L47580 106844 L47722 106844 L47780 106815 "
       id="path354" />
    <path
       d="M48322 107072 L48322 106472 "
       id="path356" />
    <path
       d="M48322 107044 L48265 107072 L48151 107072 L48094 107044 L48065 107015 L48037 106958 L48037 106787 L48065 106730 L48094 106701 L48151 106672 L48265 106672 L48322 106701 "
       id="path358" />
    <path
       d="M48465 107130 L48922 107130 "
       id="path360" />
    <path
       d="M49065 106672 L49065 107272 "
       id="path362" />
    <path
       d="M49065 106701 L49122 106672 L49237 106672 L49294 106701 L49322 106730 L49351 106787 L49351 106958 L49322 107015 L49294 107044 L49237 107072 L49122 107072 L49065 107044 "
       id="path364" />
    <path
       d="M49865 107044 L49808 107072 L49694 107072 L49637 107044 L49608 107015 L49580 106958 L49580 106787 L49608 106730 L49637 106701 L49694 106672 L49808 106672 L49865 106701 "
       id="path366" />
    <path
       d="M50122 107072 L50122 106472 "
       id="path368" />
    <path
       d="M50122 106701 L50180 106672 L50294 106672 L50351 106701 L50380 106730 L50408 106787 L50408 106958 L50380 107015 L50351 107044 L50294 107072 L50180 107072 L50122 107044 "
       id="path370" />
    <path
       d="M36694 108244 L36780 108272 L36922 108272 L36980 108244 L37008 108215 L37037 108158 L37037 108101 L37008 108044 L36980 108015 L36922 107987 L36808 107958 L36751 107930 L36722 107901 L36694 107844 L36694 107787 L36722 107730 L36751 107701 L36808 107672 L36951 107672 L37037 107701 "
       id="path372" />
    <path
       d="M37294 108272 L37294 107672 "
       id="path374" />
    <path
       d="M37551 108272 L37551 107958 L37522 107901 L37465 107872 L37380 107872 L37322 107901 L37294 107930 "
       id="path376" />
    <path
       d="M38065 108244 L38008 108272 L37894 108272 L37837 108244 L37808 108187 L37808 107958 L37837 107901 L37894 107872 L38008 107872 L38065 107901 L38094 107958 L38094 108015 L37808 108072 "
       id="path378" />
    <path
       d="M38580 108244 L38522 108272 L38408 108272 L38351 108244 L38322 108187 L38322 107958 L38351 107901 L38408 107872 L38522 107872 L38580 107901 L38608 107958 L38608 108015 L38322 108072 "
       id="path380" />
    <path
       d="M38780 107872 L39008 107872 "
       id="path382" />
    <path
       d="M38865 107672 L38865 108187 L38894 108244 L38951 108272 L39008 108272 "
       id="path384" />
    <path
       d="M39208 108215 L39237 108244 L39208 108272 L39180 108244 L39208 108215 L39208 108272 "
       id="path386" />
    <path
       d="M39208 107901 L39237 107930 L39208 107958 L39180 107930 L39208 107901 L39208 107958 "
       id="path388" />
    <path
       d="M36769 105558 L36969 105558 "
       id="path390" />
    <path
       d="M37015 105872 L36730 105872 L36805 105272 L37090 105272 "
       id="path392" />
    <path
       d="M37280 105815 L37305 105844 L37272 105872 L37247 105844 L37280 105815 L37272 105872 "
       id="path394" />
    <path
       d="M37597 105558 L37797 105558 "
       id="path396" />
    <path
       d="M37844 105872 L37558 105872 L37633 105272 L37919 105272 "
       id="path398" />
    <path
       d="M38108 105815 L38133 105844 L38101 105872 L38076 105844 L38108 105815 L38101 105872 "
       id="path400" />
    <path
       d="M38376 105272 L38719 105272 "
       id="path402" />
    <path
       d="M38472 105872 L38547 105272 "
       id="path404" />
    <path
       d="M38851 105815 L38876 105844 L38844 105872 L38819 105844 L38851 105815 L38844 105872 "
       id="path406" />
    <path
       d="M39587 105872 L39662 105272 L39929 105872 L40004 105272 "
       id="path408" />
    <path
       d="M40215 105872 L40265 105472 "
       id="path410" />
    <path
       d="M40251 105587 L40287 105530 L40319 105501 L40379 105472 L40437 105472 "
       id="path412" />
    <path
       d="M40672 105872 L40619 105844 L40594 105815 L40572 105758 L40594 105587 L40629 105530 L40662 105501 L40722 105472 L40808 105472 L40862 105501 L40887 105530 L40908 105587 L40887 105758 L40851 105815 L40819 105844 L40758 105872 L40672 105872 "
       id="path414" />
    <path
       d="M41137 105815 L41162 105844 L41129 105872 L41104 105844 L41137 105815 L41129 105872 "
       id="path416" />
    <path
       d="M41433 105272 L41833 105272 L41501 105872 "
       id="path418" />
    <path
       d="M42472 105644 L42929 105644 "
       id="path420" />
    <path
       d="M43883 105558 L43965 105587 L43990 105615 L44012 105672 L44001 105758 L43965 105815 L43933 105844 L43872 105872 L43644 105872 L43719 105272 L43919 105272 L43972 105301 L43997 105330 L44019 105387 L44012 105444 L43976 105501 L43944 105530 L43883 105558 L43683 105558 "
       id="path422" />
    <path
       d="M44501 105872 L44540 105558 L44519 105501 L44465 105472 L44351 105472 L44290 105501 "
       id="path424" />
    <path
       d="M44504 105844 L44444 105872 L44301 105872 L44247 105844 L44226 105787 L44233 105730 L44269 105672 L44329 105644 L44472 105644 L44533 105615 "
       id="path426" />
    <path
       d="M44837 105472 L44787 105872 "
       id="path428" />
    <path
       d="M44829 105530 L44862 105501 L44922 105472 L45008 105472 L45062 105501 L45083 105558 L45044 105872 "
       id="path430" />
    <path
       d="M45294 105472 L45522 105472 "
       id="path432" />
    <path
       d="M45329 105872 L45394 105358 L45429 105301 L45490 105272 L45547 105272 "
       id="path434" />
    <path
       d="M45672 105872 L45722 105472 "
       id="path436" />
    <path
       d="M45747 105272 L45715 105301 L45740 105330 L45772 105301 L45747 105272 L45740 105330 "
       id="path438" />
    <path
       d="M46190 105844 L46129 105872 L46015 105872 L45962 105844 L45940 105787 L45969 105558 L46004 105501 L46065 105472 L46179 105472 L46233 105501 L46254 105558 L46247 105615 L45954 105672 "
       id="path440" />
    <path
       d="M46558 105872 L46504 105844 L46483 105787 L46547 105272 "
       id="path442" />
    <path
       d="M47044 105872 L47119 105272 "
       id="path444" />
    <path
       d="M47047 105844 L46987 105872 L46872 105872 L46819 105844 L46794 105815 L46772 105758 L46794 105587 L46829 105530 L46862 105501 L46922 105472 L47037 105472 L47090 105501 "
       id="path446" />
    <path
       d="M36722 104672 L36722 104072 L36951 104072 L37008 104101 L37037 104130 L37065 104187 L37065 104272 L37037 104330 L37008 104358 L36951 104387 L36722 104387 "
       id="path448" />
    <path
       d="M37322 104672 L37322 104272 "
       id="path450" />
    <path
       d="M37322 104387 L37351 104330 L37380 104301 L37437 104272 L37494 104272 "
       id="path452" />
    <path
       d="M37780 104672 L37722 104644 L37694 104615 L37665 104558 L37665 104387 L37694 104330 L37722 104301 L37780 104272 L37865 104272 L37922 104301 L37951 104330 L37980 104387 L37980 104558 L37951 104615 L37922 104644 L37865 104672 L37780 104672 "
       id="path454" />
    <path
       d="M38151 104272 L38380 104272 "
       id="path456" />
    <path
       d="M38237 104672 L38237 104158 L38265 104101 L38322 104072 L38380 104072 "
       id="path458" />
    <path
       d="M38580 104615 L38608 104644 L38580 104672 L38551 104644 L38580 104615 L38580 104672 "
       id="path460" />
    <path
       d="M39237 104072 L39437 104672 L39637 104072 "
       id="path462" />
    <path
       d="M39837 104672 L39837 104272 "
       id="path464" />
    <path
       d="M39837 104072 L39808 104101 L39837 104130 L39865 104101 L39837 104072 L39837 104130 "
       id="path466" />
    <path
       d="M40380 104644 L40322 104672 L40208 104672 L40151 104644 L40122 104615 L40094 104558 L40094 104387 L40122 104330 L40151 104301 L40208 104272 L40322 104272 L40380 104301 "
       id="path468" />
    <path
       d="M40551 104272 L40780 104272 "
       id="path470" />
    <path
       d="M40637 104072 L40637 104587 L40665 104644 L40722 104672 L40780 104672 "
       id="path472" />
    <path
       d="M41065 104672 L41008 104644 L40980 104615 L40951 104558 L40951 104387 L40980 104330 L41008 104301 L41065 104272 L41151 104272 L41208 104301 L41237 104330 L41265 104387 L41265 104558 L41237 104615 L41208 104644 L41151 104672 L41065 104672 "
       id="path474" />
    <path
       d="M41522 104672 L41522 104272 "
       id="path476" />
    <path
       d="M41522 104387 L41551 104330 L41580 104301 L41637 104272 L41694 104272 "
       id="path478" />
    <path
       d="M42265 104072 L42465 104672 L42665 104072 "
       id="path480" />
    <path
       d="M42865 104672 L42865 104272 "
       id="path482" />
    <path
       d="M42865 104072 L42837 104101 L42865 104130 L42894 104101 L42865 104072 L42865 104130 "
       id="path484" />
    <path
       d="M43237 104672 L43180 104644 L43151 104587 L43151 104072 "
       id="path486" />
    <path
       d="M43551 104672 L43494 104644 L43465 104587 L43465 104072 "
       id="path488" />
    <path
       d="M44037 104672 L44037 104358 L44008 104301 L43951 104272 L43837 104272 L43780 104301 "
       id="path490" />
    <path
       d="M44037 104644 L43980 104672 L43837 104672 L43780 104644 L43751 104587 L43751 104530 L43780 104472 L43837 104444 L43980 104444 L44037 104415 "
       id="path492" />
    <path
       d="M44322 104672 L44322 104272 "
       id="path494" />
    <path
       d="M44322 104387 L44351 104330 L44380 104301 L44437 104272 L44494 104272 "
       id="path496" />
    <path
       d="M44694 104672 L44694 104272 "
       id="path498" />
    <path
       d="M44694 104387 L44722 104330 L44751 104301 L44808 104272 L44865 104272 "
       id="path500" />
    <path
       d="M45294 104644 L45237 104672 L45122 104672 L45065 104644 L45037 104587 L45037 104358 L45065 104301 L45122 104272 L45237 104272 L45294 104301 L45322 104358 L45322 104415 L45037 104472 "
       id="path502" />
    <path
       d="M45837 104672 L45837 104358 L45808 104301 L45751 104272 L45637 104272 L45580 104301 "
       id="path504" />
    <path
       d="M45837 104644 L45780 104672 L45637 104672 L45580 104644 L45551 104587 L45551 104530 L45580 104472 L45637 104444 L45780 104444 L45837 104415 "
       id="path506" />
    <path
       d="M46208 104672 L46151 104644 L46122 104587 L46122 104072 "
       id="path508" />
    <path
       d="M36722 103472 L36722 102872 L36951 102872 L37008 102901 L37037 102930 L37065 102987 L37065 103072 L37037 103130 L37008 103158 L36951 103187 L36722 103187 "
       id="path510" />
    <path
       d="M37408 103472 L37351 103444 L37322 103387 L37322 102872 "
       id="path512" />
    <path
       d="M37894 103472 L37894 103158 L37865 103101 L37808 103072 L37694 103072 L37637 103101 "
       id="path514" />
    <path
       d="M37894 103444 L37837 103472 L37694 103472 L37637 103444 L37608 103387 L37608 103330 L37637 103272 L37694 103244 L37837 103244 L37894 103215 "
       id="path516" />
    <path
       d="M38437 103444 L38380 103472 L38265 103472 L38208 103444 L38180 103415 L38151 103358 L38151 103187 L38180 103130 L38208 103101 L38265 103072 L38380 103072 L38437 103101 "
       id="path518" />
    <path
       d="M38951 103472 L38951 103158 L38922 103101 L38865 103072 L38751 103072 L38694 103101 "
       id="path520" />
    <path
       d="M38951 103444 L38894 103472 L38751 103472 L38694 103444 L38665 103387 L38665 103330 L38694 103272 L38751 103244 L38894 103244 L38951 103215 "
       id="path522" />
    <path
       d="M39694 103472 L39694 102872 L39922 102872 L39980 102901 L40008 102930 L40037 102987 L40037 103072 L40008 103130 L39980 103158 L39922 103187 L39694 103187 "
       id="path524" />
    <path
       d="M40294 103472 L40294 103072 "
       id="path526" />
    <path
       d="M40294 102872 L40265 102901 L40294 102930 L40322 102901 L40294 102872 L40294 102930 "
       id="path528" />
    <path
       d="M40580 103072 L40580 103472 "
       id="path530" />
    <path
       d="M40580 103130 L40608 103101 L40665 103072 L40751 103072 L40808 103101 L40837 103158 L40837 103472 "
       id="path532" />
    <path
       d="M41380 103072 L41380 103558 L41351 103615 L41322 103644 L41265 103672 L41180 103672 L41122 103644 "
       id="path534" />
    <path
       d="M41380 103444 L41322 103472 L41208 103472 L41151 103444 L41122 103415 L41094 103358 L41094 103187 L41122 103130 L41151 103101 L41208 103072 L41322 103072 L41380 103101 "
       id="path536" />
    <path
       d="M41922 103072 L41922 103472 "
       id="path538" />
    <path
       d="M41665 103072 L41665 103387 L41694 103444 L41751 103472 L41837 103472 L41894 103444 L41922 103415 "
       id="path540" />
    <path
       d="M42208 103472 L42208 103072 "
       id="path542" />
    <path
       d="M42208 102872 L42180 102901 L42208 102930 L42237 102901 L42208 102872 L42208 102930 "
       id="path544" />
    <path
       d="M42494 103072 L42494 103472 "
       id="path546" />
    <path
       d="M42494 103130 L42522 103101 L42579 103072 L42665 103072 L42722 103101 L42751 103158 L42751 103472 "
       id="path548" />
    <path
       d="M43122 103472 L43065 103444 L43037 103415 L43008 103358 L43008 103187 L43037 103130 L43065 103101 L43122 103072 L43208 103072 L43265 103101 L43294 103130 L43322 103187 L43322 103358 L43294 103415 L43265 103444 L43208 103472 L43122 103472 "
       id="path550" />
    <path
       d="M44351 103472 L44008 103472 "
       id="path552" />
    <path
       d="M44179 103472 L44179 102872 L44122 102958 L44065 103015 L44008 103044 "
       id="path554" />
    <path
       d="M44694 103130 L44637 103101 L44608 103072 L44580 103015 L44580 102987 L44608 102930 L44637 102901 L44694 102872 L44808 102872 L44865 102901 L44894 102930 L44922 102987 L44922 103015 L44894 103072 L44865 103101 L44808 103130 L44694 103130 L44637 103158 L44608 103187 L44580 103244 L44580 103358 L44608 103415 L44637 103444 L44694 103472 L44808 103472 L44865 103444 L44894 103415 L44922 103358 L44922 103244 L44894 103187 L44865 103158 L44808 103130 "
       id="path556" />
    <path
       d="M45380 103158 L45180 103158 "
       id="path558" />
    <path
       d="M45180 103472 L45180 102872 L45465 102872 "
       id="path560" />
    <path
       d="M45665 102930 L45694 102901 L45751 102872 L45894 102872 L45951 102901 L45980 102930 L46008 102987 L46008 103044 L45980 103130 L45637 103472 L46008 103472 "
       id="path562" />
    <path
       d="M46551 102872 L46265 102872 L46237 103158 L46265 103130 L46322 103101 L46465 103101 L46522 103130 L46551 103158 L46580 103215 L46580 103358 L46551 103415 L46522 103444 L46465 103472 L46322 103472 L46265 103444 L46237 103415 "
       id="path564" />
    <path
       d="M47122 102872 L46837 102872 L46808 103158 L46837 103130 L46894 103101 L47037 103101 L47094 103130 L47122 103158 L47151 103215 L47151 103358 L47122 103415 L47094 103444 L47037 103472 L46894 103472 L46837 103444 L46808 103415 "
       id="path566" />
    <path
       d="M47522 102872 L47580 102872 L47637 102901 L47665 102930 L47694 102987 L47722 103101 L47722 103244 L47694 103358 L47665 103415 L47637 103444 L47580 103472 L47522 103472 L47465 103444 L47437 103415 L47408 103358 L47380 103244 L47380 103101 L47408 102987 L47437 102930 L47465 102901 L47522 102872 "
       id="path568" />
    <path
       d="M48380 103072 L48522 103472 L48665 103072 "
       id="path570" />
    <path
       d="M48865 102930 L48894 102901 L48951 102872 L49094 102872 L49151 102901 L49180 102930 L49208 102987 L49208 103044 L49180 103130 L48837 103472 L49208 103472 "
       id="path572" />
    <path
       d="M35980 102630 L35980 112230 "
       id="path574" />
    <path
       d="M35980 106230 L77980 106230 "
       id="path576" />
    <path
       d="M35980 102630 L77980 102630 "
       id="path578" />
    <path
       d="M35980 108630 L77980 108630 "
       id="path580" />
    <path
       d="M69180 109830 L69180 112230 "
       id="path582" />
    <path
       d="M35980 111030 L77980 111030 "
       id="path584" />
    <path
       d="M35980 109830 L77980 109830 "
       id="path586" />
    <path
       d="M42580 109830 L42580 111030 "
       id="path588" />
  </g>
  <g
     style="fill:#000000; fill-opacity:0.0;  stroke:#000000; stroke-width:19.685; stroke-opacity:1;  stroke-linecap:round; stroke-linejoin:round;"
     id="g744" />
  <g
     id="g4208">
    <g
       id="g590"
       style="fill:#000000; fill-opacity:0.0;  stroke:#000000; stroke-width:118.11; stroke-opacity:1;  stroke-linecap:round; stroke-linejoin:round;">
      <path
         id="path592"
         d="M29752 34936 L30127 34936 " />
      <path
         id="path594"
         d="M29677 35161 L29940 34373 L30202 35161 " />
      <path
         id="path596"
         d="M30802 34636 L30802 35161 " />
      <path
         id="path598"
         d="M30614 34336 L30427 34898 L30914 34898 " />
      <path
         id="path600"
         d="M31721 34936 L32095 34936 " />
      <path
         id="path602"
         d="M31646 35161 L31908 34373 L32170 35161 " />
      <path
         id="path604"
         d="M32358 34373 L32845 34373 L32583 34673 L32695 34673 L32770 34711 L32808 34748 L32845 34823 L32845 35011 L32808 35086 L32770 35123 L32695 35161 L32470 35161 L32395 35123 L32358 35086 " />
      <path
         id="path606"
         d="M33886 34936 L34261 34936 " />
      <path
         id="path608"
         d="M33811 35161 L34073 34373 L34336 35161 " />
      <path
         id="path610"
         d="M34561 34448 L34598 34411 L34673 34373 L34861 34373 L34936 34411 L34973 34448 L35011 34523 L35011 34598 L34973 34711 L34523 35161 L35011 35161 " />
      <path
         id="path612"
         d="M35854 34936 L36229 34936 " />
      <path
         id="path614"
         d="M35779 35161 L36042 34373 L36304 35161 " />
      <path
         id="path616"
         d="M36979 35161 L36529 35161 " />
      <path
         id="path618"
         d="M36754 35161 L36754 34373 L36679 34486 L36604 34561 L36529 34598 " />
      <path
         id="path620"
         d="M37823 34936 L38198 34936 " />
      <path
         id="path622"
         d="M37748 35161 L38010 34373 L38273 35161 " />
      <path
         id="path624"
         d="M38685 34373 L38760 34373 L38835 34411 L38873 34448 L38910 34523 L38948 34673 L38948 34861 L38910 35011 L38873 35086 L38835 35123 L38760 35161 L38685 35161 L38610 35123 L38573 35086 L38535 35011 L38498 34861 L38498 34673 L38535 34523 L38573 34448 L38610 34411 L38685 34373 " />
      <path
         id="path626"
         d="M46137 35161 L46137 34373 L46437 34373 L46512 34411 L46550 34448 L46587 34523 L46587 34636 L46550 34711 L46512 34748 L46437 34786 L46137 34786 " />
      <path
         id="path628"
         d="M46850 34373 L47037 35161 L47187 34598 L47337 35161 L47525 34373 " />
      <path
         id="path630"
         d="M47825 35161 L47825 34373 L48087 34936 L48350 34373 L48350 35161 " />
      <path
         id="path632"
         d="M25403 19806 L25403 19019 L25590 19019 L25703 19056 L25778 19131 L25815 19206 L25853 19356 L25853 19469 L25815 19619 L25778 19694 L25703 19769 L25590 19806 L25403 19806 " />
      <path
         id="path634"
         d="M26115 19019 L26640 19019 L26302 19806 " />
      <path
         id="path636"
         d="M27371 19806 L27371 19019 L27559 19019 L27671 19056 L27746 19131 L27784 19206 L27821 19356 L27821 19469 L27784 19619 L27746 19694 L27671 19769 L27559 19806 L27371 19806 " />
      <path
         id="path638"
         d="M28496 19019 L28346 19019 L28271 19056 L28233 19094 L28158 19206 L28121 19356 L28121 19656 L28158 19731 L28196 19769 L28271 19806 L28421 19806 L28496 19769 L28533 19731 L28571 19656 L28571 19469 L28533 19394 L28496 19356 L28421 19319 L28271 19319 L28196 19356 L28158 19394 L28121 19469 " />
      <path
         id="path640"
         d="M29536 19806 L29536 19019 L29724 19019 L29836 19056 L29911 19131 L29949 19206 L29986 19356 L29986 19469 L29949 19619 L29911 19694 L29836 19769 L29724 19806 L29536 19806 " />
      <path
         id="path642"
         d="M30699 19019 L30324 19019 L30286 19394 L30324 19356 L30399 19319 L30586 19319 L30661 19356 L30699 19394 L30736 19469 L30736 19656 L30699 19731 L30661 19769 L30586 19806 L30399 19806 L30324 19769 L30286 19731 " />
      <path
         id="path644"
         d="M31505 19806 L31505 19019 L31692 19019 L31805 19056 L31880 19131 L31917 19206 L31955 19356 L31955 19469 L31917 19619 L31880 19694 L31805 19769 L31692 19806 L31505 19806 " />
      <path
         id="path646"
         d="M32630 19281 L32630 19806 " />
      <path
         id="path648"
         d="M32442 18982 L32255 19544 L32742 19544 " />
      <path
         id="path650"
         d="M33670 19806 L33670 19019 L33858 19019 L33970 19056 L34045 19131 L34083 19206 L34120 19356 L34120 19469 L34083 19619 L34045 19694 L33970 19769 L33858 19806 L33670 19806 " />
      <path
         id="path652"
         d="M34383 19019 L34870 19019 L34608 19319 L34720 19319 L34795 19356 L34833 19394 L34870 19469 L34870 19656 L34833 19731 L34795 19769 L34720 19806 L34495 19806 L34420 19769 L34383 19731 " />
      <path
         id="path654"
         d="M35639 19806 L35639 19019 L35826 19019 L35939 19056 L36014 19131 L36051 19206 L36089 19356 L36089 19469 L36051 19619 L36014 19694 L35939 19769 L35826 19806 L35639 19806 " />
      <path
         id="path656"
         d="M36389 19094 L36426 19056 L36501 19019 L36689 19019 L36764 19056 L36801 19094 L36839 19169 L36839 19244 L36801 19356 L36351 19806 L36839 19806 " />
      <path
         id="path658"
         d="M37804 19806 L37804 19019 L37992 19019 L38104 19056 L38179 19131 L38217 19206 L38254 19356 L38254 19469 L38217 19619 L38179 19694 L38104 19769 L37992 19806 L37804 19806 " />
      <path
         id="path660"
         d="M39004 19806 L38554 19806 " />
      <path
         id="path662"
         d="M38779 19806 L38779 19019 L38704 19131 L38629 19206 L38554 19244 " />
      <path
         id="path664"
         d="M39773 19806 L39773 19019 L39960 19019 L40073 19056 L40148 19131 L40185 19206 L40223 19356 L40223 19469 L40185 19619 L40148 19694 L40073 19769 L39960 19806 L39773 19806 " />
      <path
         id="path666"
         d="M40710 19019 L40785 19019 L40860 19056 L40898 19094 L40935 19169 L40973 19319 L40973 19506 L40935 19656 L40898 19731 L40860 19769 L40785 19806 L40710 19806 L40635 19769 L40598 19731 L40560 19656 L40523 19506 L40523 19319 L40560 19169 L40598 19094 L40635 19056 L40710 19019 " />
      <path
         id="path668"
         d="M44413 19019 L44413 19656 L44450 19731 L44488 19769 L44563 19806 L44713 19806 L44788 19769 L44825 19731 L44863 19656 L44863 19019 " />
      <path
         id="path670"
         d="M45200 19581 L45575 19581 " />
      <path
         id="path672"
         d="M45125 19806 L45388 19019 L45650 19806 " />
      <path
         id="path674"
         d="M46362 19806 L46100 19431 " />
      <path
         id="path676"
         d="M45913 19806 L45913 19019 L46212 19019 L46287 19056 L46325 19094 L46362 19169 L46362 19281 L46325 19356 L46287 19394 L46212 19431 L45913 19431 " />
      <path
         id="path678"
         d="M46587 19019 L47037 19019 " />
      <path
         id="path680"
         d="M46812 19806 L46812 19019 " />
      <path
         id="path682"
         d="M51077 22459 L51677 22459 " />
      <path
         id="path684"
         d="M51377 22759 L51377 22159 " />
      <path
         id="path686"
         d="M52652 22459 L53252 22459 " />
      <path
         id="path688"
         d="M58455 32442 L59242 32442 " />
      <path
         id="path690"
         d="M58492 32442 L58455 32367 L58455 32217 L58492 32142 L58530 32105 L58605 32067 L58830 32067 L58905 32105 L58942 32142 L58980 32217 L58980 32367 L58942 32442 " />
      <path
         id="path692"
         d="M58980 31730 L58455 31730 " />
      <path
         id="path694"
         d="M58192 31730 L58230 31767 L58267 31730 L58230 31692 L58192 31730 L58267 31730 " />
      <path
         id="path696"
         d="M58455 31355 L58980 31355 " />
      <path
         id="path698"
         d="M58530 31355 L58492 31317 L58455 31242 L58455 31130 L58492 31055 L58567 31017 L58980 31017 " />
      <path
         id="path700"
         d="M58455 30305 L59092 30305 L59167 30343 L59205 30380 L59242 30455 L59242 30568 L59205 30643 " />
      <path
         id="path702"
         d="M58942 30305 L58980 30380 L58980 30530 L58942 30605 L58905 30643 L58830 30680 L58605 30680 L58530 30643 L58492 30605 L58455 30530 L58455 30380 L58492 30305 " />
      <path
         id="path704"
         d="M58455 29593 L58980 29593 " />
      <path
         id="path706"
         d="M58455 29930 L58867 29930 L58942 29893 L58980 29818 L58980 29705 L58942 29630 L58905 29593 " />
      <path
         id="path708"
         d="M58980 29218 L58455 29218 " />
      <path
         id="path710"
         d="M58192 29218 L58230 29255 L58267 29218 L58230 29180 L58192 29218 L58267 29218 " />
      <path
         id="path712"
         d="M58455 28843 L58980 28843 " />
      <path
         id="path714"
         d="M58530 28843 L58492 28805 L58455 28730 L58455 28618 L58492 28543 L58567 28505 L58980 28505 " />
      <path
         id="path716"
         d="M58980 28018 L58942 28093 L58905 28130 L58830 28168 L58605 28168 L58530 28130 L58492 28093 L58455 28018 L58455 27905 L58492 27830 L58530 27793 L58605 27755 L58830 27755 L58905 27793 L58942 27830 L58980 27905 L58980 28018 " />
      <path
         id="path718"
         d="M58680 27418 L58680 26818 " />
      <path
         id="path720"
         d="M58267 26481 L58230 26443 L58192 26368 L58192 26181 L58230 26106 L58267 26068 L58342 26031 L58417 26031 L58530 26068 L58980 26518 L58980 26031 " />
      <path
         id="path722"
         d="M58192 25318 L58192 25693 L58567 25731 L58530 25693 L58492 25618 L58492 25431 L58530 25356 L58567 25318 L58642 25281 L58830 25281 L58905 25318 L58942 25356 L58980 25431 L58980 25618 L58942 25693 L58905 25731 " />
      <path
         id="path724"
         d="M58192 24568 L58192 24943 L58567 24981 L58530 24943 L58492 24868 L58492 24681 L58530 24606 L58567 24568 L58642 24531 L58830 24531 L58905 24568 L58942 24606 L58980 24681 L58980 24868 L58942 24943 L58905 24981 " />
      <path
         id="path726"
         d="M58192 24043 L58192 23968 L58230 23893 L58267 23856 L58342 23818 L58492 23781 L58680 23781 L58830 23818 L58905 23856 L58942 23893 L58980 23968 L58980 24043 L58942 24118 L58905 24156 L58830 24193 L58680 24231 L58492 24231 L58342 24193 L58267 24156 L58230 24118 L58192 24043 " />
      <path
         id="path728"
         d="M58680 23443 L58680 22844 " />
      <path
         id="path730"
         d="M58455 22544 L58980 22356 L58455 22169 " />
      <path
         id="path732"
         d="M58267 21906 L58230 21869 L58192 21794 L58192 21606 L58230 21531 L58267 21494 L58342 21456 L58417 21456 L58530 21494 L58980 21944 L58980 21456 " />
    </g>
    <g
       id="g734"
       style="fill:#000000; fill-opacity:0.0;  stroke:#000000; stroke-width:59.0551; stroke-opacity:1;  stroke-linecap:round; stroke-linejoin:round;">
      <path
         id="path736"
         d="M20275 17322 L59645 17322 " />
      <path
         id="path738"
         d="M20275 37007 L20275 17322 " />
      <path
         id="path740"
         d="M59645 37007 L20275 37007 " />
      <path
         id="path742"
         d="M59645 37007 L59645 17322 " />
    </g>
    <g
       id="g746"
       style="fill:#000000; fill-opacity:1.0;  stroke:#000000; stroke-width:19.685; stroke-opacity:1;  stroke-linecap:round; stroke-linejoin:round;">
      <circle
         id="circle748"
         r="290.157"
         cy="31220.9"
         cx="54830.7" />
      <circle
         id="circle750"
         r="290.157"
         cy="31220.9"
         cx="53830.7" />
      <circle
         id="circle752"
         r="290.157"
         cy="32007.9"
         cx="53830.7" />
      <circle
         id="circle754"
         r="290.157"
         cy="32007.9"
         cx="54830.7" />
      <circle
         id="circle756"
         r="521.657"
         cy="33070.9"
         cx="56692.7" />
      <circle
         id="circle758"
         r="521.657"
         cy="33070.9"
         cx="51968.7" />
      <circle
         id="circle760"
         r="265.157"
         cy="31374"
         cx="21850.4" />
      <circle
         id="circle762"
         r="265.157"
         cy="34374"
         cx="21850.4" />
      <circle
         id="circle764"
         r="265.157"
         cy="27755.9"
         cx="29405.5" />
      <circle
         id="circle766"
         r="265.157"
         cy="27755.9"
         cx="32405.5" />
      <circle
         id="circle768"
         r="265.157"
         cy="29527.6"
         cx="26059.1" />
      <circle
         id="circle770"
         r="265.157"
         cy="29527.6"
         cx="29059.1" />
      <polyline
         id="polyline772"
         points="55221,23906 55801,23906 55801,24487 55221,24487 55221,23906 "
         style="fill-rule:evenodd;" />
      <circle
         id="circle774"
         r="290.157"
         cy="25196.9"
         cx="55511.8" />
      <circle
         id="circle776"
         r="290.157"
         cy="26196.9"
         cx="55511.8" />
    </g>
    <g
       id="g778"
       style="fill:#000000; fill-opacity:1.0;  stroke:#000000; stroke-width:591; stroke-opacity:1;  stroke-linecap:round; stroke-linejoin:round;">
      <path
         id="path780"
         d="M34051 29118 L34051 29393 " />
      <path
         id="path782"
         d="M35051 29118 L35051 29393 " />
      <path
         id="path784"
         d="M36051 29118 L36051 29393 " />
      <path
         id="path786"
         d="M37051 29118 L37051 29393 " />
      <path
         id="path788"
         d="M38051 29118 L38051 29393 " />
      <path
         id="path790"
         d="M39051 29118 L39051 29393 " />
      <path
         id="path792"
         d="M40051 29118 L40051 29393 " />
      <path
         id="path794"
         d="M41051 29118 L41051 29393 " />
      <path
         id="path796"
         d="M42051 29118 L42051 29393 " />
      <path
         id="path798"
         d="M43051 29118 L43051 29393 " />
      <path
         id="path800"
         d="M44051 29118 L44051 29393 " />
      <path
         id="path802"
         d="M45051 29118 L45051 29393 " />
      <path
         id="path804"
         d="M46051 29118 L46051 29393 " />
      <path
         id="path806"
         d="M47051 29118 L47051 29393 " />
      <path
         id="path808"
         d="M47051 26118 L47051 26393 " />
      <path
         id="path810"
         d="M46051 26118 L46051 26393 " />
      <path
         id="path812"
         d="M45051 26118 L45051 26393 " />
      <path
         id="path814"
         d="M44051 26118 L44051 26393 " />
      <path
         id="path816"
         d="M43051 26118 L43051 26393 " />
      <path
         id="path818"
         d="M42051 26118 L42051 26393 " />
      <path
         id="path820"
         d="M41051 26118 L41051 26393 " />
      <path
         id="path822"
         d="M40051 26118 L40051 26393 " />
      <path
         id="path824"
         d="M39051 26118 L39051 26393 " />
      <path
         id="path826"
         d="M38051 26118 L38051 26393 " />
      <path
         id="path828"
         d="M37051 26118 L37051 26393 " />
      <path
         id="path830"
         d="M36051 26118 L36051 26393 " />
      <path
         id="path832"
         d="M35051 26118 L35051 26393 " />
      <path
         id="path834"
         d="M34051 26118 L34051 26393 " />
    </g>
    <g
       id="g836"
       style="fill:#000000; fill-opacity:1.0;  stroke:#000000; stroke-width:19.685; stroke-opacity:1;  stroke-linecap:round; stroke-linejoin:round;">
      <circle
         id="circle838"
         r="383.657"
         cy="32283.5"
         cx="41716.5" />
      <circle
         id="circle840"
         r="383.657"
         cy="32283.5"
         cx="43716.5" />
      <polyline
         id="polyline842"
         points="23644,32548 23644,32018 24174,32018 24174,32548 23644,32548 "
         style="fill-rule:evenodd;" />
      <circle
         id="circle844"
         r="265.157"
         cy="32283.5"
         cx="24909.4" />
    </g>
    <g
       id="g846"
       style="fill:#000000; fill-opacity:1.0;  stroke:#000000; stroke-width:687; stroke-opacity:1;  stroke-linecap:round; stroke-linejoin:round;">
      <path
         id="path848"
         d="M55660 22062 L55363 22062 " />
      <path
         id="path850"
         d="M55660 21062 L55363 21062 " />
      <path
         id="path852"
         d="M55660 20062 L55363 20062 " />
    </g>
    <g
       id="g854"
       style="fill:#000000; fill-opacity:1.0;  stroke:#000000; stroke-width:19.685; stroke-opacity:1;  stroke-linecap:round; stroke-linejoin:round;">
      <circle
         id="circle856"
         r="482.283"
         cy="20866.1"
         cx="40354.3" />
      <circle
         id="circle858"
         r="482.283"
         cy="20866.1"
         cx="38385.8" />
      <circle
         id="circle860"
         r="482.283"
         cy="20866.1"
         cx="36220.5" />
      <circle
         id="circle862"
         r="482.283"
         cy="20866.1"
         cx="34252" />
      <circle
         id="circle864"
         r="482.283"
         cy="20866.1"
         cx="32086.6" />
      <circle
         id="circle866"
         r="482.283"
         cy="20866.1"
         cx="30118.1" />
      <circle
         id="circle868"
         r="482.283"
         cy="20866.1"
         cx="27952.8" />
      <circle
         id="circle870"
         r="482.283"
         cy="20866.1"
         cx="25984.3" />
      <circle
         id="circle872"
         r="482.283"
         cy="33267.7"
         cx="38385.8" />
      <circle
         id="circle874"
         r="482.283"
         cy="33267.7"
         cx="34448.8" />
      <circle
         id="circle876"
         r="482.283"
         cy="33267.7"
         cx="36417.3" />
      <circle
         id="circle878"
         r="482.283"
         cy="33267.7"
         cx="30315" />
      <circle
         id="circle880"
         r="482.283"
         cy="33267.7"
         cx="32283.5" />
      <circle
         id="circle882"
         r="482.283"
         cy="20866.1"
         cx="43700.8" />
      <circle
         id="circle884"
         r="482.283"
         cy="20866.1"
         cx="47637.8" />
      <circle
         id="circle886"
         r="482.283"
         cy="20866.1"
         cx="45669.3" />
      <circle
         id="circle888"
         r="482.283"
         cy="33267.7"
         cx="46259.8" />
      <circle
         id="circle890"
         r="482.283"
         cy="33267.7"
         cx="48228.3" />
      <circle
         id="circle892"
         r="383.657"
         cy="27559.1"
         cx="22940.9" />
      <circle
         id="circle894"
         r="383.657"
         cy="27559.1"
         cx="21940.9" />
      <circle
         id="circle896"
         r="383.657"
         cy="27559.1"
         cx="26074.8" />
      <circle
         id="circle898"
         r="383.657"
         cy="27559.1"
         cx="27074.8" />
      <circle
         id="circle900"
         r="383.657"
         cy="34547.7"
         cx="28248.2" />
      <circle
         id="circle902"
         r="383.657"
         cy="31987.7"
         cx="26476.2" />
      <circle
         id="circle904"
         r="383.657"
         cy="34547.7"
         cx="26476.2" />
      <circle
         id="circle906"
         r="383.657"
         cy="31987.7"
         cx="28248.2" />
      <circle
         id="circle908"
         r="265.157"
         cy="34736.2"
         cx="50590.6" />
      <circle
         id="circle910"
         r="265.157"
         cy="35736.2"
         cx="50590.6" />
      <circle
         id="circle912"
         r="265.157"
         cy="34736.2"
         cx="41732.3" />
      <circle
         id="circle914"
         r="265.157"
         cy="35736.2"
         cx="41732.3" />
      <circle
         id="circle916"
         r="265.157"
         cy="34736.2"
         cx="43700.8" />
      <circle
         id="circle918"
         r="265.157"
         cy="35736.2"
         cx="43700.8" />
      <circle
         id="circle920"
         r="265.157"
         cy="34448.8"
         cx="23909.4" />
      <circle
         id="circle922"
         r="265.157"
         cy="34448.8"
         cx="24909.4" />
      <circle
         id="circle924"
         r="482.283"
         cy="20866.1"
         cx="52952.8" />
      <circle
         id="circle926"
         r="482.283"
         cy="20866.1"
         cx="50984.3" />
      <circle
         id="circle928"
         r="790.157"
         cy="35433.1"
         cx="58070.9" />
      <circle
         id="circle930"
         r="790.157"
         cy="18897.6"
         cx="58070.9" />
      <circle
         id="circle932"
         r="790.157"
         cy="18897.6"
         cx="21850.4" />
    </g>
    <g
       id="g934"
       style="fill:#000000; fill-opacity:1.0;  stroke:#000000; stroke-width:393.701; stroke-opacity:1;  stroke-linecap:round; stroke-linejoin:round;">
      <path
         id="path936"
         d="M35051 29255 L35051 29909 " />
      <path
         id="path938"
         d="M30314 31889 L30314 33267 " />
      <path
         id="path940"
         d="M31102 31102 L30314 31889 " />
      <path
         id="path942"
         d="M33858 31102 L31102 31102 " />
      <path
         id="path944"
         d="M35051 29909 L33858 31102 " />
      <path
         id="path946"
         d="M36051 29255 L36051 30090 " />
      <path
         id="path948"
         d="M33661 31889 L32283 33267 " />
      <path
         id="path950"
         d="M34251 31889 L33661 31889 " />
      <path
         id="path952"
         d="M36051 30090 L34251 31889 " />
      <path
         id="path954"
         d="M37051 29255 L37051 30665 " />
      <path
         id="path956"
         d="M37051 30665 L34448 33267 " />
      <path
         id="path958"
         d="M38051 29255 L38051 31633 " />
      <path
         id="path960"
         d="M38051 31633 L36417 33267 " />
      <path
         id="path962"
         d="M40051 29255 L40051 29830 " />
      <path
         id="path964"
         d="M38976 32677 L38385 33267 " />
      <path
         id="path966"
         d="M38976 30905 L38976 32677 " />
      <path
         id="path968"
         d="M40051 29830 L38976 30905 " />
      <path
         id="path970"
         d="M41051 26255 L41051 21562 " />
      <path
         id="path972"
         d="M41051 21562 L40354 20866 " />
      <path
         id="path974"
         d="M40051 26255 L40051 22531 " />
      <path
         id="path976"
         d="M40051 22531 L38385 20866 " />
      <path
         id="path978"
         d="M39051 26255 L39051 23696 " />
      <path
         id="path980"
         d="M39051 23696 L36220 20866 " />
      <path
         id="path982"
         d="M38051 26255 L38051 24665 " />
      <path
         id="path984"
         d="M38051 24665 L34251 20866 " />
      <path
         id="path986"
         d="M37051 26255 L37051 25043 " />
      <path
         id="path988"
         d="M32086 23031 L32086 20866 " />
      <path
         id="path990"
         d="M35039 23031 L32086 23031 " />
      <path
         id="path992"
         d="M37051 25043 L35039 23031 " />
      <path
         id="path994"
         d="M36051 26255 L36051 25421 " />
      <path
         id="path996"
         d="M30118 24015 L30118 20866 " />
      <path
         id="path998"
         d="M34645 24015 L30118 24015 " />
      <path
         id="path1000"
         d="M36051 25421 L34645 24015 " />
      <path
         id="path1002"
         d="M35051 26255 L35051 25602 " />
      <path
         id="path1004"
         d="M27952 23425 L27952 20866 " />
      <path
         id="path1006"
         d="M29527 25000 L27952 23425 " />
      <path
         id="path1008"
         d="M34448 25000 L29527 25000 " />
      <path
         id="path1010"
         d="M35051 25602 L34448 25000 " />
      <path
         id="path1012"
         d="M34051 26255 L29011 26255 " />
      <path
         id="path1014"
         d="M25984 23228 L25984 20866 " />
      <path
         id="path1016"
         d="M29011 26255 L25984 23228 " />
      <path
         id="path1018"
         d="M46259 33267 L46259 31889 " />
      <path
         id="path1020"
         d="M45051 30681 L45051 29255 " />
      <path
         id="path1022"
         d="M46259 31889 L45051 30681 " />
      <path
         id="path1024"
         d="M48228 33267 L48228 32480 " />
      <path
         id="path1026"
         d="M46051 30303 L46051 29255 " />
      <path
         id="path1028"
         d="M48228 32480 L46051 30303 " />
      <path
         id="path1030"
         d="M44051 26255 L44051 22484 " />
      <path
         id="path1032"
         d="M44051 22484 L45669 20866 " />
      <path
         id="path1034"
         d="M45051 26255 L45051 23452 " />
      <path
         id="path1036"
         d="M45051 23452 L47637 20866 " />
      <path
         id="path1038"
         d="M53830 32007 L53070 32007 " />
      <path
         id="path1040"
         d="M46051 27744 L46051 26255 " />
      <path
         id="path1042"
         d="M46062 27755 L46051 27744 " />
      <path
         id="path1044"
         d="M51968 27755 L46062 27755 " />
      <path
         id="path1046"
         d="M51968 30905 L51968 27755 " />
      <path
         id="path1048"
         d="M53070 32007 L51968 30905 " />
      <path
         id="path1050"
         d="M53830 31220 L53830 26484 " />
      <path
         id="path1052"
         d="M53602 26255 L47051 26255 " />
      <path
         id="path1054"
         d="M53830 26484 L53602 26255 " />
      <path
         id="path1056"
         d="M41051 29255 L41051 30405 " />
      <path
         id="path1058"
         d="M39960 31496 L39960 35736 " />
      <path
         id="path1060"
         d="M41051 30405 L39960 31496 " />
      <path
         id="path1062"
         d="M28248 34547 L28248 35736 " />
      <path
         id="path1064"
         d="M28346 35629 L28346 35736 " />
      <path
         id="path1066"
         d="M28346 35637 L28346 35629 " />
      <path
         id="path1068"
         d="M28248 35736 L28346 35637 " />
      <path
         id="path1070"
         d="M24909 34448 L24909 35645 " />
      <path
         id="path1072"
         d="M24909 35645 L25000 35736 " />
      <path
         id="path1074"
         d="M41732 35736 L39960 35736 " />
      <path
         id="path1076"
         d="M39960 35736 L28346 35736 " />
      <path
         id="path1078"
         d="M28346 35736 L28149 35736 " />
      <path
         id="path1080"
         d="M28149 35736 L25000 35736 " />
      <path
         id="path1082"
         d="M25000 35736 L24803 35736 " />
      <path
         id="path1084"
         d="M24803 35736 L23212 35736 " />
      <path
         id="path1086"
         d="M23212 35736 L21850 34374 " />
      <path
         id="path1088"
         d="M43700 35736 L41732 35736 " />
      <path
         id="path1090"
         d="M50590 35736 L43700 35736 " />
      <path
         id="path1092"
         d="M54830 32007 L55787 32007 " />
      <path
         id="path1094"
         d="M56692 21062 L55511 21062 " />
      <path
         id="path1096"
         d="M57283 21653 L56692 21062 " />
      <path
         id="path1098"
         d="M57283 30511 L57283 21653 " />
      <path
         id="path1100"
         d="M55787 32007 L57283 30511 " />
      <path
         id="path1102"
         d="M24909 32283 L24909 34448 " />
      <path
         id="path1104"
         d="M54830 32007 L54830 35736 " />
      <path
         id="path1106"
         d="M54830 35736 L50590 35736 " />
      <path
         id="path1108"
         d="M43051 26255 L43051 21515 " />
      <path
         id="path1110"
         d="M43051 21515 L43700 20866 " />
      <path
         id="path1112"
         d="M55511 21062 L53149 21062 " />
      <path
         id="path1114"
         d="M53149 21062 L52952 20866 " />
      <path
         id="path1116"
         d="M41051 29255 L41051 28059 " />
      <path
         id="path1118"
         d="M43051 27421 L43051 26255 " />
      <path
         id="path1120"
         d="M42519 27952 L43051 27421 " />
      <path
         id="path1122"
         d="M41157 27952 L42519 27952 " />
      <path
         id="path1124"
         d="M41051 28059 L41157 27952 " />
      <path
         id="path1126"
         d="M29059 29527 L28936 29527 " />
      <path
         id="path1128"
         d="M28936 29527 L26476 31987 " />
      <path
         id="path1130"
         d="M34051 29255 L29330 29255 " />
      <path
         id="path1132"
         d="M29330 29255 L29059 29527 " />
      <path
         id="path1134"
         d="M32405 27755 L38582 27755 " />
      <path
         id="path1136"
         d="M39051 28224 L39051 29255 " />
      <path
         id="path1138"
         d="M38582 27755 L39051 28224 " />
      <path
         id="path1140"
         d="M29405 27755 L27271 27755 " />
      <path
         id="path1142"
         d="M27271 27755 L27074 27559 " />
      <path
         id="path1144"
         d="M50984 20866 L50984 19291 " />
      <path
         id="path1146"
         d="M54543 19094 L55511 20062 " />
      <path
         id="path1148"
         d="M51181 19094 L54543 19094 " />
      <path
         id="path1150"
         d="M50984 19291 L51181 19094 " />
      <path
         id="path1152"
         d="M55511 24196 L55511 22062 " />
      <path
         id="path1154"
         d="M54830 31220 L54830 26877 " />
      <path
         id="path1156"
         d="M54830 26877 L55511 26196 " />
      <path
         id="path1158"
         d="M50590 34736 L50590 29330 " />
      <path
         id="path1160"
         d="M50515 29255 L47051 29255 " />
      <path
         id="path1162"
         d="M50590 29330 L50515 29255 " />
      <path
         id="path1164"
         d="M41732 34736 L41732 32299 " />
      <path
         id="path1166"
         d="M41732 32299 L41716 32283 " />
      <path
         id="path1168"
         d="M42051 29255 L42051 31948 " />
      <path
         id="path1170"
         d="M42051 31948 L41716 32283 " />
      <path
         id="path1172"
         d="M43700 34736 L43700 32299 " />
      <path
         id="path1174"
         d="M43700 32299 L43716 32283 " />
      <path
         id="path1176"
         d="M43051 29255 L43051 31618 " />
      <path
         id="path1178"
         d="M43051 31618 L43716 32283 " />
      <path
         id="path1180"
         d="M21940 27559 L21940 31283 " />
      <path
         id="path1182"
         d="M21940 31283 L21850 31374 " />
      <path
         id="path1184"
         d="M22940 27559 L22940 20366 " />
      <path
         id="path1186"
         d="M25196 18110 L42051 18110 " />
      <path
         id="path1188"
         d="M22940 20366 L25196 18110 " />
      <path
         id="path1190"
         d="M42051 26255 L42051 18110 " />
      <path
         id="path1192"
         d="M42051 18110 L41929 18110 " />
      <path
         id="path1194"
         d="M49409 25196 L49212 25000 " />
      <path
         id="path1196"
         d="M49212 25000 L49212 18700 " />
      <path
         id="path1198"
         d="M49212 18700 L48622 18110 " />
      <path
         id="path1200"
         d="M48622 18110 L41929 18110 " />
      <path
         id="path1202"
         d="M55511 25196 L49409 25196 " />
      <path
         id="path1204"
         d="M23909 32283 L23909 31677 " />
      <path
         id="path1206"
         d="M23909 31677 L26059 29527 " />
      <path
         id="path1208"
         d="M26074 27559 L26074 29511 " />
      <path
         id="path1210"
         d="M26074 29511 L26059 29527 " />
      <path
         id="path1212"
         d="M26074 27559 L22940 27559 " />
      <path
         id="path1214"
         d="M23909 34448 L23909 32283 " />
    </g>
    <g
       id="g1216"
       style="fill:#FFFFFF; fill-opacity:1.0;  stroke:#FFFFFF; stroke-width:19.685; stroke-opacity:1;  stroke-linecap:round; stroke-linejoin:round;">
      <circle
         id="circle1218"
         r="150.157"
         cy="31220.9"
         cx="54830.7" />
      <circle
         id="circle1220"
         r="150.157"
         cy="31220.9"
         cx="53830.7" />
      <circle
         id="circle1222"
         r="150.157"
         cy="32007.9"
         cx="53830.7" />
      <circle
         id="circle1224"
         r="150.157"
         cy="32007.9"
         cx="54830.7" />
      <circle
         id="circle1226"
         r="443.157"
         cy="33070.9"
         cx="56692.7" />
      <circle
         id="circle1228"
         r="443.157"
         cy="33070.9"
         cx="51968.7" />
      <circle
         id="circle1230"
         r="150.157"
         cy="31374"
         cx="21850.4" />
      <circle
         id="circle1232"
         r="150.157"
         cy="34374"
         cx="21850.4" />
      <circle
         id="circle1234"
         r="150.157"
         cy="27755.9"
         cx="29405.5" />
      <circle
         id="circle1236"
         r="150.157"
         cy="27755.9"
         cx="32405.5" />
      <circle
         id="circle1238"
         r="150.157"
         cy="29527.6"
         cx="26059.1" />
      <circle
         id="circle1240"
         r="150.157"
         cy="29527.6"
         cx="29059.1" />
      <circle
         id="circle1242"
         r="190.157"
         cy="24196.9"
         cx="55511.8" />
      <circle
         id="circle1244"
         r="190.157"
         cy="25196.9"
         cx="55511.8" />
      <circle
         id="circle1246"
         r="190.157"
         cy="26196.9"
         cx="55511.8" />
      <circle
         id="circle1248"
         r="147.657"
         cy="29255.9"
         cx="34051.2" />
      <circle
         id="circle1250"
         r="147.657"
         cy="29255.9"
         cx="35051.2" />
      <circle
         id="circle1252"
         r="147.657"
         cy="29255.9"
         cx="36051.2" />
      <circle
         id="circle1254"
         r="147.657"
         cy="29255.9"
         cx="37051.2" />
      <circle
         id="circle1256"
         r="147.657"
         cy="29255.9"
         cx="38051.2" />
      <circle
         id="circle1258"
         r="147.657"
         cy="29255.9"
         cx="39051.2" />
      <circle
         id="circle1260"
         r="147.657"
         cy="29255.9"
         cx="40051.2" />
      <circle
         id="circle1262"
         r="147.657"
         cy="29255.9"
         cx="41051.2" />
      <circle
         id="circle1264"
         r="147.657"
         cy="29255.9"
         cx="42051.2" />
      <circle
         id="circle1266"
         r="147.657"
         cy="29255.9"
         cx="43051.2" />
      <circle
         id="circle1268"
         r="147.657"
         cy="29255.9"
         cx="44051.2" />
      <circle
         id="circle1270"
         r="147.657"
         cy="29255.9"
         cx="45051.2" />
      <circle
         id="circle1272"
         r="147.657"
         cy="29255.9"
         cx="46051.2" />
      <circle
         id="circle1274"
         r="147.657"
         cy="29255.9"
         cx="47051.2" />
      <circle
         id="circle1276"
         r="147.657"
         cy="26255.9"
         cx="47051.2" />
      <circle
         id="circle1278"
         r="147.657"
         cy="26255.9"
         cx="46051.2" />
      <circle
         id="circle1280"
         r="147.657"
         cy="26255.9"
         cx="45051.2" />
      <circle
         id="circle1282"
         r="147.657"
         cy="26255.9"
         cx="44051.2" />
      <circle
         id="circle1284"
         r="147.657"
         cy="26255.9"
         cx="43051.2" />
      <circle
         id="circle1286"
         r="147.657"
         cy="26255.9"
         cx="42051.2" />
      <circle
         id="circle1288"
         r="147.657"
         cy="26255.9"
         cx="41051.2" />
      <circle
         id="circle1290"
         r="147.657"
         cy="26255.9"
         cx="40051.2" />
      <circle
         id="circle1292"
         r="147.657"
         cy="26255.9"
         cx="39051.2" />
      <circle
         id="circle1294"
         r="147.657"
         cy="26255.9"
         cx="38051.2" />
      <circle
         id="circle1296"
         r="147.657"
         cy="26255.9"
         cx="37051.2" />
      <circle
         id="circle1298"
         r="147.657"
         cy="26255.9"
         cx="36051.2" />
      <circle
         id="circle1300"
         r="147.657"
         cy="26255.9"
         cx="35051.2" />
      <circle
         id="circle1302"
         r="147.657"
         cy="26255.9"
         cx="34051.2" />
      <circle
         id="circle1304"
         r="147.657"
         cy="32283.5"
         cx="41716.5" />
      <circle
         id="circle1306"
         r="147.657"
         cy="32283.5"
         cx="43716.5" />
      <circle
         id="circle1308"
         r="150.157"
         cy="32283.5"
         cx="23909.4" />
      <circle
         id="circle1310"
         r="150.157"
         cy="32283.5"
         cx="24909.4" />
      <circle
         id="circle1312"
         r="236.157"
         cy="22063"
         cx="55511.8" />
      <circle
         id="circle1314"
         r="236.157"
         cy="21063"
         cx="55511.8" />
      <circle
         id="circle1316"
         r="236.157"
         cy="20063"
         cx="55511.8" />
      <circle
         id="circle1318"
         r="246.063"
         cy="20866.1"
         cx="40354.3" />
      <circle
         id="circle1320"
         r="246.063"
         cy="20866.1"
         cx="38385.8" />
      <circle
         id="circle1322"
         r="246.063"
         cy="20866.1"
         cx="36220.5" />
      <circle
         id="circle1324"
         r="246.063"
         cy="20866.1"
         cx="34252" />
      <circle
         id="circle1326"
         r="246.063"
         cy="20866.1"
         cx="32086.6" />
      <circle
         id="circle1328"
         r="246.063"
         cy="20866.1"
         cx="30118.1" />
      <circle
         id="circle1330"
         r="246.063"
         cy="20866.1"
         cx="27952.8" />
      <circle
         id="circle1332"
         r="246.063"
         cy="20866.1"
         cx="25984.3" />
      <circle
         id="circle1334"
         r="246.063"
         cy="33267.7"
         cx="38385.8" />
      <circle
         id="circle1336"
         r="246.063"
         cy="33267.7"
         cx="34448.8" />
      <circle
         id="circle1338"
         r="246.063"
         cy="33267.7"
         cx="36417.3" />
      <circle
         id="circle1340"
         r="246.063"
         cy="33267.7"
         cx="30315" />
      <circle
         id="circle1342"
         r="246.063"
         cy="33267.7"
         cx="32283.5" />
      <circle
         id="circle1344"
         r="246.063"
         cy="20866.1"
         cx="43700.8" />
      <circle
         id="circle1346"
         r="246.063"
         cy="20866.1"
         cx="47637.8" />
      <circle
         id="circle1348"
         r="246.063"
         cy="20866.1"
         cx="45669.3" />
      <circle
         id="circle1350"
         r="246.063"
         cy="33267.7"
         cx="46259.8" />
      <circle
         id="circle1352"
         r="246.063"
         cy="33267.7"
         cx="48228.3" />
      <circle
         id="circle1354"
         r="147.657"
         cy="27559.1"
         cx="22940.9" />
      <circle
         id="circle1356"
         r="147.657"
         cy="27559.1"
         cx="21940.9" />
      <circle
         id="circle1358"
         r="147.657"
         cy="27559.1"
         cx="26074.8" />
      <circle
         id="circle1360"
         r="147.657"
         cy="27559.1"
         cx="27074.8" />
      <circle
         id="circle1362"
         r="187.157"
         cy="34547.7"
         cx="28248.2" />
      <circle
         id="circle1364"
         r="187.157"
         cy="31987.7"
         cx="26476.2" />
      <circle
         id="circle1366"
         r="187.157"
         cy="34547.7"
         cx="26476.2" />
      <circle
         id="circle1368"
         r="187.157"
         cy="31987.7"
         cx="28248.2" />
      <circle
         id="circle1370"
         r="150.157"
         cy="34736.2"
         cx="50590.6" />
      <circle
         id="circle1372"
         r="150.157"
         cy="35736.2"
         cx="50590.6" />
      <circle
         id="circle1374"
         r="150.157"
         cy="34736.2"
         cx="41732.3" />
      <circle
         id="circle1376"
         r="150.157"
         cy="35736.2"
         cx="41732.3" />
      <circle
         id="circle1378"
         r="150.157"
         cy="34736.2"
         cx="43700.8" />
      <circle
         id="circle1380"
         r="150.157"
         cy="35736.2"
         cx="43700.8" />
      <circle
         id="circle1382"
         r="150.157"
         cy="34448.8"
         cx="23909.4" />
      <circle
         id="circle1384"
         r="150.157"
         cy="34448.8"
         cx="24909.4" />
      <circle
         id="circle1386"
         r="246.063"
         cy="20866.1"
         cx="52952.8" />
      <circle
         id="circle1388"
         r="246.063"
         cy="20866.1"
         cx="50984.3" />
      <circle
         id="circle1390"
         r="590.157"
         cy="35433.1"
         cx="58070.9" />
      <circle
         id="circle1392"
         r="590.157"
         cy="18897.6"
         cx="58070.9" />
      <circle
         id="circle1394"
         r="590.157"
         cy="18897.6"
         cx="21850.4" />
    </g>
  </g>
</svg>
