<?xml version="1.0" standalone="no"?>
 <!DOCTYPE svg PUBLIC "-//W3C//DTD SVG 1.1//EN" 
 "http://www.w3.org/Graphics/SVG/1.1/DTD/svg11.dtd"> 
<svg xmlns="http://www.w3.org/2000/svg" version="1.1" 
    width="27.94cm" height="43.18cm" viewBox="0 0 110000 170000 ">
<title>SVG Picture created as pinguino-2550--brd.svg date 2014/04/03 00:04:29 </title>
  <desc>Picture generated by PCBNEW </desc>
<g style="fill:#000000; fill-opacity:1;stroke:#000000; stroke-opacity:1;
stroke-linecap:round; stroke-linejoin:round; "
 transform="translate(0 0) scale(1 1)">
</g>
<g style="fill:#000000; fill-opacity:0.0; 
stroke:#000000; stroke-width:19.685; stroke-opacity:1; 
stroke-linecap:round; stroke-linejoin:round;">
<path d="M4000 4000
L106000 4000
L106000 166000
L4000 166000
L4000 4000
" />
<path d="M4700 4700
L105300 4700
L105300 165300
L4700 165300
L4700 4700
" />
<path d="M24400 4000
L24400 4700
" />
<path d="M14342 4552
L14057 4552
" />
<path d="M14200 4552
L14200 4052
L14152 4123
L14104 4171
L14057 4195
" />
<path d="M24400 166000
L24400 165300
" />
<path d="M14342 165852
L14057 165852
" />
<path d="M14200 165852
L14200 165352
L14152 165423
L14104 165471
L14057 165495
" />
<path d="M44800 4000
L44800 4700
" />
<path d="M34457 4100
L34480 4076
L34528 4052
L34647 4052
L34695 4076
L34719 4100
L34742 4147
L34742 4195
L34719 4266
L34433 4552
L34742 4552
" />
<path d="M44800 166000
L44800 165300
" />
<path d="M34457 165400
L34480 165376
L34528 165352
L34647 165352
L34695 165376
L34719 165400
L34742 165447
L34742 165495
L34719 165566
L34433 165852
L34742 165852
" />
<path d="M65200 4000
L65200 4700
" />
<path d="M54833 4052
L55142 4052
L54976 4242
L55047 4242
L55095 4266
L55119 4290
L55142 4338
L55142 4457
L55119 4504
L55095 4528
L55047 4552
L54904 4552
L54857 4528
L54833 4504
" />
<path d="M65200 166000
L65200 165300
" />
<path d="M54833 165352
L55142 165352
L54976 165542
L55047 165542
L55095 165566
L55119 165590
L55142 165638
L55142 165757
L55119 165804
L55095 165828
L55047 165852
L54904 165852
L54857 165828
L54833 165804
" />
<path d="M85600 4000
L85600 4700
" />
<path d="M75495 4219
L75495 4552
" />
<path d="M75376 4028
L75257 4385
L75566 4385
" />
<path d="M85600 166000
L85600 165300
" />
<path d="M75495 165519
L75495 165852
" />
<path d="M75376 165328
L75257 165685
L75566 165685
" />
<path d="M95919 4052
L95680 4052
L95657 4290
L95680 4266
L95728 4242
L95847 4242
L95895 4266
L95919 4290
L95942 4338
L95942 4457
L95919 4504
L95895 4528
L95847 4552
L95728 4552
L95680 4528
L95657 4504
" />
<path d="M95919 165352
L95680 165352
L95657 165590
L95680 165566
L95728 165542
L95847 165542
L95895 165566
L95919 165590
L95942 165638
L95942 165757
L95919 165804
L95895 165828
L95847 165852
L95728 165852
L95680 165828
L95657 165804
" />
<path d="M4000 24250
L4700 24250
" />
<path d="M4230 14189
L4469 14189
" />
<path d="M4183 14332
L4350 13832
L4516 14332
" />
<path d="M106000 24250
L105300 24250
" />
<path d="M105530 14189
L105769 14189
" />
<path d="M105483 14332
L105650 13832
L105816 14332
" />
<path d="M4000 44500
L4700 44500
" />
<path d="M4385 34320
L4457 34344
L4480 34368
L4504 34415
L4504 34487
L4480 34534
L4457 34558
L4409 34582
L4219 34582
L4219 34082
L4385 34082
L4433 34106
L4457 34130
L4480 34177
L4480 34225
L4457 34272
L4433 34296
L4385 34320
L4219 34320
" />
<path d="M106000 44500
L105300 44500
" />
<path d="M105685 34320
L105757 34344
L105780 34368
L105804 34415
L105804 34487
L105780 34534
L105757 34558
L105709 34582
L105519 34582
L105519 34082
L105685 34082
L105733 34106
L105757 34130
L105780 34177
L105780 34225
L105757 34272
L105733 34296
L105685 34320
L105519 34320
" />
<path d="M4000 64750
L4700 64750
" />
<path d="M4504 54784
L4480 54808
L4409 54832
L4361 54832
L4290 54808
L4242 54760
L4219 54713
L4195 54618
L4195 54546
L4219 54451
L4242 54403
L4290 54356
L4361 54332
L4409 54332
L4480 54356
L4504 54380
" />
<path d="M106000 64750
L105300 64750
" />
<path d="M105804 54784
L105780 54808
L105709 54832
L105661 54832
L105590 54808
L105542 54760
L105519 54713
L105495 54618
L105495 54546
L105519 54451
L105542 54403
L105590 54356
L105661 54332
L105709 54332
L105780 54356
L105804 54380
" />
<path d="M4000 85000
L4700 85000
" />
<path d="M4219 75082
L4219 74582
L4338 74582
L4409 74606
L4457 74653
L4480 74701
L4504 74796
L4504 74868
L4480 74963
L4457 75010
L4409 75058
L4338 75082
L4219 75082
" />
<path d="M106000 85000
L105300 85000
" />
<path d="M105519 75082
L105519 74582
L105638 74582
L105709 74606
L105757 74653
L105780 74701
L105804 74796
L105804 74868
L105780 74963
L105757 75010
L105709 75058
L105638 75082
L105519 75082
" />
<path d="M4000 105250
L4700 105250
" />
<path d="M4242 95070
L4409 95070
" />
<path d="M4480 95332
L4242 95332
L4242 94832
L4480 94832
" />
<path d="M106000 105250
L105300 105250
" />
<path d="M105542 95070
L105709 95070
" />
<path d="M105780 95332
L105542 95332
L105542 94832
L105780 94832
" />
<path d="M4000 125500
L4700 125500
" />
<path d="M4421 115320
L4254 115320
" />
<path d="M4254 115582
L4254 115082
L4492 115082
" />
<path d="M106000 125500
L105300 125500
" />
<path d="M105721 115320
L105554 115320
" />
<path d="M105554 115582
L105554 115082
L105792 115082
" />
<path d="M4000 145750
L4700 145750
" />
<path d="M4480 135356
L4433 135332
L4361 135332
L4290 135356
L4242 135403
L4219 135451
L4195 135546
L4195 135618
L4219 135713
L4242 135760
L4290 135808
L4361 135832
L4409 135832
L4480 135808
L4504 135784
L4504 135618
L4409 135618
" />
<path d="M106000 145750
L105300 145750
" />
<path d="M105780 135356
L105733 135332
L105661 135332
L105590 135356
L105542 135403
L105519 135451
L105495 135546
L105495 135618
L105519 135713
L105542 135760
L105590 135808
L105661 135832
L105709 135832
L105780 135808
L105804 135784
L105804 135618
L105709 135618
" />
<path d="M4207 156082
L4207 155582
" />
<path d="M4207 155820
L4492 155820
" />
<path d="M4492 156082
L4492 155582
" />
<path d="M105507 156082
L105507 155582
" />
<path d="M105507 155820
L105792 155820
" />
<path d="M105792 156082
L105792 155582
" />
<path d="M72450 163742
L72525 163142
L72667 163142
L72750 163171
L72800 163228
L72821 163285
L72835 163400
L72825 163485
L72782 163600
L72746 163657
L72682 163714
L72592 163742
L72450 163742
" />
<path d="M73307 163742
L73346 163428
L73325 163371
L73271 163342
L73157 163342
L73096 163371
" />
<path d="M73310 163714
L73250 163742
L73107 163742
L73053 163714
L73032 163657
L73039 163600
L73075 163542
L73135 163514
L73278 163514
L73339 163485
" />
<path d="M73557 163342
L73785 163342
" />
<path d="M73667 163142
L73603 163657
L73625 163714
L73678 163742
L73735 163742
" />
<path d="M74167 163714
L74107 163742
L73992 163742
L73939 163714
L73917 163657
L73946 163428
L73982 163371
L74042 163342
L74157 163342
L74210 163371
L74232 163428
L74225 163485
L73932 163542
" />
<path d="M74457 163685
L74482 163714
L74450 163742
L74425 163714
L74457 163685
L74450 163742
" />
<path d="M74496 163371
L74521 163400
L74489 163428
L74464 163400
L74496 163371
L74489 163428
" />
<path d="M75210 163142
L75582 163142
L75353 163371
L75439 163371
L75492 163400
L75517 163428
L75539 163485
L75521 163628
L75485 163685
L75453 163714
L75392 163742
L75221 163742
L75167 163714
L75142 163685
" />
<path d="M76478 163742
L76517 163428
L76496 163371
L76442 163342
L76328 163342
L76267 163371
" />
<path d="M76482 163714
L76421 163742
L76278 163742
L76225 163714
L76203 163657
L76210 163600
L76246 163542
L76307 163514
L76450 163514
L76510 163485
" />
<path d="M76814 163342
L76739 163942
" />
<path d="M76810 163371
L76871 163342
L76985 163342
L77039 163371
L77064 163400
L77085 163457
L77064 163628
L77028 163685
L76996 163714
L76935 163742
L76821 163742
L76767 163714
" />
<path d="M77307 163742
L77357 163342
" />
<path d="M77342 163457
L77378 163400
L77410 163371
L77471 163342
L77528 163342
" />
<path d="M78175 163200
L78207 163171
L78267 163142
L78410 163142
L78464 163171
L78489 163200
L78510 163257
L78503 163314
L78464 163400
L78078 163742
L78450 163742
" />
<path d="M78896 163142
L78953 163142
L79007 163171
L79032 163200
L79053 163257
L79067 163371
L79050 163514
L79007 163628
L78971 163685
L78939 163714
L78878 163742
L78821 163742
L78767 163714
L78742 163685
L78721 163628
L78707 163514
L78725 163371
L78767 163257
L78803 163200
L78835 163171
L78896 163142
" />
<path d="M79592 163742
L79250 163742
" />
<path d="M79421 163742
L79496 163142
L79428 163228
L79364 163285
L79303 163314
" />
<path d="M80157 163342
L80107 163742
" />
<path d="M80042 163114
L79846 163542
L80217 163542
" />
<path d="M64042 164942
L64042 164342
" />
<path d="M64385 164942
L64128 164600
" />
<path d="M64385 164342
L64042 164685
" />
<path d="M64642 164942
L64642 164542
" />
<path d="M64642 164342
L64614 164371
L64642 164400
L64671 164371
L64642 164342
L64642 164400
" />
<path d="M65271 164885
L65242 164914
L65157 164942
L65100 164942
L65014 164914
L64957 164857
L64928 164800
L64900 164685
L64900 164600
L64928 164485
L64957 164428
L65014 164371
L65100 164342
L65157 164342
L65242 164371
L65271 164400
" />
<path d="M65785 164942
L65785 164628
L65757 164571
L65700 164542
L65585 164542
L65528 164571
" />
<path d="M65785 164914
L65728 164942
L65585 164942
L65528 164914
L65500 164857
L65500 164800
L65528 164742
L65585 164714
L65728 164714
L65785 164685
" />
<path d="M66328 164942
L66328 164342
" />
<path d="M66328 164914
L66271 164942
L66157 164942
L66100 164914
L66071 164885
L66042 164828
L66042 164657
L66071 164600
L66100 164571
L66157 164542
L66271 164542
L66328 164571
" />
<path d="M67071 164628
L67271 164628
" />
<path d="M67357 164942
L67071 164942
L67071 164342
L67357 164342
" />
<path d="M67614 164885
L67642 164914
L67614 164942
L67585 164914
L67614 164885
L67614 164942
" />
<path d="M67899 164942
L67899 164342
L68042 164342
L68128 164371
L68185 164428
L68214 164485
L68242 164600
L68242 164685
L68214 164800
L68185 164857
L68128 164914
L68042 164942
L67899 164942
" />
<path d="M68499 164885
L68528 164914
L68499 164942
L68471 164914
L68499 164885
L68499 164942
" />
<path d="M68757 164771
L69042 164771
" />
<path d="M68699 164942
L68899 164342
L69099 164942
" />
<path d="M69299 164885
L69328 164914
L69299 164942
L69271 164914
L69299 164885
L69299 164942
" />
<path d="M97592 163742
L97428 163457
" />
<path d="M97250 163742
L97325 163142
L97553 163142
L97607 163171
L97632 163200
L97653 163257
L97642 163342
L97607 163400
L97575 163428
L97514 163457
L97285 163457
" />
<path d="M98082 163714
L98021 163742
L97907 163742
L97853 163714
L97832 163657
L97860 163428
L97896 163371
L97957 163342
L98071 163342
L98125 163371
L98146 163428
L98139 163485
L97846 163542
" />
<path d="M98357 163342
L98450 163742
L98642 163342
" />
<path d="M98828 163685
L98853 163714
L98821 163742
L98796 163714
L98828 163685
L98821 163742
" />
<path d="M98867 163371
L98892 163400
L98860 163428
L98835 163400
L98867 163371
L98860 163428
" />
<path d="M99603 163200
L99635 163171
L99696 163142
L99839 163142
L99892 163171
L99917 163200
L99939 163257
L99932 163314
L99892 163400
L99507 163742
L99878 163742
" />
<path d="M100142 163685
L100167 163714
L100135 163742
L100110 163714
L100142 163685
L100135 163742
" />
<path d="M100610 163142
L100667 163142
L100721 163171
L100746 163200
L100767 163257
L100782 163371
L100764 163514
L100721 163628
L100685 163685
L100653 163714
L100592 163742
L100535 163742
L100482 163714
L100457 163685
L100435 163628
L100421 163514
L100439 163371
L100482 163257
L100517 163200
L100550 163171
L100610 163142
" />
<path d="M64014 163714
L64100 163742
L64242 163742
L64300 163714
L64328 163685
L64357 163628
L64357 163571
L64328 163514
L64300 163485
L64242 163457
L64128 163428
L64071 163400
L64042 163371
L64014 163314
L64014 163257
L64042 163200
L64071 163171
L64128 163142
L64271 163142
L64357 163171
" />
<path d="M64614 163742
L64614 163342
" />
<path d="M64614 163142
L64585 163171
L64614 163200
L64642 163171
L64614 163142
L64614 163200
" />
<path d="M64842 163342
L65157 163342
L64842 163742
L65157 163742
" />
<path d="M65614 163714
L65557 163742
L65442 163742
L65385 163714
L65357 163657
L65357 163428
L65385 163371
L65442 163342
L65557 163342
L65614 163371
L65642 163428
L65642 163485
L65357 163542
" />
<path d="M65900 163685
L65928 163714
L65900 163742
L65871 163714
L65900 163685
L65900 163742
" />
<path d="M65900 163371
L65928 163400
L65900 163428
L65871 163400
L65900 163371
L65900 163428
" />
<path d="M66642 163142
L66642 163628
L66671 163685
L66700 163714
L66757 163742
L66871 163742
L66928 163714
L66957 163685
L66985 163628
L66985 163142
" />
<path d="M67242 163714
L67300 163742
L67414 163742
L67471 163714
L67500 163657
L67500 163628
L67471 163571
L67414 163542
L67328 163542
L67271 163514
L67242 163457
L67242 163428
L67271 163371
L67328 163342
L67414 163342
L67471 163371
" />
<path d="M67985 163714
L67928 163742
L67814 163742
L67757 163714
L67728 163657
L67728 163428
L67757 163371
L67814 163342
L67928 163342
L67985 163371
L68014 163428
L68014 163485
L67728 163542
" />
<path d="M68271 163742
L68271 163342
" />
<path d="M68271 163457
L68300 163400
L68328 163371
L68385 163342
L68442 163342
" />
<path d="M97242 164942
L97242 164342
" />
<path d="M97785 164942
L97785 164342
" />
<path d="M97785 164914
L97728 164942
L97614 164942
L97557 164914
L97528 164885
L97500 164828
L97500 164657
L97528 164600
L97557 164571
L97614 164542
L97728 164542
L97785 164571
" />
<path d="M98071 164885
L98100 164914
L98071 164942
L98042 164914
L98071 164885
L98071 164942
" />
<path d="M98071 164571
L98100 164600
L98071 164628
L98042 164600
L98071 164571
L98071 164628
" />
<path d="M99128 164942
L98785 164942
" />
<path d="M98957 164942
L98957 164342
L98899 164428
L98842 164485
L98785 164514
" />
<path d="M99814 164314
L99300 165085
" />
<path d="M100328 164942
L99985 164942
" />
<path d="M100157 164942
L100157 164342
L100099 164428
L100042 164485
L99985 164514
" />
<path d="M64039 161942
L64382 161942
" />
<path d="M64135 162542
L64210 161942
" />
<path d="M64507 162542
L64557 162142
" />
<path d="M64582 161942
L64550 161971
L64575 162000
L64607 161971
L64582 161942
L64575 162000
" />
<path d="M64757 162142
L64985 162142
" />
<path d="M64867 161942
L64803 162457
L64825 162514
L64878 162542
L64935 162542
" />
<path d="M65221 162542
L65167 162514
L65146 162457
L65210 161942
" />
<path d="M65682 162514
L65621 162542
L65507 162542
L65453 162514
L65432 162457
L65460 162228
L65496 162171
L65557 162142
L65671 162142
L65725 162171
L65746 162228
L65739 162285
L65446 162342
" />
<path d="M65971 162485
L65996 162514
L65964 162542
L65939 162514
L65971 162485
L65964 162542
" />
<path d="M66010 162171
L66035 162200
L66003 162228
L65978 162200
L66010 162171
L66003 162228
" />
<path d="M66707 162542
L66782 161942
L67010 161942
L67064 161971
L67089 162000
L67110 162057
L67100 162142
L67064 162200
L67032 162228
L66971 162257
L66742 162257
" />
<path d="M67307 162542
L67357 162142
" />
<path d="M67382 161942
L67350 161971
L67375 162000
L67407 161971
L67382 161942
L67375 162000
" />
<path d="M67642 162142
L67592 162542
" />
<path d="M67635 162200
L67667 162171
L67728 162142
L67814 162142
L67867 162171
L67889 162228
L67850 162542
" />
<path d="M68442 162142
L68382 162628
L68346 162685
L68314 162714
L68253 162742
L68167 162742
L68114 162714
" />
<path d="M68396 162514
L68335 162542
L68221 162542
L68167 162514
L68142 162485
L68121 162428
L68142 162257
L68178 162200
L68210 162171
L68271 162142
L68385 162142
L68439 162171
" />
<path d="M68985 162142
L68935 162542
" />
<path d="M68728 162142
L68689 162457
L68710 162514
L68764 162542
L68850 162542
L68910 162514
L68942 162485
" />
<path d="M69221 162542
L69271 162142
" />
<path d="M69296 161942
L69264 161971
L69289 162000
L69321 161971
L69296 161942
L69289 162000
" />
<path d="M69557 162142
L69507 162542
" />
<path d="M69549 162200
L69582 162171
L69642 162142
L69728 162142
L69782 162171
L69803 162228
L69764 162542
" />
<path d="M70135 162542
L70082 162514
L70057 162485
L70035 162428
L70057 162257
L70092 162200
L70124 162171
L70185 162142
L70271 162142
L70324 162171
L70349 162200
L70371 162257
L70349 162428
L70314 162485
L70282 162514
L70221 162542
L70135 162542
" />
<path d="M71089 162000
L71121 161971
L71182 161942
L71324 161942
L71378 161971
L71403 162000
L71424 162057
L71417 162114
L71378 162200
L70992 162542
L71364 162542
" />
<path d="M71982 161942
L71696 161942
L71632 162228
L71664 162200
L71724 162171
L71867 162171
L71921 162200
L71946 162228
L71967 162285
L71950 162428
L71914 162485
L71882 162514
L71821 162542
L71678 162542
L71624 162514
L71600 162485
" />
<path d="M72553 161942
L72267 161942
L72203 162228
L72235 162200
L72296 162171
L72439 162171
L72492 162200
L72517 162228
L72539 162285
L72521 162428
L72485 162485
L72453 162514
L72392 162542
L72250 162542
L72196 162514
L72171 162485
" />
<path d="M72953 161942
L73010 161942
L73064 161971
L73089 162000
L73110 162057
L73125 162171
L73107 162314
L73064 162428
L73028 162485
L72996 162514
L72935 162542
L72878 162542
L72825 162514
L72800 162485
L72778 162428
L72764 162314
L72782 162171
L72825 162057
L72860 162000
L72892 161971
L72953 161942
" />
<path d="M64242 159828
L64042 159828
" />
<path d="M64042 160142
L64042 159542
L64328 159542
" />
<path d="M64557 160142
L64557 159742
" />
<path d="M64557 159542
L64528 159571
L64557 159600
L64585 159571
L64557 159542
L64557 159600
" />
<path d="M64928 160142
L64871 160114
L64842 160057
L64842 159542
" />
<path d="M65385 160114
L65328 160142
L65214 160142
L65157 160114
L65128 160057
L65128 159828
L65157 159771
L65214 159742
L65328 159742
L65385 159771
L65414 159828
L65414 159885
L65128 159942
" />
<path d="M65671 160085
L65700 160114
L65671 160142
L65642 160114
L65671 160085
L65671 160142
" />
<path d="M65671 159771
L65700 159800
L65671 159828
L65642 159800
L65671 159771
L65671 159828
" />
<path d="M66414 159742
L66414 160342
" />
<path d="M66414 159771
L66471 159742
L66585 159742
L66642 159771
L66671 159800
L66700 159857
L66700 160028
L66671 160085
L66642 160114
L66585 160142
L66471 160142
L66414 160114
" />
<path d="M66957 160142
L66957 159742
" />
<path d="M66957 159542
L66928 159571
L66957 159600
L66985 159571
L66957 159542
L66957 159600
" />
<path d="M67242 159742
L67242 160142
" />
<path d="M67242 159800
L67271 159771
L67328 159742
L67414 159742
L67471 159771
L67500 159828
L67500 160142
" />
<path d="M68042 159742
L68042 160228
L68014 160285
L67985 160314
L67928 160342
L67842 160342
L67785 160314
" />
<path d="M68042 160114
L67985 160142
L67871 160142
L67814 160114
L67785 160085
L67757 160028
L67757 159857
L67785 159800
L67814 159771
L67871 159742
L67985 159742
L68042 159771
" />
<path d="M68585 159742
L68585 160142
" />
<path d="M68328 159742
L68328 160057
L68357 160114
L68414 160142
L68500 160142
L68557 160114
L68585 160085
" />
<path d="M68871 160142
L68871 159742
" />
<path d="M68871 159542
L68842 159571
L68871 159600
L68900 159571
L68871 159542
L68871 159600
" />
<path d="M69157 159742
L69157 160142
" />
<path d="M69157 159800
L69185 159771
L69242 159742
L69328 159742
L69385 159771
L69414 159828
L69414 160142
" />
<path d="M69785 160142
L69728 160114
L69699 160085
L69671 160028
L69671 159857
L69699 159800
L69728 159771
L69785 159742
L69871 159742
L69928 159771
L69957 159800
L69985 159857
L69985 160028
L69957 160085
L69928 160114
L69871 160142
L69785 160142
" />
<path d="M70242 159914
L70699 159914
" />
<path d="M70957 159600
L70985 159571
L71042 159542
L71185 159542
L71242 159571
L71271 159600
L71299 159657
L71299 159714
L71271 159800
L70928 160142
L71299 160142
" />
<path d="M71842 159542
L71557 159542
L71528 159828
L71557 159800
L71614 159771
L71757 159771
L71814 159800
L71842 159828
L71871 159885
L71871 160028
L71842 160085
L71814 160114
L71757 160142
L71614 160142
L71557 160114
L71528 160085
" />
<path d="M72414 159542
L72128 159542
L72100 159828
L72128 159800
L72185 159771
L72328 159771
L72385 159800
L72414 159828
L72442 159885
L72442 160028
L72414 160085
L72385 160114
L72328 160142
L72185 160142
L72128 160114
L72100 160085
" />
<path d="M72814 159542
L72871 159542
L72928 159571
L72957 159600
L72985 159657
L73014 159771
L73014 159914
L72985 160028
L72957 160085
L72928 160114
L72871 160142
L72814 160142
L72757 160114
L72728 160085
L72700 160028
L72671 159914
L72671 159771
L72700 159657
L72728 159600
L72757 159571
L72814 159542
" />
<path d="M73271 160085
L73300 160114
L73271 160142
L73242 160114
L73271 160085
L73271 160142
" />
<path d="M73557 160142
L73557 159542
" />
<path d="M73614 159914
L73785 160142
" />
<path d="M73785 159742
L73557 159971
" />
<path d="M74042 160142
L74042 159742
" />
<path d="M74042 159542
L74014 159571
L74042 159600
L74071 159571
L74042 159542
L74042 159600
" />
<path d="M74585 160114
L74528 160142
L74414 160142
L74357 160114
L74328 160085
L74300 160028
L74300 159857
L74328 159800
L74357 159771
L74414 159742
L74528 159742
L74585 159771
" />
<path d="M75100 160142
L75100 159828
L75071 159771
L75014 159742
L74900 159742
L74842 159771
" />
<path d="M75100 160114
L75042 160142
L74900 160142
L74842 160114
L74814 160057
L74814 160000
L74842 159942
L74900 159914
L75042 159914
L75100 159885
" />
<path d="M75642 160142
L75642 159542
" />
<path d="M75642 160114
L75585 160142
L75471 160142
L75414 160114
L75385 160085
L75357 160028
L75357 159857
L75385 159800
L75414 159771
L75471 159742
L75585 159742
L75642 159771
" />
<path d="M75785 160200
L76242 160200
" />
<path d="M76385 159742
L76385 160342
" />
<path d="M76385 159771
L76442 159742
L76557 159742
L76614 159771
L76642 159800
L76671 159857
L76671 160028
L76642 160085
L76614 160114
L76557 160142
L76442 160142
L76385 160114
" />
<path d="M77185 160114
L77128 160142
L77014 160142
L76957 160114
L76928 160085
L76900 160028
L76900 159857
L76928 159800
L76957 159771
L77014 159742
L77128 159742
L77185 159771
" />
<path d="M77442 160142
L77442 159542
" />
<path d="M77442 159771
L77500 159742
L77614 159742
L77671 159771
L77700 159800
L77728 159857
L77728 160028
L77700 160085
L77671 160114
L77614 160142
L77500 160142
L77442 160114
" />
<path d="M64014 161314
L64100 161342
L64242 161342
L64300 161314
L64328 161285
L64357 161228
L64357 161171
L64328 161114
L64300 161085
L64242 161057
L64128 161028
L64071 161000
L64042 160971
L64014 160914
L64014 160857
L64042 160800
L64071 160771
L64128 160742
L64271 160742
L64357 160771
" />
<path d="M64614 161342
L64614 160742
" />
<path d="M64871 161342
L64871 161028
L64842 160971
L64785 160942
L64700 160942
L64642 160971
L64614 161000
" />
<path d="M65385 161314
L65328 161342
L65214 161342
L65157 161314
L65128 161257
L65128 161028
L65157 160971
L65214 160942
L65328 160942
L65385 160971
L65414 161028
L65414 161085
L65128 161142
" />
<path d="M65900 161314
L65842 161342
L65728 161342
L65671 161314
L65642 161257
L65642 161028
L65671 160971
L65728 160942
L65842 160942
L65900 160971
L65928 161028
L65928 161085
L65642 161142
" />
<path d="M66100 160942
L66328 160942
" />
<path d="M66185 160742
L66185 161257
L66214 161314
L66271 161342
L66328 161342
" />
<path d="M66528 161285
L66557 161314
L66528 161342
L66500 161314
L66528 161285
L66528 161342
" />
<path d="M66528 160971
L66557 161000
L66528 161028
L66500 161000
L66528 160971
L66528 161028
" />
<path d="M64089 158628
L64289 158628
" />
<path d="M64335 158942
L64050 158942
L64125 158342
L64410 158342
" />
<path d="M64600 158885
L64625 158914
L64592 158942
L64567 158914
L64600 158885
L64592 158942
" />
<path d="M64917 158628
L65117 158628
" />
<path d="M65164 158942
L64878 158942
L64953 158342
L65239 158342
" />
<path d="M65428 158885
L65453 158914
L65421 158942
L65396 158914
L65428 158885
L65421 158942
" />
<path d="M65696 158342
L66039 158342
" />
<path d="M65792 158942
L65867 158342
" />
<path d="M66171 158885
L66196 158914
L66164 158942
L66139 158914
L66171 158885
L66164 158942
" />
<path d="M66907 158942
L66982 158342
L67249 158942
L67324 158342
" />
<path d="M67535 158942
L67585 158542
" />
<path d="M67571 158657
L67607 158600
L67639 158571
L67699 158542
L67757 158542
" />
<path d="M67992 158942
L67939 158914
L67914 158885
L67892 158828
L67914 158657
L67949 158600
L67982 158571
L68042 158542
L68128 158542
L68182 158571
L68207 158600
L68228 158657
L68207 158828
L68171 158885
L68139 158914
L68078 158942
L67992 158942
" />
<path d="M68457 158885
L68482 158914
L68449 158942
L68424 158914
L68457 158885
L68449 158942
" />
<path d="M68753 158342
L69153 158342
L68821 158942
" />
<path d="M69792 158714
L70249 158714
" />
<path d="M71203 158628
L71285 158657
L71310 158685
L71332 158742
L71321 158828
L71285 158885
L71253 158914
L71192 158942
L70964 158942
L71039 158342
L71239 158342
L71292 158371
L71317 158400
L71339 158457
L71332 158514
L71296 158571
L71264 158600
L71203 158628
L71003 158628
" />
<path d="M71821 158942
L71860 158628
L71839 158571
L71785 158542
L71671 158542
L71610 158571
" />
<path d="M71824 158914
L71764 158942
L71621 158942
L71567 158914
L71546 158857
L71553 158800
L71589 158742
L71649 158714
L71792 158714
L71853 158685
" />
<path d="M72157 158542
L72107 158942
" />
<path d="M72149 158600
L72182 158571
L72242 158542
L72328 158542
L72382 158571
L72403 158628
L72364 158942
" />
<path d="M72614 158542
L72842 158542
" />
<path d="M72649 158942
L72714 158428
L72749 158371
L72810 158342
L72867 158342
" />
<path d="M72992 158942
L73042 158542
" />
<path d="M73067 158342
L73035 158371
L73060 158400
L73092 158371
L73067 158342
L73060 158400
" />
<path d="M73510 158914
L73449 158942
L73335 158942
L73282 158914
L73260 158857
L73289 158628
L73324 158571
L73385 158542
L73499 158542
L73553 158571
L73574 158628
L73567 158685
L73274 158742
" />
<path d="M73878 158942
L73824 158914
L73803 158857
L73867 158342
" />
<path d="M74364 158942
L74439 158342
" />
<path d="M74367 158914
L74307 158942
L74192 158942
L74139 158914
L74114 158885
L74092 158828
L74114 158657
L74149 158600
L74182 158571
L74242 158542
L74357 158542
L74410 158571
" />
<path d="M64042 157742
L64042 157142
L64271 157142
L64328 157171
L64357 157200
L64385 157257
L64385 157342
L64357 157400
L64328 157428
L64271 157457
L64042 157457
" />
<path d="M64642 157742
L64642 157342
" />
<path d="M64642 157457
L64671 157400
L64700 157371
L64757 157342
L64814 157342
" />
<path d="M65100 157742
L65042 157714
L65014 157685
L64985 157628
L64985 157457
L65014 157400
L65042 157371
L65100 157342
L65185 157342
L65242 157371
L65271 157400
L65300 157457
L65300 157628
L65271 157685
L65242 157714
L65185 157742
L65100 157742
" />
<path d="M65471 157342
L65700 157342
" />
<path d="M65557 157742
L65557 157228
L65585 157171
L65642 157142
L65700 157142
" />
<path d="M65900 157685
L65928 157714
L65900 157742
L65871 157714
L65900 157685
L65900 157742
" />
<path d="M66557 157142
L66757 157742
L66957 157142
" />
<path d="M67157 157742
L67157 157342
" />
<path d="M67157 157142
L67128 157171
L67157 157200
L67185 157171
L67157 157142
L67157 157200
" />
<path d="M67700 157714
L67642 157742
L67528 157742
L67471 157714
L67442 157685
L67414 157628
L67414 157457
L67442 157400
L67471 157371
L67528 157342
L67642 157342
L67700 157371
" />
<path d="M67871 157342
L68100 157342
" />
<path d="M67957 157142
L67957 157657
L67985 157714
L68042 157742
L68100 157742
" />
<path d="M68385 157742
L68328 157714
L68300 157685
L68271 157628
L68271 157457
L68300 157400
L68328 157371
L68385 157342
L68471 157342
L68528 157371
L68557 157400
L68585 157457
L68585 157628
L68557 157685
L68528 157714
L68471 157742
L68385 157742
" />
<path d="M68842 157742
L68842 157342
" />
<path d="M68842 157457
L68871 157400
L68900 157371
L68957 157342
L69014 157342
" />
<path d="M69585 157142
L69785 157742
L69985 157142
" />
<path d="M70185 157742
L70185 157342
" />
<path d="M70185 157142
L70157 157171
L70185 157200
L70214 157171
L70185 157142
L70185 157200
" />
<path d="M70557 157742
L70500 157714
L70471 157657
L70471 157142
" />
<path d="M70871 157742
L70814 157714
L70785 157657
L70785 157142
" />
<path d="M71357 157742
L71357 157428
L71328 157371
L71271 157342
L71157 157342
L71100 157371
" />
<path d="M71357 157714
L71300 157742
L71157 157742
L71100 157714
L71071 157657
L71071 157600
L71100 157542
L71157 157514
L71300 157514
L71357 157485
" />
<path d="M71642 157742
L71642 157342
" />
<path d="M71642 157457
L71671 157400
L71700 157371
L71757 157342
L71814 157342
" />
<path d="M72014 157742
L72014 157342
" />
<path d="M72014 157457
L72042 157400
L72071 157371
L72128 157342
L72185 157342
" />
<path d="M72614 157714
L72557 157742
L72442 157742
L72385 157714
L72357 157657
L72357 157428
L72385 157371
L72442 157342
L72557 157342
L72614 157371
L72642 157428
L72642 157485
L72357 157542
" />
<path d="M73157 157742
L73157 157428
L73128 157371
L73071 157342
L72957 157342
L72900 157371
" />
<path d="M73157 157714
L73100 157742
L72957 157742
L72900 157714
L72871 157657
L72871 157600
L72900 157542
L72957 157514
L73100 157514
L73157 157485
" />
<path d="M73528 157742
L73471 157714
L73442 157657
L73442 157142
" />
<path d="M64042 156542
L64042 155942
L64271 155942
L64328 155971
L64357 156000
L64385 156057
L64385 156142
L64357 156200
L64328 156228
L64271 156257
L64042 156257
" />
<path d="M64728 156542
L64671 156514
L64642 156457
L64642 155942
" />
<path d="M65214 156542
L65214 156228
L65185 156171
L65128 156142
L65014 156142
L64957 156171
" />
<path d="M65214 156514
L65157 156542
L65014 156542
L64957 156514
L64928 156457
L64928 156400
L64957 156342
L65014 156314
L65157 156314
L65214 156285
" />
<path d="M65757 156514
L65700 156542
L65585 156542
L65528 156514
L65500 156485
L65471 156428
L65471 156257
L65500 156200
L65528 156171
L65585 156142
L65700 156142
L65757 156171
" />
<path d="M66271 156542
L66271 156228
L66242 156171
L66185 156142
L66071 156142
L66014 156171
" />
<path d="M66271 156514
L66214 156542
L66071 156542
L66014 156514
L65985 156457
L65985 156400
L66014 156342
L66071 156314
L66214 156314
L66271 156285
" />
<path d="M67014 156542
L67014 155942
L67242 155942
L67300 155971
L67328 156000
L67357 156057
L67357 156142
L67328 156200
L67300 156228
L67242 156257
L67014 156257
" />
<path d="M67614 156542
L67614 156142
" />
<path d="M67614 155942
L67585 155971
L67614 156000
L67642 155971
L67614 155942
L67614 156000
" />
<path d="M67900 156142
L67900 156542
" />
<path d="M67900 156200
L67928 156171
L67985 156142
L68071 156142
L68128 156171
L68157 156228
L68157 156542
" />
<path d="M68700 156142
L68700 156628
L68671 156685
L68642 156714
L68585 156742
L68500 156742
L68442 156714
" />
<path d="M68700 156514
L68642 156542
L68528 156542
L68471 156514
L68442 156485
L68414 156428
L68414 156257
L68442 156200
L68471 156171
L68528 156142
L68642 156142
L68700 156171
" />
<path d="M69242 156142
L69242 156542
" />
<path d="M68985 156142
L68985 156457
L69014 156514
L69071 156542
L69157 156542
L69214 156514
L69242 156485
" />
<path d="M69528 156542
L69528 156142
" />
<path d="M69528 155942
L69500 155971
L69528 156000
L69557 155971
L69528 155942
L69528 156000
" />
<path d="M69814 156142
L69814 156542
" />
<path d="M69814 156200
L69842 156171
L69899 156142
L69985 156142
L70042 156171
L70071 156228
L70071 156542
" />
<path d="M70442 156542
L70385 156514
L70357 156485
L70328 156428
L70328 156257
L70357 156200
L70385 156171
L70442 156142
L70528 156142
L70585 156171
L70614 156200
L70642 156257
L70642 156428
L70614 156485
L70585 156514
L70528 156542
L70442 156542
" />
<path d="M71671 156542
L71328 156542
" />
<path d="M71499 156542
L71499 155942
L71442 156028
L71385 156085
L71328 156114
" />
<path d="M72014 156200
L71957 156171
L71928 156142
L71900 156085
L71900 156057
L71928 156000
L71957 155971
L72014 155942
L72128 155942
L72185 155971
L72214 156000
L72242 156057
L72242 156085
L72214 156142
L72185 156171
L72128 156200
L72014 156200
L71957 156228
L71928 156257
L71900 156314
L71900 156428
L71928 156485
L71957 156514
L72014 156542
L72128 156542
L72185 156514
L72214 156485
L72242 156428
L72242 156314
L72214 156257
L72185 156228
L72128 156200
" />
<path d="M72700 156228
L72500 156228
" />
<path d="M72500 156542
L72500 155942
L72785 155942
" />
<path d="M72985 156000
L73014 155971
L73071 155942
L73214 155942
L73271 155971
L73300 156000
L73328 156057
L73328 156114
L73300 156200
L72957 156542
L73328 156542
" />
<path d="M73871 155942
L73585 155942
L73557 156228
L73585 156200
L73642 156171
L73785 156171
L73842 156200
L73871 156228
L73900 156285
L73900 156428
L73871 156485
L73842 156514
L73785 156542
L73642 156542
L73585 156514
L73557 156485
" />
<path d="M74442 155942
L74157 155942
L74128 156228
L74157 156200
L74214 156171
L74357 156171
L74414 156200
L74442 156228
L74471 156285
L74471 156428
L74442 156485
L74414 156514
L74357 156542
L74214 156542
L74157 156514
L74128 156485
" />
<path d="M74842 155942
L74900 155942
L74957 155971
L74985 156000
L75014 156057
L75042 156171
L75042 156314
L75014 156428
L74985 156485
L74957 156514
L74900 156542
L74842 156542
L74785 156514
L74757 156485
L74728 156428
L74700 156314
L74700 156171
L74728 156057
L74757 156000
L74785 155971
L74842 155942
" />
<path d="M75700 156142
L75842 156542
L75985 156142
" />
<path d="M76185 156000
L76214 155971
L76271 155942
L76414 155942
L76471 155971
L76500 156000
L76528 156057
L76528 156114
L76500 156200
L76157 156542
L76528 156542
" />
<path d="M63300 155700
L63300 165300
" />
<path d="M63300 159300
L105300 159300
" />
<path d="M63300 155700
L105300 155700
" />
<path d="M63300 161700
L105300 161700
" />
<path d="M96500 162900
L96500 165300
" />
<path d="M63300 164100
L105300 164100
" />
<path d="M63300 162900
L105300 162900
" />
<path d="M69900 162900
L69900 164100
" />
</g>
<g style="fill:#000000; fill-opacity:0.0; 
stroke:#000000; stroke-width:98.4252; stroke-opacity:1; 
stroke-linecap:round; stroke-linejoin:round;">
<path d="M83108 24709
L83108 24521
L82920 24503
L82939 24521
L82958 24559
L82958 24653
L82939 24690
L82920 24709
L82883 24728
L82789 24728
L82752 24709
L82733 24690
L82714 24653
L82714 24559
L82733 24521
L82752 24503
" />
<path d="M83108 24971
L83108 25009
L83089 25046
L83070 25065
L83033 25084
L82958 25103
L82864 25103
L82789 25084
L82752 25065
L82733 25046
L82714 25009
L82714 24971
L82733 24934
L82752 24915
L82789 24896
L82864 24878
L82958 24878
L83033 24896
L83070 24915
L83089 24934
L83108 24971
" />
<path d="M82733 25290
L82714 25290
L82677 25271
L82658 25253
" />
<path d="M83108 25534
L83108 25571
L83089 25609
L83070 25628
L83033 25646
L82958 25665
L82864 25665
L82789 25646
L82752 25628
L82733 25609
L82714 25571
L82714 25534
L82733 25496
L82752 25478
L82789 25459
L82864 25440
L82958 25440
L83033 25459
L83070 25478
L83089 25496
L83108 25534
" />
<path d="M83108 25909
L83108 25946
L83089 25984
L83070 26003
L83033 26021
L82958 26040
L82864 26040
L82789 26021
L82752 26003
L82733 25984
L82714 25946
L82714 25909
L82733 25871
L82752 25853
L82789 25834
L82864 25815
L82958 25815
L83033 25834
L83070 25853
L83089 25871
L83108 25909
" />
<path d="M83108 26284
L83108 26321
L83089 26359
L83070 26377
L83033 26396
L82958 26415
L82864 26415
L82789 26396
L82752 26377
L82733 26359
L82714 26321
L82714 26284
L82733 26246
L82752 26227
L82789 26209
L82864 26190
L82958 26190
L83033 26209
L83070 26227
L83089 26246
L83108 26284
" />
<path d="M82714 26584
L82977 26584
" />
<path d="M82939 26584
L82958 26602
L82977 26640
L82977 26696
L82958 26734
L82920 26752
L82714 26752
" />
<path d="M82920 26752
L82958 26771
L82977 26809
L82977 26865
L82958 26902
L82920 26921
L82714 26921
" />
<path d="M82714 27109
L82977 27109
" />
<path d="M82939 27109
L82958 27127
L82977 27165
L82977 27221
L82958 27259
L82920 27277
L82714 27277
" />
<path d="M82920 27277
L82958 27296
L82977 27334
L82977 27390
L82958 27427
L82920 27446
L82714 27446
" />
<path d="M82480 16141
L82480 35826
" />
<path d="M79921 16141
L83267 16141
" />
<path d="M79921 35826
L83267 35826
" />
<path d="M82480 35826
L82249 35383
" />
<path d="M82480 35826
L82711 35383
" />
<path d="M82480 16141
L82249 16585
" />
<path d="M82480 16141
L82711 16585
" />
<path d="M57611 13151
L57386 13151
" />
<path d="M57499 13151
L57499 12757
L57461 12814
L57424 12851
L57386 12870
" />
<path d="M57855 12757
L57892 12757
L57930 12776
L57949 12795
L57967 12832
L57986 12907
L57986 13001
L57967 13076
L57949 13113
L57930 13132
L57892 13151
L57855 13151
L57817 13132
L57799 13113
L57780 13076
L57761 13001
L57761 12907
L57780 12832
L57799 12795
L57817 12776
L57855 12757
" />
<path d="M58230 12757
L58267 12757
L58305 12776
L58323 12795
L58342 12832
L58361 12907
L58361 13001
L58342 13076
L58323 13113
L58305 13132
L58267 13151
L58230 13151
L58192 13132
L58173 13113
L58155 13076
L58136 13001
L58136 12907
L58155 12832
L58173 12795
L58192 12776
L58230 12757
" />
<path d="M58548 13132
L58548 13151
L58530 13188
L58511 13207
" />
<path d="M58792 12757
L58830 12757
L58867 12776
L58886 12795
L58905 12832
L58923 12907
L58923 13001
L58905 13076
L58886 13113
L58867 13132
L58830 13151
L58792 13151
L58755 13132
L58736 13113
L58717 13076
L58698 13001
L58698 12907
L58717 12832
L58736 12795
L58755 12776
L58792 12757
" />
<path d="M59167 12757
L59205 12757
L59242 12776
L59261 12795
L59280 12832
L59298 12907
L59298 13001
L59280 13076
L59261 13113
L59242 13132
L59205 13151
L59167 13151
L59130 13132
L59111 13113
L59092 13076
L59073 13001
L59073 12907
L59092 12832
L59111 12795
L59130 12776
L59167 12757
" />
<path d="M59542 12757
L59580 12757
L59617 12776
L59636 12795
L59655 12832
L59673 12907
L59673 13001
L59655 13076
L59636 13113
L59617 13132
L59580 13151
L59542 13151
L59505 13132
L59486 13113
L59467 13076
L59448 13001
L59448 12907
L59467 12832
L59486 12795
L59505 12776
L59542 12757
" />
<path d="M59842 13151
L59842 12889
" />
<path d="M59842 12926
L59861 12907
L59898 12889
L59955 12889
L59992 12907
L60011 12945
L60011 13151
" />
<path d="M60011 12945
L60029 12907
L60067 12889
L60123 12889
L60161 12907
L60179 12945
L60179 13151
" />
<path d="M60367 13151
L60367 12889
" />
<path d="M60367 12926
L60386 12907
L60423 12889
L60479 12889
L60517 12907
L60536 12945
L60536 13151
" />
<path d="M60536 12945
L60554 12907
L60592 12889
L60648 12889
L60686 12907
L60704 12945
L60704 13151
" />
<path d="M39370 13385
L78740 13385
" />
<path d="M39370 15157
L39370 12598
" />
<path d="M78740 15157
L78740 12598
" />
<path d="M78740 13385
L78296 13616
" />
<path d="M78740 13385
L78296 13154
" />
<path d="M39370 13385
L39813 13616
" />
<path d="M39370 13385
L39813 13154
" />
</g>
<g style="fill:#000000; fill-opacity:0.0; 
stroke:#000000; stroke-width:59.0551; stroke-opacity:1; 
stroke-linecap:round; stroke-linejoin:round;">
<path d="M39370 16141
L78740 16141
" />
<path d="M39370 35826
L39370 16141
" />
<path d="M78740 35826
L39370 35826
" />
<path d="M78740 35826
L78740 16141
" />
</g>
<g style="fill:#000000; fill-opacity:0.0; 
stroke:#000000; stroke-width:120; stroke-opacity:1; 
stroke-linecap:round; stroke-linejoin:round;">
<path d="M73225 34032
L73225 34461
L73196 34546
L73139 34604
L73053 34632
L72996 34632
" />
<path d="M73825 34632
L73482 34632
" />
<path d="M73653 34632
L73653 34032
L73596 34118
L73539 34175
L73482 34204
" />
<path d="M72668 31729
L72668 32215
L72696 32272
L72725 32300
L72782 32329
L72896 32329
L72953 32300
L72982 32272
L73010 32215
L73010 31729
" />
<path d="M73268 32300
L73353 32329
L73496 32329
L73553 32300
L73582 32272
L73610 32215
L73610 32158
L73582 32100
L73553 32072
L73496 32043
L73382 32015
L73325 31986
L73296 31958
L73268 31900
L73268 31843
L73296 31786
L73325 31758
L73382 31729
L73525 31729
L73610 31758
" />
<path d="M74068 32015
L74153 32043
L74182 32072
L74210 32129
L74210 32215
L74182 32272
L74153 32300
L74096 32329
L73868 32329
L73868 31729
L74068 31729
L74125 31758
L74153 31786
L74182 31843
L74182 31900
L74153 31958
L74125 31986
L74068 32015
L73868 32015
" />
</g>
<g style="fill:#000000; fill-opacity:0.0; 
stroke:#000000; stroke-width:80; stroke-opacity:1; 
stroke-linecap:round; stroke-linejoin:round;">
<path d="M40750 32073
L41117 32073
" />
<path d="M40541 32192
L40934 32311
L40934 32002
" />
<path d="M40567 31859
L40567 31526
L41117 31740
" />
<path d="M40567 31240
L40567 31192
L40593 31145
L40619 31121
L40672 31097
L40777 31073
L40907 31073
L41012 31097
L41065 31121
L41091 31145
L41117 31192
L41117 31240
L41091 31288
L41065 31311
L41012 31335
L40907 31359
L40777 31359
L40672 31335
L40619 31311
L40593 31288
L40567 31240
" />
<path d="M49619 26480
L49619 26847
" />
<path d="M49500 26271
L49380 26664
L49690 26664
" />
<path d="M49833 26297
L50166 26297
L49952 26847
" />
<path d="M50452 26297
L50500 26297
L50547 26323
L50571 26349
L50595 26402
L50619 26506
L50619 26637
L50595 26742
L50571 26795
L50547 26821
L50500 26847
L50452 26847
L50404 26821
L50380 26795
L50357 26742
L50333 26637
L50333 26506
L50357 26402
L50380 26349
L50404 26323
L50452 26297
" />
<path d="M46308 28619
L46022 28619
" />
<path d="M46165 28619
L46165 28069
L46117 28147
L46070 28200
L46022 28226
" />
<path d="M46617 28069
L46665 28069
L46713 28095
L46736 28121
L46760 28173
L46784 28278
L46784 28409
L46760 28514
L46736 28566
L46713 28592
L46665 28619
L46617 28619
L46570 28592
L46546 28566
L46522 28514
L46498 28409
L46498 28278
L46522 28173
L46546 28121
L46570 28095
L46617 28069
" />
<path d="M46998 28619
L46998 28069
" />
<path d="M47284 28619
L47070 28304
" />
<path d="M47284 28069
L46998 28383
" />
</g>
<g style="fill:#000000; fill-opacity:0.0; 
stroke:#000000; stroke-width:60; stroke-opacity:1; 
stroke-linecap:round; stroke-linejoin:round;">
<path d="M75352 24149
L75638 24149
L75695 24168
L75733 24206
L75752 24263
L75752 24301
" />
<path d="M75352 23996
L75352 23749
L75504 23882
L75504 23825
L75523 23787
L75542 23768
L75581 23749
L75676 23749
L75714 23768
L75733 23787
L75752 23825
L75752 23939
L75733 23977
L75714 23996
" />
</g>
<g style="fill:#000000; fill-opacity:0.0; 
stroke:#000000; stroke-width:113; stroke-opacity:1; 
stroke-linecap:round; stroke-linejoin:round;">
</g>
<g style="fill:#000000; fill-opacity:0.0; 
stroke:#000000; stroke-width:112.5; stroke-opacity:1; 
stroke-linecap:round; stroke-linejoin:round;">
<path d="M52806 23658
L52806 24144
L52828 24201
L52849 24230
L52892 24258
L52978 24258
L53021 24230
L53042 24201
L53063 24144
L53063 23658
" />
<path d="M53513 24258
L53256 24258
" />
<path d="M53385 24258
L53385 23658
L53342 23744
L53299 23801
L53256 23830
" />
</g>
<g style="fill:#000000; fill-opacity:0.0; 
stroke:#000000; stroke-width:113; stroke-opacity:1; 
stroke-linecap:round; stroke-linejoin:round;">
</g>
<g style="fill:#000000; fill-opacity:0.0; 
stroke:#000000; stroke-width:112.5; stroke-opacity:1; 
stroke-linecap:round; stroke-linejoin:round;">
<path d="M62638 24258
L62638 23658
L62809 23658
L62852 23687
L62874 23715
L62895 23772
L62895 23858
L62874 23915
L62852 23944
L62809 23972
L62638 23972
" />
<path d="M63088 24258
L63088 23658
" />
<path d="M63559 24201
L63538 24230
L63474 24258
L63431 24258
L63366 24230
L63324 24172
L63302 24115
L63281 24001
L63281 23915
L63302 23801
L63324 23744
L63366 23687
L63431 23658
L63474 23658
L63538 23687
L63559 23715
" />
<path d="M63988 24258
L63731 24258
" />
<path d="M63859 24258
L63859 23658
L63816 23744
L63774 23801
L63731 23830
" />
<path d="M64245 23915
L64202 23887
L64181 23858
L64159 23801
L64159 23772
L64181 23715
L64202 23687
L64245 23658
L64331 23658
L64374 23687
L64395 23715
L64416 23772
L64416 23801
L64395 23858
L64374 23887
L64331 23915
L64245 23915
L64202 23944
L64181 23972
L64159 24030
L64159 24144
L64181 24201
L64202 24230
L64245 24258
L64331 24258
L64374 24230
L64395 24201
L64416 24144
L64416 24030
L64395 23972
L64374 23944
L64331 23915
" />
<path d="M64759 23944
L64609 23944
" />
<path d="M64609 24258
L64609 23658
L64824 23658
" />
<path d="M64974 23715
L64995 23687
L65038 23658
L65145 23658
L65188 23687
L65209 23715
L65231 23772
L65231 23830
L65209 23915
L64952 24258
L65231 24258
" />
<path d="M65638 23658
L65424 23658
L65402 23944
L65424 23915
L65466 23887
L65574 23887
L65616 23915
L65638 23944
L65659 24001
L65659 24144
L65638 24201
L65616 24230
L65574 24258
L65466 24258
L65424 24230
L65402 24201
" />
<path d="M66066 23658
L65852 23658
L65831 23944
L65852 23915
L65895 23887
L66002 23887
L66045 23915
L66066 23944
L66088 24001
L66088 24144
L66066 24201
L66045 24230
L66002 24258
L65895 24258
L65852 24230
L65831 24201
" />
<path d="M66366 23658
L66409 23658
L66452 23687
L66474 23715
L66495 23772
L66516 23887
L66516 24030
L66495 24144
L66474 24201
L66452 24230
L66409 24258
L66366 24258
L66324 24230
L66302 24201
L66281 24144
L66259 24030
L66259 23887
L66281 23772
L66302 23715
L66324 23687
L66366 23658
" />
</g>
<g style="fill:#000000; fill-opacity:0.0; 
stroke:#000000; stroke-width:113; stroke-opacity:1; 
stroke-linecap:round; stroke-linejoin:round;">
</g>
<g style="fill:#000000; fill-opacity:0.0; 
stroke:#000000; stroke-width:60; stroke-opacity:1; 
stroke-linecap:round; stroke-linejoin:round;">
<path d="M61406 29534
L61739 29984
" />
<path d="M61739 29534
L61406 29984
" />
<path d="M62191 29984
L61906 29984
" />
<path d="M62049 29984
L62049 29534
L62001 29598
L61953 29641
L61906 29663
" />
<path d="M60715 32177
L60739 32155
L60787 32134
L60906 32134
L60953 32155
L60977 32177
L61001 32220
L61001 32263
L60977 32327
L60691 32584
L61001 32584
" />
<path d="M61311 32134
L61358 32134
L61406 32155
L61430 32177
L61453 32220
L61477 32305
L61477 32413
L61453 32498
L61430 32541
L61406 32563
L61358 32584
L61311 32584
L61263 32563
L61239 32541
L61215 32498
L61191 32413
L61191 32305
L61215 32220
L61239 32177
L61263 32155
L61311 32134
" />
<path d="M61691 32584
L61691 32134
L61858 32455
L62025 32134
L62025 32584
" />
<path d="M62263 32584
L62263 32134
" />
<path d="M62477 32584
L62477 32348
L62453 32305
L62406 32284
L62334 32284
L62287 32305
L62263 32327
" />
<path d="M62668 32284
L62930 32284
L62668 32584
L62930 32584
" />
</g>
<g style="fill:#000000; fill-opacity:0.0; 
stroke:#000000; stroke-width:50; stroke-opacity:1; 
stroke-linecap:round; stroke-linejoin:round;">
<path d="M43453 29817
L43439 29831
L43396 29845
L43368 29845
L43325 29831
L43296 29802
L43282 29774
L43268 29717
L43268 29674
L43282 29617
L43296 29588
L43325 29560
L43368 29545
L43396 29545
L43439 29560
L43453 29574
" />
<path d="M43568 29574
L43582 29560
L43611 29545
L43682 29545
L43711 29560
L43725 29574
L43739 29602
L43739 29631
L43725 29674
L43553 29845
L43739 29845
" />
<path d="M43236 32011
L43093 32011
" />
<path d="M43164 32011
L43164 31711
L43140 31754
L43117 31782
L43093 31796
" />
<path d="M43390 31711
L43414 31711
L43438 31725
L43450 31739
L43462 31768
L43474 31825
L43474 31896
L43462 31954
L43450 31982
L43438 31996
L43414 32011
L43390 32011
L43367 31996
L43355 31982
L43343 31954
L43331 31896
L43331 31825
L43343 31768
L43355 31739
L43367 31725
L43390 31711
" />
<path d="M43688 31811
L43688 32011
" />
<path d="M43581 31811
L43581 31968
L43593 31996
L43617 32011
L43652 32011
L43676 31996
L43688 31982
" />
<path d="M43890 31854
L43807 31854
" />
<path d="M43807 32011
L43807 31711
L43926 31711
" />
</g>
<g style="fill:#000000; fill-opacity:0.0; 
stroke:#000000; stroke-width:80; stroke-opacity:1; 
stroke-linecap:round; stroke-linejoin:round;">
</g>
<g style="fill:#000000; fill-opacity:0.0; 
stroke:#000000; stroke-width:75; stroke-opacity:1; 
stroke-linecap:round; stroke-linejoin:round;">
<path d="M42489 31109
L42718 31109
" />
<path d="M42603 31223
L42603 30995
" />
</g>
<g style="fill:#000000; fill-opacity:0.0; 
stroke:#000000; stroke-width:80; stroke-opacity:1; 
stroke-linecap:round; stroke-linejoin:round;">
</g>
<g style="fill:#000000; fill-opacity:0.0; 
stroke:#000000; stroke-width:120; stroke-opacity:1; 
stroke-linecap:round; stroke-linejoin:round;">
<path d="M74149 16965
L74149 17451
L74177 17508
L74206 17537
L74263 17565
L74377 17565
L74434 17537
L74463 17508
L74492 17451
L74492 16965
" />
<path d="M74749 17022
L74777 16994
L74834 16965
L74977 16965
L75034 16994
L75063 17022
L75092 17079
L75092 17137
L75063 17222
L74720 17565
L75092 17565
" />
<path d="M76549 21710
L76549 21996
L75949 21996
" />
<path d="M76549 21510
L75949 21510
L76377 21310
L75949 21110
L76549 21110
" />
<path d="M75949 20881
L75949 20481
L76549 20739
" />
<path d="M76206 20167
L76177 20224
L76149 20253
L76092 20281
L76063 20281
L76006 20253
L75977 20224
L75949 20167
L75949 20053
L75977 19996
L76006 19967
L76063 19939
L76092 19939
L76149 19967
L76177 19996
L76206 20053
L76206 20167
L76234 20224
L76263 20253
L76320 20281
L76434 20281
L76492 20253
L76520 20224
L76549 20167
L76549 20053
L76520 19996
L76492 19967
L76434 19939
L76320 19939
L76263 19967
L76234 19996
L76206 20053
" />
<path d="M75949 19567
L75949 19510
L75977 19453
L76006 19424
L76063 19396
L76177 19367
L76320 19367
L76434 19396
L76492 19424
L76520 19453
L76549 19510
L76549 19567
L76520 19624
L76492 19653
L76434 19681
L76320 19710
L76177 19710
L76063 19681
L76006 19653
L75977 19624
L75949 19567
" />
<path d="M75949 18824
L75949 19110
L76234 19139
L76206 19110
L76177 19053
L76177 18910
L76206 18853
L76234 18824
L76292 18796
L76434 18796
L76492 18824
L76520 18853
L76549 18910
L76549 19053
L76520 19110
L76492 19139
" />
<path d="M76492 18196
L76520 18224
L76549 18310
L76549 18367
L76520 18453
L76463 18510
L76406 18539
L76292 18567
L76206 18567
L76092 18539
L76034 18510
L75977 18453
L75949 18367
L75949 18310
L75977 18224
L76006 18196
" />
<path d="M75949 18024
L75949 17681
" />
<path d="M76549 17853
L75949 17853
" />
</g>
<g style="fill:#000000; fill-opacity:0.0; 
stroke:#000000; stroke-width:118.11; stroke-opacity:1; 
stroke-linecap:round; stroke-linejoin:round;">
<path d="M58267 20908
L58267 21330
L58239 21414
L58183 21470
L58098 21498
L58042 21498
" />
<path d="M58577 21498
L58689 21498
L58745 21470
L58773 21442
L58830 21358
L58858 21245
L58858 21020
L58830 20964
L58802 20936
L58745 20908
L58633 20908
L58577 20936
L58548 20964
L58520 21020
L58520 21161
L58548 21217
L58577 21245
L58633 21273
L58745 21273
L58802 21245
L58830 21217
L58858 21161
" />
<path d="M58028 17561
L58028 16971
L58169 16971
L58253 16999
L58309 17055
L58338 17111
L58366 17224
L58366 17308
L58338 17421
L58309 17477
L58253 17533
L58169 17561
L58028 17561
" />
<path d="M58731 16971
L58787 16971
L58844 16999
L58872 17027
L58900 17083
L58928 17196
L58928 17336
L58900 17449
L58872 17505
L58844 17533
L58787 17561
L58731 17561
L58675 17533
L58647 17505
L58619 17449
L58591 17336
L58591 17196
L58619 17083
L58647 17027
L58675 16999
L58731 16971
" />
<path d="M53852 20908
L53852 21330
L53824 21414
L53768 21470
L53683 21498
L53627 21498
" />
<path d="M54443 21498
L54105 21498
" />
<path d="M54274 21498
L54274 20908
L54218 20992
L54161 21048
L54105 21077
" />
<path d="M54808 20908
L54865 20908
L54921 20936
L54949 20964
L54977 21020
L55005 21133
L55005 21273
L54977 21386
L54949 21442
L54921 21470
L54865 21498
L54808 21498
L54752 21470
L54724 21442
L54696 21386
L54668 21273
L54668 21133
L54696 21020
L54724 20964
L54752 20936
L54808 20908
" />
<path d="M53894 17561
L53894 16971
L54035 16971
L54119 16999
L54176 17055
L54204 17111
L54232 17224
L54232 17308
L54204 17421
L54176 17477
L54119 17533
L54035 17561
L53894 17561
" />
<path d="M54794 17561
L54457 17561
" />
<path d="M54625 17561
L54625 16971
L54569 17055
L54513 17111
L54457 17140
" />
<path d="M49718 20908
L49718 21330
L49690 21414
L49634 21470
L49550 21498
L49493 21498
" />
<path d="M50309 21498
L49971 21498
" />
<path d="M50140 21498
L50140 20908
L50084 20992
L50028 21048
L49971 21077
" />
<path d="M50871 21498
L50534 21498
" />
<path d="M50703 21498
L50703 20908
L50646 20992
L50590 21048
L50534 21077
" />
<path d="M49760 17561
L49760 16971
L49901 16971
L49985 16999
L50042 17055
L50070 17111
L50098 17224
L50098 17308
L50070 17421
L50042 17477
L49985 17533
L49901 17561
L49760 17561
" />
<path d="M50323 17027
L50351 16999
L50407 16971
L50548 16971
L50604 16999
L50632 17027
L50660 17083
L50660 17140
L50632 17224
L50295 17561
L50660 17561
" />
<path d="M45584 20908
L45584 21330
L45556 21414
L45500 21470
L45416 21498
L45359 21498
" />
<path d="M46175 21498
L45838 21498
" />
<path d="M46006 21498
L46006 20908
L45950 20992
L45894 21048
L45838 21077
" />
<path d="M46400 20964
L46428 20936
L46484 20908
L46625 20908
L46681 20936
L46709 20964
L46737 21020
L46737 21077
L46709 21161
L46372 21498
L46737 21498
" />
<path d="M45627 17561
L45627 16971
L45767 16971
L45852 16999
L45908 17055
L45936 17111
L45964 17224
L45964 17308
L45936 17421
L45908 17477
L45852 17533
L45767 17561
L45627 17561
" />
<path d="M46161 16971
L46526 16971
L46330 17196
L46414 17196
L46470 17224
L46498 17252
L46526 17308
L46526 17449
L46498 17505
L46470 17533
L46414 17561
L46245 17561
L46189 17533
L46161 17505
" />
<path d="M55314 30357
L55314 30778
L55286 30863
L55230 30919
L55146 30947
L55089 30947
" />
<path d="M55877 30357
L55596 30357
L55568 30638
L55596 30610
L55652 30582
L55793 30582
L55849 30610
L55877 30638
L55905 30694
L55905 30835
L55877 30891
L55849 30919
L55793 30947
L55652 30947
L55596 30919
L55568 30891
" />
<path d="M55089 34519
L55371 34519
" />
<path d="M55033 34687
L55230 34097
L55427 34687
" />
<path d="M55933 34687
L55596 34687
" />
<path d="M55764 34687
L55764 34097
L55708 34181
L55652 34237
L55596 34266
" />
<path d="M50196 30357
L50196 30778
L50168 30863
L50112 30919
L50028 30947
L49971 30947
" />
<path d="M50731 30553
L50731 30947
" />
<path d="M50590 30329
L50449 30750
L50815 30750
" />
<path d="M49971 34519
L50253 34519
" />
<path d="M49915 34687
L50112 34097
L50309 34687
" />
<path d="M50618 34097
L50674 34097
L50731 34125
L50759 34153
L50787 34209
L50815 34322
L50815 34462
L50787 34575
L50759 34631
L50731 34659
L50674 34687
L50618 34687
L50562 34659
L50534 34631
L50506 34575
L50478 34462
L50478 34322
L50506 34209
L50534 34153
L50562 34125
L50618 34097
" />
<path d="M64566 20908
L64566 21330
L64538 21414
L64482 21470
L64398 21498
L64341 21498
" />
<path d="M64932 21161
L64876 21133
L64848 21105
L64820 21048
L64820 21020
L64848 20964
L64876 20936
L64932 20908
L65044 20908
L65101 20936
L65129 20964
L65157 21020
L65157 21048
L65129 21105
L65101 21133
L65044 21161
L64932 21161
L64876 21189
L64848 21217
L64820 21273
L64820 21386
L64848 21442
L64876 21470
L64932 21498
L65044 21498
L65101 21470
L65129 21442
L65157 21386
L65157 21273
L65129 21217
L65101 21189
L65044 21161
" />
<path d="M63821 16971
L63821 17449
L63849 17505
L63877 17533
L63934 17561
L64046 17561
L64102 17533
L64131 17505
L64159 17449
L64159 16971
" />
<path d="M64412 17393
L64693 17393
" />
<path d="M64356 17561
L64552 16971
L64749 17561
" />
<path d="M65284 17561
L65087 17280
" />
<path d="M64946 17561
L64946 16971
L65171 16971
L65227 16999
L65255 17027
L65284 17083
L65284 17168
L65255 17224
L65227 17252
L65171 17280
L64946 17280
" />
<path d="M65452 16971
L65790 16971
" />
<path d="M65621 17561
L65621 16971
" />
<path d="M66141 30357
L66141 30778
L66113 30863
L66057 30919
L65973 30947
L65916 30947
" />
<path d="M66676 30357
L66563 30357
L66507 30385
L66479 30413
L66422 30497
L66394 30610
L66394 30835
L66422 30891
L66451 30919
L66507 30947
L66619 30947
L66676 30919
L66704 30891
L66732 30835
L66732 30694
L66704 30638
L66676 30610
L66619 30582
L66507 30582
L66451 30610
L66422 30638
L66394 30694
" />
<path d="M64862 34884
L64862 34294
L65087 34294
L65143 34322
L65171 34350
L65199 34406
L65199 34491
L65171 34547
L65143 34575
L65087 34603
L64862 34603
" />
<path d="M65396 34294
L65537 34884
L65649 34462
L65762 34884
L65902 34294
" />
<path d="M66127 34884
L66127 34294
L66324 34715
L66521 34294
L66521 34884
" />
<path d="M66802 34659
L67252 34659
" />
<path d="M67843 34884
L67505 34884
" />
<path d="M67674 34884
L67674 34294
L67618 34378
L67561 34434
L67505 34462
" />
</g>
<g style="fill:#000000; fill-opacity:0.0; 
stroke:#000000; stroke-width:120; stroke-opacity:1; 
stroke-linecap:round; stroke-linejoin:round;">
<path d="M40278 26820
L39678 26820
L39678 26677
L39706 26592
L39764 26535
L39821 26506
L39935 26477
L40021 26477
L40135 26506
L40192 26535
L40249 26592
L40278 26677
L40278 26820
" />
<path d="M40278 25906
L40278 26249
" />
<path d="M40278 26077
L39678 26077
L39764 26135
L39821 26192
L39849 26249
" />
<path d="M39921 25242
L39921 24642
L40149 24642
L40206 24671
L40235 24700
L40264 24757
L40264 24842
L40235 24900
L40206 24928
L40149 24957
L39921 24957
" />
<path d="M40464 24642
L40606 25242
L40721 24814
L40835 25242
L40978 24642
" />
<path d="M41549 25242
L41349 24957
" />
<path d="M41206 25242
L41206 24642
L41435 24642
L41492 24671
L41521 24700
L41549 24757
L41549 24842
L41521 24900
L41492 24928
L41435 24957
L41206 24957
" />
<path d="M42092 25242
L41806 25242
L41806 24642
" />
<path d="M42292 24928
L42492 24928
" />
<path d="M42578 25242
L42292 25242
L42292 24642
L42578 24642
" />
<path d="M42835 25242
L42835 24642
L42978 24642
L43064 24671
L43121 24728
L43149 24785
L43178 24900
L43178 24985
L43149 25100
L43121 25157
L43064 25214
L42978 25242
L42835 25242
" />
<path d="M44337 26820
L43737 26820
L43737 26677
L43765 26592
L43823 26535
L43880 26506
L43994 26477
L44080 26477
L44194 26506
L44251 26535
L44308 26592
L44337 26677
L44337 26820
" />
<path d="M43794 26249
L43765 26220
L43737 26163
L43737 26020
L43765 25963
L43794 25935
L43851 25906
L43908 25906
L43994 25935
L44337 26277
L44337 25906
" />
<path d="M43826 24642
L43826 25128
L43855 25185
L43883 25214
L43940 25242
L44055 25242
L44112 25214
L44140 25185
L44169 25128
L44169 24642
" />
<path d="M44426 25214
L44512 25242
L44655 25242
L44712 25214
L44740 25185
L44769 25128
L44769 25071
L44740 25014
L44712 24985
L44655 24957
L44540 24928
L44483 24900
L44455 24871
L44426 24814
L44426 24757
L44455 24700
L44483 24671
L44540 24642
L44683 24642
L44769 24671
" />
<path d="M45026 24928
L45226 24928
" />
<path d="M45312 25242
L45026 25242
L45026 24642
L45312 24642
" />
<path d="M45912 25242
L45712 24957
" />
<path d="M45569 25242
L45569 24642
L45797 24642
L45855 24671
L45883 24700
L45912 24757
L45912 24842
L45883 24900
L45855 24928
L45797 24957
L45569 24957
" />
<path d="M46455 25242
L46169 25242
L46169 24642
" />
<path d="M46655 24928
L46855 24928
" />
<path d="M46940 25242
L46655 25242
L46655 24642
L46940 24642
" />
<path d="M47197 25242
L47197 24642
L47340 24642
L47426 24671
L47483 24728
L47512 24785
L47540 24900
L47540 24985
L47512 25100
L47483 25157
L47426 25214
L47340 25242
L47197 25242
" />
</g>
<g style="fill:#000000; fill-opacity:0.0; 
stroke:#000000; stroke-width:125; stroke-opacity:1; 
stroke-linecap:round; stroke-linejoin:round;">
<path d="M45790 34627
L45861 34651
L45980 34651
L46028 34627
L46051 34603
L46075 34555
L46075 34508
L46051 34460
L46028 34436
L45980 34413
L45885 34389
L45837 34365
L45813 34341
L45790 34294
L45790 34246
L45813 34198
L45837 34175
L45885 34151
L46004 34151
L46075 34175
" />
<path d="M46242 34151
L46361 34651
L46456 34294
L46551 34651
L46670 34151
" />
<path d="M47123 34651
L46837 34651
" />
<path d="M46980 34651
L46980 34151
L46932 34222
L46885 34270
L46837 34294
" />
</g>
<g style="fill:#000000; fill-opacity:0.0; 
stroke:#000000; stroke-width:100; stroke-opacity:1; 
stroke-linecap:round; stroke-linejoin:round;">
<path d="M45730 30088
L45563 29850
" />
<path d="M45444 30088
L45444 29588
L45635 29588
L45682 29612
L45706 29636
L45730 29684
L45730 29755
L45706 29803
L45682 29827
L45635 29850
L45444 29850
" />
<path d="M45944 29827
L46111 29827
" />
<path d="M46182 30088
L45944 30088
L45944 29588
L46182 29588
" />
<path d="M46373 30065
L46444 30088
L46563 30088
L46611 30065
L46635 30041
L46659 29993
L46659 29946
L46635 29898
L46611 29874
L46563 29850
L46468 29827
L46420 29803
L46397 29779
L46373 29731
L46373 29684
L46397 29636
L46420 29612
L46468 29588
L46587 29588
L46659 29612
" />
<path d="M46873 29827
L47040 29827
" />
<path d="M47111 30088
L46873 30088
L46873 29588
L47111 29588
" />
<path d="M47254 29588
L47540 29588
" />
<path d="M47397 30088
L47397 29588
" />
</g>
<g style="fill:#000000; fill-opacity:0.0; 
stroke:#000000; stroke-width:80; stroke-opacity:1; 
stroke-linecap:round; stroke-linejoin:round;">
<path d="M70708 34221
L70727 34240
L70746 34297
L70746 34336
L70727 34393
L70689 34431
L70651 34450
L70575 34469
L70518 34469
L70442 34450
L70404 34431
L70365 34393
L70346 34336
L70346 34297
L70365 34240
L70385 34221
" />
<path d="M70346 33859
L70346 34050
L70537 34069
L70518 34050
L70499 34012
L70499 33917
L70518 33878
L70537 33859
L70575 33840
L70670 33840
L70708 33859
L70727 33878
L70746 33917
L70746 34012
L70727 34050
L70708 34069
" />
<path d="M61850 34221
L61869 34240
L61888 34297
L61888 34336
L61869 34393
L61831 34431
L61793 34450
L61717 34469
L61660 34469
L61583 34450
L61545 34431
L61507 34393
L61488 34336
L61488 34297
L61507 34240
L61526 34221
" />
<path d="M61488 34088
L61488 33840
L61641 33974
L61641 33917
L61660 33878
L61679 33859
L61717 33840
L61812 33840
L61850 33859
L61869 33878
L61888 33917
L61888 34031
L61869 34069
L61850 34088
" />
<path d="M63819 34221
L63838 34240
L63857 34297
L63857 34336
L63838 34393
L63800 34431
L63761 34450
L63685 34469
L63628 34469
L63552 34450
L63514 34431
L63476 34393
L63457 34336
L63457 34297
L63476 34240
L63495 34221
" />
<path d="M63590 33878
L63857 33878
" />
<path d="M63438 33974
L63723 34069
L63723 33821
" />
<path d="M43437 34375
L43418 34394
L43361 34413
L43322 34413
L43265 34394
L43227 34356
L43208 34318
L43189 34242
L43189 34185
L43208 34109
L43227 34071
L43265 34032
L43322 34013
L43361 34013
L43418 34032
L43437 34051
" />
<path d="M43818 34413
L43589 34413
" />
<path d="M43703 34413
L43703 34013
L43665 34071
L43627 34109
L43589 34128
" />
</g>
<g style="fill:#000000; fill-opacity:0.0; 
stroke:#000000; stroke-width:118.11; stroke-opacity:1; 
stroke-linecap:round; stroke-linejoin:round;">
<path d="M70866 20908
L70866 21330
L70838 21414
L70781 21470
L70697 21498
L70641 21498
" />
<path d="M71119 20964
L71147 20936
L71203 20908
L71344 20908
L71400 20936
L71428 20964
L71456 21020
L71456 21077
L71428 21161
L71091 21498
L71456 21498
" />
<path d="M70402 17252
L70486 17280
L70514 17308
L70542 17365
L70542 17449
L70514 17505
L70486 17533
L70430 17561
L70205 17561
L70205 16971
L70402 16971
L70458 16999
L70486 17027
L70514 17083
L70514 17140
L70486 17196
L70458 17224
L70402 17252
L70205 17252
" />
<path d="M70767 17393
L71048 17393
" />
<path d="M70711 17561
L70908 16971
L71105 17561
" />
<path d="M71217 16971
L71555 16971
" />
<path d="M71386 17561
L71386 16971
" />
<path d="M71667 16971
L72005 16971
" />
<path d="M71836 17561
L71836 16971
" />
</g>
<g style="fill:#000000; fill-opacity:0.0; 
stroke:#000000; stroke-width:100; stroke-opacity:1; 
stroke-linecap:round; stroke-linejoin:round;">
<path d="M76774 33213
L76546 33213
" />
<path d="M76660 33213
L76660 32813
L76622 32871
L76584 32909
L76546 32928
" />
<path d="M76946 33213
L76946 32813
L77098 32813
L77136 32832
L77155 32851
L77174 32890
L77174 32947
L77155 32985
L77136 33004
L77098 33023
L76946 33023
" />
<path d="M77346 33213
L77346 32813
" />
<path d="M77536 33213
L77536 32813
L77765 33213
L77765 32813
" />
<path d="M76774 16678
L76546 16678
" />
<path d="M76660 16678
L76660 16278
L76622 16335
L76584 16373
L76546 16392
" />
<path d="M76946 16678
L76946 16278
L77098 16278
L77136 16297
L77155 16316
L77174 16354
L77174 16411
L77155 16449
L77136 16468
L77098 16487
L76946 16487
" />
<path d="M77346 16678
L77346 16278
" />
<path d="M77536 16678
L77536 16278
L77765 16678
L77765 16278
" />
<path d="M40554 16678
L40325 16678
" />
<path d="M40440 16678
L40440 16278
L40402 16335
L40363 16373
L40325 16392
" />
<path d="M40725 16678
L40725 16278
L40878 16278
L40916 16297
L40935 16316
L40954 16354
L40954 16411
L40935 16449
L40916 16468
L40878 16487
L40725 16487
" />
<path d="M41125 16678
L41125 16278
" />
<path d="M41316 16678
L41316 16278
L41544 16678
L41544 16278
" />
</g>
<g style="fill:#000000; fill-opacity:0.0; 
stroke:#000000; stroke-width:50; stroke-opacity:1; 
stroke-linecap:round; stroke-linejoin:round;">
<path d="M71025 35939
L75825 35939
" />
<path d="M75825 35939
L75825 29239
" />
<path d="M75825 29239
L71025 29239
" />
<path d="M71025 29239
L71025 35939
" />
</g>
<g style="fill:#000000; fill-opacity:0.0; 
stroke:#000000; stroke-width:80; stroke-opacity:1; 
stroke-linecap:round; stroke-linejoin:round;">
<path d="M40944 30192
L40944 30392
" />
<path d="M40944 33192
L40944 32992
" />
<path d="M40944 32992
L41344 32992
" />
<path d="M41344 32992
L41344 30392
" />
<path d="M41344 30392
L40544 30392
" />
<path d="M40544 30392
L40544 32992
" />
<path d="M40544 32992
L40944 32992
" />
<path d="M41144 30392
L41344 30592
" />
<path d="M48500 26574
L48700 26574
" />
<path d="M51500 26574
L51300 26574
" />
<path d="M51300 26574
L51300 26174
" />
<path d="M51300 26174
L48700 26174
" />
<path d="M48700 26174
L48700 26974
" />
<path d="M48700 26974
L51300 26974
" />
<path d="M51300 26974
L51300 26574
" />
<path d="M48700 26374
L48900 26174
" />
<path d="M45153 28346
L45353 28346
" />
<path d="M48153 28346
L47953 28346
" />
<path d="M47953 28346
L47953 27946
" />
<path d="M47953 27946
L45353 27946
" />
<path d="M45353 27946
L45353 28746
" />
<path d="M45353 28746
L47953 28746
" />
<path d="M47953 28746
L47953 28346
" />
<path d="M45353 28146
L45553 27946
" />
</g>
<g style="fill:#000000; fill-opacity:0.0; 
stroke:#000000; stroke-width:60; stroke-opacity:1; 
stroke-linecap:round; stroke-linejoin:round;">
<path d="M74106 22515
L75106 22515
" />
<path d="M75106 22515
L75106 25515
" />
<path d="M75106 25515
L74106 25515
" />
<path d="M74106 25515
L74106 22515
" />
<path d="M75106 23515
L74106 23515
" />
</g>
<g style="fill:#000000; fill-opacity:0.0; 
stroke:#000000; stroke-width:150; stroke-opacity:1; 
stroke-linecap:round; stroke-linejoin:round;">
<path d="M52645 24574
L66645 24574
" />
<path d="M67045 25274
L52245 25274
" />
<path d="M52645 28574
L66645 28574
" />
<path d="M67045 27874
L52245 27874
" />
</g>
<g style="fill:#000000; fill-opacity:0.0; 
stroke:#000000; stroke-width:100; stroke-opacity:1; 
stroke-linecap:round; stroke-linejoin:round;">
<path d="M53845 27074
L65445 27074
" />
<path d="M65445 26074
L53845 26074
" />
<path d="M60145 26074
L60145 27074
" />
<path d="M59145 26074
L59145 27074
" />
</g>
<g style="fill:#000000; fill-opacity:0.0; 
stroke:#000000; stroke-width:150; stroke-opacity:1; 
stroke-linecap:round; stroke-linejoin:round;">
<path d="M52645 26074
L52645 27074
" />
</g>
<g style="fill:#000000; fill-opacity:0.0; 
stroke:#000000; stroke-width:100; stroke-opacity:1; 
stroke-linecap:round; stroke-linejoin:round;">
<path d="M53145.7 26574.8 A500 500 0.0 0 0 52645.7 26074.8 " />
<path d="M52645.7 27074.8 A500 500 0.0 0 0 53145.7 26574.8 " />
</g>
<g style="fill:#000000; fill-opacity:0.0; 
stroke:#000000; stroke-width:150; stroke-opacity:1; 
stroke-linecap:round; stroke-linejoin:round;">
<path d="M52645 27074
L52245 27074
" />
<path d="M52645 26074
L52245 26074
" />
</g>
<g style="fill:#000000; fill-opacity:0.0; 
stroke:#000000; stroke-width:100; stroke-opacity:1; 
stroke-linecap:round; stroke-linejoin:round;">
<path d="M53845 26074
L53845 27074
" />
<path d="M65445 27074
L65445 26074
" />
</g>
<g style="fill:#000000; fill-opacity:0.0; 
stroke:#000000; stroke-width:150; stroke-opacity:1; 
stroke-linecap:round; stroke-linejoin:round;">
<path d="M66645 24574
L66645 28574
" />
<path d="M52645 28574
L52645 24574
" />
<path d="M67045 25274
L67045 27874
" />
<path d="M52245 27874
L52245 25274
" />
</g>
<g style="fill:#000000; fill-opacity:0.0; 
stroke:#000000; stroke-width:100; stroke-opacity:1; 
stroke-linecap:round; stroke-linejoin:round;">
<path d="M64011 31102.4 A900 900 0.0 0 0 63111 30202.4 " />
<path d="M60511 31802
L63111 31802
" />
<path d="M63111 30402
L60511 30402
" />
<path d="M63111 31802.4 A700 700 0.0 0 0 63811 31102.4 " />
<path d="M63811 31102.4 A700 700 0.0 0 0 63111 30402.4 " />
<path d="M59811 31102.4 A700 700 0.0 0 0 60511 31802.4 " />
<path d="M60511 30402.4 A700 700 0.0 0 0 59811 31102.4 " />
<path d="M63111 32002.4 A900 900 0.0 0 0 64011 31102.4 " />
<path d="M63111 32002
L60511 32002
" />
<path d="M60511 30202
L63111 30202
" />
<path d="M59611 31102.4 A900 900 0.0 0 0 60511 32002.4 " />
<path d="M60511 30202.4 A900 900 0.0 0 0 59611 31102.4 " />
</g>
<g style="fill:#000000; fill-opacity:0.0; 
stroke:#000000; stroke-width:50; stroke-opacity:1; 
stroke-linecap:round; stroke-linejoin:round;">
<circle cx="43503.9" cy="31102.4" r="1001.25" /> 
</g>
<g style="fill:#000000; fill-opacity:0.0; 
stroke:#000000; stroke-width:100; stroke-opacity:1; 
stroke-linecap:round; stroke-linejoin:round;">
<path d="M75406 17881
L75406 21881
" />
<path d="M75106 17881
L73606 17881
" />
<path d="M73606 17881
L73606 21881
" />
<path d="M73606 21881
L75606 21881
" />
<path d="M75606 21881
L75606 17881
" />
<path d="M75606 17881
L75106 17881
" />
</g>
<g style="fill:#000000; fill-opacity:0.0; 
stroke:#000000; stroke-width:150; stroke-opacity:1; 
stroke-linecap:round; stroke-linejoin:round;">
<path d="M58464 18070
L58464 17874
" />
<circle cx="57480.3" cy="19645.7" r="787.402" /> 
<circle cx="59448.8" cy="19645.7" r="787.402" /> 
<path d="M60433 18661
L56496 18661
" />
<path d="M60433 20590
L56496 20590
" />
<path d="M60433 18070
L56496 18070
" />
<path d="M60433 17874
L56496 17874
" />
<path d="M56496 17874
L56496 21732
" />
<path d="M56496 21732
L60433 21732
" />
<path d="M60433 21732
L60433 17874
" />
<path d="M54330 18070
L54330 17874
" />
<circle cx="53346.5" cy="19645.7" r="787.402" /> 
<circle cx="55315" cy="19645.7" r="787.402" /> 
<path d="M56299 18661
L52362 18661
" />
<path d="M56299 20590
L52362 20590
" />
<path d="M56299 18070
L52362 18070
" />
<path d="M56299 17874
L52362 17874
" />
<path d="M52362 17874
L52362 21732
" />
<path d="M52362 21732
L56299 21732
" />
<path d="M56299 21732
L56299 17874
" />
<path d="M50196 18070
L50196 17874
" />
<circle cx="49212.6" cy="19645.7" r="787.402" /> 
<circle cx="51181.1" cy="19645.7" r="787.402" /> 
<path d="M52165 18661
L48228 18661
" />
<path d="M52165 20590
L48228 20590
" />
<path d="M52165 18070
L48228 18070
" />
<path d="M52165 17874
L48228 17874
" />
<path d="M48228 17874
L48228 21732
" />
<path d="M48228 21732
L52165 21732
" />
<path d="M52165 21732
L52165 17874
" />
<path d="M46062 18070
L46062 17874
" />
<circle cx="45078.7" cy="19645.7" r="787.402" /> 
<circle cx="47047.2" cy="19645.7" r="787.402" /> 
<path d="M48031 18661
L44094 18661
" />
<path d="M48031 20590
L44094 20590
" />
<path d="M48031 18070
L44094 18070
" />
<path d="M48031 17874
L44094 17874
" />
<path d="M44094 17874
L44094 21732
" />
<path d="M44094 21732
L48031 21732
" />
<path d="M48031 21732
L48031 17874
" />
<circle cx="57480.3" cy="32126" r="787.402" /> 
<path d="M56496 33700
L56496 33897
" />
<path d="M54527 33700
L54527 33897
" />
<circle cx="55511.8" cy="32126" r="787.402" /> 
<circle cx="53543.3" cy="32126" r="787.402" /> 
<path d="M52559 33110
L58464 33110
" />
<path d="M52559 31181
L58464 31181
" />
<path d="M52559 33700
L58464 33700
" />
<path d="M52559 33897
L58464 33897
" />
<path d="M58464 33897
L58464 30039
" />
<path d="M58464 30039
L52559 30039
" />
<path d="M52559 30039
L52559 33897
" />
<path d="M50393 33700
L50393 33897
" />
<circle cx="51378" cy="32126" r="787.402" /> 
<circle cx="49409.4" cy="32126" r="787.402" /> 
<path d="M48425 33110
L52362 33110
" />
<path d="M48425 31181
L52362 31181
" />
<path d="M48425 33700
L52362 33700
" />
<path d="M48425 33897
L52362 33897
" />
<path d="M52362 33897
L52362 30039
" />
<path d="M52362 30039
L48425 30039
" />
<path d="M48425 30039
L48425 33897
" />
<circle cx="62795.3" cy="19645.7" r="787.402" /> 
<path d="M63779 18070
L63779 17874
" />
<path d="M65748 18070
L65748 17874
" />
<circle cx="64763.8" cy="19645.7" r="787.402" /> 
<circle cx="66732.3" cy="19645.7" r="787.402" /> 
<path d="M67716 18661
L61811 18661
" />
<path d="M67716 20590
L61811 20590
" />
<path d="M67716 18070
L61811 18070
" />
<path d="M67716 17874
L61811 17874
" />
<path d="M61811 17874
L61811 21732
" />
<path d="M61811 21732
L67716 21732
" />
<path d="M67716 21732
L67716 17874
" />
<path d="M66338 33700
L66338 33897
" />
<circle cx="67322.8" cy="32126" r="787.402" /> 
<circle cx="65354.3" cy="32126" r="787.402" /> 
<path d="M64370 33110
L68307 33110
" />
<path d="M64370 31181
L68307 31181
" />
<path d="M64370 33700
L68307 33700
" />
<path d="M64370 33897
L68307 33897
" />
<path d="M68307 33897
L68307 30039
" />
<path d="M68307 30039
L64370 30039
" />
<path d="M64370 30039
L64370 33897
" />
</g>
<g style="fill:#000000; fill-opacity:0.0; 
stroke:#000000; stroke-width:118; stroke-opacity:1; 
stroke-linecap:round; stroke-linejoin:round;">
<path d="M40941.6 26894.2 A786.824 786.824 0.0 0 0 42051.6 26971.8 " />
<path d="M42059.8 25787.3 A789.846 789.846 0.0 0 0 40944.8 25853.6 " />
<path d="M41535.4 27165 A787 787 0.0 0 0 42322.4 26378 " />
<path d="M42322.4 26378 A787 787 0.0 0 0 41535.4 25591 " />
<path d="M41023 25786
L41023 26968
" />
<path d="M40944 25865
L40944 26889
" />
<circle cx="41535.4" cy="26378" r="591" /> 
<path d="M46263.1 25861.8 A786.824 786.824 0.0 0 0 45153.1 25784.1 " />
<path d="M45144.9 26968.6 A789.846 789.846 0.0 0 0 46259.9 26902.4 " />
<path d="M45669.3 25591 A787 787 0.0 0 0 44882.3 26378 " />
<path d="M44882.3 26378 A787 787 0.0 0 0 45669.3 27165 " />
<path d="M46181 26968
L46181 25786
" />
<path d="M46260 26889
L46260 25865
" />
<circle cx="45669.3" cy="26378" r="591" /> 
</g>
<g style="fill:#000000; fill-opacity:0.0; 
stroke:#000000; stroke-width:120; stroke-opacity:1; 
stroke-linecap:round; stroke-linejoin:round;">
<path d="M47656 33286
L45256 33286
" />
<path d="M45256 33286
L45256 30886
" />
<path d="M45256 30886
L47656 30886
" />
<path d="M47656 30886
L47656 33286
" />
</g>
<g style="fill:#000000; fill-opacity:0.0; 
stroke:#000000; stroke-width:1000; stroke-opacity:1; 
stroke-linecap:round; stroke-linejoin:round;">
<circle cx="46456.7" cy="32086.6" r="316.228" /> 
</g>
<g style="fill:#000000; fill-opacity:0.0; 
stroke:#000000; stroke-width:120; stroke-opacity:1; 
stroke-linecap:round; stroke-linejoin:round;">
<path d="M70185 33075
L70185 35055
" />
<path d="M70185 35055
L69185 35055
" />
<path d="M69185 35055
L69185 33055
" />
<path d="M69185 33055
L70185 33055
" />
<path d="M69935 33055
L70185 33305
" />
<path d="M61326 33075
L61326 35055
" />
<path d="M61326 35055
L60326 35055
" />
<path d="M60326 35055
L60326 33055
" />
<path d="M60326 33055
L61326 33055
" />
<path d="M61076 33055
L61326 33305
" />
<path d="M63295 33075
L63295 35055
" />
<path d="M63295 35055
L62295 35055
" />
<path d="M62295 35055
L62295 33055
" />
<path d="M62295 33055
L63295 33055
" />
<path d="M63045 33055
L63295 33305
" />
<path d="M42523 32767
L44503 32767
" />
<path d="M44503 32767
L44503 33767
" />
<path d="M44503 33767
L42503 33767
" />
<path d="M42503 33767
L42503 32767
" />
<path d="M42503 33017
L42753 32767
" />
</g>
<g style="fill:#000000; fill-opacity:0.0; 
stroke:#000000; stroke-width:150; stroke-opacity:1; 
stroke-linecap:round; stroke-linejoin:round;">
<path d="M71062 18070
L71062 17874
" />
<circle cx="70078.7" cy="19645.7" r="787.402" /> 
<circle cx="72047.2" cy="19645.7" r="787.402" /> 
<path d="M73031 18661
L69094 18661
" />
<path d="M73031 20590
L69094 20590
" />
<path d="M73031 18070
L69094 18070
" />
<path d="M73031 17874
L69094 17874
" />
<path d="M69094 17874
L69094 21732
" />
<path d="M69094 21732
L73031 21732
" />
<path d="M73031 21732
L73031 17874
" />
<circle cx="77165.4" cy="34252" r="900" /> 
<circle cx="77165.4" cy="17716.5" r="900" /> 
<circle cx="40944.9" cy="17716.5" r="900" /> 
</g>
<g style="fill:#000000; fill-opacity:0.0; 
stroke:#000000; stroke-width:19.685; stroke-opacity:1; 
stroke-linecap:round; stroke-linejoin:round;">
</g>
<g style="fill:#000000; fill-opacity:1.0; 
stroke:#000000; stroke-width:19.685; stroke-opacity:1; 
stroke-linecap:round; stroke-linejoin:round;">
<circle cx="73925.2" cy="30039.8" r="290.157" /> 
<circle cx="72925.2" cy="30039.8" r="290.157" /> 
<circle cx="72925.2" cy="30826.8" r="290.157" /> 
<circle cx="73925.2" cy="30826.8" r="290.157" /> 
<circle cx="75787.2" cy="31889.8" r="521.657" /> 
<circle cx="71063.2" cy="31889.8" r="521.657" /> 
<circle cx="40944.9" cy="30192.9" r="265.157" /> 
<circle cx="40944.9" cy="33192.9" r="265.157" /> 
<circle cx="48500" cy="26574.8" r="265.157" /> 
<circle cx="51500" cy="26574.8" r="265.157" /> 
<circle cx="45153.5" cy="28346.5" r="265.157" /> 
<circle cx="48153.5" cy="28346.5" r="265.157" /> 
<polyline style="fill-rule:evenodd;"
points="74316,22725
74896,22725
74896,23305
74316,23305
74316,22725
" /> 
<circle cx="74606.3" cy="24015.7" r="290.157" /> 
<circle cx="74606.3" cy="25015.7" r="290.157" /> 
</g>
<g style="fill:#000000; fill-opacity:1.0; 
stroke:#000000; stroke-width:591; stroke-opacity:1; 
stroke-linecap:round; stroke-linejoin:round;">
<path d="M53145 27937
L53145 28212
" />
<path d="M54145 27937
L54145 28212
" />
<path d="M55145 27937
L55145 28212
" />
<path d="M56145 27937
L56145 28212
" />
<path d="M57145 27937
L57145 28212
" />
<path d="M58145 27937
L58145 28212
" />
<path d="M59145 27937
L59145 28212
" />
<path d="M60145 27937
L60145 28212
" />
<path d="M61145 27937
L61145 28212
" />
<path d="M62145 27937
L62145 28212
" />
<path d="M63145 27937
L63145 28212
" />
<path d="M64145 27937
L64145 28212
" />
<path d="M65145 27937
L65145 28212
" />
<path d="M66145 27937
L66145 28212
" />
<path d="M66145 24937
L66145 25212
" />
<path d="M65145 24937
L65145 25212
" />
<path d="M64145 24937
L64145 25212
" />
<path d="M63145 24937
L63145 25212
" />
<path d="M62145 24937
L62145 25212
" />
<path d="M61145 24937
L61145 25212
" />
<path d="M60145 24937
L60145 25212
" />
<path d="M59145 24937
L59145 25212
" />
<path d="M58145 24937
L58145 25212
" />
<path d="M57145 24937
L57145 25212
" />
<path d="M56145 24937
L56145 25212
" />
<path d="M55145 24937
L55145 25212
" />
<path d="M54145 24937
L54145 25212
" />
<path d="M53145 24937
L53145 25212
" />
</g>
<g style="fill:#000000; fill-opacity:1.0; 
stroke:#000000; stroke-width:19.685; stroke-opacity:1; 
stroke-linecap:round; stroke-linejoin:round;">
<circle cx="60811" cy="31102.4" r="383.657" /> 
<circle cx="62811" cy="31102.4" r="383.657" /> 
<polyline style="fill-rule:evenodd;"
points="42738,31367
42738,30837
43269,30837
43269,31367
42738,31367
" /> 
<circle cx="44003.9" cy="31102.4" r="265.157" /> 
</g>
<g style="fill:#000000; fill-opacity:1.0; 
stroke:#000000; stroke-width:687; stroke-opacity:1; 
stroke-linecap:round; stroke-linejoin:round;">
<path d="M74754 20881
L74457 20881
" />
<path d="M74754 19881
L74457 19881
" />
<path d="M74754 18881
L74457 18881
" />
</g>
<g style="fill:#000000; fill-opacity:1.0; 
stroke:#000000; stroke-width:19.685; stroke-opacity:1; 
stroke-linecap:round; stroke-linejoin:round;">
<circle cx="59448.8" cy="19685" r="482.283" /> 
<circle cx="57480.3" cy="19685" r="482.283" /> 
<circle cx="55315" cy="19685" r="482.283" /> 
<circle cx="53346.5" cy="19685" r="482.283" /> 
<circle cx="51181.1" cy="19685" r="482.283" /> 
<circle cx="49212.6" cy="19685" r="482.283" /> 
<circle cx="47047.2" cy="19685" r="482.283" /> 
<circle cx="45078.7" cy="19685" r="482.283" /> 
<circle cx="57480.3" cy="32086.6" r="482.283" /> 
<circle cx="53543.3" cy="32086.6" r="482.283" /> 
<circle cx="55511.8" cy="32086.6" r="482.283" /> 
<circle cx="49409.4" cy="32086.6" r="482.283" /> 
<circle cx="51378" cy="32086.6" r="482.283" /> 
<circle cx="62795.3" cy="19685" r="482.283" /> 
<circle cx="66732.3" cy="19685" r="482.283" /> 
<circle cx="64763.8" cy="19685" r="482.283" /> 
<circle cx="65354.3" cy="32086.6" r="482.283" /> 
<circle cx="67322.8" cy="32086.6" r="482.283" /> 
<circle cx="42035.4" cy="26378" r="383.657" /> 
<circle cx="41035.4" cy="26378" r="383.657" /> 
<circle cx="45169.3" cy="26378" r="383.657" /> 
<circle cx="46169.3" cy="26378" r="383.657" /> 
<circle cx="47342.7" cy="33366.6" r="383.657" /> 
<circle cx="45570.7" cy="30806.6" r="383.657" /> 
<circle cx="45570.7" cy="33366.6" r="383.657" /> 
<circle cx="47342.7" cy="30806.6" r="383.657" /> 
<circle cx="69685" cy="33555.1" r="265.157" /> 
<circle cx="69685" cy="34555.1" r="265.157" /> 
<circle cx="60826.8" cy="33555.1" r="265.157" /> 
<circle cx="60826.8" cy="34555.1" r="265.157" /> 
<circle cx="62795.3" cy="33555.1" r="265.157" /> 
<circle cx="62795.3" cy="34555.1" r="265.157" /> 
<circle cx="43003.9" cy="33267.7" r="265.157" /> 
<circle cx="44003.9" cy="33267.7" r="265.157" /> 
<circle cx="72047.2" cy="19685" r="482.283" /> 
<circle cx="70078.7" cy="19685" r="482.283" /> 
<circle cx="77165.4" cy="34252" r="790.157" /> 
<circle cx="77165.4" cy="17716.5" r="790.157" /> 
<circle cx="40944.9" cy="17716.5" r="790.157" /> 
</g> 
</svg>
