<?xml version="1.0" standalone="no"?>
 <!DOCTYPE svg PUBLIC "-//W3C//DTD SVG 1.1//EN" 
 "http://www.w3.org/Graphics/SVG/1.1/DTD/svg11.dtd"> 
<svg xmlns="http://www.w3.org/2000/svg" version="1.1" 
    width="27.94cm" height="43.18cm" viewBox="0 0 110000 170000 ">
<title>SVG Picture created as pinguino-2550--brd.svg date 2014/04/02 23:45:12 </title>
  <desc>Picture generated by PCBNEW </desc>
<g style="fill:#000000; fill-opacity:1;stroke:#000000; stroke-opacity:1;
stroke-linecap:round; stroke-linejoin:round; "
 transform="translate(0 0) scale(1 1)">
</g>
<g style="fill:#000000; fill-opacity:0.0; 
stroke:#000000; stroke-width:19.685; stroke-opacity:1; 
stroke-linecap:round; stroke-linejoin:round;">
<path d="M4000 4000
L106000 4000
L106000 166000
L4000 166000
L4000 4000
" />
<path d="M4700 4700
L105300 4700
L105300 165300
L4700 165300
L4700 4700
" />
<path d="M24400 4000
L24400 4700
" />
<path d="M14342 4552
L14057 4552
" />
<path d="M14200 4552
L14200 4052
L14152 4123
L14104 4171
L14057 4195
" />
<path d="M24400 166000
L24400 165300
" />
<path d="M14342 165852
L14057 165852
" />
<path d="M14200 165852
L14200 165352
L14152 165423
L14104 165471
L14057 165495
" />
<path d="M44800 4000
L44800 4700
" />
<path d="M34457 4100
L34480 4076
L34528 4052
L34647 4052
L34695 4076
L34719 4100
L34742 4147
L34742 4195
L34719 4266
L34433 4552
L34742 4552
" />
<path d="M44800 166000
L44800 165300
" />
<path d="M34457 165400
L34480 165376
L34528 165352
L34647 165352
L34695 165376
L34719 165400
L34742 165447
L34742 165495
L34719 165566
L34433 165852
L34742 165852
" />
<path d="M65200 4000
L65200 4700
" />
<path d="M54833 4052
L55142 4052
L54976 4242
L55047 4242
L55095 4266
L55119 4290
L55142 4338
L55142 4457
L55119 4504
L55095 4528
L55047 4552
L54904 4552
L54857 4528
L54833 4504
" />
<path d="M65200 166000
L65200 165300
" />
<path d="M54833 165352
L55142 165352
L54976 165542
L55047 165542
L55095 165566
L55119 165590
L55142 165638
L55142 165757
L55119 165804
L55095 165828
L55047 165852
L54904 165852
L54857 165828
L54833 165804
" />
<path d="M85600 4000
L85600 4700
" />
<path d="M75495 4219
L75495 4552
" />
<path d="M75376 4028
L75257 4385
L75566 4385
" />
<path d="M85600 166000
L85600 165300
" />
<path d="M75495 165519
L75495 165852
" />
<path d="M75376 165328
L75257 165685
L75566 165685
" />
<path d="M95919 4052
L95680 4052
L95657 4290
L95680 4266
L95728 4242
L95847 4242
L95895 4266
L95919 4290
L95942 4338
L95942 4457
L95919 4504
L95895 4528
L95847 4552
L95728 4552
L95680 4528
L95657 4504
" />
<path d="M95919 165352
L95680 165352
L95657 165590
L95680 165566
L95728 165542
L95847 165542
L95895 165566
L95919 165590
L95942 165638
L95942 165757
L95919 165804
L95895 165828
L95847 165852
L95728 165852
L95680 165828
L95657 165804
" />
<path d="M4000 24250
L4700 24250
" />
<path d="M4230 14189
L4469 14189
" />
<path d="M4183 14332
L4350 13832
L4516 14332
" />
<path d="M106000 24250
L105300 24250
" />
<path d="M105530 14189
L105769 14189
" />
<path d="M105483 14332
L105650 13832
L105816 14332
" />
<path d="M4000 44500
L4700 44500
" />
<path d="M4385 34320
L4457 34344
L4480 34368
L4504 34415
L4504 34487
L4480 34534
L4457 34558
L4409 34582
L4219 34582
L4219 34082
L4385 34082
L4433 34106
L4457 34130
L4480 34177
L4480 34225
L4457 34272
L4433 34296
L4385 34320
L4219 34320
" />
<path d="M106000 44500
L105300 44500
" />
<path d="M105685 34320
L105757 34344
L105780 34368
L105804 34415
L105804 34487
L105780 34534
L105757 34558
L105709 34582
L105519 34582
L105519 34082
L105685 34082
L105733 34106
L105757 34130
L105780 34177
L105780 34225
L105757 34272
L105733 34296
L105685 34320
L105519 34320
" />
<path d="M4000 64750
L4700 64750
" />
<path d="M4504 54784
L4480 54808
L4409 54832
L4361 54832
L4290 54808
L4242 54760
L4219 54713
L4195 54618
L4195 54546
L4219 54451
L4242 54403
L4290 54356
L4361 54332
L4409 54332
L4480 54356
L4504 54380
" />
<path d="M106000 64750
L105300 64750
" />
<path d="M105804 54784
L105780 54808
L105709 54832
L105661 54832
L105590 54808
L105542 54760
L105519 54713
L105495 54618
L105495 54546
L105519 54451
L105542 54403
L105590 54356
L105661 54332
L105709 54332
L105780 54356
L105804 54380
" />
<path d="M4000 85000
L4700 85000
" />
<path d="M4219 75082
L4219 74582
L4338 74582
L4409 74606
L4457 74653
L4480 74701
L4504 74796
L4504 74868
L4480 74963
L4457 75010
L4409 75058
L4338 75082
L4219 75082
" />
<path d="M106000 85000
L105300 85000
" />
<path d="M105519 75082
L105519 74582
L105638 74582
L105709 74606
L105757 74653
L105780 74701
L105804 74796
L105804 74868
L105780 74963
L105757 75010
L105709 75058
L105638 75082
L105519 75082
" />
<path d="M4000 105250
L4700 105250
" />
<path d="M4242 95070
L4409 95070
" />
<path d="M4480 95332
L4242 95332
L4242 94832
L4480 94832
" />
<path d="M106000 105250
L105300 105250
" />
<path d="M105542 95070
L105709 95070
" />
<path d="M105780 95332
L105542 95332
L105542 94832
L105780 94832
" />
<path d="M4000 125500
L4700 125500
" />
<path d="M4421 115320
L4254 115320
" />
<path d="M4254 115582
L4254 115082
L4492 115082
" />
<path d="M106000 125500
L105300 125500
" />
<path d="M105721 115320
L105554 115320
" />
<path d="M105554 115582
L105554 115082
L105792 115082
" />
<path d="M4000 145750
L4700 145750
" />
<path d="M4480 135356
L4433 135332
L4361 135332
L4290 135356
L4242 135403
L4219 135451
L4195 135546
L4195 135618
L4219 135713
L4242 135760
L4290 135808
L4361 135832
L4409 135832
L4480 135808
L4504 135784
L4504 135618
L4409 135618
" />
<path d="M106000 145750
L105300 145750
" />
<path d="M105780 135356
L105733 135332
L105661 135332
L105590 135356
L105542 135403
L105519 135451
L105495 135546
L105495 135618
L105519 135713
L105542 135760
L105590 135808
L105661 135832
L105709 135832
L105780 135808
L105804 135784
L105804 135618
L105709 135618
" />
<path d="M4207 156082
L4207 155582
" />
<path d="M4207 155820
L4492 155820
" />
<path d="M4492 156082
L4492 155582
" />
<path d="M105507 156082
L105507 155582
" />
<path d="M105507 155820
L105792 155820
" />
<path d="M105792 156082
L105792 155582
" />
<path d="M72450 163742
L72525 163142
L72667 163142
L72750 163171
L72800 163228
L72821 163285
L72835 163400
L72825 163485
L72782 163600
L72746 163657
L72682 163714
L72592 163742
L72450 163742
" />
<path d="M73307 163742
L73346 163428
L73325 163371
L73271 163342
L73157 163342
L73096 163371
" />
<path d="M73310 163714
L73250 163742
L73107 163742
L73053 163714
L73032 163657
L73039 163600
L73075 163542
L73135 163514
L73278 163514
L73339 163485
" />
<path d="M73557 163342
L73785 163342
" />
<path d="M73667 163142
L73603 163657
L73625 163714
L73678 163742
L73735 163742
" />
<path d="M74167 163714
L74107 163742
L73992 163742
L73939 163714
L73917 163657
L73946 163428
L73982 163371
L74042 163342
L74157 163342
L74210 163371
L74232 163428
L74225 163485
L73932 163542
" />
<path d="M74457 163685
L74482 163714
L74450 163742
L74425 163714
L74457 163685
L74450 163742
" />
<path d="M74496 163371
L74521 163400
L74489 163428
L74464 163400
L74496 163371
L74489 163428
" />
<path d="M75210 163142
L75582 163142
L75353 163371
L75439 163371
L75492 163400
L75517 163428
L75539 163485
L75521 163628
L75485 163685
L75453 163714
L75392 163742
L75221 163742
L75167 163714
L75142 163685
" />
<path d="M76478 163742
L76517 163428
L76496 163371
L76442 163342
L76328 163342
L76267 163371
" />
<path d="M76482 163714
L76421 163742
L76278 163742
L76225 163714
L76203 163657
L76210 163600
L76246 163542
L76307 163514
L76450 163514
L76510 163485
" />
<path d="M76814 163342
L76739 163942
" />
<path d="M76810 163371
L76871 163342
L76985 163342
L77039 163371
L77064 163400
L77085 163457
L77064 163628
L77028 163685
L76996 163714
L76935 163742
L76821 163742
L76767 163714
" />
<path d="M77307 163742
L77357 163342
" />
<path d="M77342 163457
L77378 163400
L77410 163371
L77471 163342
L77528 163342
" />
<path d="M78175 163200
L78207 163171
L78267 163142
L78410 163142
L78464 163171
L78489 163200
L78510 163257
L78503 163314
L78464 163400
L78078 163742
L78450 163742
" />
<path d="M78896 163142
L78953 163142
L79007 163171
L79032 163200
L79053 163257
L79067 163371
L79050 163514
L79007 163628
L78971 163685
L78939 163714
L78878 163742
L78821 163742
L78767 163714
L78742 163685
L78721 163628
L78707 163514
L78725 163371
L78767 163257
L78803 163200
L78835 163171
L78896 163142
" />
<path d="M79592 163742
L79250 163742
" />
<path d="M79421 163742
L79496 163142
L79428 163228
L79364 163285
L79303 163314
" />
<path d="M80157 163342
L80107 163742
" />
<path d="M80042 163114
L79846 163542
L80217 163542
" />
<path d="M64042 164942
L64042 164342
" />
<path d="M64385 164942
L64128 164600
" />
<path d="M64385 164342
L64042 164685
" />
<path d="M64642 164942
L64642 164542
" />
<path d="M64642 164342
L64614 164371
L64642 164400
L64671 164371
L64642 164342
L64642 164400
" />
<path d="M65271 164885
L65242 164914
L65157 164942
L65100 164942
L65014 164914
L64957 164857
L64928 164800
L64900 164685
L64900 164600
L64928 164485
L64957 164428
L65014 164371
L65100 164342
L65157 164342
L65242 164371
L65271 164400
" />
<path d="M65785 164942
L65785 164628
L65757 164571
L65700 164542
L65585 164542
L65528 164571
" />
<path d="M65785 164914
L65728 164942
L65585 164942
L65528 164914
L65500 164857
L65500 164800
L65528 164742
L65585 164714
L65728 164714
L65785 164685
" />
<path d="M66328 164942
L66328 164342
" />
<path d="M66328 164914
L66271 164942
L66157 164942
L66100 164914
L66071 164885
L66042 164828
L66042 164657
L66071 164600
L66100 164571
L66157 164542
L66271 164542
L66328 164571
" />
<path d="M67071 164628
L67271 164628
" />
<path d="M67357 164942
L67071 164942
L67071 164342
L67357 164342
" />
<path d="M67614 164885
L67642 164914
L67614 164942
L67585 164914
L67614 164885
L67614 164942
" />
<path d="M67899 164942
L67899 164342
L68042 164342
L68128 164371
L68185 164428
L68214 164485
L68242 164600
L68242 164685
L68214 164800
L68185 164857
L68128 164914
L68042 164942
L67899 164942
" />
<path d="M68499 164885
L68528 164914
L68499 164942
L68471 164914
L68499 164885
L68499 164942
" />
<path d="M68757 164771
L69042 164771
" />
<path d="M68699 164942
L68899 164342
L69099 164942
" />
<path d="M69299 164885
L69328 164914
L69299 164942
L69271 164914
L69299 164885
L69299 164942
" />
<path d="M97592 163742
L97428 163457
" />
<path d="M97250 163742
L97325 163142
L97553 163142
L97607 163171
L97632 163200
L97653 163257
L97642 163342
L97607 163400
L97575 163428
L97514 163457
L97285 163457
" />
<path d="M98082 163714
L98021 163742
L97907 163742
L97853 163714
L97832 163657
L97860 163428
L97896 163371
L97957 163342
L98071 163342
L98125 163371
L98146 163428
L98139 163485
L97846 163542
" />
<path d="M98357 163342
L98450 163742
L98642 163342
" />
<path d="M98828 163685
L98853 163714
L98821 163742
L98796 163714
L98828 163685
L98821 163742
" />
<path d="M98867 163371
L98892 163400
L98860 163428
L98835 163400
L98867 163371
L98860 163428
" />
<path d="M99603 163200
L99635 163171
L99696 163142
L99839 163142
L99892 163171
L99917 163200
L99939 163257
L99932 163314
L99892 163400
L99507 163742
L99878 163742
" />
<path d="M100142 163685
L100167 163714
L100135 163742
L100110 163714
L100142 163685
L100135 163742
" />
<path d="M100610 163142
L100667 163142
L100721 163171
L100746 163200
L100767 163257
L100782 163371
L100764 163514
L100721 163628
L100685 163685
L100653 163714
L100592 163742
L100535 163742
L100482 163714
L100457 163685
L100435 163628
L100421 163514
L100439 163371
L100482 163257
L100517 163200
L100550 163171
L100610 163142
" />
<path d="M64014 163714
L64100 163742
L64242 163742
L64300 163714
L64328 163685
L64357 163628
L64357 163571
L64328 163514
L64300 163485
L64242 163457
L64128 163428
L64071 163400
L64042 163371
L64014 163314
L64014 163257
L64042 163200
L64071 163171
L64128 163142
L64271 163142
L64357 163171
" />
<path d="M64614 163742
L64614 163342
" />
<path d="M64614 163142
L64585 163171
L64614 163200
L64642 163171
L64614 163142
L64614 163200
" />
<path d="M64842 163342
L65157 163342
L64842 163742
L65157 163742
" />
<path d="M65614 163714
L65557 163742
L65442 163742
L65385 163714
L65357 163657
L65357 163428
L65385 163371
L65442 163342
L65557 163342
L65614 163371
L65642 163428
L65642 163485
L65357 163542
" />
<path d="M65900 163685
L65928 163714
L65900 163742
L65871 163714
L65900 163685
L65900 163742
" />
<path d="M65900 163371
L65928 163400
L65900 163428
L65871 163400
L65900 163371
L65900 163428
" />
<path d="M66642 163142
L66642 163628
L66671 163685
L66700 163714
L66757 163742
L66871 163742
L66928 163714
L66957 163685
L66985 163628
L66985 163142
" />
<path d="M67242 163714
L67300 163742
L67414 163742
L67471 163714
L67500 163657
L67500 163628
L67471 163571
L67414 163542
L67328 163542
L67271 163514
L67242 163457
L67242 163428
L67271 163371
L67328 163342
L67414 163342
L67471 163371
" />
<path d="M67985 163714
L67928 163742
L67814 163742
L67757 163714
L67728 163657
L67728 163428
L67757 163371
L67814 163342
L67928 163342
L67985 163371
L68014 163428
L68014 163485
L67728 163542
" />
<path d="M68271 163742
L68271 163342
" />
<path d="M68271 163457
L68300 163400
L68328 163371
L68385 163342
L68442 163342
" />
<path d="M97242 164942
L97242 164342
" />
<path d="M97785 164942
L97785 164342
" />
<path d="M97785 164914
L97728 164942
L97614 164942
L97557 164914
L97528 164885
L97500 164828
L97500 164657
L97528 164600
L97557 164571
L97614 164542
L97728 164542
L97785 164571
" />
<path d="M98071 164885
L98100 164914
L98071 164942
L98042 164914
L98071 164885
L98071 164942
" />
<path d="M98071 164571
L98100 164600
L98071 164628
L98042 164600
L98071 164571
L98071 164628
" />
<path d="M99128 164942
L98785 164942
" />
<path d="M98957 164942
L98957 164342
L98899 164428
L98842 164485
L98785 164514
" />
<path d="M99814 164314
L99300 165085
" />
<path d="M100328 164942
L99985 164942
" />
<path d="M100157 164942
L100157 164342
L100099 164428
L100042 164485
L99985 164514
" />
<path d="M64039 161942
L64382 161942
" />
<path d="M64135 162542
L64210 161942
" />
<path d="M64507 162542
L64557 162142
" />
<path d="M64582 161942
L64550 161971
L64575 162000
L64607 161971
L64582 161942
L64575 162000
" />
<path d="M64757 162142
L64985 162142
" />
<path d="M64867 161942
L64803 162457
L64825 162514
L64878 162542
L64935 162542
" />
<path d="M65221 162542
L65167 162514
L65146 162457
L65210 161942
" />
<path d="M65682 162514
L65621 162542
L65507 162542
L65453 162514
L65432 162457
L65460 162228
L65496 162171
L65557 162142
L65671 162142
L65725 162171
L65746 162228
L65739 162285
L65446 162342
" />
<path d="M65971 162485
L65996 162514
L65964 162542
L65939 162514
L65971 162485
L65964 162542
" />
<path d="M66010 162171
L66035 162200
L66003 162228
L65978 162200
L66010 162171
L66003 162228
" />
<path d="M66707 162542
L66782 161942
L67010 161942
L67064 161971
L67089 162000
L67110 162057
L67100 162142
L67064 162200
L67032 162228
L66971 162257
L66742 162257
" />
<path d="M67307 162542
L67357 162142
" />
<path d="M67382 161942
L67350 161971
L67375 162000
L67407 161971
L67382 161942
L67375 162000
" />
<path d="M67642 162142
L67592 162542
" />
<path d="M67635 162200
L67667 162171
L67728 162142
L67814 162142
L67867 162171
L67889 162228
L67850 162542
" />
<path d="M68442 162142
L68382 162628
L68346 162685
L68314 162714
L68253 162742
L68167 162742
L68114 162714
" />
<path d="M68396 162514
L68335 162542
L68221 162542
L68167 162514
L68142 162485
L68121 162428
L68142 162257
L68178 162200
L68210 162171
L68271 162142
L68385 162142
L68439 162171
" />
<path d="M68985 162142
L68935 162542
" />
<path d="M68728 162142
L68689 162457
L68710 162514
L68764 162542
L68850 162542
L68910 162514
L68942 162485
" />
<path d="M69221 162542
L69271 162142
" />
<path d="M69296 161942
L69264 161971
L69289 162000
L69321 161971
L69296 161942
L69289 162000
" />
<path d="M69557 162142
L69507 162542
" />
<path d="M69549 162200
L69582 162171
L69642 162142
L69728 162142
L69782 162171
L69803 162228
L69764 162542
" />
<path d="M70135 162542
L70082 162514
L70057 162485
L70035 162428
L70057 162257
L70092 162200
L70124 162171
L70185 162142
L70271 162142
L70324 162171
L70349 162200
L70371 162257
L70349 162428
L70314 162485
L70282 162514
L70221 162542
L70135 162542
" />
<path d="M71089 162000
L71121 161971
L71182 161942
L71324 161942
L71378 161971
L71403 162000
L71424 162057
L71417 162114
L71378 162200
L70992 162542
L71364 162542
" />
<path d="M71982 161942
L71696 161942
L71632 162228
L71664 162200
L71724 162171
L71867 162171
L71921 162200
L71946 162228
L71967 162285
L71950 162428
L71914 162485
L71882 162514
L71821 162542
L71678 162542
L71624 162514
L71600 162485
" />
<path d="M72553 161942
L72267 161942
L72203 162228
L72235 162200
L72296 162171
L72439 162171
L72492 162200
L72517 162228
L72539 162285
L72521 162428
L72485 162485
L72453 162514
L72392 162542
L72250 162542
L72196 162514
L72171 162485
" />
<path d="M72953 161942
L73010 161942
L73064 161971
L73089 162000
L73110 162057
L73125 162171
L73107 162314
L73064 162428
L73028 162485
L72996 162514
L72935 162542
L72878 162542
L72825 162514
L72800 162485
L72778 162428
L72764 162314
L72782 162171
L72825 162057
L72860 162000
L72892 161971
L72953 161942
" />
<path d="M64242 159828
L64042 159828
" />
<path d="M64042 160142
L64042 159542
L64328 159542
" />
<path d="M64557 160142
L64557 159742
" />
<path d="M64557 159542
L64528 159571
L64557 159600
L64585 159571
L64557 159542
L64557 159600
" />
<path d="M64928 160142
L64871 160114
L64842 160057
L64842 159542
" />
<path d="M65385 160114
L65328 160142
L65214 160142
L65157 160114
L65128 160057
L65128 159828
L65157 159771
L65214 159742
L65328 159742
L65385 159771
L65414 159828
L65414 159885
L65128 159942
" />
<path d="M65671 160085
L65700 160114
L65671 160142
L65642 160114
L65671 160085
L65671 160142
" />
<path d="M65671 159771
L65700 159800
L65671 159828
L65642 159800
L65671 159771
L65671 159828
" />
<path d="M66414 159742
L66414 160342
" />
<path d="M66414 159771
L66471 159742
L66585 159742
L66642 159771
L66671 159800
L66700 159857
L66700 160028
L66671 160085
L66642 160114
L66585 160142
L66471 160142
L66414 160114
" />
<path d="M66957 160142
L66957 159742
" />
<path d="M66957 159542
L66928 159571
L66957 159600
L66985 159571
L66957 159542
L66957 159600
" />
<path d="M67242 159742
L67242 160142
" />
<path d="M67242 159800
L67271 159771
L67328 159742
L67414 159742
L67471 159771
L67500 159828
L67500 160142
" />
<path d="M68042 159742
L68042 160228
L68014 160285
L67985 160314
L67928 160342
L67842 160342
L67785 160314
" />
<path d="M68042 160114
L67985 160142
L67871 160142
L67814 160114
L67785 160085
L67757 160028
L67757 159857
L67785 159800
L67814 159771
L67871 159742
L67985 159742
L68042 159771
" />
<path d="M68585 159742
L68585 160142
" />
<path d="M68328 159742
L68328 160057
L68357 160114
L68414 160142
L68500 160142
L68557 160114
L68585 160085
" />
<path d="M68871 160142
L68871 159742
" />
<path d="M68871 159542
L68842 159571
L68871 159600
L68900 159571
L68871 159542
L68871 159600
" />
<path d="M69157 159742
L69157 160142
" />
<path d="M69157 159800
L69185 159771
L69242 159742
L69328 159742
L69385 159771
L69414 159828
L69414 160142
" />
<path d="M69785 160142
L69728 160114
L69699 160085
L69671 160028
L69671 159857
L69699 159800
L69728 159771
L69785 159742
L69871 159742
L69928 159771
L69957 159800
L69985 159857
L69985 160028
L69957 160085
L69928 160114
L69871 160142
L69785 160142
" />
<path d="M70242 159914
L70699 159914
" />
<path d="M70957 159600
L70985 159571
L71042 159542
L71185 159542
L71242 159571
L71271 159600
L71299 159657
L71299 159714
L71271 159800
L70928 160142
L71299 160142
" />
<path d="M71842 159542
L71557 159542
L71528 159828
L71557 159800
L71614 159771
L71757 159771
L71814 159800
L71842 159828
L71871 159885
L71871 160028
L71842 160085
L71814 160114
L71757 160142
L71614 160142
L71557 160114
L71528 160085
" />
<path d="M72414 159542
L72128 159542
L72100 159828
L72128 159800
L72185 159771
L72328 159771
L72385 159800
L72414 159828
L72442 159885
L72442 160028
L72414 160085
L72385 160114
L72328 160142
L72185 160142
L72128 160114
L72100 160085
" />
<path d="M72814 159542
L72871 159542
L72928 159571
L72957 159600
L72985 159657
L73014 159771
L73014 159914
L72985 160028
L72957 160085
L72928 160114
L72871 160142
L72814 160142
L72757 160114
L72728 160085
L72700 160028
L72671 159914
L72671 159771
L72700 159657
L72728 159600
L72757 159571
L72814 159542
" />
<path d="M73271 160085
L73300 160114
L73271 160142
L73242 160114
L73271 160085
L73271 160142
" />
<path d="M73557 160142
L73557 159542
" />
<path d="M73614 159914
L73785 160142
" />
<path d="M73785 159742
L73557 159971
" />
<path d="M74042 160142
L74042 159742
" />
<path d="M74042 159542
L74014 159571
L74042 159600
L74071 159571
L74042 159542
L74042 159600
" />
<path d="M74585 160114
L74528 160142
L74414 160142
L74357 160114
L74328 160085
L74300 160028
L74300 159857
L74328 159800
L74357 159771
L74414 159742
L74528 159742
L74585 159771
" />
<path d="M75100 160142
L75100 159828
L75071 159771
L75014 159742
L74900 159742
L74842 159771
" />
<path d="M75100 160114
L75042 160142
L74900 160142
L74842 160114
L74814 160057
L74814 160000
L74842 159942
L74900 159914
L75042 159914
L75100 159885
" />
<path d="M75642 160142
L75642 159542
" />
<path d="M75642 160114
L75585 160142
L75471 160142
L75414 160114
L75385 160085
L75357 160028
L75357 159857
L75385 159800
L75414 159771
L75471 159742
L75585 159742
L75642 159771
" />
<path d="M75785 160200
L76242 160200
" />
<path d="M76385 159742
L76385 160342
" />
<path d="M76385 159771
L76442 159742
L76557 159742
L76614 159771
L76642 159800
L76671 159857
L76671 160028
L76642 160085
L76614 160114
L76557 160142
L76442 160142
L76385 160114
" />
<path d="M77185 160114
L77128 160142
L77014 160142
L76957 160114
L76928 160085
L76900 160028
L76900 159857
L76928 159800
L76957 159771
L77014 159742
L77128 159742
L77185 159771
" />
<path d="M77442 160142
L77442 159542
" />
<path d="M77442 159771
L77500 159742
L77614 159742
L77671 159771
L77700 159800
L77728 159857
L77728 160028
L77700 160085
L77671 160114
L77614 160142
L77500 160142
L77442 160114
" />
<path d="M64014 161314
L64100 161342
L64242 161342
L64300 161314
L64328 161285
L64357 161228
L64357 161171
L64328 161114
L64300 161085
L64242 161057
L64128 161028
L64071 161000
L64042 160971
L64014 160914
L64014 160857
L64042 160800
L64071 160771
L64128 160742
L64271 160742
L64357 160771
" />
<path d="M64614 161342
L64614 160742
" />
<path d="M64871 161342
L64871 161028
L64842 160971
L64785 160942
L64700 160942
L64642 160971
L64614 161000
" />
<path d="M65385 161314
L65328 161342
L65214 161342
L65157 161314
L65128 161257
L65128 161028
L65157 160971
L65214 160942
L65328 160942
L65385 160971
L65414 161028
L65414 161085
L65128 161142
" />
<path d="M65900 161314
L65842 161342
L65728 161342
L65671 161314
L65642 161257
L65642 161028
L65671 160971
L65728 160942
L65842 160942
L65900 160971
L65928 161028
L65928 161085
L65642 161142
" />
<path d="M66100 160942
L66328 160942
" />
<path d="M66185 160742
L66185 161257
L66214 161314
L66271 161342
L66328 161342
" />
<path d="M66528 161285
L66557 161314
L66528 161342
L66500 161314
L66528 161285
L66528 161342
" />
<path d="M66528 160971
L66557 161000
L66528 161028
L66500 161000
L66528 160971
L66528 161028
" />
<path d="M64089 158628
L64289 158628
" />
<path d="M64335 158942
L64050 158942
L64125 158342
L64410 158342
" />
<path d="M64600 158885
L64625 158914
L64592 158942
L64567 158914
L64600 158885
L64592 158942
" />
<path d="M64917 158628
L65117 158628
" />
<path d="M65164 158942
L64878 158942
L64953 158342
L65239 158342
" />
<path d="M65428 158885
L65453 158914
L65421 158942
L65396 158914
L65428 158885
L65421 158942
" />
<path d="M65696 158342
L66039 158342
" />
<path d="M65792 158942
L65867 158342
" />
<path d="M66171 158885
L66196 158914
L66164 158942
L66139 158914
L66171 158885
L66164 158942
" />
<path d="M66907 158942
L66982 158342
L67249 158942
L67324 158342
" />
<path d="M67535 158942
L67585 158542
" />
<path d="M67571 158657
L67607 158600
L67639 158571
L67699 158542
L67757 158542
" />
<path d="M67992 158942
L67939 158914
L67914 158885
L67892 158828
L67914 158657
L67949 158600
L67982 158571
L68042 158542
L68128 158542
L68182 158571
L68207 158600
L68228 158657
L68207 158828
L68171 158885
L68139 158914
L68078 158942
L67992 158942
" />
<path d="M68457 158885
L68482 158914
L68449 158942
L68424 158914
L68457 158885
L68449 158942
" />
<path d="M68753 158342
L69153 158342
L68821 158942
" />
<path d="M69792 158714
L70249 158714
" />
<path d="M71203 158628
L71285 158657
L71310 158685
L71332 158742
L71321 158828
L71285 158885
L71253 158914
L71192 158942
L70964 158942
L71039 158342
L71239 158342
L71292 158371
L71317 158400
L71339 158457
L71332 158514
L71296 158571
L71264 158600
L71203 158628
L71003 158628
" />
<path d="M71821 158942
L71860 158628
L71839 158571
L71785 158542
L71671 158542
L71610 158571
" />
<path d="M71824 158914
L71764 158942
L71621 158942
L71567 158914
L71546 158857
L71553 158800
L71589 158742
L71649 158714
L71792 158714
L71853 158685
" />
<path d="M72157 158542
L72107 158942
" />
<path d="M72149 158600
L72182 158571
L72242 158542
L72328 158542
L72382 158571
L72403 158628
L72364 158942
" />
<path d="M72614 158542
L72842 158542
" />
<path d="M72649 158942
L72714 158428
L72749 158371
L72810 158342
L72867 158342
" />
<path d="M72992 158942
L73042 158542
" />
<path d="M73067 158342
L73035 158371
L73060 158400
L73092 158371
L73067 158342
L73060 158400
" />
<path d="M73510 158914
L73449 158942
L73335 158942
L73282 158914
L73260 158857
L73289 158628
L73324 158571
L73385 158542
L73499 158542
L73553 158571
L73574 158628
L73567 158685
L73274 158742
" />
<path d="M73878 158942
L73824 158914
L73803 158857
L73867 158342
" />
<path d="M74364 158942
L74439 158342
" />
<path d="M74367 158914
L74307 158942
L74192 158942
L74139 158914
L74114 158885
L74092 158828
L74114 158657
L74149 158600
L74182 158571
L74242 158542
L74357 158542
L74410 158571
" />
<path d="M64042 157742
L64042 157142
L64271 157142
L64328 157171
L64357 157200
L64385 157257
L64385 157342
L64357 157400
L64328 157428
L64271 157457
L64042 157457
" />
<path d="M64642 157742
L64642 157342
" />
<path d="M64642 157457
L64671 157400
L64700 157371
L64757 157342
L64814 157342
" />
<path d="M65100 157742
L65042 157714
L65014 157685
L64985 157628
L64985 157457
L65014 157400
L65042 157371
L65100 157342
L65185 157342
L65242 157371
L65271 157400
L65300 157457
L65300 157628
L65271 157685
L65242 157714
L65185 157742
L65100 157742
" />
<path d="M65471 157342
L65700 157342
" />
<path d="M65557 157742
L65557 157228
L65585 157171
L65642 157142
L65700 157142
" />
<path d="M65900 157685
L65928 157714
L65900 157742
L65871 157714
L65900 157685
L65900 157742
" />
<path d="M66557 157142
L66757 157742
L66957 157142
" />
<path d="M67157 157742
L67157 157342
" />
<path d="M67157 157142
L67128 157171
L67157 157200
L67185 157171
L67157 157142
L67157 157200
" />
<path d="M67700 157714
L67642 157742
L67528 157742
L67471 157714
L67442 157685
L67414 157628
L67414 157457
L67442 157400
L67471 157371
L67528 157342
L67642 157342
L67700 157371
" />
<path d="M67871 157342
L68100 157342
" />
<path d="M67957 157142
L67957 157657
L67985 157714
L68042 157742
L68100 157742
" />
<path d="M68385 157742
L68328 157714
L68300 157685
L68271 157628
L68271 157457
L68300 157400
L68328 157371
L68385 157342
L68471 157342
L68528 157371
L68557 157400
L68585 157457
L68585 157628
L68557 157685
L68528 157714
L68471 157742
L68385 157742
" />
<path d="M68842 157742
L68842 157342
" />
<path d="M68842 157457
L68871 157400
L68900 157371
L68957 157342
L69014 157342
" />
<path d="M69585 157142
L69785 157742
L69985 157142
" />
<path d="M70185 157742
L70185 157342
" />
<path d="M70185 157142
L70157 157171
L70185 157200
L70214 157171
L70185 157142
L70185 157200
" />
<path d="M70557 157742
L70500 157714
L70471 157657
L70471 157142
" />
<path d="M70871 157742
L70814 157714
L70785 157657
L70785 157142
" />
<path d="M71357 157742
L71357 157428
L71328 157371
L71271 157342
L71157 157342
L71100 157371
" />
<path d="M71357 157714
L71300 157742
L71157 157742
L71100 157714
L71071 157657
L71071 157600
L71100 157542
L71157 157514
L71300 157514
L71357 157485
" />
<path d="M71642 157742
L71642 157342
" />
<path d="M71642 157457
L71671 157400
L71700 157371
L71757 157342
L71814 157342
" />
<path d="M72014 157742
L72014 157342
" />
<path d="M72014 157457
L72042 157400
L72071 157371
L72128 157342
L72185 157342
" />
<path d="M72614 157714
L72557 157742
L72442 157742
L72385 157714
L72357 157657
L72357 157428
L72385 157371
L72442 157342
L72557 157342
L72614 157371
L72642 157428
L72642 157485
L72357 157542
" />
<path d="M73157 157742
L73157 157428
L73128 157371
L73071 157342
L72957 157342
L72900 157371
" />
<path d="M73157 157714
L73100 157742
L72957 157742
L72900 157714
L72871 157657
L72871 157600
L72900 157542
L72957 157514
L73100 157514
L73157 157485
" />
<path d="M73528 157742
L73471 157714
L73442 157657
L73442 157142
" />
<path d="M64042 156542
L64042 155942
L64271 155942
L64328 155971
L64357 156000
L64385 156057
L64385 156142
L64357 156200
L64328 156228
L64271 156257
L64042 156257
" />
<path d="M64728 156542
L64671 156514
L64642 156457
L64642 155942
" />
<path d="M65214 156542
L65214 156228
L65185 156171
L65128 156142
L65014 156142
L64957 156171
" />
<path d="M65214 156514
L65157 156542
L65014 156542
L64957 156514
L64928 156457
L64928 156400
L64957 156342
L65014 156314
L65157 156314
L65214 156285
" />
<path d="M65757 156514
L65700 156542
L65585 156542
L65528 156514
L65500 156485
L65471 156428
L65471 156257
L65500 156200
L65528 156171
L65585 156142
L65700 156142
L65757 156171
" />
<path d="M66271 156542
L66271 156228
L66242 156171
L66185 156142
L66071 156142
L66014 156171
" />
<path d="M66271 156514
L66214 156542
L66071 156542
L66014 156514
L65985 156457
L65985 156400
L66014 156342
L66071 156314
L66214 156314
L66271 156285
" />
<path d="M67014 156542
L67014 155942
L67242 155942
L67300 155971
L67328 156000
L67357 156057
L67357 156142
L67328 156200
L67300 156228
L67242 156257
L67014 156257
" />
<path d="M67614 156542
L67614 156142
" />
<path d="M67614 155942
L67585 155971
L67614 156000
L67642 155971
L67614 155942
L67614 156000
" />
<path d="M67900 156142
L67900 156542
" />
<path d="M67900 156200
L67928 156171
L67985 156142
L68071 156142
L68128 156171
L68157 156228
L68157 156542
" />
<path d="M68700 156142
L68700 156628
L68671 156685
L68642 156714
L68585 156742
L68500 156742
L68442 156714
" />
<path d="M68700 156514
L68642 156542
L68528 156542
L68471 156514
L68442 156485
L68414 156428
L68414 156257
L68442 156200
L68471 156171
L68528 156142
L68642 156142
L68700 156171
" />
<path d="M69242 156142
L69242 156542
" />
<path d="M68985 156142
L68985 156457
L69014 156514
L69071 156542
L69157 156542
L69214 156514
L69242 156485
" />
<path d="M69528 156542
L69528 156142
" />
<path d="M69528 155942
L69500 155971
L69528 156000
L69557 155971
L69528 155942
L69528 156000
" />
<path d="M69814 156142
L69814 156542
" />
<path d="M69814 156200
L69842 156171
L69899 156142
L69985 156142
L70042 156171
L70071 156228
L70071 156542
" />
<path d="M70442 156542
L70385 156514
L70357 156485
L70328 156428
L70328 156257
L70357 156200
L70385 156171
L70442 156142
L70528 156142
L70585 156171
L70614 156200
L70642 156257
L70642 156428
L70614 156485
L70585 156514
L70528 156542
L70442 156542
" />
<path d="M71671 156542
L71328 156542
" />
<path d="M71499 156542
L71499 155942
L71442 156028
L71385 156085
L71328 156114
" />
<path d="M72014 156200
L71957 156171
L71928 156142
L71900 156085
L71900 156057
L71928 156000
L71957 155971
L72014 155942
L72128 155942
L72185 155971
L72214 156000
L72242 156057
L72242 156085
L72214 156142
L72185 156171
L72128 156200
L72014 156200
L71957 156228
L71928 156257
L71900 156314
L71900 156428
L71928 156485
L71957 156514
L72014 156542
L72128 156542
L72185 156514
L72214 156485
L72242 156428
L72242 156314
L72214 156257
L72185 156228
L72128 156200
" />
<path d="M72700 156228
L72500 156228
" />
<path d="M72500 156542
L72500 155942
L72785 155942
" />
<path d="M72985 156000
L73014 155971
L73071 155942
L73214 155942
L73271 155971
L73300 156000
L73328 156057
L73328 156114
L73300 156200
L72957 156542
L73328 156542
" />
<path d="M73871 155942
L73585 155942
L73557 156228
L73585 156200
L73642 156171
L73785 156171
L73842 156200
L73871 156228
L73900 156285
L73900 156428
L73871 156485
L73842 156514
L73785 156542
L73642 156542
L73585 156514
L73557 156485
" />
<path d="M74442 155942
L74157 155942
L74128 156228
L74157 156200
L74214 156171
L74357 156171
L74414 156200
L74442 156228
L74471 156285
L74471 156428
L74442 156485
L74414 156514
L74357 156542
L74214 156542
L74157 156514
L74128 156485
" />
<path d="M74842 155942
L74900 155942
L74957 155971
L74985 156000
L75014 156057
L75042 156171
L75042 156314
L75014 156428
L74985 156485
L74957 156514
L74900 156542
L74842 156542
L74785 156514
L74757 156485
L74728 156428
L74700 156314
L74700 156171
L74728 156057
L74757 156000
L74785 155971
L74842 155942
" />
<path d="M75700 156142
L75842 156542
L75985 156142
" />
<path d="M76185 156000
L76214 155971
L76271 155942
L76414 155942
L76471 155971
L76500 156000
L76528 156057
L76528 156114
L76500 156200
L76157 156542
L76528 156542
" />
<path d="M63300 155700
L63300 165300
" />
<path d="M63300 159300
L105300 159300
" />
<path d="M63300 155700
L105300 155700
" />
<path d="M63300 161700
L105300 161700
" />
<path d="M96500 162900
L96500 165300
" />
<path d="M63300 164100
L105300 164100
" />
<path d="M63300 162900
L105300 162900
" />
<path d="M69900 162900
L69900 164100
" />
</g>
<g style="fill:#000000; fill-opacity:0.0; 
stroke:#000000; stroke-width:118.11; stroke-opacity:1; 
stroke-linecap:round; stroke-linejoin:round;">
<path d="M27193 30211
L27568 30211
" />
<path d="M27118 30436
L27380 29649
L27643 30436
" />
<path d="M28243 29911
L28243 30436
" />
<path d="M28055 29611
L27868 30174
L28355 30174
" />
<path d="M29161 30211
L29536 30211
" />
<path d="M29086 30436
L29349 29649
L29611 30436
" />
<path d="M29799 29649
L30286 29649
L30024 29949
L30136 29949
L30211 29986
L30249 30024
L30286 30099
L30286 30286
L30249 30361
L30211 30399
L30136 30436
L29911 30436
L29836 30399
L29799 30361
" />
<path d="M31327 30211
L31702 30211
" />
<path d="M31252 30436
L31514 29649
L31777 30436
" />
<path d="M32002 29724
L32039 29686
L32114 29649
L32302 29649
L32377 29686
L32414 29724
L32452 29799
L32452 29874
L32414 29986
L31964 30436
L32452 30436
" />
<path d="M33295 30211
L33670 30211
" />
<path d="M33220 30436
L33483 29649
L33745 30436
" />
<path d="M34420 30436
L33970 30436
" />
<path d="M34195 30436
L34195 29649
L34120 29761
L34045 29836
L33970 29874
" />
<path d="M35264 30211
L35639 30211
" />
<path d="M35189 30436
L35451 29649
L35714 30436
" />
<path d="M36126 29649
L36201 29649
L36276 29686
L36314 29724
L36351 29799
L36389 29949
L36389 30136
L36351 30286
L36314 30361
L36276 30399
L36201 30436
L36126 30436
L36051 30399
L36014 30361
L35976 30286
L35939 30136
L35939 29949
L35976 29799
L36014 29724
L36051 29686
L36126 29649
" />
<path d="M43578 30436
L43578 29649
L43878 29649
L43953 29686
L43991 29724
L44028 29799
L44028 29911
L43991 29986
L43953 30024
L43878 30061
L43578 30061
" />
<path d="M44291 29649
L44478 30436
L44628 29874
L44778 30436
L44966 29649
" />
<path d="M45266 30436
L45266 29649
L45528 30211
L45791 29649
L45791 30436
" />
<path d="M22844 15082
L22844 14295
L23031 14295
L23143 14332
L23218 14407
L23256 14482
L23293 14632
L23293 14745
L23256 14895
L23218 14970
L23143 15044
L23031 15082
L22844 15082
" />
<path d="M23556 14295
L24081 14295
L23743 15082
" />
<path d="M24812 15082
L24812 14295
L25000 14295
L25112 14332
L25187 14407
L25224 14482
L25262 14632
L25262 14745
L25224 14895
L25187 14970
L25112 15044
L25000 15082
L24812 15082
" />
<path d="M25937 14295
L25787 14295
L25712 14332
L25674 14370
L25599 14482
L25562 14632
L25562 14932
L25599 15007
L25637 15044
L25712 15082
L25862 15082
L25937 15044
L25974 15007
L26012 14932
L26012 14745
L25974 14670
L25937 14632
L25862 14595
L25712 14595
L25637 14632
L25599 14670
L25562 14745
" />
<path d="M26977 15082
L26977 14295
L27165 14295
L27277 14332
L27352 14407
L27390 14482
L27427 14632
L27427 14745
L27390 14895
L27352 14970
L27277 15044
L27165 15082
L26977 15082
" />
<path d="M28140 14295
L27765 14295
L27727 14670
L27765 14632
L27840 14595
L28027 14595
L28102 14632
L28140 14670
L28177 14745
L28177 14932
L28140 15007
L28102 15044
L28027 15082
L27840 15082
L27765 15044
L27727 15007
" />
<path d="M28946 15082
L28946 14295
L29133 14295
L29246 14332
L29321 14407
L29358 14482
L29396 14632
L29396 14745
L29358 14895
L29321 14970
L29246 15044
L29133 15082
L28946 15082
" />
<path d="M30071 14557
L30071 15082
" />
<path d="M29883 14257
L29696 14820
L30183 14820
" />
<path d="M31111 15082
L31111 14295
L31299 14295
L31411 14332
L31486 14407
L31524 14482
L31561 14632
L31561 14745
L31524 14895
L31486 14970
L31411 15044
L31299 15082
L31111 15082
" />
<path d="M31824 14295
L32311 14295
L32049 14595
L32161 14595
L32236 14632
L32274 14670
L32311 14745
L32311 14932
L32274 15007
L32236 15044
L32161 15082
L31936 15082
L31861 15044
L31824 15007
" />
<path d="M33080 15082
L33080 14295
L33267 14295
L33380 14332
L33455 14407
L33492 14482
L33530 14632
L33530 14745
L33492 14895
L33455 14970
L33380 15044
L33267 15082
L33080 15082
" />
<path d="M33830 14370
L33867 14332
L33942 14295
L34130 14295
L34205 14332
L34242 14370
L34280 14445
L34280 14520
L34242 14632
L33792 15082
L34280 15082
" />
<path d="M35245 15082
L35245 14295
L35433 14295
L35545 14332
L35620 14407
L35658 14482
L35695 14632
L35695 14745
L35658 14895
L35620 14970
L35545 15044
L35433 15082
L35245 15082
" />
<path d="M36445 15082
L35995 15082
" />
<path d="M36220 15082
L36220 14295
L36145 14407
L36070 14482
L35995 14520
" />
<path d="M37214 15082
L37214 14295
L37401 14295
L37514 14332
L37589 14407
L37626 14482
L37664 14632
L37664 14745
L37626 14895
L37589 14970
L37514 15044
L37401 15082
L37214 15082
" />
<path d="M38151 14295
L38226 14295
L38301 14332
L38338 14370
L38376 14445
L38413 14595
L38413 14782
L38376 14932
L38338 15007
L38301 15044
L38226 15082
L38151 15082
L38076 15044
L38038 15007
L38001 14932
L37964 14782
L37964 14595
L38001 14445
L38038 14370
L38076 14332
L38151 14295
" />
<path d="M41854 14295
L41854 14932
L41891 15007
L41929 15044
L42004 15082
L42154 15082
L42229 15044
L42266 15007
L42304 14932
L42304 14295
" />
<path d="M42641 14857
L43016 14857
" />
<path d="M42566 15082
L42829 14295
L43091 15082
" />
<path d="M43803 15082
L43541 14707
" />
<path d="M43353 15082
L43353 14295
L43653 14295
L43728 14332
L43766 14370
L43803 14445
L43803 14557
L43766 14632
L43728 14670
L43653 14707
L43353 14707
" />
<path d="M44028 14295
L44478 14295
" />
<path d="M44253 15082
L44253 14295
" />
<path d="M48518 17735
L49118 17735
" />
<path d="M48818 18035
L48818 17435
" />
<path d="M50093 17735
L50693 17735
" />
<path d="M55896 27718
L56683 27718
" />
<path d="M55933 27718
L55896 27643
L55896 27493
L55933 27418
L55971 27380
L56046 27343
L56271 27343
L56346 27380
L56383 27418
L56421 27493
L56421 27643
L56383 27718
" />
<path d="M56421 27005
L55896 27005
" />
<path d="M55633 27005
L55671 27043
L55708 27005
L55671 26968
L55633 27005
L55708 27005
" />
<path d="M55896 26631
L56421 26631
" />
<path d="M55971 26631
L55933 26593
L55896 26518
L55896 26406
L55933 26331
L56008 26293
L56421 26293
" />
<path d="M55896 25581
L56533 25581
L56608 25618
L56646 25656
L56683 25731
L56683 25843
L56646 25918
" />
<path d="M56383 25581
L56421 25656
L56421 25806
L56383 25881
L56346 25918
L56271 25956
L56046 25956
L55971 25918
L55933 25881
L55896 25806
L55896 25656
L55933 25581
" />
<path d="M55896 24868
L56421 24868
" />
<path d="M55896 25206
L56308 25206
L56383 25168
L56421 25093
L56421 24981
L56383 24906
L56346 24868
" />
<path d="M56421 24493
L55896 24493
" />
<path d="M55633 24493
L55671 24531
L55708 24493
L55671 24456
L55633 24493
L55708 24493
" />
<path d="M55896 24118
L56421 24118
" />
<path d="M55971 24118
L55933 24081
L55896 24006
L55896 23893
L55933 23818
L56008 23781
L56421 23781
" />
<path d="M56421 23293
L56383 23368
L56346 23406
L56271 23443
L56046 23443
L55971 23406
L55933 23368
L55896 23293
L55896 23181
L55933 23106
L55971 23068
L56046 23031
L56271 23031
L56346 23068
L56383 23106
L56421 23181
L56421 23293
" />
<path d="M56121 22694
L56121 22094
" />
<path d="M55708 21756
L55671 21719
L55633 21644
L55633 21456
L55671 21381
L55708 21344
L55783 21306
L55858 21306
L55971 21344
L56421 21794
L56421 21306
" />
<path d="M55633 20594
L55633 20969
L56008 21006
L55971 20969
L55933 20894
L55933 20706
L55971 20631
L56008 20594
L56083 20556
L56271 20556
L56346 20594
L56383 20631
L56421 20706
L56421 20894
L56383 20969
L56346 21006
" />
<path d="M55633 19844
L55633 20219
L56008 20256
L55971 20219
L55933 20144
L55933 19956
L55971 19881
L56008 19844
L56083 19806
L56271 19806
L56346 19844
L56383 19881
L56421 19956
L56421 20144
L56383 20219
L56346 20256
" />
<path d="M55633 19319
L55633 19244
L55671 19169
L55708 19131
L55783 19094
L55933 19056
L56121 19056
L56271 19094
L56346 19131
L56383 19169
L56421 19244
L56421 19319
L56383 19394
L56346 19431
L56271 19469
L56121 19506
L55933 19506
L55783 19469
L55708 19431
L55671 19394
L55633 19319
" />
<path d="M56121 18719
L56121 18119
" />
<path d="M55896 17819
L56421 17632
L55896 17444
" />
<path d="M55708 17182
L55671 17144
L55633 17069
L55633 16882
L55671 16807
L55708 16769
L55783 16732
L55858 16732
L55971 16769
L56421 17219
L56421 16732
" />
</g>
<g style="fill:#000000; fill-opacity:0.0; 
stroke:#000000; stroke-width:59.0551; stroke-opacity:1; 
stroke-linecap:round; stroke-linejoin:round;">
<path d="M17716 12598
L57086 12598
" />
<path d="M17716 32283
L17716 12598
" />
<path d="M57086 32283
L17716 32283
" />
<path d="M57086 32283
L57086 12598
" />
</g>
<g style="fill:#000000; fill-opacity:0.0; 
stroke:#000000; stroke-width:19.685; stroke-opacity:1; 
stroke-linecap:round; stroke-linejoin:round;">
</g>
<g style="fill:#000000; fill-opacity:1.0; 
stroke:#000000; stroke-width:19.685; stroke-opacity:1; 
stroke-linecap:round; stroke-linejoin:round;">
<circle cx="52271.7" cy="26496.5" r="290.157" /> 
<circle cx="51271.7" cy="26496.5" r="290.157" /> 
<circle cx="51271.7" cy="27283.5" r="290.157" /> 
<circle cx="52271.7" cy="27283.5" r="290.157" /> 
<circle cx="54133.7" cy="28346.5" r="521.657" /> 
<circle cx="49409.7" cy="28346.5" r="521.657" /> 
<circle cx="19291.3" cy="26649.6" r="265.157" /> 
<circle cx="19291.3" cy="29649.6" r="265.157" /> 
<circle cx="26846.5" cy="23031.5" r="265.157" /> 
<circle cx="29846.5" cy="23031.5" r="265.157" /> 
<circle cx="23500" cy="24803.1" r="265.157" /> 
<circle cx="26500" cy="24803.1" r="265.157" /> 
<polyline style="fill-rule:evenodd;"
points="52662,19182
53242,19182
53242,19762
52662,19762
52662,19182
" /> 
<circle cx="52952.8" cy="20472.4" r="290.157" /> 
<circle cx="52952.8" cy="21472.4" r="290.157" /> 
</g>
<g style="fill:#000000; fill-opacity:1.0; 
stroke:#000000; stroke-width:591; stroke-opacity:1; 
stroke-linecap:round; stroke-linejoin:round;">
<path d="M31492 24393
L31492 24668
" />
<path d="M32492 24393
L32492 24668
" />
<path d="M33492 24393
L33492 24668
" />
<path d="M34492 24393
L34492 24668
" />
<path d="M35492 24393
L35492 24668
" />
<path d="M36492 24393
L36492 24668
" />
<path d="M37492 24393
L37492 24668
" />
<path d="M38492 24393
L38492 24668
" />
<path d="M39492 24393
L39492 24668
" />
<path d="M40492 24393
L40492 24668
" />
<path d="M41492 24393
L41492 24668
" />
<path d="M42492 24393
L42492 24668
" />
<path d="M43492 24393
L43492 24668
" />
<path d="M44492 24393
L44492 24668
" />
<path d="M44492 21393
L44492 21668
" />
<path d="M43492 21393
L43492 21668
" />
<path d="M42492 21393
L42492 21668
" />
<path d="M41492 21393
L41492 21668
" />
<path d="M40492 21393
L40492 21668
" />
<path d="M39492 21393
L39492 21668
" />
<path d="M38492 21393
L38492 21668
" />
<path d="M37492 21393
L37492 21668
" />
<path d="M36492 21393
L36492 21668
" />
<path d="M35492 21393
L35492 21668
" />
<path d="M34492 21393
L34492 21668
" />
<path d="M33492 21393
L33492 21668
" />
<path d="M32492 21393
L32492 21668
" />
<path d="M31492 21393
L31492 21668
" />
</g>
<g style="fill:#000000; fill-opacity:1.0; 
stroke:#000000; stroke-width:19.685; stroke-opacity:1; 
stroke-linecap:round; stroke-linejoin:round;">
<circle cx="39157.5" cy="27559.1" r="383.657" /> 
<circle cx="41157.5" cy="27559.1" r="383.657" /> 
<polyline style="fill-rule:evenodd;"
points="21085,27824
21085,27293
21615,27293
21615,27824
21085,27824
" /> 
<circle cx="22350.4" cy="27559.1" r="265.157" /> 
</g>
<g style="fill:#000000; fill-opacity:1.0; 
stroke:#000000; stroke-width:687; stroke-opacity:1; 
stroke-linecap:round; stroke-linejoin:round;">
<path d="M53101 17338
L52804 17338
" />
<path d="M53101 16338
L52804 16338
" />
<path d="M53101 15338
L52804 15338
" />
</g>
<g style="fill:#000000; fill-opacity:1.0; 
stroke:#000000; stroke-width:19.685; stroke-opacity:1; 
stroke-linecap:round; stroke-linejoin:round;">
<circle cx="37795.3" cy="16141.7" r="482.283" /> 
<circle cx="35826.8" cy="16141.7" r="482.283" /> 
<circle cx="33661.4" cy="16141.7" r="482.283" /> 
<circle cx="31692.9" cy="16141.7" r="482.283" /> 
<circle cx="29527.6" cy="16141.7" r="482.283" /> 
<circle cx="27559.1" cy="16141.7" r="482.283" /> 
<circle cx="25393.7" cy="16141.7" r="482.283" /> 
<circle cx="23425.2" cy="16141.7" r="482.283" /> 
<circle cx="35826.8" cy="28543.3" r="482.283" /> 
<circle cx="31889.8" cy="28543.3" r="482.283" /> 
<circle cx="33858.3" cy="28543.3" r="482.283" /> 
<circle cx="27755.9" cy="28543.3" r="482.283" /> 
<circle cx="29724.4" cy="28543.3" r="482.283" /> 
<circle cx="41141.7" cy="16141.7" r="482.283" /> 
<circle cx="45078.7" cy="16141.7" r="482.283" /> 
<circle cx="43110.2" cy="16141.7" r="482.283" /> 
<circle cx="43700.8" cy="28543.3" r="482.283" /> 
<circle cx="45669.3" cy="28543.3" r="482.283" /> 
<circle cx="20381.9" cy="22834.6" r="383.657" /> 
<circle cx="19381.9" cy="22834.6" r="383.657" /> 
<circle cx="23515.7" cy="22834.6" r="383.657" /> 
<circle cx="24515.7" cy="22834.6" r="383.657" /> 
<circle cx="25689.1" cy="29823.3" r="383.657" /> 
<circle cx="23917.1" cy="27263.3" r="383.657" /> 
<circle cx="23917.1" cy="29823.3" r="383.657" /> 
<circle cx="25689.1" cy="27263.3" r="383.657" /> 
<circle cx="48031.5" cy="30011.8" r="265.157" /> 
<circle cx="48031.5" cy="31011.8" r="265.157" /> 
<circle cx="39173.2" cy="30011.8" r="265.157" /> 
<circle cx="39173.2" cy="31011.8" r="265.157" /> 
<circle cx="41141.7" cy="30011.8" r="265.157" /> 
<circle cx="41141.7" cy="31011.8" r="265.157" /> 
<circle cx="21350.4" cy="29724.4" r="265.157" /> 
<circle cx="22350.4" cy="29724.4" r="265.157" /> 
<circle cx="50393.7" cy="16141.7" r="482.283" /> 
<circle cx="48425.2" cy="16141.7" r="482.283" /> 
<circle cx="55511.8" cy="30708.7" r="790.157" /> 
<circle cx="55511.8" cy="14173.2" r="790.157" /> 
<circle cx="19291.3" cy="14173.2" r="790.157" /> 
</g>
<g style="fill:#000000; fill-opacity:1.0; 
stroke:#000000; stroke-width:393.701; stroke-opacity:1; 
stroke-linecap:round; stroke-linejoin:round;">
<path d="M32492 24531
L32492 25185
" />
<path d="M27755 27165
L27755 28543
" />
<path d="M28543 26377
L27755 27165
" />
<path d="M31299 26377
L28543 26377
" />
<path d="M32492 25185
L31299 26377
" />
<path d="M33492 24531
L33492 25366
" />
<path d="M31102 27165
L29724 28543
" />
<path d="M31692 27165
L31102 27165
" />
<path d="M33492 25366
L31692 27165
" />
<path d="M34492 24531
L34492 25940
" />
<path d="M34492 25940
L31889 28543
" />
<path d="M35492 24531
L35492 26909
" />
<path d="M35492 26909
L33858 28543
" />
<path d="M37492 24531
L37492 25106
" />
<path d="M36417 27952
L35826 28543
" />
<path d="M36417 26181
L36417 27952
" />
<path d="M37492 25106
L36417 26181
" />
<path d="M38492 21531
L38492 16838
" />
<path d="M38492 16838
L37795 16141
" />
<path d="M37492 21531
L37492 17807
" />
<path d="M37492 17807
L35826 16141
" />
<path d="M36492 21531
L36492 18972
" />
<path d="M36492 18972
L33661 16141
" />
<path d="M35492 21531
L35492 19940
" />
<path d="M35492 19940
L31692 16141
" />
<path d="M34492 21531
L34492 20318
" />
<path d="M29527 18307
L29527 16141
" />
<path d="M32480 18307
L29527 18307
" />
<path d="M34492 20318
L32480 18307
" />
<path d="M33492 21531
L33492 20696
" />
<path d="M27559 19291
L27559 16141
" />
<path d="M32086 19291
L27559 19291
" />
<path d="M33492 20696
L32086 19291
" />
<path d="M32492 21531
L32492 20877
" />
<path d="M25393 18700
L25393 16141
" />
<path d="M26968 20275
L25393 18700
" />
<path d="M31889 20275
L26968 20275
" />
<path d="M32492 20877
L31889 20275
" />
<path d="M31492 21531
L26452 21531
" />
<path d="M23425 18503
L23425 16141
" />
<path d="M26452 21531
L23425 18503
" />
<path d="M43700 28543
L43700 27165
" />
<path d="M42492 25956
L42492 24531
" />
<path d="M43700 27165
L42492 25956
" />
<path d="M45669 28543
L45669 27755
" />
<path d="M43492 25578
L43492 24531
" />
<path d="M45669 27755
L43492 25578
" />
<path d="M41492 21531
L41492 17759
" />
<path d="M41492 17759
L43110 16141
" />
<path d="M42492 21531
L42492 18728
" />
<path d="M42492 18728
L45078 16141
" />
<path d="M51271 27283
L50511 27283
" />
<path d="M43492 23019
L43492 21531
" />
<path d="M43503 23031
L43492 23019
" />
<path d="M49409 23031
L43503 23031
" />
<path d="M49409 26181
L49409 23031
" />
<path d="M50511 27283
L49409 26181
" />
<path d="M51271 26496
L51271 21759
" />
<path d="M51043 21531
L44492 21531
" />
<path d="M51271 21759
L51043 21531
" />
<path d="M38492 24531
L38492 25681
" />
<path d="M37401 26771
L37401 31011
" />
<path d="M38492 25681
L37401 26771
" />
<path d="M25689 29823
L25689 31011
" />
<path d="M25787 30905
L25787 31011
" />
<path d="M25787 30913
L25787 30905
" />
<path d="M25689 31011
L25787 30913
" />
<path d="M22350 29724
L22350 30921
" />
<path d="M22350 30921
L22440 31011
" />
<path d="M39173 31011
L37401 31011
" />
<path d="M37401 31011
L25787 31011
" />
<path d="M25787 31011
L25590 31011
" />
<path d="M25590 31011
L22440 31011
" />
<path d="M22440 31011
L22244 31011
" />
<path d="M22244 31011
L20653 31011
" />
<path d="M20653 31011
L19291 29649
" />
<path d="M41141 31011
L39173 31011
" />
<path d="M48031 31011
L41141 31011
" />
<path d="M52271 27283
L53228 27283
" />
<path d="M54133 16338
L52952 16338
" />
<path d="M54724 16929
L54133 16338
" />
<path d="M54724 25787
L54724 16929
" />
<path d="M53228 27283
L54724 25787
" />
<path d="M22350 27559
L22350 29724
" />
<path d="M52271 27283
L52271 31011
" />
<path d="M52271 31011
L48031 31011
" />
<path d="M40492 21531
L40492 16791
" />
<path d="M40492 16791
L41141 16141
" />
<path d="M52952 16338
L50590 16338
" />
<path d="M50590 16338
L50393 16141
" />
<path d="M38492 24531
L38492 23334
" />
<path d="M40492 22696
L40492 21531
" />
<path d="M39960 23228
L40492 22696
" />
<path d="M38598 23228
L39960 23228
" />
<path d="M38492 23334
L38598 23228
" />
<path d="M26500 24803
L26377 24803
" />
<path d="M26377 24803
L23917 27263
" />
<path d="M31492 24531
L26771 24531
" />
<path d="M26771 24531
L26500 24803
" />
<path d="M29846 23031
L36023 23031
" />
<path d="M36492 23500
L36492 24531
" />
<path d="M36023 23031
L36492 23500
" />
<path d="M26846 23031
L24712 23031
" />
<path d="M24712 23031
L24515 22834
" />
<path d="M48425 16141
L48425 14566
" />
<path d="M51984 14370
L52952 15338
" />
<path d="M48622 14370
L51984 14370
" />
<path d="M48425 14566
L48622 14370
" />
<path d="M52952 19472
L52952 17338
" />
<path d="M52271 26496
L52271 22153
" />
<path d="M52271 22153
L52952 21472
" />
<path d="M48031 30011
L48031 24606
" />
<path d="M47956 24531
L44492 24531
" />
<path d="M48031 24606
L47956 24531
" />
<path d="M39173 30011
L39173 27574
" />
<path d="M39173 27574
L39157 27559
" />
<path d="M39492 24531
L39492 27224
" />
<path d="M39492 27224
L39157 27559
" />
<path d="M41141 30011
L41141 27574
" />
<path d="M41141 27574
L41157 27559
" />
<path d="M40492 24531
L40492 26893
" />
<path d="M40492 26893
L41157 27559
" />
<path d="M19381 22834
L19381 26559
" />
<path d="M19381 26559
L19291 26649
" />
<path d="M20381 22834
L20381 15641
" />
<path d="M22637 13385
L39492 13385
" />
<path d="M20381 15641
L22637 13385
" />
<path d="M39492 21531
L39492 13385
" />
<path d="M39492 13385
L39370 13385
" />
<path d="M46850 20472
L46653 20275
" />
<path d="M46653 20275
L46653 13976
" />
<path d="M46653 13976
L46062 13385
" />
<path d="M46062 13385
L39370 13385
" />
<path d="M52952 20472
L46850 20472
" />
<path d="M21350 27559
L21350 26952
" />
<path d="M21350 26952
L23500 24803
" />
<path d="M23515 22834
L23515 24787
" />
<path d="M23515 24787
L23500 24803
" />
<path d="M23515 22834
L20381 22834
" />
<path d="M21350 29724
L21350 27559
" />
</g>
<g style="fill:#FFFFFF; fill-opacity:1.0; 
stroke:#FFFFFF; stroke-width:19.685; stroke-opacity:1; 
stroke-linecap:round; stroke-linejoin:round;">
<circle cx="52271.7" cy="26496.5" r="150.157" /> 
<circle cx="51271.7" cy="26496.5" r="150.157" /> 
<circle cx="51271.7" cy="27283.5" r="150.157" /> 
<circle cx="52271.7" cy="27283.5" r="150.157" /> 
<circle cx="54133.7" cy="28346.5" r="443.157" /> 
<circle cx="49409.7" cy="28346.5" r="443.157" /> 
<circle cx="19291.3" cy="26649.6" r="150.157" /> 
<circle cx="19291.3" cy="29649.6" r="150.157" /> 
<circle cx="26846.5" cy="23031.5" r="150.157" /> 
<circle cx="29846.5" cy="23031.5" r="150.157" /> 
<circle cx="23500" cy="24803.1" r="150.157" /> 
<circle cx="26500" cy="24803.1" r="150.157" /> 
<circle cx="52952.8" cy="19472.4" r="190.157" /> 
<circle cx="52952.8" cy="20472.4" r="190.157" /> 
<circle cx="52952.8" cy="21472.4" r="190.157" /> 
<circle cx="31492.1" cy="24531.5" r="147.657" /> 
<circle cx="32492.1" cy="24531.5" r="147.657" /> 
<circle cx="33492.1" cy="24531.5" r="147.657" /> 
<circle cx="34492.1" cy="24531.5" r="147.657" /> 
<circle cx="35492.1" cy="24531.5" r="147.657" /> 
<circle cx="36492.1" cy="24531.5" r="147.657" /> 
<circle cx="37492.1" cy="24531.5" r="147.657" /> 
<circle cx="38492.1" cy="24531.5" r="147.657" /> 
<circle cx="39492.1" cy="24531.5" r="147.657" /> 
<circle cx="40492.1" cy="24531.5" r="147.657" /> 
<circle cx="41492.1" cy="24531.5" r="147.657" /> 
<circle cx="42492.1" cy="24531.5" r="147.657" /> 
<circle cx="43492.1" cy="24531.5" r="147.657" /> 
<circle cx="44492.1" cy="24531.5" r="147.657" /> 
<circle cx="44492.1" cy="21531.5" r="147.657" /> 
<circle cx="43492.1" cy="21531.5" r="147.657" /> 
<circle cx="42492.1" cy="21531.5" r="147.657" /> 
<circle cx="41492.1" cy="21531.5" r="147.657" /> 
<circle cx="40492.1" cy="21531.5" r="147.657" /> 
<circle cx="39492.1" cy="21531.5" r="147.657" /> 
<circle cx="38492.1" cy="21531.5" r="147.657" /> 
<circle cx="37492.1" cy="21531.5" r="147.657" /> 
<circle cx="36492.1" cy="21531.5" r="147.657" /> 
<circle cx="35492.1" cy="21531.5" r="147.657" /> 
<circle cx="34492.1" cy="21531.5" r="147.657" /> 
<circle cx="33492.1" cy="21531.5" r="147.657" /> 
<circle cx="32492.1" cy="21531.5" r="147.657" /> 
<circle cx="31492.1" cy="21531.5" r="147.657" /> 
<circle cx="39157.5" cy="27559.1" r="147.657" /> 
<circle cx="41157.5" cy="27559.1" r="147.657" /> 
<circle cx="21350.4" cy="27559.1" r="150.157" /> 
<circle cx="22350.4" cy="27559.1" r="150.157" /> 
<circle cx="52952.8" cy="17338.6" r="236.157" /> 
<circle cx="52952.8" cy="16338.6" r="236.157" /> 
<circle cx="52952.8" cy="15338.6" r="236.157" /> 
<circle cx="37795.3" cy="16141.7" r="246.063" /> 
<circle cx="35826.8" cy="16141.7" r="246.063" /> 
<circle cx="33661.4" cy="16141.7" r="246.063" /> 
<circle cx="31692.9" cy="16141.7" r="246.063" /> 
<circle cx="29527.6" cy="16141.7" r="246.063" /> 
<circle cx="27559.1" cy="16141.7" r="246.063" /> 
<circle cx="25393.7" cy="16141.7" r="246.063" /> 
<circle cx="23425.2" cy="16141.7" r="246.063" /> 
<circle cx="35826.8" cy="28543.3" r="246.063" /> 
<circle cx="31889.8" cy="28543.3" r="246.063" /> 
<circle cx="33858.3" cy="28543.3" r="246.063" /> 
<circle cx="27755.9" cy="28543.3" r="246.063" /> 
<circle cx="29724.4" cy="28543.3" r="246.063" /> 
<circle cx="41141.7" cy="16141.7" r="246.063" /> 
<circle cx="45078.7" cy="16141.7" r="246.063" /> 
<circle cx="43110.2" cy="16141.7" r="246.063" /> 
<circle cx="43700.8" cy="28543.3" r="246.063" /> 
<circle cx="45669.3" cy="28543.3" r="246.063" /> 
<circle cx="20381.9" cy="22834.6" r="147.657" /> 
<circle cx="19381.9" cy="22834.6" r="147.657" /> 
<circle cx="23515.7" cy="22834.6" r="147.657" /> 
<circle cx="24515.7" cy="22834.6" r="147.657" /> 
<circle cx="25689.1" cy="29823.3" r="187.157" /> 
<circle cx="23917.1" cy="27263.3" r="187.157" /> 
<circle cx="23917.1" cy="29823.3" r="187.157" /> 
<circle cx="25689.1" cy="27263.3" r="187.157" /> 
<circle cx="48031.5" cy="30011.8" r="150.157" /> 
<circle cx="48031.5" cy="31011.8" r="150.157" /> 
<circle cx="39173.2" cy="30011.8" r="150.157" /> 
<circle cx="39173.2" cy="31011.8" r="150.157" /> 
<circle cx="41141.7" cy="30011.8" r="150.157" /> 
<circle cx="41141.7" cy="31011.8" r="150.157" /> 
<circle cx="21350.4" cy="29724.4" r="150.157" /> 
<circle cx="22350.4" cy="29724.4" r="150.157" /> 
<circle cx="50393.7" cy="16141.7" r="246.063" /> 
<circle cx="48425.2" cy="16141.7" r="246.063" /> 
<circle cx="55511.8" cy="30708.7" r="590.157" /> 
<circle cx="55511.8" cy="14173.2" r="590.157" /> 
<circle cx="19291.3" cy="14173.2" r="590.157" /> 
</g> 
</svg>
