<?xml version="1.0" standalone="no"?>
 <!DOCTYPE svg PUBLIC "-//W3C//DTD SVG 1.1//EN" 
 "http://www.w3.org/Graphics/SVG/1.1/DTD/svg11.dtd"> 
<svg xmlns="http://www.w3.org/2000/svg" version="1.1" 
    width="21.0007cm" height="29.7002cm" viewBox="0 0 82680 116930 ">
<title>SVG Picture created as pinguino-2550--brd.svg date 2014/02/06 20:01:37 </title>
  <desc>Picture generated by PCBNEW </desc>
<g style="fill:#000000; fill-opacity:1;stroke:#000000; stroke-opacity:1;
stroke-linecap:round; stroke-linejoin:round; "
 transform="translate(0 0) scale(1 1)">
</g>
<g style="fill:#000000; fill-opacity:0.0; 
stroke:#000000; stroke-width:19.685; stroke-opacity:1; 
stroke-linecap:round; stroke-linejoin:round;">
<path d="M4000 4000
L78680 4000
L78680 112930
L4000 112930
L4000 4000
" />
<path d="M4700 4700
L77980 4700
L77980 112230
L4700 112230
L4700 4700
" />
<path d="M28890 4000
L28890 4700
" />
<path d="M16592 4552
L16307 4552
" />
<path d="M16450 4552
L16450 4052
L16402 4123
L16354 4171
L16307 4195
" />
<path d="M28890 112930
L28890 112230
" />
<path d="M16592 112782
L16307 112782
" />
<path d="M16450 112782
L16450 112282
L16402 112353
L16354 112401
L16307 112425
" />
<path d="M53780 4000
L53780 4700
" />
<path d="M41197 4100
L41220 4076
L41268 4052
L41387 4052
L41435 4076
L41459 4100
L41482 4147
L41482 4195
L41459 4266
L41173 4552
L41482 4552
" />
<path d="M53780 112930
L53780 112230
" />
<path d="M41197 112330
L41220 112306
L41268 112282
L41387 112282
L41435 112306
L41459 112330
L41482 112377
L41482 112425
L41459 112496
L41173 112782
L41482 112782
" />
<path d="M66063 4052
L66372 4052
L66206 4242
L66277 4242
L66325 4266
L66349 4290
L66372 4338
L66372 4457
L66349 4504
L66325 4528
L66277 4552
L66134 4552
L66087 4528
L66063 4504
" />
<path d="M66063 112282
L66372 112282
L66206 112472
L66277 112472
L66325 112496
L66349 112520
L66372 112568
L66372 112687
L66349 112734
L66325 112758
L66277 112782
L66134 112782
L66087 112758
L66063 112734
" />
<path d="M4000 25780
L4700 25780
" />
<path d="M4230 14949
L4469 14949
" />
<path d="M4183 15092
L4350 14592
L4516 15092
" />
<path d="M78680 25780
L77980 25780
" />
<path d="M78210 14949
L78449 14949
" />
<path d="M78163 15092
L78330 14592
L78496 15092
" />
<path d="M4000 47560
L4700 47560
" />
<path d="M4385 36610
L4457 36634
L4480 36658
L4504 36705
L4504 36777
L4480 36824
L4457 36848
L4409 36872
L4219 36872
L4219 36372
L4385 36372
L4433 36396
L4457 36420
L4480 36467
L4480 36515
L4457 36562
L4433 36586
L4385 36610
L4219 36610
" />
<path d="M78680 47560
L77980 47560
" />
<path d="M78365 36610
L78437 36634
L78460 36658
L78484 36705
L78484 36777
L78460 36824
L78437 36848
L78389 36872
L78199 36872
L78199 36372
L78365 36372
L78413 36396
L78437 36420
L78460 36467
L78460 36515
L78437 36562
L78413 36586
L78365 36610
L78199 36610
" />
<path d="M4000 69340
L4700 69340
" />
<path d="M4504 58604
L4480 58628
L4409 58652
L4361 58652
L4290 58628
L4242 58580
L4219 58533
L4195 58438
L4195 58366
L4219 58271
L4242 58223
L4290 58176
L4361 58152
L4409 58152
L4480 58176
L4504 58200
" />
<path d="M78680 69340
L77980 69340
" />
<path d="M78484 58604
L78460 58628
L78389 58652
L78341 58652
L78270 58628
L78222 58580
L78199 58533
L78175 58438
L78175 58366
L78199 58271
L78222 58223
L78270 58176
L78341 58152
L78389 58152
L78460 58176
L78484 58200
" />
<path d="M4000 91120
L4700 91120
" />
<path d="M4219 80432
L4219 79932
L4338 79932
L4409 79956
L4457 80003
L4480 80051
L4504 80146
L4504 80218
L4480 80313
L4457 80360
L4409 80408
L4338 80432
L4219 80432
" />
<path d="M78680 91120
L77980 91120
" />
<path d="M78199 80432
L78199 79932
L78318 79932
L78389 79956
L78437 80003
L78460 80051
L78484 80146
L78484 80218
L78460 80313
L78437 80360
L78389 80408
L78318 80432
L78199 80432
" />
<path d="M4242 101950
L4409 101950
" />
<path d="M4480 102212
L4242 102212
L4242 101712
L4480 101712
" />
<path d="M78222 101950
L78389 101950
" />
<path d="M78460 102212
L78222 102212
L78222 101712
L78460 101712
" />
<path d="M45130 110672
L45205 110072
L45347 110072
L45430 110101
L45480 110158
L45501 110215
L45515 110330
L45505 110415
L45462 110530
L45426 110587
L45362 110644
L45272 110672
L45130 110672
" />
<path d="M45987 110672
L46026 110358
L46005 110301
L45951 110272
L45837 110272
L45776 110301
" />
<path d="M45990 110644
L45930 110672
L45787 110672
L45733 110644
L45712 110587
L45719 110530
L45755 110472
L45815 110444
L45958 110444
L46019 110415
" />
<path d="M46237 110272
L46465 110272
" />
<path d="M46347 110072
L46283 110587
L46305 110644
L46358 110672
L46415 110672
" />
<path d="M46847 110644
L46787 110672
L46672 110672
L46619 110644
L46597 110587
L46626 110358
L46662 110301
L46722 110272
L46837 110272
L46890 110301
L46912 110358
L46905 110415
L46612 110472
" />
<path d="M47137 110615
L47162 110644
L47130 110672
L47105 110644
L47137 110615
L47130 110672
" />
<path d="M47176 110301
L47201 110330
L47169 110358
L47144 110330
L47176 110301
L47169 110358
" />
<path d="M48205 110072
L48090 110072
L48029 110101
L47997 110130
L47930 110215
L47887 110330
L47858 110558
L47880 110615
L47905 110644
L47958 110672
L48072 110672
L48133 110644
L48165 110615
L48201 110558
L48219 110415
L48197 110358
L48172 110330
L48119 110301
L48004 110301
L47944 110330
L47912 110358
L47876 110415
" />
<path d="M48865 110272
L49094 110272
" />
<path d="M48901 110672
L48965 110158
L49001 110101
L49062 110072
L49119 110072
" />
<path d="M49476 110644
L49415 110672
L49301 110672
L49247 110644
L49226 110587
L49255 110358
L49290 110301
L49351 110272
L49465 110272
L49519 110301
L49540 110358
L49533 110415
L49240 110472
" />
<path d="M49758 110672
L49833 110072
" />
<path d="M49805 110301
L49865 110272
L49980 110272
L50033 110301
L50058 110330
L50080 110387
L50058 110558
L50022 110615
L49990 110644
L49930 110672
L49815 110672
L49762 110644
" />
<path d="M50797 110130
L50830 110101
L50890 110072
L51033 110072
L51087 110101
L51112 110130
L51133 110187
L51126 110244
L51087 110330
L50701 110672
L51072 110672
" />
<path d="M51519 110072
L51576 110072
L51630 110101
L51655 110130
L51676 110187
L51690 110301
L51672 110444
L51630 110558
L51594 110615
L51562 110644
L51501 110672
L51444 110672
L51390 110644
L51365 110615
L51344 110558
L51330 110444
L51347 110301
L51390 110187
L51426 110130
L51458 110101
L51519 110072
" />
<path d="M52215 110672
L51872 110672
" />
<path d="M52044 110672
L52119 110072
L52051 110158
L51987 110215
L51926 110244
" />
<path d="M52780 110272
L52730 110672
" />
<path d="M52665 110044
L52469 110472
L52840 110472
" />
<path d="M36722 111872
L36722 111272
" />
<path d="M37065 111872
L36808 111530
" />
<path d="M37065 111272
L36722 111615
" />
<path d="M37322 111872
L37322 111472
" />
<path d="M37322 111272
L37294 111301
L37322 111330
L37351 111301
L37322 111272
L37322 111330
" />
<path d="M37951 111815
L37922 111844
L37837 111872
L37780 111872
L37694 111844
L37637 111787
L37608 111730
L37580 111615
L37580 111530
L37608 111415
L37637 111358
L37694 111301
L37780 111272
L37837 111272
L37922 111301
L37951 111330
" />
<path d="M38465 111872
L38465 111558
L38437 111501
L38380 111472
L38265 111472
L38208 111501
" />
<path d="M38465 111844
L38408 111872
L38265 111872
L38208 111844
L38180 111787
L38180 111730
L38208 111672
L38265 111644
L38408 111644
L38465 111615
" />
<path d="M39008 111872
L39008 111272
" />
<path d="M39008 111844
L38951 111872
L38837 111872
L38780 111844
L38751 111815
L38722 111758
L38722 111587
L38751 111530
L38780 111501
L38837 111472
L38951 111472
L39008 111501
" />
<path d="M39751 111558
L39951 111558
" />
<path d="M40037 111872
L39751 111872
L39751 111272
L40037 111272
" />
<path d="M40294 111815
L40322 111844
L40294 111872
L40265 111844
L40294 111815
L40294 111872
" />
<path d="M40579 111872
L40579 111272
L40722 111272
L40808 111301
L40865 111358
L40894 111415
L40922 111530
L40922 111615
L40894 111730
L40865 111787
L40808 111844
L40722 111872
L40579 111872
" />
<path d="M41179 111815
L41208 111844
L41179 111872
L41151 111844
L41179 111815
L41179 111872
" />
<path d="M41437 111701
L41722 111701
" />
<path d="M41379 111872
L41579 111272
L41779 111872
" />
<path d="M41979 111815
L42008 111844
L41979 111872
L41951 111844
L41979 111815
L41979 111872
" />
<path d="M70272 110672
L70108 110387
" />
<path d="M69930 110672
L70005 110072
L70233 110072
L70287 110101
L70312 110130
L70333 110187
L70322 110272
L70287 110330
L70255 110358
L70194 110387
L69965 110387
" />
<path d="M70762 110644
L70701 110672
L70587 110672
L70533 110644
L70512 110587
L70540 110358
L70576 110301
L70637 110272
L70751 110272
L70805 110301
L70826 110358
L70819 110415
L70526 110472
" />
<path d="M71037 110272
L71130 110672
L71322 110272
" />
<path d="M71508 110615
L71533 110644
L71501 110672
L71476 110644
L71508 110615
L71501 110672
" />
<path d="M71547 110301
L71572 110330
L71540 110358
L71515 110330
L71547 110301
L71540 110358
" />
<path d="M72558 110672
L72215 110672
" />
<path d="M72387 110672
L72462 110072
L72394 110158
L72330 110215
L72269 110244
" />
<path d="M72822 110615
L72847 110644
L72815 110672
L72790 110644
L72822 110615
L72815 110672
" />
<path d="M73290 110072
L73347 110072
L73401 110101
L73426 110130
L73447 110187
L73462 110301
L73444 110444
L73401 110558
L73365 110615
L73333 110644
L73272 110672
L73215 110672
L73162 110644
L73137 110615
L73115 110558
L73101 110444
L73119 110301
L73162 110187
L73197 110130
L73230 110101
L73290 110072
" />
<path d="M36694 110644
L36780 110672
L36922 110672
L36980 110644
L37008 110615
L37037 110558
L37037 110501
L37008 110444
L36980 110415
L36922 110387
L36808 110358
L36751 110330
L36722 110301
L36694 110244
L36694 110187
L36722 110130
L36751 110101
L36808 110072
L36951 110072
L37037 110101
" />
<path d="M37294 110672
L37294 110272
" />
<path d="M37294 110072
L37265 110101
L37294 110130
L37322 110101
L37294 110072
L37294 110130
" />
<path d="M37522 110272
L37837 110272
L37522 110672
L37837 110672
" />
<path d="M38294 110644
L38237 110672
L38122 110672
L38065 110644
L38037 110587
L38037 110358
L38065 110301
L38122 110272
L38237 110272
L38294 110301
L38322 110358
L38322 110415
L38037 110472
" />
<path d="M38580 110615
L38608 110644
L38580 110672
L38551 110644
L38580 110615
L38580 110672
" />
<path d="M38580 110301
L38608 110330
L38580 110358
L38551 110330
L38580 110301
L38580 110358
" />
<path d="M39322 110072
L39322 110558
L39351 110615
L39380 110644
L39437 110672
L39551 110672
L39608 110644
L39637 110615
L39665 110558
L39665 110072
" />
<path d="M39922 110644
L39980 110672
L40094 110672
L40151 110644
L40180 110587
L40180 110558
L40151 110501
L40094 110472
L40008 110472
L39951 110444
L39922 110387
L39922 110358
L39951 110301
L40008 110272
L40094 110272
L40151 110301
" />
<path d="M40665 110644
L40608 110672
L40494 110672
L40437 110644
L40408 110587
L40408 110358
L40437 110301
L40494 110272
L40608 110272
L40665 110301
L40694 110358
L40694 110415
L40408 110472
" />
<path d="M40951 110672
L40951 110272
" />
<path d="M40951 110387
L40980 110330
L41008 110301
L41065 110272
L41122 110272
" />
<path d="M69922 111872
L69922 111272
" />
<path d="M70465 111872
L70465 111272
" />
<path d="M70465 111844
L70408 111872
L70294 111872
L70237 111844
L70208 111815
L70180 111758
L70180 111587
L70208 111530
L70237 111501
L70294 111472
L70408 111472
L70465 111501
" />
<path d="M70751 111815
L70780 111844
L70751 111872
L70722 111844
L70751 111815
L70751 111872
" />
<path d="M70751 111501
L70780 111530
L70751 111558
L70722 111530
L70751 111501
L70751 111558
" />
<path d="M71808 111872
L71465 111872
" />
<path d="M71637 111872
L71637 111272
L71579 111358
L71522 111415
L71465 111444
" />
<path d="M72494 111244
L71980 112015
" />
<path d="M73008 111872
L72665 111872
" />
<path d="M72837 111872
L72837 111272
L72779 111358
L72722 111415
L72665 111444
" />
<path d="M36719 108872
L37062 108872
" />
<path d="M36815 109472
L36890 108872
" />
<path d="M37187 109472
L37237 109072
" />
<path d="M37262 108872
L37230 108901
L37255 108930
L37287 108901
L37262 108872
L37255 108930
" />
<path d="M37437 109072
L37665 109072
" />
<path d="M37547 108872
L37483 109387
L37505 109444
L37558 109472
L37615 109472
" />
<path d="M37901 109472
L37847 109444
L37826 109387
L37890 108872
" />
<path d="M38362 109444
L38301 109472
L38187 109472
L38133 109444
L38112 109387
L38140 109158
L38176 109101
L38237 109072
L38351 109072
L38405 109101
L38426 109158
L38419 109215
L38126 109272
" />
<path d="M38651 109415
L38676 109444
L38644 109472
L38619 109444
L38651 109415
L38644 109472
" />
<path d="M38690 109101
L38715 109130
L38683 109158
L38658 109130
L38690 109101
L38683 109158
" />
<path d="M39387 109472
L39462 108872
L39690 108872
L39744 108901
L39769 108930
L39790 108987
L39780 109072
L39744 109130
L39712 109158
L39651 109187
L39422 109187
" />
<path d="M39987 109472
L40037 109072
" />
<path d="M40062 108872
L40030 108901
L40055 108930
L40087 108901
L40062 108872
L40055 108930
" />
<path d="M40322 109072
L40272 109472
" />
<path d="M40315 109130
L40347 109101
L40408 109072
L40494 109072
L40547 109101
L40569 109158
L40530 109472
" />
<path d="M41122 109072
L41062 109558
L41026 109615
L40994 109644
L40933 109672
L40847 109672
L40794 109644
" />
<path d="M41076 109444
L41015 109472
L40901 109472
L40847 109444
L40822 109415
L40801 109358
L40822 109187
L40858 109130
L40890 109101
L40951 109072
L41065 109072
L41119 109101
" />
<path d="M41665 109072
L41615 109472
" />
<path d="M41408 109072
L41369 109387
L41390 109444
L41444 109472
L41530 109472
L41590 109444
L41622 109415
" />
<path d="M41901 109472
L41951 109072
" />
<path d="M41976 108872
L41944 108901
L41969 108930
L42001 108901
L41976 108872
L41969 108930
" />
<path d="M42237 109072
L42187 109472
" />
<path d="M42229 109130
L42262 109101
L42322 109072
L42408 109072
L42462 109101
L42483 109158
L42444 109472
" />
<path d="M42815 109472
L42762 109444
L42737 109415
L42715 109358
L42737 109187
L42772 109130
L42804 109101
L42865 109072
L42951 109072
L43004 109101
L43029 109130
L43051 109187
L43029 109358
L42994 109415
L42962 109444
L42901 109472
L42815 109472
" />
<path d="M43769 108930
L43801 108901
L43862 108872
L44004 108872
L44058 108901
L44083 108930
L44104 108987
L44097 109044
L44058 109130
L43672 109472
L44044 109472
" />
<path d="M44662 108872
L44376 108872
L44312 109158
L44344 109130
L44404 109101
L44547 109101
L44601 109130
L44626 109158
L44647 109215
L44630 109358
L44594 109415
L44562 109444
L44501 109472
L44358 109472
L44304 109444
L44280 109415
" />
<path d="M45233 108872
L44947 108872
L44883 109158
L44915 109130
L44976 109101
L45119 109101
L45172 109130
L45197 109158
L45219 109215
L45201 109358
L45165 109415
L45133 109444
L45072 109472
L44930 109472
L44876 109444
L44851 109415
" />
<path d="M45633 108872
L45690 108872
L45744 108901
L45769 108930
L45790 108987
L45805 109101
L45787 109244
L45744 109358
L45708 109415
L45676 109444
L45615 109472
L45558 109472
L45505 109444
L45480 109415
L45458 109358
L45444 109244
L45462 109101
L45505 108987
L45540 108930
L45572 108901
L45633 108872
" />
<path d="M36922 106758
L36722 106758
" />
<path d="M36722 107072
L36722 106472
L37008 106472
" />
<path d="M37237 107072
L37237 106672
" />
<path d="M37237 106472
L37208 106501
L37237 106530
L37265 106501
L37237 106472
L37237 106530
" />
<path d="M37608 107072
L37551 107044
L37522 106987
L37522 106472
" />
<path d="M38065 107044
L38008 107072
L37894 107072
L37837 107044
L37808 106987
L37808 106758
L37837 106701
L37894 106672
L38008 106672
L38065 106701
L38094 106758
L38094 106815
L37808 106872
" />
<path d="M38351 107015
L38380 107044
L38351 107072
L38322 107044
L38351 107015
L38351 107072
" />
<path d="M38351 106701
L38380 106730
L38351 106758
L38322 106730
L38351 106701
L38351 106758
" />
<path d="M39094 106672
L39094 107272
" />
<path d="M39094 106701
L39151 106672
L39265 106672
L39322 106701
L39351 106730
L39380 106787
L39380 106958
L39351 107015
L39322 107044
L39265 107072
L39151 107072
L39094 107044
" />
<path d="M39637 107072
L39637 106672
" />
<path d="M39637 106472
L39608 106501
L39637 106530
L39665 106501
L39637 106472
L39637 106530
" />
<path d="M39922 106672
L39922 107072
" />
<path d="M39922 106730
L39951 106701
L40008 106672
L40094 106672
L40151 106701
L40180 106758
L40180 107072
" />
<path d="M40722 106672
L40722 107158
L40694 107215
L40665 107244
L40608 107272
L40522 107272
L40465 107244
" />
<path d="M40722 107044
L40665 107072
L40551 107072
L40494 107044
L40465 107015
L40437 106958
L40437 106787
L40465 106730
L40494 106701
L40551 106672
L40665 106672
L40722 106701
" />
<path d="M41265 106672
L41265 107072
" />
<path d="M41008 106672
L41008 106987
L41037 107044
L41094 107072
L41180 107072
L41237 107044
L41265 107015
" />
<path d="M41551 107072
L41551 106672
" />
<path d="M41551 106472
L41522 106501
L41551 106530
L41580 106501
L41551 106472
L41551 106530
" />
<path d="M41837 106672
L41837 107072
" />
<path d="M41837 106730
L41865 106701
L41922 106672
L42008 106672
L42065 106701
L42094 106758
L42094 107072
" />
<path d="M42465 107072
L42408 107044
L42379 107015
L42351 106958
L42351 106787
L42379 106730
L42408 106701
L42465 106672
L42551 106672
L42608 106701
L42637 106730
L42665 106787
L42665 106958
L42637 107015
L42608 107044
L42551 107072
L42465 107072
" />
<path d="M42922 106844
L43379 106844
" />
<path d="M43637 106530
L43665 106501
L43722 106472
L43865 106472
L43922 106501
L43951 106530
L43979 106587
L43979 106644
L43951 106730
L43608 107072
L43979 107072
" />
<path d="M44522 106472
L44237 106472
L44208 106758
L44237 106730
L44294 106701
L44437 106701
L44494 106730
L44522 106758
L44551 106815
L44551 106958
L44522 107015
L44494 107044
L44437 107072
L44294 107072
L44237 107044
L44208 107015
" />
<path d="M45094 106472
L44808 106472
L44780 106758
L44808 106730
L44865 106701
L45008 106701
L45065 106730
L45094 106758
L45122 106815
L45122 106958
L45094 107015
L45065 107044
L45008 107072
L44865 107072
L44808 107044
L44780 107015
" />
<path d="M45494 106472
L45551 106472
L45608 106501
L45637 106530
L45665 106587
L45694 106701
L45694 106844
L45665 106958
L45637 107015
L45608 107044
L45551 107072
L45494 107072
L45437 107044
L45408 107015
L45380 106958
L45351 106844
L45351 106701
L45380 106587
L45408 106530
L45437 106501
L45494 106472
" />
<path d="M45951 107015
L45980 107044
L45951 107072
L45922 107044
L45951 107015
L45951 107072
" />
<path d="M46237 107072
L46237 106472
" />
<path d="M46294 106844
L46465 107072
" />
<path d="M46465 106672
L46237 106901
" />
<path d="M46722 107072
L46722 106672
" />
<path d="M46722 106472
L46694 106501
L46722 106530
L46751 106501
L46722 106472
L46722 106530
" />
<path d="M47265 107044
L47208 107072
L47094 107072
L47037 107044
L47008 107015
L46980 106958
L46980 106787
L47008 106730
L47037 106701
L47094 106672
L47208 106672
L47265 106701
" />
<path d="M47780 107072
L47780 106758
L47751 106701
L47694 106672
L47580 106672
L47522 106701
" />
<path d="M47780 107044
L47722 107072
L47580 107072
L47522 107044
L47494 106987
L47494 106930
L47522 106872
L47580 106844
L47722 106844
L47780 106815
" />
<path d="M48322 107072
L48322 106472
" />
<path d="M48322 107044
L48265 107072
L48151 107072
L48094 107044
L48065 107015
L48037 106958
L48037 106787
L48065 106730
L48094 106701
L48151 106672
L48265 106672
L48322 106701
" />
<path d="M48465 107130
L48922 107130
" />
<path d="M49065 106672
L49065 107272
" />
<path d="M49065 106701
L49122 106672
L49237 106672
L49294 106701
L49322 106730
L49351 106787
L49351 106958
L49322 107015
L49294 107044
L49237 107072
L49122 107072
L49065 107044
" />
<path d="M49865 107044
L49808 107072
L49694 107072
L49637 107044
L49608 107015
L49580 106958
L49580 106787
L49608 106730
L49637 106701
L49694 106672
L49808 106672
L49865 106701
" />
<path d="M50122 107072
L50122 106472
" />
<path d="M50122 106701
L50180 106672
L50294 106672
L50351 106701
L50380 106730
L50408 106787
L50408 106958
L50380 107015
L50351 107044
L50294 107072
L50180 107072
L50122 107044
" />
<path d="M36694 108244
L36780 108272
L36922 108272
L36980 108244
L37008 108215
L37037 108158
L37037 108101
L37008 108044
L36980 108015
L36922 107987
L36808 107958
L36751 107930
L36722 107901
L36694 107844
L36694 107787
L36722 107730
L36751 107701
L36808 107672
L36951 107672
L37037 107701
" />
<path d="M37294 108272
L37294 107672
" />
<path d="M37551 108272
L37551 107958
L37522 107901
L37465 107872
L37380 107872
L37322 107901
L37294 107930
" />
<path d="M38065 108244
L38008 108272
L37894 108272
L37837 108244
L37808 108187
L37808 107958
L37837 107901
L37894 107872
L38008 107872
L38065 107901
L38094 107958
L38094 108015
L37808 108072
" />
<path d="M38580 108244
L38522 108272
L38408 108272
L38351 108244
L38322 108187
L38322 107958
L38351 107901
L38408 107872
L38522 107872
L38580 107901
L38608 107958
L38608 108015
L38322 108072
" />
<path d="M38780 107872
L39008 107872
" />
<path d="M38865 107672
L38865 108187
L38894 108244
L38951 108272
L39008 108272
" />
<path d="M39208 108215
L39237 108244
L39208 108272
L39180 108244
L39208 108215
L39208 108272
" />
<path d="M39208 107901
L39237 107930
L39208 107958
L39180 107930
L39208 107901
L39208 107958
" />
<path d="M36769 105558
L36969 105558
" />
<path d="M37015 105872
L36730 105872
L36805 105272
L37090 105272
" />
<path d="M37280 105815
L37305 105844
L37272 105872
L37247 105844
L37280 105815
L37272 105872
" />
<path d="M37597 105558
L37797 105558
" />
<path d="M37844 105872
L37558 105872
L37633 105272
L37919 105272
" />
<path d="M38108 105815
L38133 105844
L38101 105872
L38076 105844
L38108 105815
L38101 105872
" />
<path d="M38376 105272
L38719 105272
" />
<path d="M38472 105872
L38547 105272
" />
<path d="M38851 105815
L38876 105844
L38844 105872
L38819 105844
L38851 105815
L38844 105872
" />
<path d="M39587 105872
L39662 105272
L39929 105872
L40004 105272
" />
<path d="M40215 105872
L40265 105472
" />
<path d="M40251 105587
L40287 105530
L40319 105501
L40379 105472
L40437 105472
" />
<path d="M40672 105872
L40619 105844
L40594 105815
L40572 105758
L40594 105587
L40629 105530
L40662 105501
L40722 105472
L40808 105472
L40862 105501
L40887 105530
L40908 105587
L40887 105758
L40851 105815
L40819 105844
L40758 105872
L40672 105872
" />
<path d="M41137 105815
L41162 105844
L41129 105872
L41104 105844
L41137 105815
L41129 105872
" />
<path d="M41433 105272
L41833 105272
L41501 105872
" />
<path d="M42472 105644
L42929 105644
" />
<path d="M43883 105558
L43965 105587
L43990 105615
L44012 105672
L44001 105758
L43965 105815
L43933 105844
L43872 105872
L43644 105872
L43719 105272
L43919 105272
L43972 105301
L43997 105330
L44019 105387
L44012 105444
L43976 105501
L43944 105530
L43883 105558
L43683 105558
" />
<path d="M44501 105872
L44540 105558
L44519 105501
L44465 105472
L44351 105472
L44290 105501
" />
<path d="M44504 105844
L44444 105872
L44301 105872
L44247 105844
L44226 105787
L44233 105730
L44269 105672
L44329 105644
L44472 105644
L44533 105615
" />
<path d="M44837 105472
L44787 105872
" />
<path d="M44829 105530
L44862 105501
L44922 105472
L45008 105472
L45062 105501
L45083 105558
L45044 105872
" />
<path d="M45294 105472
L45522 105472
" />
<path d="M45329 105872
L45394 105358
L45429 105301
L45490 105272
L45547 105272
" />
<path d="M45672 105872
L45722 105472
" />
<path d="M45747 105272
L45715 105301
L45740 105330
L45772 105301
L45747 105272
L45740 105330
" />
<path d="M46190 105844
L46129 105872
L46015 105872
L45962 105844
L45940 105787
L45969 105558
L46004 105501
L46065 105472
L46179 105472
L46233 105501
L46254 105558
L46247 105615
L45954 105672
" />
<path d="M46558 105872
L46504 105844
L46483 105787
L46547 105272
" />
<path d="M47044 105872
L47119 105272
" />
<path d="M47047 105844
L46987 105872
L46872 105872
L46819 105844
L46794 105815
L46772 105758
L46794 105587
L46829 105530
L46862 105501
L46922 105472
L47037 105472
L47090 105501
" />
<path d="M36722 104672
L36722 104072
L36951 104072
L37008 104101
L37037 104130
L37065 104187
L37065 104272
L37037 104330
L37008 104358
L36951 104387
L36722 104387
" />
<path d="M37322 104672
L37322 104272
" />
<path d="M37322 104387
L37351 104330
L37380 104301
L37437 104272
L37494 104272
" />
<path d="M37780 104672
L37722 104644
L37694 104615
L37665 104558
L37665 104387
L37694 104330
L37722 104301
L37780 104272
L37865 104272
L37922 104301
L37951 104330
L37980 104387
L37980 104558
L37951 104615
L37922 104644
L37865 104672
L37780 104672
" />
<path d="M38151 104272
L38380 104272
" />
<path d="M38237 104672
L38237 104158
L38265 104101
L38322 104072
L38380 104072
" />
<path d="M38580 104615
L38608 104644
L38580 104672
L38551 104644
L38580 104615
L38580 104672
" />
<path d="M39237 104072
L39437 104672
L39637 104072
" />
<path d="M39837 104672
L39837 104272
" />
<path d="M39837 104072
L39808 104101
L39837 104130
L39865 104101
L39837 104072
L39837 104130
" />
<path d="M40380 104644
L40322 104672
L40208 104672
L40151 104644
L40122 104615
L40094 104558
L40094 104387
L40122 104330
L40151 104301
L40208 104272
L40322 104272
L40380 104301
" />
<path d="M40551 104272
L40780 104272
" />
<path d="M40637 104072
L40637 104587
L40665 104644
L40722 104672
L40780 104672
" />
<path d="M41065 104672
L41008 104644
L40980 104615
L40951 104558
L40951 104387
L40980 104330
L41008 104301
L41065 104272
L41151 104272
L41208 104301
L41237 104330
L41265 104387
L41265 104558
L41237 104615
L41208 104644
L41151 104672
L41065 104672
" />
<path d="M41522 104672
L41522 104272
" />
<path d="M41522 104387
L41551 104330
L41580 104301
L41637 104272
L41694 104272
" />
<path d="M42265 104072
L42465 104672
L42665 104072
" />
<path d="M42865 104672
L42865 104272
" />
<path d="M42865 104072
L42837 104101
L42865 104130
L42894 104101
L42865 104072
L42865 104130
" />
<path d="M43237 104672
L43180 104644
L43151 104587
L43151 104072
" />
<path d="M43551 104672
L43494 104644
L43465 104587
L43465 104072
" />
<path d="M44037 104672
L44037 104358
L44008 104301
L43951 104272
L43837 104272
L43780 104301
" />
<path d="M44037 104644
L43980 104672
L43837 104672
L43780 104644
L43751 104587
L43751 104530
L43780 104472
L43837 104444
L43980 104444
L44037 104415
" />
<path d="M44322 104672
L44322 104272
" />
<path d="M44322 104387
L44351 104330
L44380 104301
L44437 104272
L44494 104272
" />
<path d="M44694 104672
L44694 104272
" />
<path d="M44694 104387
L44722 104330
L44751 104301
L44808 104272
L44865 104272
" />
<path d="M45294 104644
L45237 104672
L45122 104672
L45065 104644
L45037 104587
L45037 104358
L45065 104301
L45122 104272
L45237 104272
L45294 104301
L45322 104358
L45322 104415
L45037 104472
" />
<path d="M45837 104672
L45837 104358
L45808 104301
L45751 104272
L45637 104272
L45580 104301
" />
<path d="M45837 104644
L45780 104672
L45637 104672
L45580 104644
L45551 104587
L45551 104530
L45580 104472
L45637 104444
L45780 104444
L45837 104415
" />
<path d="M46208 104672
L46151 104644
L46122 104587
L46122 104072
" />
<path d="M36722 103472
L36722 102872
L36951 102872
L37008 102901
L37037 102930
L37065 102987
L37065 103072
L37037 103130
L37008 103158
L36951 103187
L36722 103187
" />
<path d="M37408 103472
L37351 103444
L37322 103387
L37322 102872
" />
<path d="M37894 103472
L37894 103158
L37865 103101
L37808 103072
L37694 103072
L37637 103101
" />
<path d="M37894 103444
L37837 103472
L37694 103472
L37637 103444
L37608 103387
L37608 103330
L37637 103272
L37694 103244
L37837 103244
L37894 103215
" />
<path d="M38437 103444
L38380 103472
L38265 103472
L38208 103444
L38180 103415
L38151 103358
L38151 103187
L38180 103130
L38208 103101
L38265 103072
L38380 103072
L38437 103101
" />
<path d="M38951 103472
L38951 103158
L38922 103101
L38865 103072
L38751 103072
L38694 103101
" />
<path d="M38951 103444
L38894 103472
L38751 103472
L38694 103444
L38665 103387
L38665 103330
L38694 103272
L38751 103244
L38894 103244
L38951 103215
" />
<path d="M39694 103472
L39694 102872
L39922 102872
L39980 102901
L40008 102930
L40037 102987
L40037 103072
L40008 103130
L39980 103158
L39922 103187
L39694 103187
" />
<path d="M40294 103472
L40294 103072
" />
<path d="M40294 102872
L40265 102901
L40294 102930
L40322 102901
L40294 102872
L40294 102930
" />
<path d="M40580 103072
L40580 103472
" />
<path d="M40580 103130
L40608 103101
L40665 103072
L40751 103072
L40808 103101
L40837 103158
L40837 103472
" />
<path d="M41380 103072
L41380 103558
L41351 103615
L41322 103644
L41265 103672
L41180 103672
L41122 103644
" />
<path d="M41380 103444
L41322 103472
L41208 103472
L41151 103444
L41122 103415
L41094 103358
L41094 103187
L41122 103130
L41151 103101
L41208 103072
L41322 103072
L41380 103101
" />
<path d="M41922 103072
L41922 103472
" />
<path d="M41665 103072
L41665 103387
L41694 103444
L41751 103472
L41837 103472
L41894 103444
L41922 103415
" />
<path d="M42208 103472
L42208 103072
" />
<path d="M42208 102872
L42180 102901
L42208 102930
L42237 102901
L42208 102872
L42208 102930
" />
<path d="M42494 103072
L42494 103472
" />
<path d="M42494 103130
L42522 103101
L42579 103072
L42665 103072
L42722 103101
L42751 103158
L42751 103472
" />
<path d="M43122 103472
L43065 103444
L43037 103415
L43008 103358
L43008 103187
L43037 103130
L43065 103101
L43122 103072
L43208 103072
L43265 103101
L43294 103130
L43322 103187
L43322 103358
L43294 103415
L43265 103444
L43208 103472
L43122 103472
" />
<path d="M44351 103472
L44008 103472
" />
<path d="M44179 103472
L44179 102872
L44122 102958
L44065 103015
L44008 103044
" />
<path d="M44694 103130
L44637 103101
L44608 103072
L44580 103015
L44580 102987
L44608 102930
L44637 102901
L44694 102872
L44808 102872
L44865 102901
L44894 102930
L44922 102987
L44922 103015
L44894 103072
L44865 103101
L44808 103130
L44694 103130
L44637 103158
L44608 103187
L44580 103244
L44580 103358
L44608 103415
L44637 103444
L44694 103472
L44808 103472
L44865 103444
L44894 103415
L44922 103358
L44922 103244
L44894 103187
L44865 103158
L44808 103130
" />
<path d="M45380 103158
L45180 103158
" />
<path d="M45180 103472
L45180 102872
L45465 102872
" />
<path d="M45665 102930
L45694 102901
L45751 102872
L45894 102872
L45951 102901
L45980 102930
L46008 102987
L46008 103044
L45980 103130
L45637 103472
L46008 103472
" />
<path d="M46551 102872
L46265 102872
L46237 103158
L46265 103130
L46322 103101
L46465 103101
L46522 103130
L46551 103158
L46580 103215
L46580 103358
L46551 103415
L46522 103444
L46465 103472
L46322 103472
L46265 103444
L46237 103415
" />
<path d="M47122 102872
L46837 102872
L46808 103158
L46837 103130
L46894 103101
L47037 103101
L47094 103130
L47122 103158
L47151 103215
L47151 103358
L47122 103415
L47094 103444
L47037 103472
L46894 103472
L46837 103444
L46808 103415
" />
<path d="M47522 102872
L47580 102872
L47637 102901
L47665 102930
L47694 102987
L47722 103101
L47722 103244
L47694 103358
L47665 103415
L47637 103444
L47580 103472
L47522 103472
L47465 103444
L47437 103415
L47408 103358
L47380 103244
L47380 103101
L47408 102987
L47437 102930
L47465 102901
L47522 102872
" />
<path d="M35980 102630
L35980 112230
" />
<path d="M35980 106230
L77980 106230
" />
<path d="M35980 102630
L77980 102630
" />
<path d="M35980 108630
L77980 108630
" />
<path d="M69180 109830
L69180 112230
" />
<path d="M35980 111030
L77980 111030
" />
<path d="M35980 109830
L77980 109830
" />
<path d="M42580 109830
L42580 111030
" />
</g>
<g style="fill:#000000; fill-opacity:0.0; 
stroke:#000000; stroke-width:98.4252; stroke-opacity:1; 
stroke-linecap:round; stroke-linejoin:round;">
<path d="M38948 13713
L38910 13695
L38892 13676
L38873 13638
L38873 13620
L38892 13582
L38910 13563
L38948 13545
L39023 13545
L39060 13563
L39079 13582
L39098 13620
L39098 13638
L39079 13676
L39060 13695
L39023 13713
L38948 13713
L38910 13732
L38892 13751
L38873 13788
L38873 13863
L38892 13901
L38910 13920
L38948 13938
L39023 13938
L39060 13920
L39079 13901
L39098 13863
L39098 13788
L39079 13751
L39060 13732
L39023 13713
" />
<path d="M39341 13545
L39379 13545
L39416 13563
L39435 13582
L39454 13620
L39473 13695
L39473 13788
L39454 13863
L39435 13901
L39416 13920
L39379 13938
L39341 13938
L39304 13920
L39285 13901
L39266 13863
L39248 13788
L39248 13695
L39266 13620
L39285 13582
L39304 13563
L39341 13545
" />
<path d="M39660 13920
L39660 13938
L39641 13976
L39623 13995
" />
<path d="M39904 13545
L39941 13545
L39979 13563
L39998 13582
L40016 13620
L40035 13695
L40035 13788
L40016 13863
L39998 13901
L39979 13920
L39941 13938
L39904 13938
L39866 13920
L39848 13901
L39829 13863
L39810 13788
L39810 13695
L39829 13620
L39848 13582
L39866 13563
L39904 13545
" />
<path d="M40279 13545
L40316 13545
L40354 13563
L40373 13582
L40391 13620
L40410 13695
L40410 13788
L40391 13863
L40373 13901
L40354 13920
L40316 13938
L40279 13938
L40241 13920
L40223 13901
L40204 13863
L40185 13788
L40185 13695
L40204 13620
L40223 13582
L40241 13563
L40279 13545
" />
<path d="M40654 13545
L40691 13545
L40729 13563
L40748 13582
L40766 13620
L40785 13695
L40785 13788
L40766 13863
L40748 13901
L40729 13920
L40691 13938
L40654 13938
L40616 13920
L40598 13901
L40579 13863
L40560 13788
L40560 13695
L40579 13620
L40598 13582
L40616 13563
L40654 13545
" />
<path d="M40954 13938
L40954 13676
" />
<path d="M40954 13713
L40973 13695
L41010 13676
L41066 13676
L41104 13695
L41122 13732
L41122 13938
" />
<path d="M41122 13732
L41141 13695
L41179 13676
L41235 13676
L41272 13695
L41291 13732
L41291 13938
" />
<path d="M41479 13938
L41479 13676
" />
<path d="M41479 13713
L41497 13695
L41535 13676
L41591 13676
L41629 13695
L41647 13732
L41647 13938
" />
<path d="M41647 13732
L41666 13695
L41704 13676
L41760 13676
L41797 13695
L41816 13732
L41816 13938
" />
<path d="M24606 14173
L56102 14173
" />
<path d="M24606 16732
L24606 13385
" />
<path d="M56102 16732
L56102 13385
" />
<path d="M56102 14173
L55658 14404
" />
<path d="M56102 14173
L55658 13942
" />
<path d="M24606 14173
L25049 14404
" />
<path d="M24606 14173
L25049 13942
" />
<path d="M61061 22515
L61061 22759
L60911 22628
L60911 22684
L60892 22722
L60873 22740
L60836 22759
L60742 22759
L60704 22740
L60686 22722
L60667 22684
L60667 22572
L60686 22534
L60704 22515
" />
<path d="M61061 23003
L61061 23040
L61042 23078
L61023 23097
L60986 23115
L60911 23134
L60817 23134
L60742 23115
L60704 23097
L60686 23078
L60667 23040
L60667 23003
L60686 22965
L60704 22947
L60742 22928
L60817 22909
L60911 22909
L60986 22928
L61023 22947
L61042 22965
L61061 23003
" />
<path d="M60686 23322
L60667 23322
L60629 23303
L60611 23284
" />
<path d="M61061 23565
L61061 23603
L61042 23640
L61023 23659
L60986 23678
L60911 23697
L60817 23697
L60742 23678
L60704 23659
L60686 23640
L60667 23603
L60667 23565
L60686 23528
L60704 23509
L60742 23490
L60817 23472
L60911 23472
L60986 23490
L61023 23509
L61042 23528
L61061 23565
" />
<path d="M61061 23940
L61061 23978
L61042 24015
L61023 24034
L60986 24053
L60911 24071
L60817 24071
L60742 24053
L60704 24034
L60686 24015
L60667 23978
L60667 23940
L60686 23903
L60704 23884
L60742 23865
L60817 23847
L60911 23847
L60986 23865
L61023 23884
L61042 23903
L61061 23940
" />
<path d="M61061 24315
L61061 24353
L61042 24390
L61023 24409
L60986 24428
L60911 24446
L60817 24446
L60742 24428
L60704 24409
L60686 24390
L60667 24353
L60667 24315
L60686 24278
L60704 24259
L60742 24240
L60817 24221
L60911 24221
L60986 24240
L61023 24259
L61042 24278
L61061 24315
" />
<path d="M60667 24615
L60929 24615
" />
<path d="M60892 24615
L60911 24634
L60929 24671
L60929 24728
L60911 24765
L60873 24784
L60667 24784
" />
<path d="M60873 24784
L60911 24803
L60929 24840
L60929 24896
L60911 24934
L60873 24953
L60667 24953
" />
<path d="M60667 25140
L60929 25140
" />
<path d="M60892 25140
L60911 25159
L60929 25196
L60929 25253
L60911 25290
L60873 25309
L60667 25309
" />
<path d="M60873 25309
L60911 25328
L60929 25365
L60929 25421
L60911 25459
L60873 25478
L60667 25478
" />
<path d="M60433 18110
L60433 29921
" />
<path d="M57874 18110
L61220 18110
" />
<path d="M57874 29921
L61220 29921
" />
<path d="M60433 29921
L60202 29477
" />
<path d="M60433 29921
L60663 29477
" />
<path d="M60433 18110
L60202 18553
" />
<path d="M60433 18110
L60663 18553
" />
</g>
<g style="fill:#000000; fill-opacity:0.0; 
stroke:#000000; stroke-width:59.0551; stroke-opacity:1; 
stroke-linecap:round; stroke-linejoin:round;">
<path d="M24606 18110
L24606 29921
" />
<path d="M56102 18110
L24606 18110
" />
<path d="M56102 29921
L56102 18110
" />
<path d="M56102 29921
L24606 29921
" />
</g>
<g style="fill:#000000; fill-opacity:0.0; 
stroke:#000000; stroke-width:120; stroke-opacity:1; 
stroke-linecap:round; stroke-linejoin:round;">
<path d="M49996 29308
L49996 29736
L49968 29822
L49911 29879
L49825 29908
L49768 29908
" />
<path d="M50596 29908
L50253 29908
" />
<path d="M50425 29908
L50425 29308
L50368 29393
L50311 29451
L50253 29479
" />
<path d="M49439 26808
L49439 27293
L49468 27351
L49496 27379
L49553 27408
L49668 27408
L49725 27379
L49753 27351
L49782 27293
L49782 26808
" />
<path d="M50039 27379
L50125 27408
L50268 27408
L50325 27379
L50353 27351
L50382 27293
L50382 27236
L50353 27179
L50325 27151
L50268 27122
L50153 27093
L50096 27065
L50068 27036
L50039 26979
L50039 26922
L50068 26865
L50096 26836
L50153 26808
L50296 26808
L50382 26836
" />
<path d="M50839 27093
L50925 27122
L50953 27151
L50982 27208
L50982 27293
L50953 27351
L50925 27379
L50868 27408
L50639 27408
L50639 26808
L50839 26808
L50896 26836
L50925 26865
L50953 26922
L50953 26979
L50925 27036
L50896 27065
L50839 27093
L50639 27093
" />
</g>
<g style="fill:#000000; fill-opacity:0.0; 
stroke:#000000; stroke-width:107; stroke-opacity:1; 
stroke-linecap:round; stroke-linejoin:round;">
<path d="M37396 20082
L37396 20569
L37376 20666
L37335 20731
L37274 20763
L37233 20763
" />
<path d="M37804 20082
L37600 20082
L37580 20407
L37600 20374
L37641 20342
L37743 20342
L37783 20374
L37804 20407
L37824 20471
L37824 20634
L37804 20698
L37783 20731
L37743 20763
L37641 20763
L37600 20731
L37580 20698
" />
</g>
<g style="fill:#000000; fill-opacity:0.0; 
stroke:#000000; stroke-width:120; stroke-opacity:1; 
stroke-linecap:round; stroke-linejoin:round;">
</g>
<g style="fill:#000000; fill-opacity:0.0; 
stroke:#000000; stroke-width:100; stroke-opacity:1; 
stroke-linecap:round; stroke-linejoin:round;">
<path d="M32058 20731
L32058 20131
L32153 20131
L32210 20159
L32248 20216
L32267 20273
L32286 20388
L32286 20473
L32267 20588
L32248 20645
L32210 20702
L32153 20731
L32058 20731
" />
<path d="M32458 20731
L32458 20131
" />
<path d="M32858 20159
L32820 20131
L32763 20131
L32706 20159
L32667 20216
L32648 20273
L32629 20388
L32629 20473
L32648 20588
L32667 20645
L32706 20702
L32763 20731
L32801 20731
L32858 20702
L32877 20673
L32877 20473
L32801 20473
" />
<path d="M33048 20731
L33048 20131
" />
<path d="M33182 20131
L33410 20131
" />
<path d="M33296 20731
L33296 20131
" />
<path d="M33525 20559
L33715 20559
" />
<path d="M33486 20731
L33620 20131
L33753 20731
" />
<path d="M34077 20731
L33886 20731
L33886 20131
" />
</g>
<g style="fill:#000000; fill-opacity:0.0; 
stroke:#000000; stroke-width:120; stroke-opacity:1; 
stroke-linecap:round; stroke-linejoin:round;">
</g>
<g style="fill:#000000; fill-opacity:0.0; 
stroke:#000000; stroke-width:80; stroke-opacity:1; 
stroke-linecap:round; stroke-linejoin:round;">
<path d="M52374 19394
L52374 19760
" />
<path d="M52255 19184
L52136 19577
L52446 19577
" />
<path d="M52589 19210
L52922 19210
L52708 19760
" />
<path d="M53208 19210
L53255 19210
L53303 19236
L53327 19263
L53351 19315
L53374 19420
L53374 19551
L53351 19656
L53327 19708
L53303 19734
L53255 19760
L53208 19760
L53160 19734
L53136 19708
L53113 19656
L53089 19551
L53089 19420
L53113 19315
L53136 19263
L53160 19236
L53208 19210
" />
<path d="M28939 23412
L29306 23412
" />
<path d="M28730 23531
L29123 23650
L29123 23341
" />
<path d="M28756 23198
L28756 22864
L29306 23079
" />
<path d="M28756 22579
L28756 22531
L28782 22483
L28808 22460
L28861 22436
L28966 22412
L29096 22412
L29201 22436
L29254 22460
L29280 22483
L29306 22531
L29306 22579
L29280 22626
L29254 22650
L29201 22674
L29096 22698
L28966 22698
L28861 22674
L28808 22650
L28782 22626
L28756 22579
" />
<path d="M27928 23376
L27928 23662
" />
<path d="M27928 23519
L27378 23519
L27457 23567
L27509 23614
L27535 23662
" />
<path d="M27378 23067
L27378 23019
L27404 22971
L27430 22948
L27483 22924
L27588 22900
L27719 22900
L27823 22924
L27876 22948
L27902 22971
L27928 23019
L27928 23067
L27902 23114
L27876 23138
L27823 23162
L27719 23186
L27588 23186
L27483 23162
L27430 23138
L27404 23114
L27378 23067
" />
<path d="M27928 22686
L27378 22686
" />
<path d="M27928 22400
L27614 22614
" />
<path d="M27378 22400
L27692 22686
" />
<path d="M34512 25336
L34512 25622
L34493 25679
L34455 25717
L34398 25736
L34359 25736
" />
<path d="M34874 25470
L34874 25736
" />
<path d="M34779 25317
L34683 25603
L34931 25603
" />
</g>
<g style="fill:#000000; fill-opacity:0.0; 
stroke:#000000; stroke-width:60; stroke-opacity:1; 
stroke-linecap:round; stroke-linejoin:round;">
<path d="M41502 18400
L41502 18685
L41483 18742
L41444 18781
L41387 18800
L41349 18800
" />
<path d="M41749 18571
L41711 18552
L41692 18533
L41673 18495
L41673 18476
L41692 18438
L41711 18419
L41749 18400
L41825 18400
L41864 18419
L41883 18438
L41902 18476
L41902 18495
L41883 18533
L41864 18552
L41825 18571
L41749 18571
L41711 18590
L41692 18609
L41673 18647
L41673 18723
L41692 18761
L41711 18781
L41749 18800
L41825 18800
L41864 18781
L41883 18761
L41902 18723
L41902 18647
L41883 18609
L41864 18590
L41825 18571
" />
<path d="M52186 22871
L52472 22871
L52529 22890
L52567 22928
L52586 22985
L52586 23023
" />
<path d="M52186 22718
L52186 22471
L52339 22604
L52339 22547
L52358 22509
L52377 22490
L52415 22471
L52510 22471
L52548 22490
L52567 22509
L52586 22547
L52586 22661
L52567 22699
L52548 22718
" />
<path d="M43953 26674
L44167 26674
L44210 26689
L44239 26717
L44253 26760
L44253 26789
" />
<path d="M43953 26560
L43953 26360
L44253 26489
" />
<path d="M42378 26674
L42592 26674
L42635 26689
L42664 26717
L42678 26760
L42678 26789
" />
<path d="M42378 26403
L42378 26460
L42392 26489
L42407 26503
L42449 26531
L42507 26546
L42621 26546
L42649 26531
L42664 26517
L42678 26489
L42678 26431
L42664 26403
L42649 26389
L42621 26374
L42549 26374
L42521 26389
L42507 26403
L42492 26431
L42492 26489
L42507 26517
L42521 26531
L42549 26546
" />
</g>
<g style="fill:#000000; fill-opacity:0.0; 
stroke:#000000; stroke-width:35; stroke-opacity:1; 
stroke-linecap:round; stroke-linejoin:round;">
<path d="M49494 18509
L49494 18209
L49565 18209
L49608 18223
L49637 18252
L49651 18281
L49665 18338
L49665 18381
L49651 18438
L49637 18466
L49608 18495
L49565 18509
L49494 18509
" />
<path d="M49951 18509
L49780 18509
" />
<path d="M49865 18509
L49865 18209
L49837 18252
L49808 18281
L49780 18295
" />
<path d="M48208 20609
L48208 20309
L48322 20309
L48351 20323
L48365 20338
L48380 20366
L48380 20409
L48365 20438
L48351 20452
L48322 20466
L48208 20466
" />
<path d="M48480 20309
L48551 20609
L48608 20395
L48665 20609
L48737 20309
" />
<path d="M49022 20609
L48922 20466
" />
<path d="M48851 20609
L48851 20309
L48965 20309
L48994 20323
L49008 20338
L49022 20366
L49022 20409
L49008 20438
L48994 20452
L48965 20466
L48851 20466
" />
<path d="M49294 20609
L49151 20609
L49151 20309
" />
<path d="M49394 20452
L49494 20452
" />
<path d="M49537 20609
L49394 20609
L49394 20309
L49537 20309
" />
<path d="M49665 20609
L49665 20309
L49737 20309
L49780 20323
L49808 20352
L49822 20381
L49837 20438
L49837 20481
L49822 20538
L49808 20566
L49780 20595
L49737 20609
L49665 20609
" />
<path d="M29021 18706
L29021 18406
L29093 18406
L29136 18420
L29164 18449
L29179 18477
L29193 18535
L29193 18577
L29179 18635
L29164 18663
L29136 18692
L29093 18706
L29021 18706
" />
<path d="M29307 18435
L29321 18420
L29350 18406
L29421 18406
L29450 18420
L29464 18435
L29479 18463
L29479 18492
L29464 18535
L29293 18706
L29479 18706
" />
<path d="M27621 20506
L27621 20749
L27636 20777
L27650 20792
L27679 20806
L27736 20806
L27764 20792
L27779 20777
L27793 20749
L27793 20506
" />
<path d="M27921 20792
L27964 20806
L28036 20806
L28064 20792
L28079 20777
L28093 20749
L28093 20720
L28079 20692
L28064 20677
L28036 20663
L27979 20649
L27950 20635
L27936 20620
L27921 20592
L27921 20563
L27936 20535
L27950 20520
L27979 20506
L28050 20506
L28093 20520
" />
<path d="M28221 20649
L28321 20649
" />
<path d="M28364 20806
L28221 20806
L28221 20506
L28364 20506
" />
<path d="M28664 20806
L28564 20663
" />
<path d="M28493 20806
L28493 20506
L28607 20506
L28636 20520
L28650 20535
L28664 20563
L28664 20606
L28650 20635
L28636 20649
L28607 20663
L28493 20663
" />
<path d="M28936 20806
L28793 20806
L28793 20506
" />
<path d="M29036 20649
L29136 20649
" />
<path d="M29179 20806
L29036 20806
L29036 20506
L29179 20506
" />
<path d="M29307 20806
L29307 20506
L29379 20506
L29421 20520
L29450 20549
L29464 20577
L29479 20635
L29479 20677
L29464 20735
L29450 20763
L29421 20792
L29379 20806
L29307 20806
" />
</g>
<g style="fill:#000000; fill-opacity:0.0; 
stroke:#000000; stroke-width:113; stroke-opacity:1; 
stroke-linecap:round; stroke-linejoin:round;">
</g>
<g style="fill:#000000; fill-opacity:0.0; 
stroke:#000000; stroke-width:112.5; stroke-opacity:1; 
stroke-linecap:round; stroke-linejoin:round;">
<path d="M37649 20174
L37649 20660
L37670 20717
L37692 20745
L37734 20774
L37820 20774
L37863 20745
L37884 20717
L37906 20660
L37906 20174
" />
<path d="M38356 20774
L38099 20774
" />
<path d="M38227 20774
L38227 20174
L38184 20260
L38142 20317
L38099 20345
" />
</g>
<g style="fill:#000000; fill-opacity:0.0; 
stroke:#000000; stroke-width:113; stroke-opacity:1; 
stroke-linecap:round; stroke-linejoin:round;">
</g>
<g style="fill:#000000; fill-opacity:0.0; 
stroke:#000000; stroke-width:112.5; stroke-opacity:1; 
stroke-linecap:round; stroke-linejoin:round;">
<path d="M36063 25874
L36063 25274
L36234 25274
L36277 25302
L36299 25331
L36320 25388
L36320 25474
L36299 25531
L36277 25560
L36234 25588
L36063 25588
" />
<path d="M36513 25874
L36513 25274
" />
<path d="M36984 25817
L36963 25845
L36899 25874
L36856 25874
L36792 25845
L36749 25788
L36727 25731
L36706 25617
L36706 25531
L36727 25417
L36749 25360
L36792 25302
L36856 25274
L36899 25274
L36963 25302
L36984 25331
" />
<path d="M37413 25874
L37156 25874
" />
<path d="M37284 25874
L37284 25274
L37242 25360
L37199 25417
L37156 25445
" />
<path d="M37670 25531
L37627 25502
L37606 25474
L37584 25417
L37584 25388
L37606 25331
L37627 25302
L37670 25274
L37756 25274
L37799 25302
L37820 25331
L37842 25388
L37842 25417
L37820 25474
L37799 25502
L37756 25531
L37670 25531
L37627 25560
L37606 25588
L37584 25645
L37584 25760
L37606 25817
L37627 25845
L37670 25874
L37756 25874
L37799 25845
L37820 25817
L37842 25760
L37842 25645
L37820 25588
L37799 25560
L37756 25531
" />
<path d="M38184 25560
L38034 25560
" />
<path d="M38034 25874
L38034 25274
L38249 25274
" />
<path d="M38399 25331
L38420 25302
L38463 25274
L38570 25274
L38613 25302
L38634 25331
L38656 25388
L38656 25445
L38634 25531
L38377 25874
L38656 25874
" />
<path d="M39063 25274
L38849 25274
L38827 25560
L38849 25531
L38892 25502
L38999 25502
L39042 25531
L39063 25560
L39084 25617
L39084 25760
L39063 25817
L39042 25845
L38999 25874
L38892 25874
L38849 25845
L38827 25817
" />
<path d="M39492 25274
L39277 25274
L39256 25560
L39277 25531
L39320 25502
L39427 25502
L39470 25531
L39492 25560
L39513 25617
L39513 25760
L39492 25817
L39470 25845
L39427 25874
L39320 25874
L39277 25845
L39256 25817
" />
<path d="M39792 25274
L39834 25274
L39877 25302
L39899 25331
L39920 25388
L39942 25502
L39942 25645
L39920 25760
L39899 25817
L39877 25845
L39834 25874
L39792 25874
L39749 25845
L39727 25817
L39706 25760
L39684 25645
L39684 25502
L39706 25388
L39727 25331
L39749 25302
L39792 25274
" />
</g>
<g style="fill:#000000; fill-opacity:0.0; 
stroke:#000000; stroke-width:113; stroke-opacity:1; 
stroke-linecap:round; stroke-linejoin:round;">
</g>
<g style="fill:#000000; fill-opacity:0.0; 
stroke:#000000; stroke-width:59.0551; stroke-opacity:1; 
stroke-linecap:round; stroke-linejoin:round;">
<path d="M32227 28280
L32245 28224
L32245 28130
L32227 28093
L32208 28074
L32170 28055
L32133 28055
L32095 28074
L32077 28093
L32058 28130
L32039 28205
L32020 28243
L32002 28262
L31964 28280
L31927 28280
L31889 28262
L31871 28243
L31852 28205
L31852 28112
L31871 28055
" />
<path d="M31852 27924
L32245 27830
L31964 27755
L32245 27680
L31852 27587
" />
<path d="M32245 27230
L32245 27455
" />
<path d="M32245 27343
L31852 27343
L31908 27380
L31946 27418
L31964 27455
" />
<path d="M29490 28327
L29302 28458
" />
<path d="M29490 28552
L29096 28552
L29096 28402
L29115 28365
L29133 28346
L29171 28327
L29227 28327
L29265 28346
L29283 28365
L29302 28402
L29302 28552
" />
<path d="M29283 28158
L29283 28027
" />
<path d="M29490 27971
L29490 28158
L29096 28158
L29096 27971
" />
<path d="M29471 27821
L29490 27765
L29490 27671
L29471 27634
L29452 27615
L29415 27596
L29377 27596
L29340 27615
L29321 27634
L29302 27671
L29283 27746
L29265 27784
L29246 27802
L29208 27821
L29171 27821
L29133 27802
L29115 27784
L29096 27746
L29096 27652
L29115 27596
" />
<path d="M29283 27427
L29283 27296
" />
<path d="M29490 27240
L29490 27427
L29096 27427
L29096 27240
" />
<path d="M29096 27127
L29096 26902
" />
<path d="M29490 27015
L29096 27015
" />
</g>
<g style="fill:#000000; fill-opacity:0.0; 
stroke:#000000; stroke-width:60; stroke-opacity:1; 
stroke-linecap:round; stroke-linejoin:round;">
<path d="M39752 25006
L40086 25456
" />
<path d="M40086 25006
L39752 25456
" />
<path d="M40538 25456
L40252 25456
" />
<path d="M40395 25456
L40395 25006
L40347 25071
L40300 25114
L40252 25135
" />
<path d="M39062 27649
L39086 27628
L39133 27606
L39252 27606
L39300 27628
L39324 27649
L39347 27692
L39347 27735
L39324 27799
L39038 28056
L39347 28056
" />
<path d="M39657 27606
L39705 27606
L39752 27628
L39776 27649
L39800 27692
L39824 27778
L39824 27885
L39800 27971
L39776 28014
L39752 28035
L39705 28056
L39657 28056
L39609 28035
L39586 28014
L39562 27971
L39538 27885
L39538 27778
L39562 27692
L39586 27649
L39609 27628
L39657 27606
" />
<path d="M40038 28056
L40038 27606
L40205 27928
L40371 27606
L40371 28056
" />
<path d="M40609 28056
L40609 27606
" />
<path d="M40824 28056
L40824 27821
L40800 27778
L40752 27756
L40681 27756
L40633 27778
L40609 27799
" />
<path d="M41014 27756
L41276 27756
L41014 28056
L41276 28056
" />
</g>
<g style="fill:#000000; fill-opacity:0.0; 
stroke:#000000; stroke-width:80; stroke-opacity:1; 
stroke-linecap:round; stroke-linejoin:round;">
<path d="M46580 27035
L46599 27054
L46618 27111
L46618 27149
L46599 27206
L46561 27244
L46523 27263
L46447 27282
L46390 27282
L46313 27263
L46275 27244
L46237 27206
L46218 27149
L46218 27111
L46237 27054
L46256 27035
" />
<path d="M46218 26673
L46218 26863
L46409 26882
L46390 26863
L46370 26825
L46370 26730
L46390 26692
L46409 26673
L46447 26654
L46542 26654
L46580 26673
L46599 26692
L46618 26730
L46618 26825
L46599 26863
L46580 26882
" />
<path d="M37925 28863
L37906 28883
L37849 28902
L37811 28902
L37754 28883
L37715 28844
L37696 28806
L37677 28730
L37677 28673
L37696 28597
L37715 28559
L37754 28521
L37811 28502
L37849 28502
L37906 28521
L37925 28540
" />
<path d="M38058 28502
L38306 28502
L38173 28654
L38230 28654
L38268 28673
L38287 28692
L38306 28730
L38306 28825
L38287 28863
L38268 28883
L38230 28902
L38115 28902
L38077 28883
L38058 28863
" />
<path d="M42256 28863
L42237 28883
L42179 28902
L42141 28902
L42084 28883
L42046 28844
L42027 28806
L42008 28730
L42008 28673
L42027 28597
L42046 28559
L42084 28521
L42141 28502
L42179 28502
L42237 28521
L42256 28540
" />
<path d="M42599 28635
L42599 28902
" />
<path d="M42503 28483
L42408 28768
L42656 28768
" />
<path d="M25517 27822
L25536 27841
L25555 27898
L25555 27936
L25536 27994
L25498 28032
L25460 28051
L25384 28070
L25327 28070
L25250 28051
L25212 28032
L25174 27994
L25155 27936
L25155 27898
L25174 27841
L25193 27822
" />
<path d="M25555 27441
L25555 27670
" />
<path d="M25555 27555
L25155 27555
L25212 27594
L25250 27632
L25269 27670
" />
</g>
<g style="fill:#000000; fill-opacity:0.0; 
stroke:#000000; stroke-width:50; stroke-opacity:1; 
stroke-linecap:round; stroke-linejoin:round;">
<path d="M27954 27805
L27968 27820
L27982 27863
L27982 27891
L27968 27934
L27939 27963
L27911 27977
L27854 27991
L27811 27991
L27754 27977
L27725 27963
L27696 27934
L27682 27891
L27682 27863
L27696 27820
L27711 27805
" />
<path d="M27711 27691
L27696 27677
L27682 27648
L27682 27577
L27696 27548
L27711 27534
L27739 27520
L27768 27520
L27811 27534
L27982 27705
L27982 27520
" />
<path d="M26983 28023
L26983 28166
" />
<path d="M26983 28095
L26683 28095
L26726 28119
L26755 28142
L26769 28166
" />
<path d="M26683 27869
L26683 27845
L26697 27821
L26712 27809
L26740 27797
L26797 27785
L26869 27785
L26926 27797
L26955 27809
L26969 27821
L26983 27845
L26983 27869
L26969 27892
L26955 27904
L26926 27916
L26869 27928
L26797 27928
L26740 27916
L26712 27904
L26697 27892
L26683 27869
" />
<path d="M26783 27571
L26983 27571
" />
<path d="M26783 27678
L26940 27678
L26969 27666
L26983 27642
L26983 27607
L26969 27583
L26955 27571
" />
<path d="M26826 27369
L26826 27452
" />
<path d="M26983 27452
L26683 27452
L26683 27333
" />
</g>
<g style="fill:#000000; fill-opacity:0.0; 
stroke:#000000; stroke-width:80; stroke-opacity:1; 
stroke-linecap:round; stroke-linejoin:round;">
</g>
<g style="fill:#000000; fill-opacity:0.0; 
stroke:#000000; stroke-width:75; stroke-opacity:1; 
stroke-linecap:round; stroke-linejoin:round;">
<path d="M27369 26970
L27369 26741
" />
<path d="M27483 26855
L27255 26855
" />
</g>
<g style="fill:#000000; fill-opacity:0.0; 
stroke:#000000; stroke-width:80; stroke-opacity:1; 
stroke-linecap:round; stroke-linejoin:round;">
</g>
<g style="fill:#000000; fill-opacity:0.0; 
stroke:#000000; stroke-width:120; stroke-opacity:1; 
stroke-linecap:round; stroke-linejoin:round;">
<path d="M52170 27365
L52598 27365
L52684 27393
L52741 27451
L52770 27536
L52770 27593
" />
<path d="M52227 27108
L52198 27079
L52170 27022
L52170 26879
L52198 26822
L52227 26793
L52284 26765
L52341 26765
L52427 26793
L52770 27136
L52770 26765
" />
<path d="M56456 27836
L56484 27751
L56513 27722
L56570 27693
L56656 27693
L56713 27722
L56741 27751
L56770 27808
L56770 28036
L56170 28036
L56170 27836
L56198 27779
L56227 27751
L56284 27722
L56341 27722
L56398 27751
L56427 27779
L56456 27836
L56456 28036
" />
<path d="M56598 27465
L56598 27179
" />
<path d="M56770 27522
L56170 27322
L56770 27122
" />
<path d="M56170 27008
L56170 26665
" />
<path d="M56770 26836
L56170 26836
" />
<path d="M56170 26551
L56170 26208
" />
<path d="M56770 26379
L56170 26379
" />
<path d="M55673 23094
L56159 23094
L56216 23066
L56244 23037
L56273 22980
L56273 22866
L56244 22809
L56216 22780
L56159 22752
L55673 22752
" />
<path d="M55730 22494
L55702 22466
L55673 22409
L55673 22266
L55702 22209
L55730 22180
L55787 22152
L55844 22152
L55930 22180
L56273 22523
L56273 22152
" />
<path d="M52873 24466
L52873 24752
L52273 24752
" />
<path d="M52873 24266
L52273 24266
L52702 24066
L52273 23866
L52873 23866
" />
<path d="M52273 23637
L52273 23237
L52873 23494
" />
<path d="M52530 22923
L52502 22980
L52473 23009
L52416 23037
L52387 23037
L52330 23009
L52302 22980
L52273 22923
L52273 22809
L52302 22752
L52330 22723
L52387 22694
L52416 22694
L52473 22723
L52502 22752
L52530 22809
L52530 22923
L52559 22980
L52587 23009
L52644 23037
L52759 23037
L52816 23009
L52844 22980
L52873 22923
L52873 22809
L52844 22752
L52816 22723
L52759 22694
L52644 22694
L52587 22723
L52559 22752
L52530 22809
" />
<path d="M52273 22323
L52273 22266
L52302 22209
L52330 22180
L52387 22152
L52502 22123
L52644 22123
L52759 22152
L52816 22180
L52844 22209
L52873 22266
L52873 22323
L52844 22380
L52816 22409
L52759 22437
L52644 22466
L52502 22466
L52387 22437
L52330 22409
L52302 22380
L52273 22323
" />
<path d="M52273 21580
L52273 21866
L52559 21894
L52530 21866
L52502 21809
L52502 21666
L52530 21609
L52559 21580
L52616 21552
L52759 21552
L52816 21580
L52844 21609
L52873 21666
L52873 21809
L52844 21866
L52816 21894
" />
<path d="M52816 20952
L52844 20980
L52873 21066
L52873 21123
L52844 21209
L52787 21266
L52730 21294
L52616 21323
L52530 21323
L52416 21294
L52359 21266
L52302 21209
L52273 21123
L52273 21066
L52302 20980
L52330 20952
" />
<path d="M52273 20780
L52273 20437
" />
<path d="M52873 20609
L52273 20609
" />
</g>
<g style="fill:#000000; fill-opacity:0.0; 
stroke:#000000; stroke-width:50; stroke-opacity:1; 
stroke-linecap:round; stroke-linejoin:round;">
<path d="M47796 31215
L52596 31215
" />
<path d="M52596 31215
L52596 24515
" />
<path d="M52596 24515
L47796 24515
" />
<path d="M47796 24515
L47796 31215
" />
</g>
<g style="fill:#000000; fill-opacity:0.0; 
stroke:#000000; stroke-width:120; stroke-opacity:1; 
stroke-linecap:round; stroke-linejoin:round;">
<path d="M39039 19988
L31039 19988
" />
<path d="M31039 19988
L31039 18988
" />
<path d="M31039 18988
L39039 18988
" />
<path d="M39039 18988
L39039 19988
" />
<path d="M38039 18988
L38039 19988
" />
</g>
<g style="fill:#000000; fill-opacity:0.0; 
stroke:#000000; stroke-width:80; stroke-opacity:1; 
stroke-linecap:round; stroke-linejoin:round;">
<path d="M51255 19488
L51455 19488
" />
<path d="M54255 19488
L54055 19488
" />
<path d="M54055 19488
L54055 19088
" />
<path d="M54055 19088
L51455 19088
" />
<path d="M51455 19088
L51455 19888
" />
<path d="M51455 19888
L54055 19888
" />
<path d="M54055 19888
L54055 19488
" />
<path d="M51455 19288
L51655 19088
" />
<path d="M29133 21531
L29133 21731
" />
<path d="M29133 24531
L29133 24331
" />
<path d="M29133 24331
L29533 24331
" />
<path d="M29533 24331
L29533 21731
" />
<path d="M29533 21731
L28733 21731
" />
<path d="M28733 21731
L28733 24331
" />
<path d="M28733 24331
L29133 24331
" />
<path d="M29333 21731
L29533 21931
" />
<path d="M27755 21531
L27755 21731
" />
<path d="M27755 24531
L27755 24331
" />
<path d="M27755 24331
L28155 24331
" />
<path d="M28155 24331
L28155 21731
" />
<path d="M28155 21731
L27355 21731
" />
<path d="M27355 21731
L27355 24331
" />
<path d="M27355 24331
L27755 24331
" />
<path d="M27955 21731
L28155 21931
" />
</g>
<g style="fill:#000000; fill-opacity:0.0; 
stroke:#000000; stroke-width:120; stroke-opacity:1; 
stroke-linecap:round; stroke-linejoin:round;">
<path d="M32145 26074
L32145 27074
" />
<path d="M37145 27074
L37145 26074
" />
<path d="M32145 26074
L37145 26074
" />
<path d="M37145 27074
L32145 27074
" />
</g>
<g style="fill:#000000; fill-opacity:0.0; 
stroke:#000000; stroke-width:60; stroke-opacity:1; 
stroke-linecap:round; stroke-linejoin:round;">
<path d="M40035 19988
L40035 18988
" />
<path d="M40035 18988
L43035 18988
" />
<path d="M43035 18988
L43035 19988
" />
<path d="M43035 19988
L40035 19988
" />
<path d="M41035 18988
L41035 19988
" />
<path d="M51074 21137
L52074 21137
" />
<path d="M52074 21137
L52074 24137
" />
<path d="M52074 24137
L51074 24137
" />
<path d="M51074 24137
L51074 21137
" />
<path d="M52074 22137
L51074 22137
" />
<path d="M45381 27574
L44381 27574
" />
<path d="M44381 27574
L44381 25574
" />
<path d="M44381 25574
L45381 25574
" />
<path d="M45381 25574
L45381 27574
" />
<path d="M43807 27574
L42807 27574
" />
<path d="M42807 27574
L42807 25574
" />
<path d="M42807 25574
L43807 25574
" />
<path d="M43807 25574
L43807 27574
" />
</g>
<g style="fill:#000000; fill-opacity:0.0; 
stroke:#000000; stroke-width:100; stroke-opacity:1; 
stroke-linecap:round; stroke-linejoin:round;">
<path d="M49735 19988
L49735 18988
" />
</g>
<g style="fill:#000000; fill-opacity:0.0; 
stroke:#000000; stroke-width:60; stroke-opacity:1; 
stroke-linecap:round; stroke-linejoin:round;">
<path d="M48654.8 19104.1 A600 600 0.0 0 0 48515.7 19488.2 " />
<path d="M48516.5 19488.2 A599.256 599.256 0.0 0 0 48667.6 19886.1 " />
<path d="M49715 19488.2 A599.27 599.27 0.0 0 0 49570.8 19098.2 " />
<path d="M49576.7 19872.3 A600 600 0.0 0 0 49715.7 19488.2 " />
<path d="M49603.6 19138.9 A600 600 0.0 0 0 49115.7 18888.2 " />
<path d="M49115.7 18888.2 A600 600 0.0 0 0 48635.9 19127.9 " />
<path d="M49115.7 20087.5 A599.294 599.294 0.0 0 0 49588.6 19856.3 " />
<path d="M48642.3 19856.8 A600 600 0.0 0 0 49115.7 20088.2 " />
<path d="M49115.7 19238.2 A250 250 0.0 0 0 48865.7 19488.2 " />
<path d="M49115.7 19088.2 A400 400 0.0 0 0 48715.7 19488.2 " />
<path d="M49115.7 19738.2 A250 250 0.0 0 0 49365.7 19488.2 " />
<path d="M49115.7 19888.2 A400 400 0.0 0 0 49515.7 19488.2 " />
</g>
<g style="fill:#000000; fill-opacity:0.0; 
stroke:#000000; stroke-width:100; stroke-opacity:1; 
stroke-linecap:round; stroke-linejoin:round;">
<path d="M49729.5 18975 A800 800 0.0 0 0 49115.7 18688.2 " />
<path d="M49115.7 18689.2 A799 799 0.0 0 0 48410.9 19111.9 " />
<path d="M49117.1 20287.2 A798.972 798.972 0.0 0 0 49726 20003.9 " />
<path d="M48421.5 19885.8 A800 800 0.0 0 0 49115.7 20288.2 " />
<path d="M48411.4 19108.9 A800 800 0.0 0 0 48315.7 19488.2 " />
<path d="M48316.2 19488.2 A799.576 799.576 0.0 0 0 48434.7 19907.2 " />
<path d="M29263 20185
L29263 19185
" />
</g>
<g style="fill:#000000; fill-opacity:0.0; 
stroke:#000000; stroke-width:60; stroke-opacity:1; 
stroke-linecap:round; stroke-linejoin:round;">
<path d="M28182.3 19301 A600 600 0.0 0 0 28043.3 19685 " />
<path d="M28044.1 19685 A599.256 599.256 0.0 0 0 28195.2 20082.9 " />
<path d="M29242.6 19685 A599.27 599.27 0.0 0 0 29098.3 19295 " />
<path d="M29104.3 20069.1 A600 600 0.0 0 0 29243.3 19685 " />
<path d="M29131.2 19335.8 A600 600 0.0 0 0 28643.3 19085 " />
<path d="M28643.3 19085 A600 600 0.0 0 0 28163.5 19324.8 " />
<path d="M28643.3 20284.3 A599.294 599.294 0.0 0 0 29116.2 20053.2 " />
<path d="M28169.9 20053.6 A600 600 0.0 0 0 28643.3 20285 " />
<path d="M28643.3 19435 A250 250 0.0 0 0 28393.3 19685 " />
<path d="M28643.3 19285 A400 400 0.0 0 0 28243.3 19685 " />
<path d="M28643.3 19935 A250 250 0.0 0 0 28893.3 19685 " />
<path d="M28643.3 20085 A400 400 0.0 0 0 29043.3 19685 " />
</g>
<g style="fill:#000000; fill-opacity:0.0; 
stroke:#000000; stroke-width:100; stroke-opacity:1; 
stroke-linecap:round; stroke-linejoin:round;">
<path d="M29257 19171.9 A800 800 0.0 0 0 28643.3 18885 " />
<path d="M28643.3 18886 A799 799 0.0 0 0 27938.5 19308.7 " />
<path d="M28644.7 20484 A798.972 798.972 0.0 0 0 29253.6 20200.7 " />
<path d="M27949.1 20082.6 A800 800 0.0 0 0 28643.3 20485 " />
<path d="M27938.9 19305.8 A800 800 0.0 0 0 27843.3 19685 " />
<path d="M27843.7 19685 A799.576 799.576 0.0 0 0 27962.3 20104 " />
</g>
<g style="fill:#000000; fill-opacity:0.0; 
stroke:#000000; stroke-width:150; stroke-opacity:1; 
stroke-linecap:round; stroke-linejoin:round;">
<path d="M30992 21031
L44992 21031
" />
<path d="M45392 21731
L30592 21731
" />
<path d="M30992 25031
L44992 25031
" />
<path d="M45392 24331
L30592 24331
" />
</g>
<g style="fill:#000000; fill-opacity:0.0; 
stroke:#000000; stroke-width:100; stroke-opacity:1; 
stroke-linecap:round; stroke-linejoin:round;">
<path d="M32192 23531
L43792 23531
" />
<path d="M43792 22531
L32192 22531
" />
<path d="M38492 22531
L38492 23531
" />
<path d="M37492 22531
L37492 23531
" />
</g>
<g style="fill:#000000; fill-opacity:0.0; 
stroke:#000000; stroke-width:150; stroke-opacity:1; 
stroke-linecap:round; stroke-linejoin:round;">
<path d="M30992 22531
L30992 23531
" />
</g>
<g style="fill:#000000; fill-opacity:0.0; 
stroke:#000000; stroke-width:100; stroke-opacity:1; 
stroke-linecap:round; stroke-linejoin:round;">
<path d="M31492.1 23031.5 A500 500 0.0 0 0 30992.1 22531.5 " />
<path d="M30992.1 23531.5 A500 500 0.0 0 0 31492.1 23031.5 " />
</g>
<g style="fill:#000000; fill-opacity:0.0; 
stroke:#000000; stroke-width:150; stroke-opacity:1; 
stroke-linecap:round; stroke-linejoin:round;">
<path d="M30992 23531
L30592 23531
" />
<path d="M30992 22531
L30592 22531
" />
</g>
<g style="fill:#000000; fill-opacity:0.0; 
stroke:#000000; stroke-width:100; stroke-opacity:1; 
stroke-linecap:round; stroke-linejoin:round;">
<path d="M32192 22531
L32192 23531
" />
<path d="M43792 23531
L43792 22531
" />
</g>
<g style="fill:#000000; fill-opacity:0.0; 
stroke:#000000; stroke-width:150; stroke-opacity:1; 
stroke-linecap:round; stroke-linejoin:round;">
<path d="M44992 21031
L44992 25031
" />
<path d="M30992 25031
L30992 21031
" />
<path d="M45392 21731
L45392 24331
" />
<path d="M30592 24331
L30592 21731
" />
</g>
<g style="fill:#000000; fill-opacity:0.0; 
stroke:#000000; stroke-width:59.0551; stroke-opacity:1; 
stroke-linecap:round; stroke-linejoin:round;">
<circle cx="30708.7" cy="27755.9" r="590.551" /> 
<path d="M29724 27755
L29724 26771
" />
<path d="M29724 26771
L31692 26771
" />
<path d="M31692 26771
L31692 28740
" />
<path d="M31692 28740
L29724 28740
" />
<path d="M29724 28740
L29724 27755
" />
</g>
<g style="fill:#000000; fill-opacity:0.0; 
stroke:#000000; stroke-width:100; stroke-opacity:1; 
stroke-linecap:round; stroke-linejoin:round;">
<path d="M42357.5 26574.8 A900 900 0.0 0 0 41457.5 25674.8 " />
<path d="M38857 27274
L41457 27274
" />
<path d="M41457 25874
L38857 25874
" />
<path d="M41457.5 27274.8 A700 700 0.0 0 0 42157.5 26574.8 " />
<path d="M42157.5 26574.8 A700 700 0.0 0 0 41457.5 25874.8 " />
<path d="M38157.5 26574.8 A700 700 0.0 0 0 38857.5 27274.8 " />
<path d="M38857.5 25874.8 A700 700 0.0 0 0 38157.5 26574.8 " />
<path d="M41457.5 27474.8 A900 900 0.0 0 0 42357.5 26574.8 " />
<path d="M41457 27474
L38857 27474
" />
<path d="M38857 25674
L41457 25674
" />
<path d="M37957.5 26574.8 A900 900 0.0 0 0 38857.5 27474.8 " />
<path d="M38857.5 25674.8 A900 900 0.0 0 0 37957.5 26574.8 " />
</g>
<g style="fill:#000000; fill-opacity:0.0; 
stroke:#000000; stroke-width:120; stroke-opacity:1; 
stroke-linecap:round; stroke-linejoin:round;">
<path d="M46856 25568
L46856 28368
" />
<path d="M46856 28368
L46056 28368
" />
<path d="M46056 28368
L46056 25568
" />
<path d="M46056 25568
L46856 25568
" />
<path d="M46656 25568
L46856 25768
" />
<path d="M39392 29140
L36592 29140
" />
<path d="M36592 29140
L36592 28340
" />
<path d="M36592 28340
L39392 28340
" />
<path d="M39392 28340
L39392 29140
" />
<path d="M39392 28940
L39192 29140
" />
<path d="M40922 28340
L43722 28340
" />
<path d="M43722 28340
L43722 29140
" />
<path d="M43722 29140
L40922 29140
" />
<path d="M40922 29140
L40922 28340
" />
<path d="M40922 28540
L41122 28340
" />
<path d="M25793 26355
L25793 29155
" />
<path d="M25793 29155
L24993 29155
" />
<path d="M24993 29155
L24993 26355
" />
<path d="M24993 26355
L25793 26355
" />
<path d="M25593 26355
L25793 26555
" />
</g>
<g style="fill:#000000; fill-opacity:0.0; 
stroke:#000000; stroke-width:50; stroke-opacity:1; 
stroke-linecap:round; stroke-linejoin:round;">
<circle cx="27362.2" cy="27755.9" r="1001.25" /> 
</g>
<g style="fill:#000000; fill-opacity:0.0; 
stroke:#000000; stroke-width:120; stroke-opacity:1; 
stroke-linecap:round; stroke-linejoin:round;">
<path d="M55527 25165
L55527 29165
" />
<path d="M56027 25165
L53027 25165
" />
<path d="M53027 25165
L53027 29165
" />
<path d="M53027 29165
L56027 29165
" />
<path d="M56027 29165
L56027 25165
" />
</g>
<g style="fill:#000000; fill-opacity:0.0; 
stroke:#000000; stroke-width:100; stroke-opacity:1; 
stroke-linecap:round; stroke-linejoin:round;">
<path d="M53530 24637
L53530 20637
" />
<path d="M53830 24637
L55330 24637
" />
<path d="M55330 24637
L55330 20637
" />
<path d="M55330 20637
L53330 20637
" />
<path d="M53330 20637
L53330 24637
" />
<path d="M53330 24637
L53830 24637
" />
</g>
<g style="fill:#000000; fill-opacity:0.0; 
stroke:#000000; stroke-width:19.685; stroke-opacity:1; 
stroke-linecap:round; stroke-linejoin:round;">
</g>
<g style="fill:#000000; fill-opacity:1.0; 
stroke:#000000; stroke-width:19.685; stroke-opacity:1; 
stroke-linecap:round; stroke-linejoin:round;">
<circle cx="50696.9" cy="25315.4" r="290.157" /> 
<circle cx="49696.9" cy="25315.4" r="290.157" /> 
<circle cx="49696.9" cy="26102.4" r="290.157" /> 
<circle cx="50696.9" cy="26102.4" r="290.157" /> 
<circle cx="52558.9" cy="27165.4" r="521.657" /> 
<circle cx="47834.9" cy="27165.4" r="521.657" /> 
<polyline style="fill-rule:evenodd;"
points="38804,19223
38804,19753
38274,19753
38274,19223
38804,19223
" /> 
<circle cx="37539.4" cy="19488.2" r="265.157" /> 
<circle cx="36539.4" cy="19488.2" r="265.157" /> 
<circle cx="35539.4" cy="19488.2" r="265.157" /> 
<circle cx="34539.4" cy="19488.2" r="265.157" /> 
<circle cx="33539.4" cy="19488.2" r="265.157" /> 
<circle cx="32539.4" cy="19488.2" r="265.157" /> 
<circle cx="31539.4" cy="19488.2" r="265.157" /> 
<circle cx="51255.9" cy="19488.2" r="265.157" /> 
<circle cx="54255.9" cy="19488.2" r="265.157" /> 
<circle cx="29133.9" cy="21531.5" r="265.157" /> 
<circle cx="29133.9" cy="24531.5" r="265.157" /> 
<circle cx="27755.9" cy="21531.5" r="265.157" /> 
<circle cx="27755.9" cy="24531.5" r="265.157" /> 
<polyline style="fill-rule:evenodd;"
points="32355,26864
32355,26284
32935,26284
32935,26864
32355,26864
" /> 
<circle cx="33645.7" cy="26574.8" r="290.157" /> 
<circle cx="34645.7" cy="26574.8" r="290.157" /> 
<circle cx="35645.7" cy="26574.8" r="290.157" /> 
<circle cx="36645.7" cy="26574.8" r="290.157" /> 
<polyline style="fill-rule:evenodd;"
points="40245,19778
40245,19198
40825,19198
40825,19778
40245,19778
" /> 
<circle cx="41535.4" cy="19488.2" r="290.157" /> 
<circle cx="42535.4" cy="19488.2" r="290.157" /> 
<polyline style="fill-rule:evenodd;"
points="51284,21347
51864,21347
51864,21927
51284,21927
51284,21347
" /> 
<circle cx="51574.8" cy="22637.8" r="290.157" /> 
<circle cx="51574.8" cy="23637.8" r="290.157" /> 
<polyline style="fill-rule:evenodd;"
points="45172,27364
44591,27364
44591,26784
45172,26784
45172,27364
" /> 
<circle cx="44881.9" cy="26074.8" r="290.157" /> 
<polyline style="fill-rule:evenodd;"
points="43597,27364
43016,27364
43016,26784
43597,26784
43597,27364
" /> 
<circle cx="43307.1" cy="26074.8" r="290.157" /> 
<circle cx="48515.7" cy="19488.2" r="320.157" /> 
<circle cx="49515.7" cy="19488.2" r="320.157" /> 
<circle cx="28043.3" cy="19685" r="320.157" /> 
<circle cx="29043.3" cy="19685" r="320.157" /> 
</g>
<g style="fill:#000000; fill-opacity:1.0; 
stroke:#000000; stroke-width:591; stroke-opacity:1; 
stroke-linecap:round; stroke-linejoin:round;">
<path d="M31492 24393
L31492 24668
" />
<path d="M32492 24393
L32492 24668
" />
<path d="M33492 24393
L33492 24668
" />
<path d="M34492 24393
L34492 24668
" />
<path d="M35492 24393
L35492 24668
" />
<path d="M36492 24393
L36492 24668
" />
<path d="M37492 24393
L37492 24668
" />
<path d="M38492 24393
L38492 24668
" />
<path d="M39492 24393
L39492 24668
" />
<path d="M40492 24393
L40492 24668
" />
<path d="M41492 24393
L41492 24668
" />
<path d="M42492 24393
L42492 24668
" />
<path d="M43492 24393
L43492 24668
" />
<path d="M44492 24393
L44492 24668
" />
<path d="M44492 21393
L44492 21668
" />
<path d="M43492 21393
L43492 21668
" />
<path d="M42492 21393
L42492 21668
" />
<path d="M41492 21393
L41492 21668
" />
<path d="M40492 21393
L40492 21668
" />
<path d="M39492 21393
L39492 21668
" />
<path d="M38492 21393
L38492 21668
" />
<path d="M37492 21393
L37492 21668
" />
<path d="M36492 21393
L36492 21668
" />
<path d="M35492 21393
L35492 21668
" />
<path d="M34492 21393
L34492 21668
" />
<path d="M33492 21393
L33492 21668
" />
<path d="M32492 21393
L32492 21668
" />
<path d="M31492 21393
L31492 21668
" />
</g>
<g style="fill:#000000; fill-opacity:1.0; 
stroke:#000000; stroke-width:19.685; stroke-opacity:1; 
stroke-linecap:round; stroke-linejoin:round;">
<circle cx="30708.7" cy="28740.2" r="334.646" /> 
<circle cx="30708.7" cy="26771.7" r="334.646" /> 
<circle cx="39157.5" cy="26574.8" r="383.657" /> 
<circle cx="41157.5" cy="26574.8" r="383.657" /> 
<circle cx="46456.7" cy="25968.5" r="265.157" /> 
<circle cx="46456.7" cy="27968.5" r="265.157" /> 
<circle cx="38992.1" cy="28740.2" r="265.157" /> 
<circle cx="36992.1" cy="28740.2" r="265.157" /> 
<circle cx="41322.8" cy="28740.2" r="265.157" /> 
<circle cx="43322.8" cy="28740.2" r="265.157" /> 
<circle cx="25393.7" cy="26755.9" r="265.157" /> 
<circle cx="25393.7" cy="28755.9" r="265.157" /> 
<polyline style="fill-rule:evenodd;"
points="27097,26990
27627,26990
27627,27521
27097,27521
27097,26990
" /> 
<circle cx="27362.2" cy="28255.9" r="265.157" /> 
<polyline style="fill-rule:evenodd;"
points="55017,28655
54037,28655
54037,27675
55017,27675
55017,28655
" /> 
<circle cx="54527.6" cy="26165.4" r="490.157" /> 
</g>
<g style="fill:#000000; fill-opacity:1.0; 
stroke:#000000; stroke-width:687; stroke-opacity:1; 
stroke-linecap:round; stroke-linejoin:round;">
<path d="M54182 21637
L54479 21637
" />
<path d="M54182 22637
L54479 22637
" />
<path d="M54182 23637
L54479 23637
" />
</g> 
</svg>
