<?xml version="1.0" standalone="no"?>
 <!DOCTYPE svg PUBLIC "-//W3C//DTD SVG 1.1//EN" 
 "http://www.w3.org/Graphics/SVG/1.1/DTD/svg11.dtd"> 
<svg xmlns="http://www.w3.org/2000/svg" version="1.1" 
    width="21.0007cm" height="29.7002cm" viewBox="0 0 82680 116930 ">
<title>SVG Picture created as pinguino-2550--brd.svg date 2014/02/06 20:05:55 </title>
  <desc>Picture generated by PCBNEW </desc>
<g style="fill:#000000; fill-opacity:1;stroke:#000000; stroke-opacity:1;
stroke-linecap:round; stroke-linejoin:round; "
 transform="translate(0 0) scale(1 1)">
</g>
<g style="fill:#000000; fill-opacity:0.0; 
stroke:#000000; stroke-width:19.685; stroke-opacity:1; 
stroke-linecap:round; stroke-linejoin:round;">
<path d="M4000 112930
L78680 112930
L78680 4000
L4000 4000
L4000 112930
" />
<path d="M4700 112230
L77980 112230
L77980 4700
L4700 4700
L4700 112230
" />
<path d="M28890 112930
L28890 112230
" />
<path d="M16592 112377
L16307 112377
" />
<path d="M16450 112377
L16450 112877
L16402 112806
L16354 112758
L16307 112734
" />
<path d="M28890 4000
L28890 4700
" />
<path d="M16592 4147
L16307 4147
" />
<path d="M16450 4147
L16450 4647
L16402 4576
L16354 4528
L16307 4504
" />
<path d="M53780 112930
L53780 112230
" />
<path d="M41197 112830
L41220 112853
L41268 112877
L41387 112877
L41435 112853
L41459 112830
L41482 112782
L41482 112734
L41459 112663
L41173 112377
L41482 112377
" />
<path d="M53780 4000
L53780 4700
" />
<path d="M41197 4600
L41220 4623
L41268 4647
L41387 4647
L41435 4623
L41459 4600
L41482 4552
L41482 4504
L41459 4433
L41173 4147
L41482 4147
" />
<path d="M66063 112877
L66372 112877
L66206 112687
L66277 112687
L66325 112663
L66349 112639
L66372 112591
L66372 112472
L66349 112425
L66325 112401
L66277 112377
L66134 112377
L66087 112401
L66063 112425
" />
<path d="M66063 4647
L66372 4647
L66206 4457
L66277 4457
L66325 4433
L66349 4409
L66372 4361
L66372 4242
L66349 4195
L66325 4171
L66277 4147
L66134 4147
L66087 4171
L66063 4195
" />
<path d="M4000 91150
L4700 91150
" />
<path d="M4230 101980
L4469 101980
" />
<path d="M4183 101837
L4350 102337
L4516 101837
" />
<path d="M78680 91150
L77980 91150
" />
<path d="M78210 101980
L78449 101980
" />
<path d="M78163 101837
L78330 102337
L78496 101837
" />
<path d="M4000 69370
L4700 69370
" />
<path d="M4385 80319
L4457 80295
L4480 80271
L4504 80224
L4504 80152
L4480 80105
L4457 80081
L4409 80057
L4219 80057
L4219 80557
L4385 80557
L4433 80533
L4457 80510
L4480 80462
L4480 80414
L4457 80367
L4433 80343
L4385 80319
L4219 80319
" />
<path d="M78680 69370
L77980 69370
" />
<path d="M78365 80319
L78437 80295
L78460 80271
L78484 80224
L78484 80152
L78460 80105
L78437 80081
L78389 80057
L78199 80057
L78199 80557
L78365 80557
L78413 80533
L78437 80510
L78460 80462
L78460 80414
L78437 80367
L78413 80343
L78365 80319
L78199 80319
" />
<path d="M4000 47590
L4700 47590
" />
<path d="M4504 58325
L4480 58301
L4409 58277
L4361 58277
L4290 58301
L4242 58349
L4219 58396
L4195 58491
L4195 58563
L4219 58658
L4242 58706
L4290 58753
L4361 58777
L4409 58777
L4480 58753
L4504 58730
" />
<path d="M78680 47590
L77980 47590
" />
<path d="M78484 58325
L78460 58301
L78389 58277
L78341 58277
L78270 58301
L78222 58349
L78199 58396
L78175 58491
L78175 58563
L78199 58658
L78222 58706
L78270 58753
L78341 58777
L78389 58777
L78460 58753
L78484 58730
" />
<path d="M4000 25810
L4700 25810
" />
<path d="M4219 36497
L4219 36997
L4338 36997
L4409 36973
L4457 36926
L4480 36878
L4504 36783
L4504 36711
L4480 36616
L4457 36569
L4409 36521
L4338 36497
L4219 36497
" />
<path d="M78680 25810
L77980 25810
" />
<path d="M78199 36497
L78199 36997
L78318 36997
L78389 36973
L78437 36926
L78460 36878
L78484 36783
L78484 36711
L78460 36616
L78437 36569
L78389 36521
L78318 36497
L78199 36497
" />
<path d="M4242 14979
L4409 14979
" />
<path d="M4480 14717
L4242 14717
L4242 15217
L4480 15217
" />
<path d="M78222 14979
L78389 14979
" />
<path d="M78460 14717
L78222 14717
L78222 15217
L78460 15217
" />
<path d="M45130 6257
L45205 6857
L45347 6857
L45430 6828
L45480 6771
L45501 6714
L45515 6600
L45505 6514
L45462 6400
L45426 6342
L45362 6285
L45272 6257
L45130 6257
" />
<path d="M45987 6257
L46026 6571
L46005 6628
L45951 6657
L45837 6657
L45776 6628
" />
<path d="M45990 6285
L45930 6257
L45787 6257
L45733 6285
L45712 6342
L45719 6400
L45755 6457
L45815 6485
L45958 6485
L46019 6514
" />
<path d="M46237 6657
L46465 6657
" />
<path d="M46347 6857
L46283 6342
L46305 6285
L46358 6257
L46415 6257
" />
<path d="M46847 6285
L46787 6257
L46672 6257
L46619 6285
L46597 6342
L46626 6571
L46662 6628
L46722 6657
L46837 6657
L46890 6628
L46912 6571
L46905 6514
L46612 6457
" />
<path d="M47137 6314
L47162 6285
L47130 6257
L47105 6285
L47137 6314
L47130 6257
" />
<path d="M47176 6628
L47201 6600
L47169 6571
L47144 6600
L47176 6628
L47169 6571
" />
<path d="M48205 6857
L48090 6857
L48029 6828
L47997 6800
L47930 6714
L47887 6600
L47858 6371
L47880 6314
L47905 6285
L47958 6257
L48072 6257
L48133 6285
L48165 6314
L48201 6371
L48219 6514
L48197 6571
L48172 6600
L48119 6628
L48004 6628
L47944 6600
L47912 6571
L47876 6514
" />
<path d="M48865 6657
L49094 6657
" />
<path d="M48901 6257
L48965 6771
L49001 6828
L49062 6857
L49119 6857
" />
<path d="M49476 6285
L49415 6257
L49301 6257
L49247 6285
L49226 6342
L49255 6571
L49290 6628
L49351 6657
L49465 6657
L49519 6628
L49540 6571
L49533 6514
L49240 6457
" />
<path d="M49758 6257
L49833 6857
" />
<path d="M49805 6628
L49865 6657
L49980 6657
L50033 6628
L50058 6600
L50080 6542
L50058 6371
L50022 6314
L49990 6285
L49930 6257
L49815 6257
L49762 6285
" />
<path d="M50797 6800
L50830 6828
L50890 6857
L51033 6857
L51087 6828
L51112 6800
L51133 6742
L51126 6685
L51087 6600
L50701 6257
L51072 6257
" />
<path d="M51519 6857
L51576 6857
L51630 6828
L51655 6800
L51676 6742
L51690 6628
L51672 6485
L51630 6371
L51594 6314
L51562 6285
L51501 6257
L51444 6257
L51390 6285
L51365 6314
L51344 6371
L51330 6485
L51347 6628
L51390 6742
L51426 6800
L51458 6828
L51519 6857
" />
<path d="M52215 6257
L51872 6257
" />
<path d="M52044 6257
L52119 6857
L52051 6771
L51987 6714
L51926 6685
" />
<path d="M52780 6657
L52730 6257
" />
<path d="M52665 6885
L52469 6457
L52840 6457
" />
<path d="M36722 5057
L36722 5657
" />
<path d="M37065 5057
L36808 5400
" />
<path d="M37065 5657
L36722 5314
" />
<path d="M37322 5057
L37322 5457
" />
<path d="M37322 5657
L37294 5628
L37322 5600
L37351 5628
L37322 5657
L37322 5600
" />
<path d="M37951 5114
L37922 5085
L37837 5057
L37780 5057
L37694 5085
L37637 5142
L37608 5200
L37580 5314
L37580 5400
L37608 5514
L37637 5571
L37694 5628
L37780 5657
L37837 5657
L37922 5628
L37951 5600
" />
<path d="M38465 5057
L38465 5371
L38437 5428
L38380 5457
L38265 5457
L38208 5428
" />
<path d="M38465 5085
L38408 5057
L38265 5057
L38208 5085
L38180 5142
L38180 5200
L38208 5257
L38265 5285
L38408 5285
L38465 5314
" />
<path d="M39008 5057
L39008 5657
" />
<path d="M39008 5085
L38951 5057
L38837 5057
L38780 5085
L38751 5114
L38722 5171
L38722 5342
L38751 5400
L38780 5428
L38837 5457
L38951 5457
L39008 5428
" />
<path d="M39751 5371
L39951 5371
" />
<path d="M40037 5057
L39751 5057
L39751 5657
L40037 5657
" />
<path d="M40294 5114
L40322 5085
L40294 5057
L40265 5085
L40294 5114
L40294 5057
" />
<path d="M40579 5057
L40579 5657
L40722 5657
L40808 5628
L40865 5571
L40894 5514
L40922 5400
L40922 5314
L40894 5200
L40865 5142
L40808 5085
L40722 5057
L40579 5057
" />
<path d="M41179 5114
L41208 5085
L41179 5057
L41151 5085
L41179 5114
L41179 5057
" />
<path d="M41437 5228
L41722 5228
" />
<path d="M41379 5057
L41579 5657
L41779 5057
" />
<path d="M41979 5114
L42008 5085
L41979 5057
L41951 5085
L41979 5114
L41979 5057
" />
<path d="M70272 6257
L70108 6542
" />
<path d="M69930 6257
L70005 6857
L70233 6857
L70287 6828
L70312 6800
L70333 6742
L70322 6657
L70287 6600
L70255 6571
L70194 6542
L69965 6542
" />
<path d="M70762 6285
L70701 6257
L70587 6257
L70533 6285
L70512 6342
L70540 6571
L70576 6628
L70637 6657
L70751 6657
L70805 6628
L70826 6571
L70819 6514
L70526 6457
" />
<path d="M71037 6657
L71130 6257
L71322 6657
" />
<path d="M71508 6314
L71533 6285
L71501 6257
L71476 6285
L71508 6314
L71501 6257
" />
<path d="M71547 6628
L71572 6600
L71540 6571
L71515 6600
L71547 6628
L71540 6571
" />
<path d="M72558 6257
L72215 6257
" />
<path d="M72387 6257
L72462 6857
L72394 6771
L72330 6714
L72269 6685
" />
<path d="M72822 6314
L72847 6285
L72815 6257
L72790 6285
L72822 6314
L72815 6257
" />
<path d="M73290 6857
L73347 6857
L73401 6828
L73426 6800
L73447 6742
L73462 6628
L73444 6485
L73401 6371
L73365 6314
L73333 6285
L73272 6257
L73215 6257
L73162 6285
L73137 6314
L73115 6371
L73101 6485
L73119 6628
L73162 6742
L73197 6800
L73230 6828
L73290 6857
" />
<path d="M36694 6285
L36780 6257
L36922 6257
L36980 6285
L37008 6314
L37037 6371
L37037 6428
L37008 6485
L36980 6514
L36922 6542
L36808 6571
L36751 6600
L36722 6628
L36694 6685
L36694 6742
L36722 6800
L36751 6828
L36808 6857
L36951 6857
L37037 6828
" />
<path d="M37294 6257
L37294 6657
" />
<path d="M37294 6857
L37265 6828
L37294 6800
L37322 6828
L37294 6857
L37294 6800
" />
<path d="M37522 6657
L37837 6657
L37522 6257
L37837 6257
" />
<path d="M38294 6285
L38237 6257
L38122 6257
L38065 6285
L38037 6342
L38037 6571
L38065 6628
L38122 6657
L38237 6657
L38294 6628
L38322 6571
L38322 6514
L38037 6457
" />
<path d="M38580 6314
L38608 6285
L38580 6257
L38551 6285
L38580 6314
L38580 6257
" />
<path d="M38580 6628
L38608 6600
L38580 6571
L38551 6600
L38580 6628
L38580 6571
" />
<path d="M39322 6857
L39322 6371
L39351 6314
L39380 6285
L39437 6257
L39551 6257
L39608 6285
L39637 6314
L39665 6371
L39665 6857
" />
<path d="M39922 6285
L39980 6257
L40094 6257
L40151 6285
L40180 6342
L40180 6371
L40151 6428
L40094 6457
L40008 6457
L39951 6485
L39922 6542
L39922 6571
L39951 6628
L40008 6657
L40094 6657
L40151 6628
" />
<path d="M40665 6285
L40608 6257
L40494 6257
L40437 6285
L40408 6342
L40408 6571
L40437 6628
L40494 6657
L40608 6657
L40665 6628
L40694 6571
L40694 6514
L40408 6457
" />
<path d="M40951 6257
L40951 6657
" />
<path d="M40951 6542
L40980 6600
L41008 6628
L41065 6657
L41122 6657
" />
<path d="M69922 5057
L69922 5657
" />
<path d="M70465 5057
L70465 5657
" />
<path d="M70465 5085
L70408 5057
L70294 5057
L70237 5085
L70208 5114
L70180 5171
L70180 5342
L70208 5400
L70237 5428
L70294 5457
L70408 5457
L70465 5428
" />
<path d="M70751 5114
L70780 5085
L70751 5057
L70722 5085
L70751 5114
L70751 5057
" />
<path d="M70751 5428
L70780 5400
L70751 5371
L70722 5400
L70751 5428
L70751 5371
" />
<path d="M71808 5057
L71465 5057
" />
<path d="M71637 5057
L71637 5657
L71579 5571
L71522 5514
L71465 5485
" />
<path d="M72494 5685
L71980 4914
" />
<path d="M73008 5057
L72665 5057
" />
<path d="M72837 5057
L72837 5657
L72779 5571
L72722 5514
L72665 5485
" />
<path d="M36719 8057
L37062 8057
" />
<path d="M36815 7457
L36890 8057
" />
<path d="M37187 7457
L37237 7857
" />
<path d="M37262 8057
L37230 8028
L37255 8000
L37287 8028
L37262 8057
L37255 8000
" />
<path d="M37437 7857
L37665 7857
" />
<path d="M37547 8057
L37483 7542
L37505 7485
L37558 7457
L37615 7457
" />
<path d="M37901 7457
L37847 7485
L37826 7542
L37890 8057
" />
<path d="M38362 7485
L38301 7457
L38187 7457
L38133 7485
L38112 7542
L38140 7771
L38176 7828
L38237 7857
L38351 7857
L38405 7828
L38426 7771
L38419 7714
L38126 7657
" />
<path d="M38651 7514
L38676 7485
L38644 7457
L38619 7485
L38651 7514
L38644 7457
" />
<path d="M38690 7828
L38715 7800
L38683 7771
L38658 7800
L38690 7828
L38683 7771
" />
<path d="M39387 7457
L39462 8057
L39690 8057
L39744 8028
L39769 8000
L39790 7942
L39780 7857
L39744 7800
L39712 7771
L39651 7742
L39422 7742
" />
<path d="M39987 7457
L40037 7857
" />
<path d="M40062 8057
L40030 8028
L40055 8000
L40087 8028
L40062 8057
L40055 8000
" />
<path d="M40322 7857
L40272 7457
" />
<path d="M40315 7800
L40347 7828
L40408 7857
L40494 7857
L40547 7828
L40569 7771
L40530 7457
" />
<path d="M41122 7857
L41062 7371
L41026 7314
L40994 7285
L40933 7257
L40847 7257
L40794 7285
" />
<path d="M41076 7485
L41015 7457
L40901 7457
L40847 7485
L40822 7514
L40801 7571
L40822 7742
L40858 7800
L40890 7828
L40951 7857
L41065 7857
L41119 7828
" />
<path d="M41665 7857
L41615 7457
" />
<path d="M41408 7857
L41369 7542
L41390 7485
L41444 7457
L41530 7457
L41590 7485
L41622 7514
" />
<path d="M41901 7457
L41951 7857
" />
<path d="M41976 8057
L41944 8028
L41969 8000
L42001 8028
L41976 8057
L41969 8000
" />
<path d="M42237 7857
L42187 7457
" />
<path d="M42229 7800
L42262 7828
L42322 7857
L42408 7857
L42462 7828
L42483 7771
L42444 7457
" />
<path d="M42815 7457
L42762 7485
L42737 7514
L42715 7571
L42737 7742
L42772 7800
L42804 7828
L42865 7857
L42951 7857
L43004 7828
L43029 7800
L43051 7742
L43029 7571
L42994 7514
L42962 7485
L42901 7457
L42815 7457
" />
<path d="M43769 8000
L43801 8028
L43862 8057
L44004 8057
L44058 8028
L44083 8000
L44104 7942
L44097 7885
L44058 7800
L43672 7457
L44044 7457
" />
<path d="M44662 8057
L44376 8057
L44312 7771
L44344 7800
L44404 7828
L44547 7828
L44601 7800
L44626 7771
L44647 7714
L44630 7571
L44594 7514
L44562 7485
L44501 7457
L44358 7457
L44304 7485
L44280 7514
" />
<path d="M45233 8057
L44947 8057
L44883 7771
L44915 7800
L44976 7828
L45119 7828
L45172 7800
L45197 7771
L45219 7714
L45201 7571
L45165 7514
L45133 7485
L45072 7457
L44930 7457
L44876 7485
L44851 7514
" />
<path d="M45633 8057
L45690 8057
L45744 8028
L45769 8000
L45790 7942
L45805 7828
L45787 7685
L45744 7571
L45708 7514
L45676 7485
L45615 7457
L45558 7457
L45505 7485
L45480 7514
L45458 7571
L45444 7685
L45462 7828
L45505 7942
L45540 8000
L45572 8028
L45633 8057
" />
<path d="M36922 10171
L36722 10171
" />
<path d="M36722 9857
L36722 10457
L37008 10457
" />
<path d="M37237 9857
L37237 10257
" />
<path d="M37237 10457
L37208 10428
L37237 10400
L37265 10428
L37237 10457
L37237 10400
" />
<path d="M37608 9857
L37551 9885
L37522 9942
L37522 10457
" />
<path d="M38065 9885
L38008 9857
L37894 9857
L37837 9885
L37808 9942
L37808 10171
L37837 10228
L37894 10257
L38008 10257
L38065 10228
L38094 10171
L38094 10114
L37808 10057
" />
<path d="M38351 9914
L38380 9885
L38351 9857
L38322 9885
L38351 9914
L38351 9857
" />
<path d="M38351 10228
L38380 10200
L38351 10171
L38322 10200
L38351 10228
L38351 10171
" />
<path d="M39094 10257
L39094 9657
" />
<path d="M39094 10228
L39151 10257
L39265 10257
L39322 10228
L39351 10200
L39380 10142
L39380 9971
L39351 9914
L39322 9885
L39265 9857
L39151 9857
L39094 9885
" />
<path d="M39637 9857
L39637 10257
" />
<path d="M39637 10457
L39608 10428
L39637 10400
L39665 10428
L39637 10457
L39637 10400
" />
<path d="M39922 10257
L39922 9857
" />
<path d="M39922 10200
L39951 10228
L40008 10257
L40094 10257
L40151 10228
L40180 10171
L40180 9857
" />
<path d="M40722 10257
L40722 9771
L40694 9714
L40665 9685
L40608 9657
L40522 9657
L40465 9685
" />
<path d="M40722 9885
L40665 9857
L40551 9857
L40494 9885
L40465 9914
L40437 9971
L40437 10142
L40465 10200
L40494 10228
L40551 10257
L40665 10257
L40722 10228
" />
<path d="M41265 10257
L41265 9857
" />
<path d="M41008 10257
L41008 9942
L41037 9885
L41094 9857
L41180 9857
L41237 9885
L41265 9914
" />
<path d="M41551 9857
L41551 10257
" />
<path d="M41551 10457
L41522 10428
L41551 10400
L41580 10428
L41551 10457
L41551 10400
" />
<path d="M41837 10257
L41837 9857
" />
<path d="M41837 10200
L41865 10228
L41922 10257
L42008 10257
L42065 10228
L42094 10171
L42094 9857
" />
<path d="M42465 9857
L42408 9885
L42379 9914
L42351 9971
L42351 10142
L42379 10200
L42408 10228
L42465 10257
L42551 10257
L42608 10228
L42637 10200
L42665 10142
L42665 9971
L42637 9914
L42608 9885
L42551 9857
L42465 9857
" />
<path d="M42922 10085
L43379 10085
" />
<path d="M43637 10400
L43665 10428
L43722 10457
L43865 10457
L43922 10428
L43951 10400
L43979 10342
L43979 10285
L43951 10200
L43608 9857
L43979 9857
" />
<path d="M44522 10457
L44237 10457
L44208 10171
L44237 10200
L44294 10228
L44437 10228
L44494 10200
L44522 10171
L44551 10114
L44551 9971
L44522 9914
L44494 9885
L44437 9857
L44294 9857
L44237 9885
L44208 9914
" />
<path d="M45094 10457
L44808 10457
L44780 10171
L44808 10200
L44865 10228
L45008 10228
L45065 10200
L45094 10171
L45122 10114
L45122 9971
L45094 9914
L45065 9885
L45008 9857
L44865 9857
L44808 9885
L44780 9914
" />
<path d="M45494 10457
L45551 10457
L45608 10428
L45637 10400
L45665 10342
L45694 10228
L45694 10085
L45665 9971
L45637 9914
L45608 9885
L45551 9857
L45494 9857
L45437 9885
L45408 9914
L45380 9971
L45351 10085
L45351 10228
L45380 10342
L45408 10400
L45437 10428
L45494 10457
" />
<path d="M45951 9914
L45980 9885
L45951 9857
L45922 9885
L45951 9914
L45951 9857
" />
<path d="M46237 9857
L46237 10457
" />
<path d="M46294 10085
L46465 9857
" />
<path d="M46465 10257
L46237 10028
" />
<path d="M46722 9857
L46722 10257
" />
<path d="M46722 10457
L46694 10428
L46722 10400
L46751 10428
L46722 10457
L46722 10400
" />
<path d="M47265 9885
L47208 9857
L47094 9857
L47037 9885
L47008 9914
L46980 9971
L46980 10142
L47008 10200
L47037 10228
L47094 10257
L47208 10257
L47265 10228
" />
<path d="M47780 9857
L47780 10171
L47751 10228
L47694 10257
L47580 10257
L47522 10228
" />
<path d="M47780 9885
L47722 9857
L47580 9857
L47522 9885
L47494 9942
L47494 10000
L47522 10057
L47580 10085
L47722 10085
L47780 10114
" />
<path d="M48322 9857
L48322 10457
" />
<path d="M48322 9885
L48265 9857
L48151 9857
L48094 9885
L48065 9914
L48037 9971
L48037 10142
L48065 10200
L48094 10228
L48151 10257
L48265 10257
L48322 10228
" />
<path d="M48465 9800
L48922 9800
" />
<path d="M49065 10257
L49065 9657
" />
<path d="M49065 10228
L49122 10257
L49237 10257
L49294 10228
L49322 10200
L49351 10142
L49351 9971
L49322 9914
L49294 9885
L49237 9857
L49122 9857
L49065 9885
" />
<path d="M49865 9885
L49808 9857
L49694 9857
L49637 9885
L49608 9914
L49580 9971
L49580 10142
L49608 10200
L49637 10228
L49694 10257
L49808 10257
L49865 10228
" />
<path d="M50122 9857
L50122 10457
" />
<path d="M50122 10228
L50180 10257
L50294 10257
L50351 10228
L50380 10200
L50408 10142
L50408 9971
L50380 9914
L50351 9885
L50294 9857
L50180 9857
L50122 9885
" />
<path d="M36694 8685
L36780 8657
L36922 8657
L36980 8685
L37008 8714
L37037 8771
L37037 8828
L37008 8885
L36980 8914
L36922 8942
L36808 8971
L36751 9000
L36722 9028
L36694 9085
L36694 9142
L36722 9200
L36751 9228
L36808 9257
L36951 9257
L37037 9228
" />
<path d="M37294 8657
L37294 9257
" />
<path d="M37551 8657
L37551 8971
L37522 9028
L37465 9057
L37380 9057
L37322 9028
L37294 9000
" />
<path d="M38065 8685
L38008 8657
L37894 8657
L37837 8685
L37808 8742
L37808 8971
L37837 9028
L37894 9057
L38008 9057
L38065 9028
L38094 8971
L38094 8914
L37808 8857
" />
<path d="M38580 8685
L38522 8657
L38408 8657
L38351 8685
L38322 8742
L38322 8971
L38351 9028
L38408 9057
L38522 9057
L38580 9028
L38608 8971
L38608 8914
L38322 8857
" />
<path d="M38780 9057
L39008 9057
" />
<path d="M38865 9257
L38865 8742
L38894 8685
L38951 8657
L39008 8657
" />
<path d="M39208 8714
L39237 8685
L39208 8657
L39180 8685
L39208 8714
L39208 8657
" />
<path d="M39208 9028
L39237 9000
L39208 8971
L39180 9000
L39208 9028
L39208 8971
" />
<path d="M36769 11371
L36969 11371
" />
<path d="M37015 11057
L36730 11057
L36805 11657
L37090 11657
" />
<path d="M37280 11114
L37305 11085
L37272 11057
L37247 11085
L37280 11114
L37272 11057
" />
<path d="M37597 11371
L37797 11371
" />
<path d="M37844 11057
L37558 11057
L37633 11657
L37919 11657
" />
<path d="M38108 11114
L38133 11085
L38101 11057
L38076 11085
L38108 11114
L38101 11057
" />
<path d="M38376 11657
L38719 11657
" />
<path d="M38472 11057
L38547 11657
" />
<path d="M38851 11114
L38876 11085
L38844 11057
L38819 11085
L38851 11114
L38844 11057
" />
<path d="M39587 11057
L39662 11657
L39929 11057
L40004 11657
" />
<path d="M40215 11057
L40265 11457
" />
<path d="M40251 11342
L40287 11400
L40319 11428
L40379 11457
L40437 11457
" />
<path d="M40672 11057
L40619 11085
L40594 11114
L40572 11171
L40594 11342
L40629 11400
L40662 11428
L40722 11457
L40808 11457
L40862 11428
L40887 11400
L40908 11342
L40887 11171
L40851 11114
L40819 11085
L40758 11057
L40672 11057
" />
<path d="M41137 11114
L41162 11085
L41129 11057
L41104 11085
L41137 11114
L41129 11057
" />
<path d="M41433 11657
L41833 11657
L41501 11057
" />
<path d="M42472 11285
L42929 11285
" />
<path d="M43883 11371
L43965 11342
L43990 11314
L44012 11257
L44001 11171
L43965 11114
L43933 11085
L43872 11057
L43644 11057
L43719 11657
L43919 11657
L43972 11628
L43997 11600
L44019 11542
L44012 11485
L43976 11428
L43944 11400
L43883 11371
L43683 11371
" />
<path d="M44501 11057
L44540 11371
L44519 11428
L44465 11457
L44351 11457
L44290 11428
" />
<path d="M44504 11085
L44444 11057
L44301 11057
L44247 11085
L44226 11142
L44233 11200
L44269 11257
L44329 11285
L44472 11285
L44533 11314
" />
<path d="M44837 11457
L44787 11057
" />
<path d="M44829 11400
L44862 11428
L44922 11457
L45008 11457
L45062 11428
L45083 11371
L45044 11057
" />
<path d="M45294 11457
L45522 11457
" />
<path d="M45329 11057
L45394 11571
L45429 11628
L45490 11657
L45547 11657
" />
<path d="M45672 11057
L45722 11457
" />
<path d="M45747 11657
L45715 11628
L45740 11600
L45772 11628
L45747 11657
L45740 11600
" />
<path d="M46190 11085
L46129 11057
L46015 11057
L45962 11085
L45940 11142
L45969 11371
L46004 11428
L46065 11457
L46179 11457
L46233 11428
L46254 11371
L46247 11314
L45954 11257
" />
<path d="M46558 11057
L46504 11085
L46483 11142
L46547 11657
" />
<path d="M47044 11057
L47119 11657
" />
<path d="M47047 11085
L46987 11057
L46872 11057
L46819 11085
L46794 11114
L46772 11171
L46794 11342
L46829 11400
L46862 11428
L46922 11457
L47037 11457
L47090 11428
" />
<path d="M36722 12257
L36722 12857
L36951 12857
L37008 12828
L37037 12800
L37065 12742
L37065 12657
L37037 12600
L37008 12571
L36951 12542
L36722 12542
" />
<path d="M37322 12257
L37322 12657
" />
<path d="M37322 12542
L37351 12600
L37380 12628
L37437 12657
L37494 12657
" />
<path d="M37780 12257
L37722 12285
L37694 12314
L37665 12371
L37665 12542
L37694 12600
L37722 12628
L37780 12657
L37865 12657
L37922 12628
L37951 12600
L37980 12542
L37980 12371
L37951 12314
L37922 12285
L37865 12257
L37780 12257
" />
<path d="M38151 12657
L38380 12657
" />
<path d="M38237 12257
L38237 12771
L38265 12828
L38322 12857
L38380 12857
" />
<path d="M38580 12314
L38608 12285
L38580 12257
L38551 12285
L38580 12314
L38580 12257
" />
<path d="M39237 12857
L39437 12257
L39637 12857
" />
<path d="M39837 12257
L39837 12657
" />
<path d="M39837 12857
L39808 12828
L39837 12800
L39865 12828
L39837 12857
L39837 12800
" />
<path d="M40380 12285
L40322 12257
L40208 12257
L40151 12285
L40122 12314
L40094 12371
L40094 12542
L40122 12600
L40151 12628
L40208 12657
L40322 12657
L40380 12628
" />
<path d="M40551 12657
L40780 12657
" />
<path d="M40637 12857
L40637 12342
L40665 12285
L40722 12257
L40780 12257
" />
<path d="M41065 12257
L41008 12285
L40980 12314
L40951 12371
L40951 12542
L40980 12600
L41008 12628
L41065 12657
L41151 12657
L41208 12628
L41237 12600
L41265 12542
L41265 12371
L41237 12314
L41208 12285
L41151 12257
L41065 12257
" />
<path d="M41522 12257
L41522 12657
" />
<path d="M41522 12542
L41551 12600
L41580 12628
L41637 12657
L41694 12657
" />
<path d="M42265 12857
L42465 12257
L42665 12857
" />
<path d="M42865 12257
L42865 12657
" />
<path d="M42865 12857
L42837 12828
L42865 12800
L42894 12828
L42865 12857
L42865 12800
" />
<path d="M43237 12257
L43180 12285
L43151 12342
L43151 12857
" />
<path d="M43551 12257
L43494 12285
L43465 12342
L43465 12857
" />
<path d="M44037 12257
L44037 12571
L44008 12628
L43951 12657
L43837 12657
L43780 12628
" />
<path d="M44037 12285
L43980 12257
L43837 12257
L43780 12285
L43751 12342
L43751 12400
L43780 12457
L43837 12485
L43980 12485
L44037 12514
" />
<path d="M44322 12257
L44322 12657
" />
<path d="M44322 12542
L44351 12600
L44380 12628
L44437 12657
L44494 12657
" />
<path d="M44694 12257
L44694 12657
" />
<path d="M44694 12542
L44722 12600
L44751 12628
L44808 12657
L44865 12657
" />
<path d="M45294 12285
L45237 12257
L45122 12257
L45065 12285
L45037 12342
L45037 12571
L45065 12628
L45122 12657
L45237 12657
L45294 12628
L45322 12571
L45322 12514
L45037 12457
" />
<path d="M45837 12257
L45837 12571
L45808 12628
L45751 12657
L45637 12657
L45580 12628
" />
<path d="M45837 12285
L45780 12257
L45637 12257
L45580 12285
L45551 12342
L45551 12400
L45580 12457
L45637 12485
L45780 12485
L45837 12514
" />
<path d="M46208 12257
L46151 12285
L46122 12342
L46122 12857
" />
<path d="M36722 13457
L36722 14057
L36951 14057
L37008 14028
L37037 14000
L37065 13942
L37065 13857
L37037 13800
L37008 13771
L36951 13742
L36722 13742
" />
<path d="M37408 13457
L37351 13485
L37322 13542
L37322 14057
" />
<path d="M37894 13457
L37894 13771
L37865 13828
L37808 13857
L37694 13857
L37637 13828
" />
<path d="M37894 13485
L37837 13457
L37694 13457
L37637 13485
L37608 13542
L37608 13600
L37637 13657
L37694 13685
L37837 13685
L37894 13714
" />
<path d="M38437 13485
L38380 13457
L38265 13457
L38208 13485
L38180 13514
L38151 13571
L38151 13742
L38180 13800
L38208 13828
L38265 13857
L38380 13857
L38437 13828
" />
<path d="M38951 13457
L38951 13771
L38922 13828
L38865 13857
L38751 13857
L38694 13828
" />
<path d="M38951 13485
L38894 13457
L38751 13457
L38694 13485
L38665 13542
L38665 13600
L38694 13657
L38751 13685
L38894 13685
L38951 13714
" />
<path d="M39694 13457
L39694 14057
L39922 14057
L39980 14028
L40008 14000
L40037 13942
L40037 13857
L40008 13800
L39980 13771
L39922 13742
L39694 13742
" />
<path d="M40294 13457
L40294 13857
" />
<path d="M40294 14057
L40265 14028
L40294 14000
L40322 14028
L40294 14057
L40294 14000
" />
<path d="M40580 13857
L40580 13457
" />
<path d="M40580 13800
L40608 13828
L40665 13857
L40751 13857
L40808 13828
L40837 13771
L40837 13457
" />
<path d="M41380 13857
L41380 13371
L41351 13314
L41322 13285
L41265 13257
L41180 13257
L41122 13285
" />
<path d="M41380 13485
L41322 13457
L41208 13457
L41151 13485
L41122 13514
L41094 13571
L41094 13742
L41122 13800
L41151 13828
L41208 13857
L41322 13857
L41380 13828
" />
<path d="M41922 13857
L41922 13457
" />
<path d="M41665 13857
L41665 13542
L41694 13485
L41751 13457
L41837 13457
L41894 13485
L41922 13514
" />
<path d="M42208 13457
L42208 13857
" />
<path d="M42208 14057
L42180 14028
L42208 14000
L42237 14028
L42208 14057
L42208 14000
" />
<path d="M42494 13857
L42494 13457
" />
<path d="M42494 13800
L42522 13828
L42579 13857
L42665 13857
L42722 13828
L42751 13771
L42751 13457
" />
<path d="M43122 13457
L43065 13485
L43037 13514
L43008 13571
L43008 13742
L43037 13800
L43065 13828
L43122 13857
L43208 13857
L43265 13828
L43294 13800
L43322 13742
L43322 13571
L43294 13514
L43265 13485
L43208 13457
L43122 13457
" />
<path d="M44351 13457
L44008 13457
" />
<path d="M44179 13457
L44179 14057
L44122 13971
L44065 13914
L44008 13885
" />
<path d="M44694 13800
L44637 13828
L44608 13857
L44580 13914
L44580 13942
L44608 14000
L44637 14028
L44694 14057
L44808 14057
L44865 14028
L44894 14000
L44922 13942
L44922 13914
L44894 13857
L44865 13828
L44808 13800
L44694 13800
L44637 13771
L44608 13742
L44580 13685
L44580 13571
L44608 13514
L44637 13485
L44694 13457
L44808 13457
L44865 13485
L44894 13514
L44922 13571
L44922 13685
L44894 13742
L44865 13771
L44808 13800
" />
<path d="M45380 13771
L45180 13771
" />
<path d="M45180 13457
L45180 14057
L45465 14057
" />
<path d="M45665 14000
L45694 14028
L45751 14057
L45894 14057
L45951 14028
L45980 14000
L46008 13942
L46008 13885
L45980 13800
L45637 13457
L46008 13457
" />
<path d="M46551 14057
L46265 14057
L46237 13771
L46265 13800
L46322 13828
L46465 13828
L46522 13800
L46551 13771
L46580 13714
L46580 13571
L46551 13514
L46522 13485
L46465 13457
L46322 13457
L46265 13485
L46237 13514
" />
<path d="M47122 14057
L46837 14057
L46808 13771
L46837 13800
L46894 13828
L47037 13828
L47094 13800
L47122 13771
L47151 13714
L47151 13571
L47122 13514
L47094 13485
L47037 13457
L46894 13457
L46837 13485
L46808 13514
" />
<path d="M47522 14057
L47580 14057
L47637 14028
L47665 14000
L47694 13942
L47722 13828
L47722 13685
L47694 13571
L47665 13514
L47637 13485
L47580 13457
L47522 13457
L47465 13485
L47437 13514
L47408 13571
L47380 13685
L47380 13828
L47408 13942
L47437 14000
L47465 14028
L47522 14057
" />
<path d="M35980 14300
L35980 4700
" />
<path d="M35980 10700
L77980 10700
" />
<path d="M35980 14300
L77980 14300
" />
<path d="M35980 8300
L77980 8300
" />
<path d="M69180 7100
L69180 4700
" />
<path d="M35980 5900
L77980 5900
" />
<path d="M35980 7100
L77980 7100
" />
<path d="M42580 7100
L42580 5900
" />
</g>
<g style="fill:#000000; fill-opacity:0.0; 
stroke:#000000; stroke-width:98.4252; stroke-opacity:1; 
stroke-linecap:round; stroke-linejoin:round;">
<path d="M38948 103216
L38910 103234
L38892 103253
L38873 103291
L38873 103309
L38892 103347
L38910 103366
L38948 103384
L39023 103384
L39060 103366
L39079 103347
L39098 103309
L39098 103291
L39079 103253
L39060 103234
L39023 103216
L38948 103216
L38910 103197
L38892 103178
L38873 103141
L38873 103066
L38892 103028
L38910 103009
L38948 102991
L39023 102991
L39060 103009
L39079 103028
L39098 103066
L39098 103141
L39079 103178
L39060 103197
L39023 103216
" />
<path d="M39341 103384
L39379 103384
L39416 103366
L39435 103347
L39454 103309
L39473 103234
L39473 103141
L39454 103066
L39435 103028
L39416 103009
L39379 102991
L39341 102991
L39304 103009
L39285 103028
L39266 103066
L39248 103141
L39248 103234
L39266 103309
L39285 103347
L39304 103366
L39341 103384
" />
<path d="M39660 103009
L39660 102991
L39641 102953
L39623 102934
" />
<path d="M39904 103384
L39941 103384
L39979 103366
L39998 103347
L40016 103309
L40035 103234
L40035 103141
L40016 103066
L39998 103028
L39979 103009
L39941 102991
L39904 102991
L39866 103009
L39848 103028
L39829 103066
L39810 103141
L39810 103234
L39829 103309
L39848 103347
L39866 103366
L39904 103384
" />
<path d="M40279 103384
L40316 103384
L40354 103366
L40373 103347
L40391 103309
L40410 103234
L40410 103141
L40391 103066
L40373 103028
L40354 103009
L40316 102991
L40279 102991
L40241 103009
L40223 103028
L40204 103066
L40185 103141
L40185 103234
L40204 103309
L40223 103347
L40241 103366
L40279 103384
" />
<path d="M40654 103384
L40691 103384
L40729 103366
L40748 103347
L40766 103309
L40785 103234
L40785 103141
L40766 103066
L40748 103028
L40729 103009
L40691 102991
L40654 102991
L40616 103009
L40598 103028
L40579 103066
L40560 103141
L40560 103234
L40579 103309
L40598 103347
L40616 103366
L40654 103384
" />
<path d="M40954 102991
L40954 103253
" />
<path d="M40954 103216
L40973 103234
L41010 103253
L41066 103253
L41104 103234
L41122 103197
L41122 102991
" />
<path d="M41122 103197
L41141 103234
L41179 103253
L41235 103253
L41272 103234
L41291 103197
L41291 102991
" />
<path d="M41479 102991
L41479 103253
" />
<path d="M41479 103216
L41497 103234
L41535 103253
L41591 103253
L41629 103234
L41647 103197
L41647 102991
" />
<path d="M41647 103197
L41666 103234
L41704 103253
L41760 103253
L41797 103234
L41816 103197
L41816 102991
" />
<path d="M24606 102756
L56102 102756
" />
<path d="M24606 100197
L24606 103544
" />
<path d="M56102 100197
L56102 103544
" />
<path d="M56102 102756
L55658 102525
" />
<path d="M56102 102756
L55658 102987
" />
<path d="M24606 102756
L25049 102525
" />
<path d="M24606 102756
L25049 102987
" />
<path d="M61061 94414
L61061 94170
L60911 94301
L60911 94245
L60892 94207
L60873 94189
L60836 94170
L60742 94170
L60704 94189
L60686 94207
L60667 94245
L60667 94357
L60686 94395
L60704 94414
" />
<path d="M61061 93926
L61061 93889
L61042 93851
L61023 93832
L60986 93814
L60911 93795
L60817 93795
L60742 93814
L60704 93832
L60686 93851
L60667 93889
L60667 93926
L60686 93964
L60704 93982
L60742 94001
L60817 94020
L60911 94020
L60986 94001
L61023 93982
L61042 93964
L61061 93926
" />
<path d="M60686 93607
L60667 93607
L60629 93626
L60611 93645
" />
<path d="M61061 93364
L61061 93326
L61042 93289
L61023 93270
L60986 93251
L60911 93232
L60817 93232
L60742 93251
L60704 93270
L60686 93289
L60667 93326
L60667 93364
L60686 93401
L60704 93420
L60742 93439
L60817 93457
L60911 93457
L60986 93439
L61023 93420
L61042 93401
L61061 93364
" />
<path d="M61061 92989
L61061 92951
L61042 92914
L61023 92895
L60986 92876
L60911 92858
L60817 92858
L60742 92876
L60704 92895
L60686 92914
L60667 92951
L60667 92989
L60686 93026
L60704 93045
L60742 93064
L60817 93082
L60911 93082
L60986 93064
L61023 93045
L61042 93026
L61061 92989
" />
<path d="M61061 92614
L61061 92576
L61042 92539
L61023 92520
L60986 92501
L60911 92483
L60817 92483
L60742 92501
L60704 92520
L60686 92539
L60667 92576
L60667 92614
L60686 92651
L60704 92670
L60742 92689
L60817 92708
L60911 92708
L60986 92689
L61023 92670
L61042 92651
L61061 92614
" />
<path d="M60667 92314
L60929 92314
" />
<path d="M60892 92314
L60911 92295
L60929 92258
L60929 92201
L60911 92164
L60873 92145
L60667 92145
" />
<path d="M60873 92145
L60911 92126
L60929 92089
L60929 92033
L60911 91995
L60873 91976
L60667 91976
" />
<path d="M60667 91789
L60929 91789
" />
<path d="M60892 91789
L60911 91770
L60929 91733
L60929 91676
L60911 91639
L60873 91620
L60667 91620
" />
<path d="M60873 91620
L60911 91601
L60929 91564
L60929 91508
L60911 91470
L60873 91451
L60667 91451
" />
<path d="M60433 98819
L60433 87008
" />
<path d="M57874 98819
L61220 98819
" />
<path d="M57874 87008
L61220 87008
" />
<path d="M60433 87008
L60202 87452
" />
<path d="M60433 87008
L60663 87452
" />
<path d="M60433 98819
L60202 98376
" />
<path d="M60433 98819
L60663 98376
" />
</g>
<g style="fill:#000000; fill-opacity:0.0; 
stroke:#000000; stroke-width:59.0551; stroke-opacity:1; 
stroke-linecap:round; stroke-linejoin:round;">
<path d="M24606 98819
L24606 87008
" />
<path d="M56102 98819
L24606 98819
" />
<path d="M56102 87008
L56102 98819
" />
<path d="M56102 87008
L24606 87008
" />
</g>
<g style="fill:#000000; fill-opacity:0.0; 
stroke:#000000; stroke-width:19.685; stroke-opacity:1; 
stroke-linecap:round; stroke-linejoin:round;">
</g>
<g style="fill:#000000; fill-opacity:1.0; 
stroke:#000000; stroke-width:19.685; stroke-opacity:1; 
stroke-linecap:round; stroke-linejoin:round;">
<circle cx="50696.9" cy="91614.6" r="290.157" /> 
<circle cx="49696.9" cy="91614.6" r="290.157" /> 
<circle cx="49696.9" cy="90827.6" r="290.157" /> 
<circle cx="50696.9" cy="90827.6" r="290.157" /> 
<circle cx="52558.9" cy="89764.6" r="521.657" /> 
<circle cx="47834.9" cy="89764.6" r="521.657" /> 
<polyline style="fill-rule:evenodd;"
points="38804,97706
38804,97176
38274,97176
38274,97706
38804,97706
" /> 
<circle cx="37539.4" cy="97441.8" r="265.157" /> 
<circle cx="36539.4" cy="97441.8" r="265.157" /> 
<circle cx="35539.4" cy="97441.8" r="265.157" /> 
<circle cx="34539.4" cy="97441.8" r="265.157" /> 
<circle cx="33539.4" cy="97441.8" r="265.157" /> 
<circle cx="32539.4" cy="97441.8" r="265.157" /> 
<circle cx="31539.4" cy="97441.8" r="265.157" /> 
<circle cx="51255.9" cy="97441.8" r="265.157" /> 
<circle cx="54255.9" cy="97441.8" r="265.157" /> 
<circle cx="29133.9" cy="95398.5" r="265.157" /> 
<circle cx="29133.9" cy="92398.5" r="265.157" /> 
<circle cx="27755.9" cy="95398.5" r="265.157" /> 
<circle cx="27755.9" cy="92398.5" r="265.157" /> 
<polyline style="fill-rule:evenodd;"
points="32355,90065
32355,90645
32935,90645
32935,90065
32355,90065
" /> 
<circle cx="33645.7" cy="90355.2" r="290.157" /> 
<circle cx="34645.7" cy="90355.2" r="290.157" /> 
<circle cx="35645.7" cy="90355.2" r="290.157" /> 
<circle cx="36645.7" cy="90355.2" r="290.157" /> 
<polyline style="fill-rule:evenodd;"
points="40245,97151
40245,97731
40825,97731
40825,97151
40245,97151
" /> 
<circle cx="41535.4" cy="97441.8" r="290.157" /> 
<circle cx="42535.4" cy="97441.8" r="290.157" /> 
<polyline style="fill-rule:evenodd;"
points="51284,95582
51864,95582
51864,95002
51284,95002
51284,95582
" /> 
<circle cx="51574.8" cy="94292.2" r="290.157" /> 
<circle cx="51574.8" cy="93292.2" r="290.157" /> 
<polyline style="fill-rule:evenodd;"
points="45172,89565
44591,89565
44591,90145
45172,90145
45172,89565
" /> 
<circle cx="44881.9" cy="90855.2" r="290.157" /> 
<polyline style="fill-rule:evenodd;"
points="43597,89565
43016,89565
43016,90145
43597,90145
43597,89565
" /> 
<circle cx="43307.1" cy="90855.2" r="290.157" /> 
<circle cx="48515.7" cy="97441.8" r="320.157" /> 
<circle cx="49515.7" cy="97441.8" r="320.157" /> 
<circle cx="28043.3" cy="97245" r="320.157" /> 
<circle cx="29043.3" cy="97245" r="320.157" /> 
</g>
<g style="fill:#000000; fill-opacity:1.0; 
stroke:#000000; stroke-width:591; stroke-opacity:1; 
stroke-linecap:round; stroke-linejoin:round;">
<path d="M31492 92536
L31492 92261
" />
<path d="M32492 92536
L32492 92261
" />
<path d="M33492 92536
L33492 92261
" />
<path d="M34492 92536
L34492 92261
" />
<path d="M35492 92536
L35492 92261
" />
<path d="M36492 92536
L36492 92261
" />
<path d="M37492 92536
L37492 92261
" />
<path d="M38492 92536
L38492 92261
" />
<path d="M39492 92536
L39492 92261
" />
<path d="M40492 92536
L40492 92261
" />
<path d="M41492 92536
L41492 92261
" />
<path d="M42492 92536
L42492 92261
" />
<path d="M43492 92536
L43492 92261
" />
<path d="M44492 92536
L44492 92261
" />
<path d="M44492 95536
L44492 95261
" />
<path d="M43492 95536
L43492 95261
" />
<path d="M42492 95536
L42492 95261
" />
<path d="M41492 95536
L41492 95261
" />
<path d="M40492 95536
L40492 95261
" />
<path d="M39492 95536
L39492 95261
" />
<path d="M38492 95536
L38492 95261
" />
<path d="M37492 95536
L37492 95261
" />
<path d="M36492 95536
L36492 95261
" />
<path d="M35492 95536
L35492 95261
" />
<path d="M34492 95536
L34492 95261
" />
<path d="M33492 95536
L33492 95261
" />
<path d="M32492 95536
L32492 95261
" />
<path d="M31492 95536
L31492 95261
" />
</g>
<g style="fill:#000000; fill-opacity:1.0; 
stroke:#000000; stroke-width:19.685; stroke-opacity:1; 
stroke-linecap:round; stroke-linejoin:round;">
<circle cx="30708.7" cy="88189.8" r="334.646" /> 
<circle cx="30708.7" cy="90158.3" r="334.646" /> 
<circle cx="39157.5" cy="90355.2" r="383.657" /> 
<circle cx="41157.5" cy="90355.2" r="383.657" /> 
<circle cx="46456.7" cy="90961.5" r="265.157" /> 
<circle cx="46456.7" cy="88961.5" r="265.157" /> 
<circle cx="38992.1" cy="88189.8" r="265.157" /> 
<circle cx="36992.1" cy="88189.8" r="265.157" /> 
<circle cx="41322.8" cy="88189.8" r="265.157" /> 
<circle cx="43322.8" cy="88189.8" r="265.157" /> 
<circle cx="25393.7" cy="90174.1" r="265.157" /> 
<circle cx="25393.7" cy="88174.1" r="265.157" /> 
<polyline style="fill-rule:evenodd;"
points="27097,89939
27627,89939
27627,89408
27097,89408
27097,89939
" /> 
<circle cx="27362.2" cy="88674.1" r="265.157" /> 
<polyline style="fill-rule:evenodd;"
points="55017,88274
54037,88274
54037,89254
55017,89254
55017,88274
" /> 
<circle cx="54527.6" cy="90764.6" r="490.157" /> 
</g>
<g style="fill:#000000; fill-opacity:1.0; 
stroke:#000000; stroke-width:687; stroke-opacity:1; 
stroke-linecap:round; stroke-linejoin:round;">
<path d="M54182 95292
L54479 95292
" />
<path d="M54182 94292
L54479 94292
" />
<path d="M54182 93292
L54479 93292
" />
</g>
<g style="fill:#000000; fill-opacity:1.0; 
stroke:#000000; stroke-width:393.701; stroke-opacity:1; 
stroke-linecap:round; stroke-linejoin:round;">
<path d="M32492 92398
L32492 90508
" />
<path d="M32492 90508
L32645 90355
" />
<path d="M33492 92398
L33492 90508
" />
<path d="M33492 90508
L33645 90355
" />
<path d="M34492 92398
L34492 90508
" />
<path d="M34492 90508
L34645 90355
" />
<path d="M35492 92398
L35492 90508
" />
<path d="M35492 90508
L35645 90355
" />
<path d="M37492 92398
L37492 91201
" />
<path d="M37492 91201
L36645 90355
" />
<path d="M38492 95398
L38492 97394
" />
<path d="M38492 97394
L38539 97441
" />
<path d="M37492 95398
L37492 97394
" />
<path d="M37492 97394
L37539 97441
" />
<path d="M36492 95398
L36492 97394
" />
<path d="M36492 97394
L36539 97441
" />
<path d="M35492 95398
L35492 97394
" />
<path d="M35492 97394
L35539 97441
" />
<path d="M34492 95398
L34492 97394
" />
<path d="M34492 97394
L34539 97441
" />
<path d="M33492 95398
L33492 97394
" />
<path d="M33492 97394
L33539 97441
" />
<path d="M32492 95398
L32492 97394
" />
<path d="M32492 97394
L32539 97441
" />
<path d="M31492 95398
L31492 97394
" />
<path d="M31492 97394
L31539 97441
" />
<path d="M42492 92398
L42492 91670
" />
<path d="M42492 91670
L43307 90855
" />
<path d="M43492 92398
L43492 92244
" />
<path d="M43492 92244
L44881 90855
" />
<path d="M41492 95398
L41492 97398
" />
<path d="M41492 97398
L41535 97441
" />
<path d="M42492 95398
L42492 97398
" />
<path d="M42492 97398
L42535 97441
" />
<path d="M43492 95398
L43492 94894
" />
<path d="M48543 90827
L49696 90827
" />
<path d="M48031 91339
L48543 90827
" />
<path d="M48031 92520
L48031 91339
" />
<path d="M46653 93898
L48031 92520
" />
<path d="M44488 93898
L46653 93898
" />
<path d="M43492 94894
L44488 93898
" />
<path d="M49696 91614
L49696 93807
" />
<path d="M48106 95398
L44492 95398
" />
<path d="M49696 93807
L48106 95398
" />
<path d="M54255 97441
L55314 97441
" />
<path d="M55708 97048
L55708 93898
" />
<path d="M55314 97441
L55708 97048
" />
<path d="M54527 88764
L54527 88780
" />
<path d="M55314 94292
L54330 94292
" />
<path d="M55708 93898
L55314 94292
" />
<path d="M55708 89961
L55708 93898
" />
<path d="M54527 88780
L55708 89961
" />
<path d="M50696 90827
L50696 87205
" />
<path d="M50696 87205
L50787 87205
" />
<path d="M46456 87205
L50787 87205
" />
<path d="M50787 87205
L52968 87205
" />
<path d="M52968 87205
L54527 88764
" />
<path d="M40492 95398
L40492 97398
" />
<path d="M40492 97398
L40535 97441
" />
<path d="M43322 88189
L43322 87205
" />
<path d="M43322 87205
L43307 87205
" />
<path d="M36992 88189
L36992 87205
" />
<path d="M36992 87205
L37007 87205
" />
<path d="M38492 92398
L38492 91248
" />
<path d="M37598 88796
L36992 88189
" />
<path d="M37598 90355
L37598 88796
" />
<path d="M38492 91248
L37598 90355
" />
<path d="M30708 88189
L30708 87205
" />
<path d="M27362 88674
L27362 87205
" />
<path d="M31692 87205
L30708 87205
" />
<path d="M37007 87205
L31692 87205
" />
<path d="M30708 87205
L27362 87205
" />
<path d="M27362 87205
L26181 87205
" />
<path d="M25393 87992
L25393 88174
" />
<path d="M26181 87205
L25393 87992
" />
<path d="M46456 87205
L46456 88961
" />
<path d="M39566 87205
L37007 87205
" />
<path d="M46456 87205
L43307 87205
" />
<path d="M43307 87205
L39566 87205
" />
<path d="M46456 88961
L45775 88961
" />
<path d="M45775 88961
L44881 89855
" />
<path d="M43307 89855
L44881 89855
" />
<path d="M38492 92398
L38492 93595
" />
<path d="M40492 94233
L40492 95398
" />
<path d="M39960 93701
L40492 94233
" />
<path d="M38598 93701
L39960 93701
" />
<path d="M38492 93595
L38598 93701
" />
<path d="M36492 92398
L36492 93626
" />
<path d="M30437 93701
L29133 92398
" />
<path d="M36417 93701
L30437 93701
" />
<path d="M36492 93626
L36417 93701
" />
<path d="M29043 97244
L29043 95489
" />
<path d="M29043 95489
L29133 95398
" />
<path d="M54527 90764
L54527 93095
" />
<path d="M54527 93095
L54330 93292
" />
<path d="M54330 95292
L51574 95292
" />
<path d="M51574 93292
L51574 92492
" />
<path d="M51574 92492
L50696 91614
" />
<path d="M27755 92398
L27755 91733
" />
<path d="M29330 90158
L30708 90158
" />
<path d="M27755 91733
L29330 90158
" />
<path d="M31492 92398
L31492 90941
" />
<path d="M31492 90941
L30708 90158
" />
<path d="M44492 92398
L45019 92398
" />
<path d="M45019 92398
L46456 90961
" />
<path d="M39157 90355
L39157 88355
" />
<path d="M39157 88355
L38992 88189
" />
<path d="M39492 92398
L39492 90689
" />
<path d="M39492 90689
L39157 90355
" />
<path d="M41157 90355
L41157 88355
" />
<path d="M41157 88355
L41322 88189
" />
<path d="M40492 92398
L40492 91020
" />
<path d="M40492 91020
L41157 90355
" />
<path d="M51255 97441
L49515 97441
" />
<path d="M39173 98426
L47531 98426
" />
<path d="M47531 98426
L48515 97441
" />
<path d="M51574 94292
L50393 94292
" />
<path d="M48515 96170
L48515 97441
" />
<path d="M50393 94292
L48515 96170
" />
<path d="M25393 90174
L25393 93036
" />
<path d="M25393 93036
L27755 95398
" />
<path d="M27362 89674
L25893 89674
" />
<path d="M25893 89674
L25393 90174
" />
<path d="M39492 95398
L39492 98351
" />
<path d="M28043 98122
L28043 97244
" />
<path d="M28346 98426
L28043 98122
" />
<path d="M39417 98426
L39173 98426
" />
<path d="M39173 98426
L28346 98426
" />
<path d="M39492 98351
L39417 98426
" />
<path d="M27755 95398
L27755 96957
" />
<path d="M27755 96957
L28043 97244
" />
</g>
<g style="fill:#FFFFFF; fill-opacity:1.0; 
stroke:#FFFFFF; stroke-width:19.685; stroke-opacity:1; 
stroke-linecap:round; stroke-linejoin:round;">
<circle cx="50696.9" cy="91614.6" r="150.157" /> 
<circle cx="49696.9" cy="91614.6" r="150.157" /> 
<circle cx="49696.9" cy="90827.6" r="150.157" /> 
<circle cx="50696.9" cy="90827.6" r="150.157" /> 
<circle cx="52558.9" cy="89764.6" r="443.157" /> 
<circle cx="47834.9" cy="89764.6" r="443.157" /> 
<circle cx="38539.4" cy="97441.8" r="150.157" /> 
<circle cx="37539.4" cy="97441.8" r="150.157" /> 
<circle cx="36539.4" cy="97441.8" r="150.157" /> 
<circle cx="35539.4" cy="97441.8" r="150.157" /> 
<circle cx="34539.4" cy="97441.8" r="150.157" /> 
<circle cx="33539.4" cy="97441.8" r="150.157" /> 
<circle cx="32539.4" cy="97441.8" r="150.157" /> 
<circle cx="31539.4" cy="97441.8" r="150.157" /> 
<circle cx="51255.9" cy="97441.8" r="150.157" /> 
<circle cx="54255.9" cy="97441.8" r="150.157" /> 
<circle cx="29133.9" cy="95398.5" r="150.157" /> 
<circle cx="29133.9" cy="92398.5" r="150.157" /> 
<circle cx="27755.9" cy="95398.5" r="150.157" /> 
<circle cx="27755.9" cy="92398.5" r="150.157" /> 
<circle cx="32645.7" cy="90355.2" r="190.157" /> 
<circle cx="33645.7" cy="90355.2" r="190.157" /> 
<circle cx="34645.7" cy="90355.2" r="190.157" /> 
<circle cx="35645.7" cy="90355.2" r="190.157" /> 
<circle cx="36645.7" cy="90355.2" r="190.157" /> 
<circle cx="40535.4" cy="97441.8" r="190.157" /> 
<circle cx="41535.4" cy="97441.8" r="190.157" /> 
<circle cx="42535.4" cy="97441.8" r="190.157" /> 
<circle cx="51574.8" cy="95292.2" r="190.157" /> 
<circle cx="51574.8" cy="94292.2" r="190.157" /> 
<circle cx="51574.8" cy="93292.2" r="190.157" /> 
<circle cx="44881.9" cy="89855.2" r="190.157" /> 
<circle cx="44881.9" cy="90855.2" r="190.157" /> 
<circle cx="43307.1" cy="89855.2" r="190.157" /> 
<circle cx="43307.1" cy="90855.2" r="190.157" /> 
<circle cx="48515.7" cy="97441.8" r="150.157" /> 
<circle cx="49515.7" cy="97441.8" r="150.157" /> 
<circle cx="28043.3" cy="97245" r="150.157" /> 
<circle cx="29043.3" cy="97245" r="150.157" /> 
<circle cx="31492.1" cy="92398.5" r="147.657" /> 
<circle cx="32492.1" cy="92398.5" r="147.657" /> 
<circle cx="33492.1" cy="92398.5" r="147.657" /> 
<circle cx="34492.1" cy="92398.5" r="147.657" /> 
<circle cx="35492.1" cy="92398.5" r="147.657" /> 
<circle cx="36492.1" cy="92398.5" r="147.657" /> 
<circle cx="37492.1" cy="92398.5" r="147.657" /> 
<circle cx="38492.1" cy="92398.5" r="147.657" /> 
<circle cx="39492.1" cy="92398.5" r="147.657" /> 
<circle cx="40492.1" cy="92398.5" r="147.657" /> 
<circle cx="41492.1" cy="92398.5" r="147.657" /> 
<circle cx="42492.1" cy="92398.5" r="147.657" /> 
<circle cx="43492.1" cy="92398.5" r="147.657" /> 
<circle cx="44492.1" cy="92398.5" r="147.657" /> 
<circle cx="44492.1" cy="95398.5" r="147.657" /> 
<circle cx="43492.1" cy="95398.5" r="147.657" /> 
<circle cx="42492.1" cy="95398.5" r="147.657" /> 
<circle cx="41492.1" cy="95398.5" r="147.657" /> 
<circle cx="40492.1" cy="95398.5" r="147.657" /> 
<circle cx="39492.1" cy="95398.5" r="147.657" /> 
<circle cx="38492.1" cy="95398.5" r="147.657" /> 
<circle cx="37492.1" cy="95398.5" r="147.657" /> 
<circle cx="36492.1" cy="95398.5" r="147.657" /> 
<circle cx="35492.1" cy="95398.5" r="147.657" /> 
<circle cx="34492.1" cy="95398.5" r="147.657" /> 
<circle cx="33492.1" cy="95398.5" r="147.657" /> 
<circle cx="32492.1" cy="95398.5" r="147.657" /> 
<circle cx="31492.1" cy="95398.5" r="147.657" /> 
<circle cx="30708.7" cy="88189.8" r="187.008" /> 
<circle cx="30708.7" cy="90158.3" r="187.008" /> 
<circle cx="39157.5" cy="90355.2" r="147.657" /> 
<circle cx="41157.5" cy="90355.2" r="147.657" /> 
<circle cx="46456.7" cy="90961.5" r="150.157" /> 
<circle cx="46456.7" cy="88961.5" r="150.157" /> 
<circle cx="38992.1" cy="88189.8" r="150.157" /> 
<circle cx="36992.1" cy="88189.8" r="150.157" /> 
<circle cx="41322.8" cy="88189.8" r="150.157" /> 
<circle cx="43322.8" cy="88189.8" r="150.157" /> 
<circle cx="25393.7" cy="90174.1" r="150.157" /> 
<circle cx="25393.7" cy="88174.1" r="150.157" /> 
<circle cx="27362.2" cy="89674.1" r="150.157" /> 
<circle cx="27362.2" cy="88674.1" r="150.157" /> 
<circle cx="54527.6" cy="88764.6" r="290.157" /> 
<circle cx="54527.6" cy="90764.6" r="290.157" /> 
<circle cx="54330.7" cy="95292.2" r="236.157" /> 
<circle cx="54330.7" cy="94292.2" r="236.157" /> 
<circle cx="54330.7" cy="93292.2" r="236.157" /> 
</g> 
</svg>
